<?xml version="1.0" encoding="UTF-8"?>
<!DOCTYPE svg PUBLIC "-//W3C//DTD SVG 1.1//EN" "http://www.w3.org/Graphics/SVG/1.1/DTD/svg11.dtd">
<!-- Creator: CorelDRAW X6 -->
<svg xmlns="http://www.w3.org/2000/svg" xml:space="preserve" width="200mm" height="200mm" version="1.1" style="shape-rendering:geometricPrecision; text-rendering:geometricPrecision; image-rendering:optimizeQuality; fill-rule:evenodd; clip-rule:evenodd"
viewBox="0 0 19918 19918"
 xmlns:xlink="http://www.w3.org/1999/xlink">
 <defs>
  <style type="text/css">
   <![CDATA[
    .fil0 {fill:#8950FC}
   ]]>
  </style>
 </defs>
 <g id="Layer_x0020_1">
  <metadata id="CorelCorpID_0Corel-Layer"/>
  <g id="_1100510640">
   <path class="fil0" d="M13047 17638c-39,-16 -489,-6 -596,-6 -244,0 -196,62 -196,-467 0,-78 0,-156 0,-234 0,-72 -13,-164 22,-211 53,-32 738,19 769,-13 32,-33 -1,-584 10,-695 9,-91 57,-86 154,-85 196,2 550,-8 724,0 101,5 80,63 80,151l-1 586c2,67 12,55 76,52 96,-5 680,-11 708,13 42,37 22,557 22,686 0,49 16,186 -24,207 -29,15 -612,12 -715,8 -61,-2 -73,-11 -70,51 2,41 3,77 3,118 0,156 -1,312 0,468 2,196 -13,156 -320,158 -161,1 -322,-1 -482,1 -197,3 -154,-59 -154,-318l-4 -464c-1,-2 -2,-5 -4,-7zm-5589 -6557c31,6 74,55 133,97 41,30 78,64 129,100 34,24 1,12 62,50l351 228c44,19 33,29 67,43 20,8 24,3 45,15 14,8 19,18 32,26l160 70c44,23 -1,16 85,38 27,7 58,27 73,51 99,15 49,29 157,55 44,10 26,9 55,23 38,19 81,15 122,25 52,12 59,39 104,44 156,20 103,35 256,47 86,7 183,27 267,42 77,14 617,23 728,-14 49,-16 54,-28 124,-29 69,-1 82,9 128,-24 43,-32 71,-18 129,-26 54,-7 50,-35 105,-41 102,-12 44,5 120,-33 59,-30 51,7 115,-38 45,-32 70,-12 112,-41 70,-49 62,-18 102,-43 25,-15 10,-19 46,-31 35,-12 26,3 56,-20 88,-68 41,-12 99,-54 30,-22 19,-11 49,-28 15,-8 30,-24 43,-32 24,-14 29,-7 50,-19 32,-17 7,-20 40,-37 55,-28 -9,27 101,-52 26,-19 22,-24 39,-37 26,-21 28,-8 56,-21l87 -66c112,-104 60,-46 125,-96 19,-15 28,-17 46,-30 46,-36 89,-89 115,-115 17,-17 -10,-7 21,-13 62,-10 55,65 23,98 -34,35 -24,35 -27,91 -40,30 -36,10 -49,68 -14,60 -36,29 -48,77 -7,29 5,24 -12,49 -12,18 -23,10 -34,32 -22,43 19,16 -41,87 -26,31 -5,47 -38,88 -37,46 -11,45 -34,92 -23,45 -8,-16 -43,82 -20,55 -38,20 -34,94 36,-1 32,-4 54,-17 13,-36 23,-36 55,-50 39,-18 32,-33 67,-41 47,-11 44,6 84,-23 38,-28 17,-23 84,-25 95,-4 92,-42 164,-47 84,-7 129,-3 208,-17 153,-27 242,-30 412,-31 115,-1 335,-21 431,10 10,60 6,86 -17,133 -23,46 -20,82 -38,121 -13,29 -18,25 -28,48 -10,22 -9,32 -22,54 -20,33 -43,77 -62,99 -19,23 -15,20 -29,47 -48,94 -258,301 -344,368 -68,53 -113,96 -185,139l-138 98c-24,14 -30,6 -54,24 -34,25 3,15 -42,32 -102,39 -23,24 -110,53 -44,15 -27,16 -56,31 -22,11 -34,8 -57,20 -27,14 -22,21 -51,33 -23,9 -36,8 -58,19 -23,11 -28,20 -48,28 -20,8 -40,8 -61,17 -27,11 -23,19 -53,31 -20,8 -37,8 -59,16 -33,11 -22,14 -51,27 -52,24 -65,9 -120,42 -53,32 -71,9 -128,29 -58,20 7,18 -125,38 -60,9 -67,32 -121,41 -133,21 -126,-14 -199,116l-64 97c-18,25 -13,18 -29,47 -12,22 -22,27 -36,48 -12,19 -13,32 -25,51l-66 93c-13,18 -15,32 -27,50 -10,14 -23,25 -33,41l-59 104c-13,20 -25,25 -36,48 -12,24 -25,71 -71,98l-98 173c-12,18 -18,18 -30,37 -10,16 -12,27 -24,44 -18,28 -39,63 -58,85l-162 252c-8,12 -47,78 -49,86 -1,55 -23,31 -51,103 -23,60 -15,6 -55,85l-172 268c-15,20 -12,24 -23,44 -13,23 -20,21 -34,43 -28,43 -58,121 -95,131 -26,7 -58,1 -84,-3 -18,-27 -24,-55 -53,-72l6 -31c-18,-10 -3,1 -18,-16 -43,-50 -66,-104 -106,-164l-59 -93c-38,-46 -82,-131 -93,-143 -62,-71 -14,-33 -59,-92l-88 -142c-19,-22 -17,-10 -32,-42l-165 -260c-9,-11 -11,-10 -19,-22 -11,-18 -10,-33 -23,-53 -15,-24 -20,-18 -33,-44 -42,-86 -86,-124 -95,-139 -11,-18 -7,-33 -23,-54 -25,-34 -10,2 -33,-43 -18,-36 -11,-19 -32,-44 -20,-24 -10,-25 -25,-51 -15,-26 -22,-19 -35,-41 -12,-21 -7,-32 -27,-59 -14,-20 -18,-18 -32,-43 -18,-29 -17,-25 -32,-46 -15,-21 -13,-30 -25,-50 -16,-27 -20,-18 -34,-43l-56 -97c-14,-24 -21,-29 -31,-45 -13,-20 -14,-35 -29,-55 -15,-20 -20,-16 -34,-42 -91,-162 -115,-69 -251,-133 -59,-27 -80,-14 -132,-31 -52,-17 -47,-32 -120,-38 -85,-7 -52,-26 -107,-43 -70,-22 -28,15 -114,-39 -48,-30 -28,7 -119,-45 -45,-26 -52,-7 -108,-45 -28,-18 -28,-13 -59,-21 -39,-11 -22,-13 -52,-31 -25,-15 -33,-11 -58,-21 -26,-10 -23,-17 -43,-30 -24,-16 -51,-14 -79,-41 -2,-2 -7,-7 -8,-9 -12,-14 -3,0 -10,-15 -44,16 -49,-6 -76,-27 -23,-18 -42,-17 -67,-35 -25,-17 -46,-27 -63,-39l-242 -184c-108,-79 -180,-156 -263,-262 -35,-44 -70,-71 -93,-117 -27,-56 -81,-65 -29,-143 45,-6 336,19 393,27 64,9 83,27 173,33 84,5 117,10 186,33 61,20 125,11 184,31 35,12 33,20 74,28 32,6 62,3 94,16 28,11 32,22 72,31 160,37 42,24 162,54 29,7 50,22 61,47 79,-2 82,52 153,76 -7,-65 -24,-52 -43,-90 -21,-42 12,0 -40,-86 -11,-17 -46,-129 -103,-218 -16,-25 -7,-20 -16,-51 -16,-54 -29,-19 -45,-88 -15,-64 -23,-44 -42,-87 -8,-19 -9,-36 -16,-52 -7,-16 -18,-26 -26,-40 -21,-34 -11,-55 -37,-90 -41,-55 -11,-37 -37,-89 -21,-42 -11,15 -41,-83l-130 -268c-22,-39 -8,-46 -39,-89 -11,-15 -20,-30 -23,-50 -9,-58 28,-110 93,-41 21,23 42,32 55,64zm5775 -423c50,-6 45,7 74,27 31,21 36,8 63,32 46,40 15,14 67,36l111 85c11,7 21,10 32,18 32,23 -1,12 52,38l133 116c16,16 32,30 48,46l231 252c11,15 27,48 34,68l12 16c2,1 5,1 6,5l39 41c22,26 12,24 30,54 14,24 25,25 36,48l61 110c16,25 24,18 36,45 11,26 4,37 24,63 34,42 16,-12 31,50l146 363c15,67 25,85 41,136 13,42 15,94 29,141 17,54 24,73 28,139 5,83 33,50 92,76 23,10 24,18 58,29 65,22 120,46 176,85 23,16 39,16 59,28l237 204c26,24 87,89 107,121 21,33 31,32 51,67 18,32 37,45 46,69l27 36c53,75 11,43 64,121 24,36 13,55 30,96 13,31 30,48 36,87 60,441 57,271 -2,665 -7,44 -21,54 -35,90 -12,30 -13,62 -32,94 -47,77 -20,51 -39,88 -10,19 -14,17 -26,33 -29,40 4,21 -46,80 -20,24 -9,17 -25,44 -25,41 -192,220 -241,257 -50,38 -88,81 -148,110 -32,16 -125,79 -164,91 -60,19 -47,24 -84,41l-190 57c-234,30 -306,75 -583,12 -35,-8 -85,-8 -113,-16 -26,-8 -49,-27 -78,-35 -54,-16 -143,-42 -189,-71 -20,-12 -9,-12 -36,-25l-195 -119c-63,-48 -59,-57 -101,-93l-150 -156c-52,-64 -48,-72 -73,-112 -14,-22 -17,-15 -30,-38 -55,-94 -70,-161 -79,-176 -23,-40 -53,-142 -66,-187 -52,-182 -35,-488 23,-666 12,-36 11,-69 26,-103 20,-43 22,-28 38,-89 14,-53 25,-31 44,-75l153 -227c40,-52 206,-227 278,-238l107 -63c39,-30 21,-13 65,-31 28,-12 21,-24 56,-37 23,-9 44,-9 68,-18 68,-26 27,-23 137,-49 97,-22 83,-43 46,-151 -13,-39 -15,-87 -30,-121 -36,-83 -11,-3 -41,-111 -17,-61 -14,1 -48,-112 -14,-44 -17,-10 -50,-101 -11,-29 -15,-25 -29,-47 -16,-24 -13,-34 -26,-58 -11,-20 -18,-19 -32,-45 -56,-102 -153,-244 -229,-321 -72,-72 -204,-201 -282,-261 -25,-19 -29,-11 -55,-30l-87 -66c-54,-37 -12,21 -99,-55 -61,1 -59,8 -93,-26 -34,-34 -40,-15 -92,-23 -15,-2 -109,-41 -103,-110 4,-49 21,-44 37,-70 19,-31 8,-63 14,-97 9,-47 30,-31 42,-65 10,-28 -1,-62 10,-92 14,-40 35,-18 42,-69 5,-33 -7,-69 15,-93 29,-32 138,-22 184,-8 39,12 22,32 68,41 67,13 36,-9 83,29 44,35 87,4 139,74zm-7986 1525c-14,56 -10,51 -40,93 -20,28 -21,65 -47,105 -26,41 -15,73 -33,119 -19,48 -20,68 21,97 69,16 159,109 187,158 25,43 36,38 52,70 40,79 36,86 96,131 42,31 33,14 77,33 60,26 218,137 281,179 55,37 237,183 288,238 26,28 22,0 18,39 2,1 5,0 6,3l22 13c8,6 19,18 26,25l295 357 259 390c9,18 3,16 16,36 10,15 15,13 24,26 16,23 9,40 27,66 25,36 21,2 34,56 11,47 8,29 33,63 19,24 63,142 64,213 1,61 7,117 -21,163 -49,79 14,66 24,131 16,109 34,55 47,141l96 285c14,88 14,78 40,147 18,47 9,98 31,153 28,67 20,73 31,154 8,61 30,84 38,147 7,58 9,107 15,167l34 149c16,78 8,279 8,369 0,81 3,481 -7,546 -7,49 -23,102 -32,151 -10,54 -4,105 -20,165 -8,30 -20,37 -29,60 -10,24 -7,50 -17,76 -9,24 -24,35 -35,57 -15,29 -10,36 -29,64 -35,53 -47,97 -88,108 -2,19 10,12 -55,72 -66,61 -94,70 -161,105 -40,21 -14,27 -86,49 -37,11 -56,27 -90,38 -32,10 -84,7 -115,21 -75,35 -45,46 -184,91 -130,42 -52,29 -237,29 -90,0 -477,12 -533,-12 -14,-6 -31,-18 -44,-22 -19,-6 -37,-5 -57,-14 -96,-43 -278,-253 -202,-440 43,-105 101,-213 212,-253 37,-13 21,-10 45,-24 48,-30 745,-24 789,-11 31,9 56,40 94,30 40,-10 36,-35 99,-36 2,-27 6,-23 34,-57l22 -28c9,-18 5,-17 6,-39 1,-92 14,-105 28,-176 22,-110 18,-624 15,-768 -1,-49 -15,-127 -24,-173 -27,-133 -14,-162 -56,-339 -12,-49 -15,-113 -32,-169 -7,-23 -19,-44 -25,-65 -20,-67 14,-56 -41,-159 -6,-11 3,17 -9,-17l-12 -66c-7,-29 -19,-37 -30,-61 -12,-29 -10,-53 -20,-82 -9,-28 -24,-39 -33,-67 -16,-45 -2,-51 -30,-97l-28 -48c-16,-21 -34,-29 -57,-41 -23,-12 -42,-25 -62,-42l-26 -26c-70,-73 -82,-141 -133,-213 -16,-24 -16,-47 -32,-71l-31 -65c-10,-32 -63,-92 -81,-118l-74 -121c-12,-16 -10,-6 -24,-27 -114,-168 -338,-428 -521,-538 -30,-18 -33,-29 -59,-41 -51,-25 -14,6 -66,-37 -20,-17 -48,-14 -76,-26 -23,-9 -43,-26 -68,-32 -125,-29 -258,-20 -382,-4 -46,6 -42,13 -71,30 -30,17 -49,13 -76,26 -28,13 -22,20 -62,38l-177 122c-22,20 -34,25 -56,46l-457 543c-22,27 -14,44 -33,68 -9,11 -8,3 -24,27 -9,14 -11,22 -17,33l-72 122c-19,30 -11,43 -31,71 -25,36 -18,17 -34,68l-73 128c-36,34 -110,120 -166,143 -69,28 -37,9 -68,72 -5,9 -15,24 -19,32 -15,30 -12,49 -20,80 -9,32 -23,40 -33,67 -11,30 -8,58 -18,84 -6,17 -22,51 -29,71 -24,75 13,40 -44,159 -16,34 -18,126 -28,167 -8,35 -17,50 -25,79 -7,28 -10,58 -13,86 -7,78 -7,100 -25,169 -35,130 -33,844 -15,956 8,48 28,99 36,154 11,70 9,109 53,152l150 55c66,-5 1,-39 164,-40 78,-1 638,-12 699,14 13,6 21,10 34,18l31 23c53,19 133,114 170,174 39,63 38,232 13,303 -10,27 -28,43 -45,73 -64,115 -160,128 -209,150 -47,21 -15,27 -89,28l-604 0c-51,-1 -60,-4 -95,-25 -36,-21 -50,-13 -83,-35 -146,-100 -200,-60 -275,-85 -40,-14 4,-9 -85,-36 -65,-19 -14,-22 -70,-46 -86,-37 -143,-89 -206,-154l-103 -135 -71 -165c-15,-74 -41,-104 -47,-189 -5,-77 -29,-123 -34,-200 -6,-78 -9,-146 -10,-226 -2,-156 -1,-312 -1,-468 0,-147 6,-306 37,-436 18,-76 4,-126 31,-202 11,-30 22,-58 26,-91 26,-192 14,-71 43,-194 8,-36 6,-70 15,-103 9,-36 24,-45 35,-83 9,-32 7,-68 20,-98 17,-40 28,-21 38,-76 24,-125 18,-41 54,-184 13,-54 31,-46 42,-74 53,-142 -65,-302 80,-493l115 -231c4,-69 155,-261 194,-326 93,-155 121,-159 187,-257 30,-45 67,-97 113,-121 16,-26 56,-57 81,-83 118,-124 221,-238 373,-325l156 -107c26,-16 24,-21 50,-35l115 -54c21,-47 25,-28 41,-53 15,-24 9,-46 20,-66 12,-22 21,-10 38,-46 32,-65 144,-209 221,-220 78,-28 110,-84 123,-163 28,-165 33,-114 59,-244 11,-55 33,-45 46,-105 20,-88 89,-198 93,-213 7,-24 6,-34 21,-54 16,-21 19,-7 28,-40 4,-51 17,-44 36,-73 9,-13 10,-23 15,-33 12,-22 14,-18 27,-34 13,-16 41,-80 86,-126 35,-35 15,-17 41,-62 19,-33 1,-2 23,-26 13,-14 14,-21 25,-35 26,-35 74,-94 114,-111l153 -155c28,-28 54,-50 84,-77l79 -67c10,-44 11,-28 45,-56l108 -78c58,-30 83,-72 159,-104 5,-2 97,-68 174,-99 34,-14 24,-19 52,-33 25,-12 45,-12 69,-26 29,-17 16,-18 56,-29 115,-32 50,-36 127,-49 82,-14 73,-38 131,-47 162,-24 68,-21 148,-41 54,-13 110,-8 163,-19 67,-13 265,-59 323,-21 57,37 34,372 35,492 0,49 14,126 -30,147 -8,4 -291,49 -315,51 -81,6 -82,15 -146,39 -24,9 -51,8 -78,17 -23,8 -35,23 -53,31 -22,10 -49,9 -73,22 -91,49 -262,138 -336,199 -22,18 -24,18 -49,35 -74,50 -308,267 -367,346 -26,35 -48,72 -77,102 -81,84 -54,88 -113,157l-64 113c-24,58 -28,44 -44,51zm8512 -5692c33,55 -25,300 -35,360 -10,61 -9,124 -18,182 -10,58 -31,106 -37,165 -7,74 -9,111 -31,172 -20,56 -18,118 -34,167 -8,24 -20,43 -28,72 -6,21 -7,58 -11,90 -9,67 -40,89 -47,152 -15,133 -36,75 -47,166 -10,87 -38,82 -49,152 -10,67 -77,216 -103,304 -9,30 -25,44 -35,66 -11,26 -11,53 -23,77l-63 141c-22,35 -14,39 -26,76 -12,36 -24,23 -39,61l-49 101c-19,33 -9,21 -29,35 0,0 -32,63 -40,83 -22,52 -8,-9 -43,94 -6,19 -23,30 -49,86 -24,51 -49,24 -44,73 -3,70 -17,11 -42,80l-133 200c-16,16 -15,20 -25,35l-43 64c-16,28 -1,5 -22,29 -29,35 -49,102 -81,140 -37,45 -64,72 -101,119 -41,52 -17,-6 -113,107 -74,87 -93,120 -184,205 -22,21 -16,13 -39,22 -28,21 -45,39 -70,65 -23,24 -50,44 -74,70 -63,70 -106,91 -148,132 -12,12 -24,29 -39,37 -21,12 -24,5 -48,20 -92,56 -98,119 -159,130 -47,9 -19,-10 -50,19 -32,30 -35,28 -86,59 -18,11 -30,12 -46,23 -18,12 -22,22 -40,36 -119,89 -68,36 -141,72 -22,11 -21,14 -43,25 -30,15 -18,5 -42,26 -40,34 -54,21 -93,52 -56,45 -57,9 -119,27 -47,14 -10,38 -98,45 -82,7 -40,24 -94,35 -18,14 -26,14 -51,17 -85,11 -44,13 -95,36 -50,23 -99,-1 -158,29 -93,48 -219,25 -332,47 -113,22 -222,31 -354,23 -156,-10 -217,-29 -337,-37 -70,-5 -107,-6 -164,-28 -54,-22 -105,-15 -155,-34 -25,-10 -37,-21 -65,-28 -132,-33 -31,-3 -142,-46 -28,-11 -49,-11 -74,-20l-137 -53c-35,-28 -13,-16 -66,-31l-125 -61c-30,-22 -19,-19 -62,-34 -44,-15 -22,-16 -55,-37 -22,-14 -37,-10 -58,-27 -34,-26 -10,-14 -57,-37l-329 -232 -250 -217c-76,-64 -190,-196 -269,-281 -32,-35 -20,-15 -56,-38 -101,-64 -89,-124 -117,-162l-82 -104c-19,-28 -24,-18 -41,-50l-191 -276c-33,-59 -58,-84 -62,-123 -10,-16 -19,-26 -28,-41l-78 -142c-40,-61 -84,-173 -101,-194 -25,-33 -90,-180 -100,-195l-86 -200c-64,-111 -18,-36 -45,-107 -18,-47 -28,-20 -44,-98 -10,-49 -36,-60 -46,-104 -14,-61 -10,-59 -34,-111 -20,-43 -11,-76 -35,-117 -31,-51 -27,-31 -37,-104 -9,-75 -28,-63 -37,-108 -12,-60 -1,-66 -22,-123 -54,-143 -15,-72 -66,-228 -13,-40 -13,-85 -22,-129 -9,-46 -20,-73 -30,-115 -11,-46 -9,-90 -19,-131 -9,-39 -21,-69 -30,-113 -16,-85 -11,-174 -31,-254 -101,-409 44,-329 188,-349 53,-8 80,-19 123,-31 74,-19 86,0 248,-44 48,-13 73,-9 127,-18 47,-8 73,-22 120,-33 45,-11 93,-6 131,-16 30,-8 70,-32 116,-38 52,-7 83,-4 126,-19 151,-53 145,-21 238,-61 40,-17 77,-15 122,-24 47,-10 73,-26 112,-35 47,-11 88,-9 125,-28 47,-24 60,-23 121,-29 78,-8 56,-30 112,-40 68,-12 53,-5 109,-34 46,-23 76,-10 123,-32 88,-42 6,-9 109,-37 45,-12 32,-33 100,-44 64,-11 56,-26 106,-39 22,-6 43,-5 66,-12 31,-9 23,-15 44,-29 42,-27 54,-1 106,-40 43,-32 67,-19 110,-43 81,-46 57,-18 104,-41 107,-53 50,-11 159,-72 48,-27 25,9 101,-44l152 -62c65,-18 49,-33 102,-50 23,-8 9,1 32,-12 14,-8 7,-5 19,-15 22,-18 9,-15 44,-21 77,-12 332,-159 408,-185 29,-10 159,-92 186,-95l65 -52c52,-23 30,0 76,-36 910,-497 1308,260 2382,6 -11,101 -22,66 -39,111 -26,70 5,38 -40,103 -17,24 -11,25 -22,52 -15,35 -12,17 -34,42 -68,79 -48,73 -141,156 -34,30 -66,17 -81,69 40,23 82,4 212,19 62,7 107,28 173,34 71,7 151,4 219,13 62,8 114,26 180,35 65,8 141,4 208,14 61,10 102,31 170,35 72,4 335,13 373,72 34,52 -11,577 -46,653l-10 14zm-6048 -6005l-20 18c-41,26 -10,-5 -47,34l-468 308c-152,108 -393,322 -524,461 -22,24 -36,35 -58,61l-265 320c-29,45 -14,29 -50,68 -76,82 -45,83 -94,134 -57,61 -57,84 -97,142l-171 291c-19,42 -29,53 -56,55 1,24 -47,124 -65,154 -54,91 -12,55 -45,99 -15,20 -17,11 -27,39l-32 95c-3,60 -10,80 -36,117 -29,41 -13,68 -38,106 -38,59 -18,39 -38,106 -11,38 -30,35 -42,92 -12,60 -12,59 -39,104l-62 224c-9,65 -21,55 -36,99 -13,39 -10,82 -21,121 -13,45 -31,48 -37,105 -18,188 -39,86 -50,225 -9,101 -43,146 -49,242 -6,97 -33,146 -45,227 -14,94 -7,169 -31,257 -22,81 -22,159 -27,251 -5,94 -25,164 -34,251 -9,89 -10,175 -11,268 -4,304 -53,813 -22,1084 10,91 4,186 9,278 8,156 11,533 -6,682 -4,35 -15,74 -19,111 -10,86 -10,180 -14,267 -4,95 -20,156 -33,243 -13,81 -13,174 -21,258 -7,78 -26,68 -40,238 -13,156 -41,152 -47,237 -12,172 -37,150 -48,227 -6,46 -3,82 -19,124 -55,143 -16,136 -61,226 -22,44 -15,61 -25,112 -9,51 -28,58 -39,100 -15,56 -2,68 -28,117 -25,48 -19,56 -33,110 -11,43 -30,49 -40,95 -14,64 -12,53 -38,105 -18,36 -11,76 -30,104 -58,84 -18,41 -42,102 -7,18 -16,25 -25,41 -15,26 -7,25 -25,43 11,51 -8,17 -45,131 -14,44 -19,20 -36,58 -11,25 -5,43 -20,64 -21,29 -20,5 -36,59 -14,47 -4,20 -30,52 -19,23 -14,30 -29,55 -1,2 -2,4 -3,5l-8 10c-1,1 -3,3 -4,4l-21 27c-17,31 -1,20 -59,120 -22,37 -20,17 -38,53 -33,67 -26,45 -69,112l-185 247c-25,33 -57,67 -83,93 -107,107 -288,298 -423,376l-100 71c-30,24 -34,11 -53,32 13,9 -3,4 19,7 31,5 -13,3 43,-4l900 -26c19,-2 38,-6 59,-10 14,-3 13,-4 30,-3 61,3 48,75 35,94 -36,35 -66,15 -110,45 -45,31 -68,23 -103,49 -57,43 -20,-2 -99,54 -45,33 -11,-10 -95,50 -26,19 -26,8 -54,22 -25,13 -18,20 -44,34l-192 106c-29,15 -19,17 -42,34 -18,13 -23,10 -44,25l-138 92c-76,56 -317,225 -385,287 -32,29 -124,126 -166,131 -7,27 -50,56 -88,90 -1467,1352 -2257,1312 -2694,3739 -70,390 -33,665 -31,1056 1,111 27,211 45,317 11,67 0,93 27,159 24,59 14,91 29,157 7,33 19,37 29,63 13,31 7,45 15,79 9,40 20,30 34,56 10,19 11,54 19,74 12,34 23,31 37,55 15,25 8,45 21,71 12,25 20,16 35,56l62 126c8,14 8,9 18,25 58,94 208,270 279,330 39,33 224,188 261,205 57,27 149,95 180,94 66,3 44,25 103,42 286,82 3462,92 3735,89 182,-2 352,-20 534,-23 1663,-29 3362,-14 5029,-14 746,0 1493,0 2239,0 497,0 1170,-4 1661,23 385,21 710,26 1095,22 232,-3 325,-22 525,-31 169,-8 1415,-5 1566,-43 78,-20 164,-11 247,-28 45,-9 68,-22 106,-31 37,-9 91,-5 135,-15 37,-8 55,-27 100,-36 52,-10 68,-1 111,-25 53,-29 44,-18 108,-31 41,-8 55,-34 98,-43 79,-15 52,-25 97,-41 19,-7 34,-6 54,-15 24,-10 21,-16 42,-27 46,-24 -4,12 90,-45 18,-11 32,-12 49,-21 25,-13 23,-19 43,-32 1421,-860 1236,-3087 395,-4200 -916,-1211 -2449,-2156 -3191,-2780l-274 -162c-57,-21 -30,-19 -68,-41 -30,-17 -37,-8 -70,-32 -42,-31 -39,-15 -77,-35 -36,-19 -11,-21 -73,-39 -54,-16 -25,-20 -69,-39 -34,-14 -42,-7 -74,-29 -42,-28 -28,-15 -77,-32 -44,-16 -25,-27 -77,-39 -65,-15 -31,-5 -75,-33 -34,-22 -60,-12 -89,-25 -34,-15 -16,-28 -77,-36 -38,-5 -61,-5 -70,-34 -29,-93 38,-105 107,-84 137,42 249,8 299,49 97,36 154,26 275,39 48,5 90,20 133,29 96,21 155,3 291,44 48,14 97,15 149,21 63,8 233,61 279,40 -4,-37 -94,-82 -130,-106l-138 -100c-26,-4 -73,-54 -95,-76l-163 -159c-56,-54 -72,-62 -79,-98 -5,-11 -71,-89 -79,-98 -42,-16 1,5 -22,-12 -24,-18 -40,-54 -51,-68 -14,-18 -7,-6 -21,-20 -21,-22 -17,-31 -39,-55 -28,-30 -14,-20 -34,-58 -17,-33 -26,-23 -40,-52l-35 -58c-15,-19 -15,-38 -33,-60 -23,-27 -29,-13 -29,-64l-122 -232c-529,-796 -453,-1746 -691,-2502 -30,-94 -24,-258 -29,-375 -5,-130 -34,-237 -37,-359 -4,-133 -5,-269 -3,-401 4,-266 13,-523 13,-794 0,-265 -15,-522 -20,-785 -5,-256 -26,-201 -40,-362 -13,-149 -2,-229 -40,-365 -14,-51 -13,-136 -17,-193 -5,-72 -31,-99 -39,-160 -8,-59 -6,-129 -22,-184 -19,-65 -30,-86 -37,-160 -8,-85 -31,-88 -43,-161 -19,-122 6,-43 -40,-164 -5,-14 -64,-285 -86,-318 -36,-56 -15,-97 -48,-153 -37,-62 -16,-108 -51,-152 -25,-30 -19,-40 -27,-79 -10,-54 -13,-23 -33,-66l-85 -217c-21,-32 -18,-32 -31,-72 -12,-35 -24,-36 -36,-65 -17,-44 3,-37 -27,-71 -32,-37 -18,-18 -33,-67 -13,-41 -25,-30 -40,-66l-66 -135c-48,-74 -61,-116 -115,-187 -19,-26 -12,-39 -36,-66 -32,-38 -19,-21 -39,-61l-85 -118c-22,-45 -7,-26 -38,-65l-130 -175c-99,-115 -228,-272 -336,-376 -60,-57 -144,-148 -210,-198l-407 -307c-32,-27 -25,-20 -60,-41 -28,-16 -28,-21 -66,-39 -25,-12 -41,-32 -54,-55 -49,-7 -44,-41 -94,-42l-121 -59c-89,-64 -24,1 -110,-60 -31,-22 -30,-10 -64,-23 -29,-11 -23,-20 -50,-34 -25,-12 -40,-7 -66,-20 -22,-11 -19,-19 -48,-29 -25,-9 -45,-7 -68,-18 -26,-13 -16,-20 -54,-31 -26,-7 -46,-5 -70,-15 -18,-8 -23,-18 -47,-28 -63,-26 -21,17 -131,-41 -40,-21 -88,-12 -131,-32 -71,-33 -53,-21 -133,-36 -52,-10 -75,-32 -130,-39 -55,-7 -100,-7 -151,-22 -146,-44 -257,-28 -439,-62 -115,-21 -531,-17 -667,-14 -103,3 -200,27 -296,39 -53,6 -114,7 -168,10 -60,4 -77,21 -125,32 -50,11 -106,9 -153,19 -49,10 -59,30 -124,38 -143,19 -52,4 -133,38 -46,20 -89,5 -134,30 -64,35 -74,17 -130,41 -26,11 -26,21 -54,29 -24,7 -43,5 -65,13 -33,11 -28,21 -53,32 -22,10 -44,8 -69,18 -28,11 -24,21 -52,32 -24,9 -38,6 -64,18 -51,24 -189,92 -235,94z"/>
   <rect class="fil0" x="7092" y="6484" width="2023" height="1733" rx="347" ry="347"/>
   <rect class="fil0" x="10314" y="6484" width="2023" height="1733" rx="347" ry="347"/>
   <polygon class="fil0" points="9995,9905 8591,9613 9284,9248 9808,9594 10445,9157 11157,9576 "/>
   <polygon class="fil0" points="9696,10589 9003,9950 9883,10133 10763,9859 10370,10461 "/>
   <rect class="fil0" x="9044" y="6957" width="1270" height="271"/>
   <polygon class="fil0" points="5821,7099 5771,6750 7092,6943 7092,7472 "/>
   <polygon class="fil0" points="13657,6931 13710,6582 12298,6774 12298,7303 "/>
  </g>
 </g>
</svg>
