<?xml version="1.0" encoding="UTF-8"?>
<!DOCTYPE svg PUBLIC "-//W3C//DTD SVG 1.1//EN" "http://www.w3.org/Graphics/SVG/1.1/DTD/svg11.dtd">
<!-- Creator: CorelDRAW X6 -->
<svg xmlns="http://www.w3.org/2000/svg" xml:space="preserve" width="200mm" height="200mm" version="1.1" style="shape-rendering:geometricPrecision; text-rendering:geometricPrecision; image-rendering:optimizeQuality; fill-rule:evenodd; clip-rule:evenodd"
viewBox="0 0 20000 20000"
 xmlns:xlink="http://www.w3.org/1999/xlink">
 <defs>
  <style type="text/css">
   <![CDATA[
    .fil0 {fill:#8950FC}
   ]]>
  </style>
 </defs>
 <g id="Layer_x0020_1">
  <metadata id="CorelCorpID_0Corel-Layer"/>
  <path class="fil0" d="M18930 6163l-951 0c-55,0 -100,47 -100,105l0 1225c0,58 45,105 100,105l951 0c55,0 100,-47 100,-105l0 -1225c0,-58 -45,-105 -100,-105zm-1568 0l-951 0c-55,0 -100,47 -100,105l0 1225c0,58 45,105 100,105l951 0c55,0 100,-47 100,-105l0 -1225c0,-58 -45,-105 -100,-105zm0 1959l-951 0c-55,0 -100,47 -100,105l0 1225c0,58 45,105 100,105l951 0c55,0 100,-47 100,-105l0 -1225c0,-58 -45,-105 -100,-105zm1568 0l-951 0c-55,0 -100,47 -100,105l0 1225c0,58 45,105 100,105l951 0c55,0 100,-47 100,-105l0 -1225c0,-58 -45,-105 -100,-105zm866 10542l-2929 0 0 945 2929 0 0 -945zm204 -12951l-4125 0 0 12439 4125 0 0 -12439zm-18930 498l951 0c55,0 100,47 100,105l0 1225c0,58 -45,105 -100,105l-951 0c-55,0 -100,-47 -100,-105l0 -1225c0,-58 45,-105 100,-105zm1568 0l951 0c55,0 100,47 100,105l0 1225c0,58 -45,105 -100,105l-951 0c-55,0 -100,-47 -100,-105l0 -1225c0,-58 45,-105 100,-105zm0 1959l951 0c55,0 100,47 100,105l0 1225c0,58 -45,105 -100,105l-951 0c-55,0 -100,-47 -100,-105l0 -1225c0,-58 45,-105 100,-105zm-1568 0l951 0c55,0 100,47 100,105l0 1225c0,58 -45,105 -100,105l-951 0c-55,0 -100,-47 -100,-105l0 -1225c0,-58 45,-105 100,-105zm-866 10542l2929 0 0 945 -2929 0 0 -945zm-204 -12951l4125 0 0 12439 -4125 0 0 -12439zm3883 14089c27,120 133,148 276,147 2074,-13 4184,0 6259,0 1789,0 3635,-15 5420,-1 141,1 276,20 349,-72 64,-81 41,-272 41,-399 0,-447 61,-559 -296,-558 -3734,14 -7496,5 -11229,0 -858,-1 -823,-79 -823,460 0,84 -11,361 3,423zm5946 -19835l-323 41c-641,102 -1213,493 -1646,977 -415,464 -834,1354 -745,2307 116,1240 873,2241 1895,2636 318,123 850,255 1277,192 522,-76 744,-137 1134,-343 1417,-749 2011,-2684 1244,-4171 -358,-694 -884,-1169 -1567,-1451 -172,-71 -368,-130 -576,-161 -185,-27 -504,-68 -693,-27zm885 3745c-37,65 -18,945 -18,1016 1,477 -126,396 -619,397 -289,0 -545,64 -636,-121 -51,-104 4,-1066 -21,-1280 -99,-40 -787,-5 -968,-14 -421,-20 -385,-3 -386,-627 0,-280 -54,-554 109,-675 95,-70 1068,2 1200,-31 42,-10 8,4 34,-15 26,-42 18,-894 15,-1022 -5,-199 -9,-318 142,-373 67,-25 892,-37 977,-2 139,56 153,163 152,359 -1,286 -28,795 5,1055 325,11 665,1 991,2 180,0 306,-16 343,164 19,92 21,946 -4,1024 -55,171 -256,135 -341,140l-977 3zm-5700 14845c408,-24 846,-9 1258,-9 2941,0 5880,0 8822,0l0 -16377c0,-236 40,-570 -62,-733 -130,-206 -303,-179 -606,-179 -225,0 -1432,-16 -1547,7 134,210 419,887 429,1215 182,0 929,-33 1028,30 134,86 105,256 105,442l1 1108c0,194 -59,293 -247,293 -357,0 -715,-1 -1072,-1 -47,25 -60,91 -77,131l-225 432c-120,187 -229,335 -366,496 -66,77 -135,145 -210,217 -311,300 -227,-10 -227,1053 0,988 96,862 -851,860 -262,-1 -618,77 -642,-208 -22,-261 3,-600 -3,-872 -17,-3 -671,71 -924,-7 -36,217 5,600 -8,841 -17,323 -307,245 -597,245 -1008,-1 -895,123 -894,-812 0,-262 21,-623 4,-871 -4,-57 -47,-72 -88,-105l-225 -205c-127,-116 -378,-452 -476,-608 -66,-104 -274,-469 -292,-589 -352,0 -705,-3 -1056,0 -374,3 -289,-208 -290,-815 0,-185 0,-369 0,-554 0,-627 -19,-505 1129,-505 5,-356 293,-994 429,-1216 -135,-20 -1294,-6 -1532,-6 -296,0 -467,-33 -607,162 -112,157 -77,476 -77,733l0 16402zm1289 -11014c-280,0 -598,74 -628,-215 -25,-237 -4,-605 -4,-857 0,-219 -49,-669 86,-767 97,-70 628,-35 794,-35 453,0 610,-87 607,314 -2,270 2,544 2,814 0,867 99,746 -858,746zm7036 0c-290,0 -388,6 -390,-290 -2,-228 0,-456 0,-684 0,-928 -82,-900 453,-900l373 -1c317,0 613,-68 659,176 23,123 7,1110 8,1344 1,181 -16,301 -154,343 -114,34 -776,13 -948,13zm-6180 1550l2 831c0,141 0,282 -1,424 -1,164 -19,256 -148,287 -55,13 -1148,22 -1220,-12 -113,-53 -123,-155 -122,-308 2,-288 1,-576 1,-863 1,-830 -71,-684 989,-684 322,0 530,-49 498,326zm1117 1547c-100,0 -162,-88 -176,-189 -13,-90 -4,-251 -4,-349 -1,-1530 -140,-1335 770,-1335 789,0 723,-79 723,668 0,239 0,478 0,717 0,231 39,489 -210,489l-1103 0zm3732 -179c-51,243 -279,179 -641,179 -810,0 -845,84 -845,-407 0,-249 -17,-1185 7,-1300 25,-120 113,-166 247,-166 135,0 270,1 405,1 936,0 836,-124 836,847 0,184 21,707 -8,847zm2425 0c-49,242 -306,179 -644,179 -970,0 -838,131 -841,-847 -3,-1196 -190,-1026 1058,-1026 156,0 277,-25 364,59 83,80 69,195 70,349 1,247 17,1169 -7,1287zm-7275 1742l2 831c0,141 0,282 -1,424 -1,164 -19,256 -148,287 -55,13 -1148,22 -1220,-12 -113,-53 -123,-155 -122,-308 2,-288 1,-576 1,-863 1,-830 -71,-684 989,-684 322,0 530,-49 498,326zm0 3110l2 831c0,141 0,282 -1,424 -1,164 -19,256 -148,287 -55,13 -1148,22 -1220,-12 -113,-53 -123,-155 -122,-308 2,-288 1,-576 1,-863 1,-830 -71,-684 989,-684 322,0 530,-49 498,326zm1117 -1563c-100,0 -162,-88 -176,-189 -13,-90 -4,-251 -4,-349 -1,-1530 -140,-1335 770,-1335 789,0 723,-79 723,668 0,239 0,478 0,717 0,231 39,489 -210,489l-1103 0zm0 3110c-100,0 -162,-88 -176,-189 -13,-90 -4,-251 -4,-349 -1,-1530 -140,-1335 770,-1335 789,0 723,-79 723,668 0,239 0,478 0,717 0,231 39,489 -210,489l-1103 0zm3732 -3289c-51,243 -279,179 -641,179 -810,0 -845,84 -845,-407 0,-249 -17,-1185 7,-1300 25,-120 113,-166 247,-166 135,0 270,1 405,1 936,0 836,-124 836,847 0,184 21,707 -8,847zm0 3110c-51,243 -279,179 -641,179 -810,0 -845,84 -845,-407 0,-249 -17,-1185 7,-1300 25,-120 113,-166 247,-166 135,0 270,1 405,1 936,0 836,-124 836,847 0,184 21,707 -8,847zm2425 -3110c-49,242 -306,179 -644,179 -970,0 -838,131 -841,-847 -3,-1196 -190,-1026 1058,-1026 156,0 277,-25 364,59 83,80 69,195 70,349 1,247 17,1169 -7,1287zm0 3110c-49,242 -306,179 -644,179 -970,0 -838,131 -841,-847 -3,-1196 -190,-1026 1058,-1026 156,0 277,-25 364,59 83,80 69,195 70,349 1,247 17,1169 -7,1287zm2930 -6418l-951 0c-55,0 -100,47 -100,105l0 1225c0,58 45,105 100,105l951 0c55,0 100,-47 100,-105l0 -1225c0,-58 -45,-105 -100,-105zm0 2190l-951 0c-55,0 -100,47 -100,105l0 1225c0,58 45,105 100,105l951 0c55,0 100,-47 100,-105l0 -1225c0,-58 -45,-105 -100,-105zm0 2190l-951 0c-55,0 -100,47 -100,105l0 1225c0,58 45,105 100,105l951 0c55,0 100,-47 100,-105l0 -1225c0,-58 -45,-105 -100,-105zm1568 -4379l-951 0c-55,0 -100,47 -100,105l0 1225c0,58 45,105 100,105l951 0c55,0 100,-47 100,-105l0 -1225c0,-58 -45,-105 -100,-105zm0 2190l-951 0c-55,0 -100,47 -100,105l0 1225c0,58 45,105 100,105l951 0c55,0 100,-47 100,-105l0 -1225c0,-58 -45,-105 -100,-105zm0 2190l-951 0c-55,0 -100,47 -100,105l0 1225c0,58 45,105 100,105l951 0c55,0 100,-47 100,-105l0 -1225c0,-58 -45,-105 -100,-105zm-16293 -4301l951 0c55,0 100,47 100,105l0 1225c0,58 -45,105 -100,105l-951 0c-55,0 -100,-47 -100,-105l0 -1225c0,-58 45,-105 100,-105zm0 2219l951 0c55,0 100,47 100,105l0 1225c0,58 -45,105 -100,105l-951 0c-55,0 -100,-47 -100,-105l0 -1225c0,-58 45,-105 100,-105zm0 2219l951 0c55,0 100,47 100,105l0 1225c0,58 -45,105 -100,105l-951 0c-55,0 -100,-47 -100,-105l0 -1225c0,-58 45,-105 100,-105zm-1568 -4437l951 0c55,0 100,47 100,105l0 1225c0,58 -45,105 -100,105l-951 0c-55,0 -100,-47 -100,-105l0 -1225c0,-58 45,-105 100,-105zm0 2219l951 0c55,0 100,47 100,105l0 1225c0,58 -45,105 -100,105l-951 0c-55,0 -100,-47 -100,-105l0 -1225c0,-58 45,-105 100,-105zm0 2219l951 0c55,0 100,47 100,105l0 1225c0,58 -45,105 -100,105l-951 0c-55,0 -100,-47 -100,-105l0 -1225c0,-58 45,-105 100,-105z"/>
 </g>
</svg>
