<?xml version="1.0" encoding="UTF-8"?>
<!DOCTYPE svg PUBLIC "-//W3C//DTD SVG 1.1//EN" "http://www.w3.org/Graphics/SVG/1.1/DTD/svg11.dtd">
<!-- Creator: CorelDRAW X6 -->
<svg xmlns="http://www.w3.org/2000/svg" xml:space="preserve" width="200mm" height="200mm" version="1.1" style="shape-rendering:geometricPrecision; text-rendering:geometricPrecision; image-rendering:optimizeQuality; fill-rule:evenodd; clip-rule:evenodd"
viewBox="0 0 20000 20000"
 xmlns:xlink="http://www.w3.org/1999/xlink">
 <defs>
  <style type="text/css">
   <![CDATA[
    .fil0 {fill:#8950FC}
    .fil1 {fill:#8950FC;fill-opacity:0.301961}
   ]]>
  </style>
 </defs>
 <g id="Layer_x0020_1">
  <metadata id="CorelCorpID_0Corel-Layer"/>
  <g id="_1100506768">
   <path class="fil0" d="M1271 9166c-1,-28 9,-24 1,-79 -35,-247 -24,-666 -73,-996 -65,-426 -82,-593 -115,-1044 -19,-266 -84,-402 -123,-645 -57,-370 -65,-229 -159,-404 -24,-45 -37,-84 -68,-115 -32,-30 -187,-114 -228,-111 -130,8 -164,19 -207,152l-95 284c-90,415 -51,1004 -105,1453 -71,611 -81,1236 -95,1856 -23,916 60,642 124,1031 19,115 33,224 50,334 151,923 898,2238 1216,3080 46,121 99,152 138,231 22,42 34,87 55,133 22,45 63,72 142,225 33,65 42,46 88,94 32,33 43,66 82,99 33,27 71,45 105,72 34,28 43,66 81,100 925,848 2099,1457 2934,2219 26,24 73,42 111,66 51,33 48,45 92,88l89 94c33,35 58,57 88,94l81 100c45,53 116,147 147,220 60,147 115,168 135,237 27,107 86,555 89,680 7,281 -16,463 35,737 59,311 31,256 173,384 144,128 94,122 372,148 228,22 2092,24 2294,-9 134,-23 155,-37 236,-113 81,-77 103,-92 129,-242 35,-205 18,-209 37,-353 31,-237 -8,-482 37,-745 66,-394 86,-1076 49,-1474 -215,-2335 -1991,-3768 -3751,-4209 -185,-46 -363,-96 -568,-109 -84,-4 -234,-15 -299,-42 -48,-19 -68,-60 -96,-83 -63,-50 -175,-65 -228,-123 -27,-30 -54,-66 -82,-99 -32,-37 -60,-35 -99,-80 -32,-38 -43,-71 -71,-100 -31,-35 -65,-50 -90,-91 -24,-38 -37,-80 -68,-115 -42,-45 -50,-24 -89,-92 -545,-995 -1187,-1556 -2042,-2107 -79,-52 -164,-58 -240,-111l-157 -208c-27,-45 -60,-242 -62,-304l0 -8 0 0zm12856 9974c0,-218 -23,-480 30,-677 50,-191 67,-453 129,-536 96,-128 97,-209 201,-328l112 -140c21,-24 48,-43 70,-65 22,-22 34,-41 57,-68 203,-236 2645,-2018 3171,-2406 62,-45 62,-80 119,-129 60,-54 84,-41 135,-123 45,-73 80,-50 120,-140 26,-60 54,-129 89,-178 100,-136 71,-210 177,-343 58,-72 74,-202 122,-286 519,-921 902,-2380 1237,-3424 22,-66 58,-110 80,-189 60,-214 -3,-1584 -3,-1840 0,-176 -27,-319 -48,-470 -65,-463 -51,-936 -99,-1402 -11,-111 -13,-113 -47,-202 -80,-197 -39,-413 -284,-430 -54,-4 -106,52 -154,73 -74,38 -81,37 -119,106 -30,54 -70,92 -100,140 -65,98 -72,263 -105,381 -58,208 -92,415 -103,645 -16,327 -92,634 -108,877 -10,147 -25,316 -39,472 -26,304 7,829 -147,1072l-96 133c-1198,1208 -1154,715 -2447,2440 -35,46 -80,77 -108,118 -45,64 -43,75 -113,125 -66,46 -63,77 -107,119 -84,81 -193,75 -278,175 -73,83 -228,75 -355,87 -2699,263 -4505,2382 -4311,5474 10,157 27,304 37,463 16,290 -19,875 128,1129 94,161 293,193 461,195 571,9 1134,-4 1700,0 208,1 414,4 616,-33 88,-16 94,-11 144,-75 96,-122 140,-41 189,-278 31,-147 47,-289 47,-453l3 -8 0 0 0 -1z"/>
   <path class="fil1" d="M4970 8632c46,72 57,57 100,105 24,28 17,43 46,70 31,29 33,11 63,40 18,20 18,40 38,63 28,36 24,13 61,42 47,36 31,61 104,113l203 220c74,54 53,70 98,107 30,26 34,14 63,52l256 269c30,31 34,25 64,50 37,29 23,26 47,56 38,46 70,42 114,102 27,38 186,159 219,202 53,70 74,54 110,96 34,43 -1,31 51,66 28,18 31,6 61,40 27,29 16,38 41,60 23,20 43,20 64,39 38,29 18,33 47,68 28,32 28,15 63,40 51,36 23,56 101,103 74,46 28,57 112,107 81,47 38,70 100,105 48,28 34,0 68,47 73,107 64,46 107,98 20,24 11,36 40,61 31,29 38,11 71,45 26,26 17,39 40,61 40,43 54,18 107,98 30,43 75,54 114,103 37,47 75,53 112,105l219 203c27,38 14,36 54,61 67,43 53,53 104,100 23,22 37,22 60,43 28,25 28,39 53,61 27,25 27,15 58,45 43,40 53,67 104,100 74,50 138,149 215,208 47,36 73,75 111,107 44,36 84,39 125,81 77,77 74,39 132,85 26,20 24,36 47,56 14,14 44,25 67,38 63,32 64,63 125,93 70,33 90,8 148,57 115,99 175,56 326,100 135,40 172,93 360,61 71,-11 101,-36 162,-56 124,-40 230,-13 323,-100 51,-47 77,-31 152,-54 88,-29 53,-63 119,-98 37,-18 41,-8 70,-32 30,-26 14,-31 47,-56 46,-36 83,-20 141,-77l120 -85c64,-38 17,-54 110,-109 60,-36 43,-67 102,-103 74,-46 51,-71 110,-109 47,-29 28,0 60,-43 23,-31 11,-33 43,-59 40,-31 40,-8 71,-45 23,-28 9,-32 40,-61 30,-26 44,-17 70,-46 23,-24 14,-36 40,-61 28,-29 38,-15 70,-46 28,-28 18,-38 41,-60 40,-42 47,-15 110,-96 37,-50 58,-31 114,-105 47,-63 67,-26 107,-98 54,-91 64,-33 112,-107 27,-42 1,-29 44,-57 128,-85 54,-61 111,-107 28,-22 37,-13 63,-39 20,-20 20,-39 41,-60 24,-24 38,-22 63,-39 44,-31 28,-52 110,-109 51,-38 40,-60 102,-102 51,-32 61,-72 112,-105l653 -613c33,-32 60,-61 104,-100l112 -107c26,-20 31,-22 55,-46l471 -475c63,-63 135,-166 202,-220l161 -159c26,-29 17,-33 43,-60 23,-25 41,-25 64,-50 24,-24 23,-36 43,-60 47,-59 43,-13 97,-109 41,-72 57,-18 102,-114 41,-85 60,-24 104,-113l193 -227c48,-46 54,-95 88,-128 23,-22 33,-15 58,-45 20,-25 17,-40 37,-66 38,-52 97,-29 92,-125 -1,-68 -48,-84 -117,-89l-2134 -4c-377,17 -147,236 -276,368 -114,117 -40,203 -91,328 -24,56 -58,54 -83,124 -20,65 -10,125 -23,195 -17,100 -33,72 -74,128 -64,89 -4,256 -85,333 -90,84 -30,272 -92,326 -40,33 -34,-8 -63,53 -23,45 4,39 -34,68 -16,13 -47,15 -73,29 -115,61 -6,52 -218,-31 -47,-18 -20,8 -48,-31 -34,-66 -23,-176 -33,-258 -14,-110 -55,-127 -74,-215 -44,-195 -10,-461 -57,-666 -31,-138 -77,-95 -77,-337 0,-598 -107,-459 -112,-761 -11,-638 -90,-525 -111,-734 -19,-176 -4,-357 -33,-538 -10,-60 -90,-244 -124,-309 -27,-53 -17,-45 -73,-59 -105,66 -92,241 -104,374 -13,151 -91,124 -110,367 -20,321 -78,192 -104,379 -11,74 -11,144 -18,216 -13,118 -38,81 -71,160 -47,113 -13,330 -74,408 -51,66 -55,74 -67,178 -9,70 -6,144 -16,213 -16,110 -48,75 -78,160 -20,57 -26,149 -30,209 -14,215 -63,138 -102,256 -17,52 0,43 -38,77 -53,14 -189,22 -240,-3 -14,-6 -54,-47 -67,-61 -20,-22 -30,-33 -40,-74 -16,-72 -6,-132 -54,-188 -47,-56 -53,-102 -55,-184 -16,-337 -85,-282 -105,-393 -24,-125 10,-315 -71,-410 -85,-100 -46,-289 -77,-418 -24,-102 -63,-66 -83,-162 -13,-61 -11,-156 -43,-199 -34,-47 -117,-46 -149,14 -24,45 -24,151 -33,209 -26,157 -74,-17 -110,371 -11,124 -44,98 -81,176 -23,47 -28,155 -33,206 -13,159 -14,86 -70,173 -34,54 -38,135 -41,203 -14,236 -92,141 -112,367 -26,294 -51,141 -92,277 -28,89 -1,241 -51,316 -23,36 -33,13 -58,70 -38,89 -14,227 -47,309 -33,81 -60,32 -84,159 -14,75 -11,145 -24,220 -16,93 -58,57 -87,153 -55,185 -6,75 -100,144 -43,31 -34,99 -158,68 -43,-33 -20,-36 -48,-59 -23,-20 -40,-14 -67,-38l-104 -291c-51,-231 -31,-668 -41,-923 -10,-251 -95,-414 -98,-669 -3,-258 -4,-496 -26,-751 -13,-142 -44,-203 -68,-328 -57,-307 10,-761 -58,-1093 -27,-128 -55,-178 -67,-323 -20,-252 -6,-505 -24,-753 -10,-124 10,-263 -128,-262 -18,29 -28,57 -48,88 -68,105 -107,-10 -134,270 -17,170 -64,57 -98,185 -16,60 -10,183 -44,223 -60,68 -64,4 -84,197 -16,155 -54,103 -91,178 -33,66 -10,167 -47,231 -34,61 -77,68 -90,178 -20,190 -9,89 -81,199 -40,60 -30,144 -46,222 -23,99 -75,32 -98,184 -16,110 6,135 -63,202 -60,57 -46,123 -63,215 -24,131 -71,71 -97,171 -24,91 9,151 -54,213l-83 123c-13,29 -1,15 -23,42 -139,95 -2246,-67 -2447,68 -17,107 30,79 71,146 17,28 20,56 40,74 24,25 41,22 61,42 23,22 24,52 41,74 24,31 34,25 57,45 41,36 37,71 88,116 41,36 67,82 95,123 38,54 67,53 98,107 51,88 64,54 102,114l-4 6 0 0 0 -3zm3305 -5625c26,38 9,42 44,67 117,82 60,-61 107,301 14,116 31,153 57,248 67,248 10,801 64,1128 46,277 70,149 78,535 6,252 3,559 40,815 14,98 48,132 61,249 38,329 -17,836 64,1136 70,252 47,279 67,531 20,262 164,308 202,45 14,-100 -4,-162 57,-237 57,-68 57,-130 67,-240 14,-183 48,-110 87,-220 26,-72 20,-188 34,-270 20,-114 70,-43 92,-199 13,-82 1,-199 44,-259 68,-98 68,-72 81,-224 27,-343 78,-52 120,-479 16,-166 63,-103 91,-212 17,-66 10,-220 38,-269 18,-33 44,-38 68,-84 71,-137 26,-132 201,-131 235,0 188,245 240,322 90,130 57,98 71,298 16,217 64,167 97,272 24,79 16,240 34,334 28,135 83,75 92,282 6,105 6,223 64,297 78,100 43,201 148,241 162,-36 84,-298 131,-422 28,-75 58,-38 84,-184 14,-86 4,-176 23,-259 17,-84 63,-50 88,-180 16,-85 11,-170 20,-258 14,-123 60,-75 87,-181 20,-74 17,-169 26,-252 16,-176 95,-110 114,-436 14,-240 95,-141 112,-429 19,-326 100,-156 114,-433 1,-43 -6,-91 13,-130 16,-32 9,-14 30,-33 43,-38 48,-79 115,-103 64,-25 34,-6 81,-54 44,13 211,117 228,152 55,102 11,379 71,513 28,63 43,59 53,139 14,123 13,252 18,380 4,114 11,226 60,314 87,156 27,517 77,708 40,151 77,107 78,321 1,160 -6,368 47,520 20,59 41,72 55,146 41,202 -14,541 81,707 33,60 67,447 205,328 34,-29 41,-102 47,-157 33,-314 64,-123 105,-288 13,-52 11,-116 19,-170 16,-102 34,-50 84,-123 75,-116 55,-149 245,-141 367,15 831,1 1202,1 471,-1 1151,17 1589,-3 283,-13 125,-32 248,-135 47,-39 41,-52 67,-125 38,-105 53,-53 85,-118 26,-50 19,-88 57,-132 2904,-3550 -2949,-9123 -6072,-5682 -41,45 -84,29 -132,72 -44,40 -44,47 -114,79 -87,40 -68,61 -107,85 -51,29 -118,6 -148,-28 -67,-75 -70,-36 -127,-79 -46,-36 -23,-53 -104,-88 -2155,-903 -5516,-1527 -6509,1586 -573,1794 -359,2138 135,3693 31,98 51,47 87,118 24,47 27,103 54,137 46,57 51,6 81,123 23,82 26,74 74,117 51,45 34,75 60,131 26,54 57,59 83,110 31,61 10,99 78,124 92,32 2177,14 2379,14 129,0 249,13 266,-118 38,-273 78,-128 111,-283 11,-53 3,-125 24,-169 26,-56 55,-28 84,-121 17,-57 14,-112 26,-169 23,-117 73,10 111,-280 13,-99 20,-71 68,-125 64,-74 10,-206 97,-298 107,-116 18,-199 102,-293 115,-130 43,-217 98,-297 33,-47 54,-26 77,-114 14,-56 11,-121 23,-169 19,-77 54,-50 83,-110 17,-38 20,-128 28,-174 24,-153 83,-39 111,-283 20,-171 95,-84 112,-286 19,-231 75,-70 111,-269 9,-43 9,-131 26,-166 31,-59 61,-14 84,-121 11,-53 13,-118 24,-167 16,-66 60,-56 87,-114 43,-95 46,-46 100,-93 64,-57 26,-67 159,-50l4 3 0 0 -3 0z"/>
  </g>
 </g>
</svg>
