<?xml version="1.0" encoding="UTF-8"?>
<!DOCTYPE svg PUBLIC "-//W3C//DTD SVG 1.1//EN" "http://www.w3.org/Graphics/SVG/1.1/DTD/svg11.dtd">
<!-- Creator: CorelDRAW X6 -->
<svg xmlns="http://www.w3.org/2000/svg" xml:space="preserve" width="200mm" height="200mm" version="1.1" style="shape-rendering:geometricPrecision; text-rendering:geometricPrecision; image-rendering:optimizeQuality; fill-rule:evenodd; clip-rule:evenodd"
viewBox="0 0 20000 20000"
 xmlns:xlink="http://www.w3.org/1999/xlink">
 <defs>
  <style type="text/css">
   <![CDATA[
    .fil1 {fill:#8950FC}
    .fil0 {fill:#8950FC;fill-opacity:0.301961}
   ]]>
  </style>
 </defs>
 <g id="Layer_x0020_1">
  <metadata id="CorelCorpID_0Corel-Layer"/>
  <path class="fil0" d="M18518 18033c7,-137 -8,-264 -8,-399l7 -2017c0,-129 -7,-266 -7,-399l0 -1621c0,-535 0,-1071 0,-1606l5 -787c-84,-1176 224,-1156 -379,-1156 -223,0 -430,12 -651,12 -330,0 -1072,18 -1348,0 -214,-14 -440,-12 -662,-8 -306,4 -456,-91 -429,266 18,260 3,525 0,781 -5,266 10,529 10,797l0 5588c0,143 -10,258 -10,399 0,129 10,246 10,385 0,471 -62,423 317,423l663 8c221,-20 451,-8 673,-8 395,0 981,16 1348,2 486,-18 452,68 452,-246 0,-143 2,-270 8,-413l0 -2zm-2422 -9707l-896 4c-219,0 -700,-30 -856,50 -238,123 -233,546 -214,811 10,159 -8,370 60,471 236,342 365,191 708,227 275,30 1025,-6 1341,-4 301,0 601,0 903,0 301,0 605,16 903,12 149,-2 296,2 445,-6 146,-6 296,8 446,6 146,-4 300,-4 445,-10 154,-6 303,30 404,-62 55,-50 85,-48 122,-115 20,-36 27,-54 44,-85 20,-34 27,-46 35,-95 12,-62 18,-676 7,-791 -18,-177 -106,-252 -179,-332 -119,-125 -456,-81 -581,-81l-1360 0c-144,0 -283,-14 -434,-12 -213,2 -1226,-14 -1343,8l0 2zm2279 -193c77,-151 37,-207 45,-437 13,-378 2,-1121 2,-1524 0,-676 -8,-1355 0,-2031 3,-276 10,-960 -42,-1214 -15,-79 -30,-119 -42,-213 -35,-300 -67,-282 -82,-407 -35,-272 -52,-211 -87,-401 -57,-306 -201,-332 -40,-767l171 -550c32,-87 80,-308 55,-403 -59,-225 -266,-171 -492,-171 -139,0 -280,-12 -422,-12 -564,0 -1129,12 -1692,12 -224,0 -1993,-30 -2114,-6 -141,28 -1606,83 -1683,177 -111,135 -104,221 -142,338 -23,70 -39,85 -57,179 -18,87 -42,117 -62,185 -18,62 -22,125 -49,189 -30,72 -39,97 -57,179 -20,95 -35,103 -60,175 -22,64 -20,135 -47,201 -30,79 -35,83 -57,179 -18,81 -42,117 -65,183l-107 378c-18,85 -42,101 -60,175 -47,181 -72,229 -106,380 -17,72 -47,119 -64,183 -18,74 -18,115 -50,187l-219 753c-18,64 -45,107 -64,187 -22,91 -22,101 -52,183 -32,87 -33,183 12,262 64,111 49,119 281,119l4140 0c92,0 99,16 107,129 22,304 -2,682 -2,996 0,676 -7,1357 0,2033 2,197 127,177 271,177l2102 12c144,0 266,-12 412,-12 139,0 285,6 422,-2l-5 -6zm-328 -7801c15,199 2,103 -42,260 -12,42 -17,83 -30,129 -15,50 -30,72 -45,123l-147 495c-35,74 -117,403 -144,499 -13,46 -30,68 -44,113 -35,111 -5,74 -72,244 -17,42 -22,81 -37,135 -23,91 -54,143 -75,238 -42,191 -55,145 -79,248 -42,193 -49,147 -106,368 -15,56 -28,76 -45,123l-147 495c-40,89 -94,417 -191,441 -121,28 -419,-8 -558,-2 -184,8 -347,16 -526,16 -95,2 -173,-12 -263,-12 -263,-2 -531,38 -824,6 -255,-28 -3599,30 -3643,-22 -42,-52 -7,-195 15,-248 44,-107 42,-145 75,-254 17,-54 30,-60 49,-107 13,-36 22,-93 30,-129 20,-87 37,-72 79,-248l151 -493c44,-207 44,-131 74,-240l219 -753c40,-89 44,-149 77,-238 17,-42 30,-60 45,-111 15,-50 17,-93 32,-139 49,-145 13,10 74,-240 25,-107 37,-58 75,-256 20,-99 54,-131 75,-238 20,-91 42,-163 114,-203 74,-40 4688,-8 5296,-8 176,0 389,-30 539,6l-2 0zm-94 1439c122,111 111,324 151,431 35,95 39,121 55,236 17,109 35,155 57,248 20,91 25,300 72,531 23,117 28,435 28,580 -2,825 -8,1651 -10,2472 0,411 -2,825 0,1236 3,608 112,495 -593,481 -687,-12 -1377,12 -2057,12 -109,0 -280,28 -342,-40 -59,-66 -8,-310 -12,-425 -5,-270 -28,-654 -7,-912 15,-189 -3,-401 -3,-598 0,-207 0,-411 0,-618 0,-133 -44,-503 30,-578 69,-70 1363,18 1521,-40 171,-62 288,-306 340,-509l144 -461c40,-217 30,-113 65,-236l271 -908c22,-91 52,-133 75,-213 10,-36 13,-74 25,-119 17,-60 28,-52 45,-111 28,-95 25,-145 64,-238 27,-64 49,-179 77,-217l2 -4zm-2547 17079c-162,0 -149,87 -194,227 -45,143 -42,225 -2,370 47,169 20,135 92,234 124,171 80,135 253,246 226,147 556,40 695,-167 106,-155 54,-89 129,-284 70,-183 12,-370 -44,-527 -18,-50 -28,-70 -77,-83 -126,-28 -693,-16 -851,-16l-2 0zm186 542c0,-66 40,-121 70,-159 37,-44 90,-56 147,-54 278,18 241,493 -17,489 -94,-2 -97,-20 -144,-77 -59,-70 -59,-74 -59,-201l2 2zm1859 -531c-263,0 -256,-24 -325,252 -25,99 -34,149 -12,260 28,141 75,338 176,421 84,68 0,36 154,129 87,52 89,60 199,77 69,8 183,-4 239,-28 22,-10 162,-93 176,-105 27,-22 40,-48 72,-79 42,-38 28,-38 59,-81 82,-121 139,-298 136,-465 -2,-105 -22,-165 -55,-246 -45,-109 -20,-129 -141,-143 -112,-14 -489,10 -682,10l3 -2zm456 626c-23,129 -131,215 -251,183 -64,-18 -87,-66 -117,-107 -87,-113 -34,-449 228,-385 121,30 169,153 142,308l-2 0zm-1598 -5739c37,-66 20,-185 5,-254 -127,-38 -559,-28 -727,-14 -102,8 -129,32 -131,157 -3,227 173,147 373,147 114,0 404,36 481,-36l-2 0zm-844 -1111c102,85 176,44 295,40 156,-8 291,14 434,12 144,-2 137,-58 137,-177 0,-159 -62,-139 -183,-139l-593 4c-117,18 -111,147 -90,258l0 2zm866 467c0,-221 -64,-161 -457,-161 -156,0 -444,-66 -420,159 18,191 223,141 444,141 216,0 434,83 434,-139zm0 -1111c0,-229 -142,-143 -446,-143 -95,0 -191,0 -286,0 -102,0 -164,38 -146,169 15,103 75,125 169,127 95,2 191,2 286,4 80,2 203,14 273,6 111,-12 149,-24 149,-163zm-233 -399c95,-14 191,-18 288,2 64,14 77,16 79,93l0 948c0,505 -10,1023 7,1524 8,256 -3,513 -7,769 -3,314 12,821 -2,1137 -5,139 -55,179 -167,177 -204,-2 -420,12 -628,12 -452,0 -345,117 -345,-1091 0,-507 0,-1017 0,-1524 0,-121 -15,-250 -7,-370 15,-244 2,-483 7,-729 3,-123 -15,-230 -8,-356 34,-540 -69,-592 147,-590 164,2 489,22 636,0l0 -2z"/>
  <path class="fil0" d="M3083 9994c-19,167 35,592 54,791l40 273c8,35 13,39 19,83 54,360 190,802 308,1123 18,50 36,103 54,144 45,99 81,186 123,278 111,245 272,530 413,738 27,39 50,71 79,108l333 427c28,32 65,60 97,98l385 355c142,115 496,362 648,415l120 53c35,16 86,35 126,55 39,18 79,28 124,48 66,28 196,50 266,69 237,71 803,106 1045,50 50,-12 99,-18 146,-23l654 -211c200,-67 578,-326 769,-481 30,-23 81,-39 76,-110 -89,32 -428,0 -539,-4 -174,-4 -385,30 -563,9l-546 2c-98,0 -165,-14 -265,-2 -160,21 -618,-39 -783,-98 -49,-18 -147,-32 -228,-73l-421 -207c-152,-96 -319,-213 -454,-344 -85,-83 -159,-135 -253,-245 -27,-32 -49,-55 -76,-89 -26,-32 -48,-60 -75,-90 -53,-60 -97,-131 -142,-192 -112,-154 -308,-461 -383,-647l-108 -238c-39,-83 -71,-176 -102,-259l-128 -403c-13,-55 -28,-101 -36,-145 -17,-96 -80,-351 -92,-454 -6,-62 -18,-114 -26,-172l-40 -528c1,-89 9,-115 -58,-121 -95,-7 -493,-12 -561,14l0 2zm4144 4134c43,53 399,28 475,28 164,0 893,12 987,0 46,-5 48,-30 49,-101 0,-57 0,-114 0,-170 0,-419 41,-349 -234,-349 -226,0 -1114,-14 -1232,0 -49,5 -48,34 -49,96 -1,87 -5,454 5,495l-1 2zm-345 -1456c-123,32 -181,98 -216,252 -34,151 -4,341 74,445 81,106 196,87 336,87 231,0 1894,12 2008,-5 266,-41 271,-532 130,-701 -81,-96 -197,-87 -334,-87 -225,0 -1894,-18 -1999,9l1 0zm2043 -4795l546 0c137,0 249,-142 249,-328 0,-161 5,-805 -4,-917 -31,-11 -25,-16 -61,-16l-960 0c-52,0 -41,78 -40,145l0 642c0,151 -5,254 53,346 49,80 114,126 218,126l-1 2zm1537 -1350c27,-30 21,-92 19,-153 0,-62 3,-133 -6,-186 -72,-48 -650,-20 -785,-20 -675,0 -1350,0 -2025,0 -67,0 -135,2 -203,0 -117,-2 -88,-18 -89,293 0,106 -9,73 256,73 332,0 2774,16 2830,-7l3 0zm-898 -473c12,-64 -95,-174 -129,-209 -26,-27 -44,-53 -76,-89l-164 -174c-31,-25 -169,-177 -267,-250 -34,-25 -57,-43 -89,-73l-296 -211c-57,-39 -138,-85 -203,-119 -248,-131 -319,-151 -556,-239l-376 -92c-84,-18 -185,-16 -275,-30 -137,-21 -561,2 -696,30 -46,11 -89,27 -129,32 -196,30 -258,67 -419,124 -199,69 -404,181 -592,300 -40,25 -65,41 -101,64 -125,87 -262,192 -376,296 -121,110 -226,222 -338,346l-157 183c-1,2 -4,4 -5,5l-213 289 -266 445c-151,270 -219,440 -343,750 -52,131 -214,637 -216,709 -1,67 58,46 103,46l449 0c114,2 88,7 150,-197l86 -232c6,-18 9,-25 14,-39l169 -374c27,-48 35,-82 59,-124 86,-151 174,-305 265,-435 174,-250 352,-452 561,-644l374 -294c166,-89 204,-133 417,-225l472 -161c46,-11 89,-9 134,-20 183,-39 363,-27 556,-28 95,0 432,62 525,94l337 129 603 381c49,41 50,37 121,35 214,-2 742,18 884,-4l0 4zm-8212 4276l1 3458c6,231 -4,617 -4,871l3 3750c0,78 -27,168 40,168l1226 0c31,0 43,-14 43,-60l0 -9059c0,-300 -182,-663 -397,-773 -121,-62 -157,-80 -299,-80 -62,0 -209,62 -267,110 -85,67 -132,117 -195,216l-46 92c-54,112 -79,216 -99,344 -9,59 -4,862 -4,959l0 4zm955 -218c0,252 -151,443 -363,401 -55,-11 -76,-30 -116,-69 -124,-122 -129,-284 -129,-502 0,-238 13,-371 143,-495 115,-110 267,-83 368,37 123,149 98,395 98,626l-1 2zm-1058 7189c-37,-5 -97,32 -130,53 -160,105 -172,112 -307,268l-89 121c-152,231 -236,514 -235,835 0,158 -5,278 0,434 18,523 -75,489 156,489l2711 0c225,0 170,117 172,-816 0,-186 -5,-383 -58,-543l-45 -133c-71,-174 -62,-128 -120,-245 -67,-137 -225,-278 -329,-358 -43,-32 -155,-110 -209,-112 -21,103 -4,1199 -9,1415 -88,41 -252,0 -364,14 -204,27 -440,-14 -579,-7 -152,9 -422,27 -557,-4 -5,-234 13,-1293 -9,-1415l3 2zm2167 2064c-34,16 -326,11 -357,-2 3,-64 45,-74 71,-106l156 -197c44,-50 59,-37 125,-35 15,60 27,270 5,339l0 2zm-1425 -10861c262,21 414,112 581,387 67,112 107,239 133,411 15,106 15,154 15,277 0,99 -12,207 22,273 75,14 1311,4 1423,4 196,0 413,-18 412,-410 -1,-397 76,-1009 -174,-1101 -90,-34 -674,-12 -773,-12 -120,0 -235,-12 -352,-11 -111,2 -227,11 -343,11 -116,0 -236,-21 -346,-5 -102,16 -252,5 -357,4 -98,-2 -210,27 -237,172l-3 2zm-1990 11308c6,73 52,147 103,161 68,20 5475,5 6148,5 143,0 289,34 285,-193 -4,-209 -170,-174 -311,-174l-5519 0c-85,0 -565,-20 -626,18 -52,32 -84,135 -80,181l0 2z"/>
  <path class="fil1" d="M5445 11057c-51,272 35,213 308,213l10655 0c28,0 59,2 87,0 18,0 25,2 41,-6 65,-32 37,-139 27,-209 -163,-30 -499,-4 -691,-4 -110,0 -243,-24 -343,-8 -216,32 -566,-18 -697,2 -188,32 -541,-22 -690,0 -191,30 -537,-20 -697,2 -100,14 -247,2 -351,2 -124,0 -216,-14 -337,-2 -187,20 -492,-14 -699,2 -204,14 -473,-10 -688,0 -201,10 -344,-6 -527,-12 -66,-2 -112,12 -173,12 -118,2 -237,0 -355,0 -63,0 -105,-10 -163,-12 -67,-2 -110,12 -173,12 -121,2 -243,0 -365,0 -59,0 -104,-12 -163,-12 -63,0 -111,12 -173,12 -118,0 -237,0 -355,0 -63,0 -100,-12 -163,-12 -63,0 -108,12 -173,12 -121,0 -243,2 -365,0 -59,0 -100,-14 -163,-12 -62,2 -107,12 -173,12 -118,0 -237,2 -355,0 -59,-2 -98,-14 -163,-12 -58,2 -108,12 -171,12 -119,0 -246,6 -364,0 -221,-10 -461,18 -688,0l-701 6 1 2zm21 441c0,238 -21,393 122,606 46,68 167,171 222,171l10329 0c80,0 205,-123 246,-193 122,-211 115,-362 115,-598 0,-44 -30,-50 -55,-50l-10952 0c-28,0 -28,24 -27,64l-1 0zm7767 7757c13,64 81,44 136,44l1141 0c108,2 218,-2 326,0 133,2 111,18 111,-306 0,-703 14,-4580 -4,-4644 -15,-58 -73,-44 -126,-44l-1466 0c-62,0 -108,-14 -118,60l0 4888 1 2zm1537 -342c0,56 -20,105 -60,72 -27,-22 -25,-87 -31,-135l-46 -622c-4,-99 -11,-213 -22,-308 -13,-105 -13,-223 -22,-330l-164 -2178c-1,-115 -14,-217 -25,-318 -13,-107 -6,-230 -7,-342 -1,-185 -3,-171 128,-169 69,0 174,-10 239,6 7,46 11,42 11,95l0 4228 1 2zm455 -4769c42,-50 20,-266 20,-364l0 -823c1,-268 -39,-171 -437,-171l-843 0c-97,0 -188,-12 -278,-12 -174,2 -382,24 -565,10l-556 2c-94,0 -190,-18 -278,-12 -96,6 -180,12 -278,12 -63,0 -239,-14 -288,-2 -52,12 -41,60 -49,131 -52,477 170,988 468,1160 83,48 139,58 232,77 136,24 2275,6 2791,8 27,0 48,4 62,-14l0 0zm-969 -646c-27,-79 -13,-219 -13,-310 0,-109 -25,-246 56,-246l829 0c13,85 6,201 6,300 0,131 18,258 -30,258 -169,0 -722,10 -848,-4l0 2zm1530 6323c45,-223 -67,-393 -212,-405 -157,-12 -339,0 -499,0 -265,0 -2419,-16 -2510,4 -136,30 -221,262 -153,411 329,0 3319,18 3374,-12l0 2zm-10721 -9772c0,242 39,382 110,570 49,133 162,292 268,330 115,40 171,22 301,-38 112,-52 375,-131 497,-191 65,-32 129,-50 198,-73 71,-11 2721,-628 2926,-628l777 81c97,20 194,16 296,30 208,32 124,14 230,246 7,16 21,42 32,62 59,117 173,258 270,312 136,77 445,62 607,62l1476 0c288,0 472,-155 611,-495 86,-209 132,-461 132,-711l-28 -310c-8,-74 -44,-193 -60,-256 -41,-149 -125,-304 -205,-409l-146 -133c-79,-44 -101,-58 -197,-64 -348,-20 -714,-2 -1063,-2 -103,0 -619,-28 -671,20 8,60 187,278 236,336 145,173 400,316 618,316l393 -12c138,0 275,0 412,0 157,0 229,-4 323,117 221,284 124,829 -119,908 -149,48 -680,-12 -886,20 -131,20 -267,-2 -400,-26 -91,-16 -270,-105 -355,-151 -166,-91 -330,-234 -462,-395 -126,-153 -96,-103 -243,-310 -149,-209 -305,-358 -334,-578 -27,-195 39,-111 -202,-155 -136,-24 -298,-26 -409,-52l-552 -60c-368,0 -3990,874 -4183,1049 -121,103 -194,330 -194,586l-1 4zm5625 -1486c0,193 10,197 121,358 25,36 51,79 77,109 52,60 18,6 88,107l327 423c79,91 295,266 405,314 49,22 62,38 115,56 204,64 215,101 454,101l719 -12c146,0 236,26 329,-50 149,-125 150,-495 28,-666 -34,-48 -100,-81 -146,-81l-843 0c-223,20 -41,24 -317,-36l-142 -60c-18,-10 -22,-16 -48,-30l-163 -123c-133,-129 -169,-193 -272,-324 -62,-79 -281,-395 -322,-431 -169,-149 -413,101 -413,346l3 0zm3187 837c0,264 -1,389 88,642 38,105 110,254 162,316 178,215 326,314 584,314 162,0 316,-85 444,-211 45,-44 73,-85 108,-133 90,-129 77,-121 128,-242 15,-36 24,-56 37,-99 17,-52 45,-161 51,-215 7,-56 22,-197 22,-264 0,-229 -60,-471 -139,-646 -73,-167 -199,-304 -319,-395 -104,-81 -208,-103 -319,-119 -284,-46 -645,270 -753,612 -34,105 -97,308 -97,439l3 0z"/>
 </g>
</svg>
