<?xml version="1.0" encoding="UTF-8"?>
<!DOCTYPE svg PUBLIC "-//W3C//DTD SVG 1.1//EN" "http://www.w3.org/Graphics/SVG/1.1/DTD/svg11.dtd">
<!-- Creator: CorelDRAW X6 -->
<svg xmlns="http://www.w3.org/2000/svg" xml:space="preserve" width="200mm" height="200mm" version="1.1" style="shape-rendering:geometricPrecision; text-rendering:geometricPrecision; image-rendering:optimizeQuality; fill-rule:evenodd; clip-rule:evenodd"
viewBox="0 0 20000 20000"
 xmlns:xlink="http://www.w3.org/1999/xlink">
 <defs>
  <style type="text/css">
   <![CDATA[
    .fil1 {fill:#8950FC}
    .fil0 {fill:#8950FC;fill-opacity:0.301961}
   ]]>
  </style>
 </defs>
 <g id="Layer_x0020_1">
  <metadata id="CorelCorpID_0Corel-Layer"/>
  <g id="_1100471856">
   <path class="fil0" d="M6301 12329c152,0 212,-13 334,-64 17,-6 26,-8 43,-14 12,-5 119,-72 135,-86 43,-33 85,-66 121,-103 143,-146 257,-350 253,-643 -1,-128 -59,-345 -121,-439l-1501 -1528c-80,-72 -151,-149 -226,-223 -1125,-1109 -2246,-2248 -3368,-3364l-503 -504c-115,-91 -53,-55 -203,-134 -107,-55 -224,-82 -378,-82l-9 0c-146,0 -261,30 -371,79 -328,142 -512,486 -507,838 1,100 21,117 34,188 27,151 139,317 252,422 159,151 301,296 454,451l2131 2129c36,36 68,79 107,116 150,140 306,307 448,447 302,301 608,600 902,898l1399 1397c34,33 116,98 161,116 21,8 25,12 39,18 106,49 224,81 374,81l1 4z"/>
   <g>
    <path class="fil0" d="M2737 18371c123,0 255,19 366,72 30,14 22,24 53,45 70,48 81,26 196,140 36,36 67,71 98,116 27,39 67,102 99,125 99,68 223,-6 249,-102 3,-12 4,-44 3,-55 -8,-72 -129,-227 -172,-269 -116,-113 -156,-162 -307,-243 -75,-41 -144,-80 -224,-108 -110,-40 -272,-55 -392,-55 -152,0 -255,31 -379,67 -71,21 -235,113 -301,155 -110,70 -400,357 -393,511 3,55 37,116 84,140 181,98 257,-134 316,-211l84 -91c134,-109 54,-54 196,-139 67,-41 130,-62 208,-79 58,-13 144,-18 215,-18l1 0z"/>
    <path class="fil0" d="M3471 19253c0,-155 -37,-188 -71,-299 -18,-63 -35,-79 -67,-120 -68,-88 -159,-176 -253,-231l-18 -10c-23,-14 -5,-5 -30,-17l-59 -32c-21,-6 -59,-6 -83,-13 -190,-52 -410,-6 -573,99 -36,23 -130,120 -160,156 -66,82 -64,107 -104,175 -137,233 -45,662 161,829 108,88 209,153 360,188 148,35 258,26 404,-30 39,-14 28,-3 76,-27 13,-6 9,-5 26,-13 26,-13 21,-12 45,-28 203,-134 346,-366 346,-629z"/>
    <path class="fil0" d="M18516 18371c172,0 232,32 356,79 58,22 95,55 142,82 57,33 184,166 219,220 28,45 59,100 97,125 40,26 147,31 184,3 172,-125 26,-305 -76,-419 -37,-41 -70,-73 -111,-112l-123 -100c-23,-15 -45,-27 -72,-40 -134,-67 -233,-128 -411,-148 -104,-13 -36,-19 -214,-19 -226,0 -253,43 -392,61 -57,8 -101,44 -152,70 -71,33 -81,39 -142,82 -102,73 -151,118 -235,211 -48,53 -161,224 -165,295 -3,61 37,116 84,144 55,32 138,24 182,-12 52,-41 188,-348 459,-438 139,-46 72,-84 370,-84l0 0z"/>
    <path class="fil0" d="M17791 19299l0 9c0,61 45,229 67,274 48,99 144,218 235,280 126,86 243,116 414,115l9 0c236,0 430,-90 564,-255 165,-202 210,-520 106,-735 -53,-111 -75,-169 -168,-254 -52,-48 -99,-82 -163,-111 -1,-1 -4,-1 -6,-3 -1,-1 -4,-3 -5,-3 -55,-31 8,-9 -80,-35 -44,-13 -35,-24 -103,-35 -337,-52 -569,45 -760,307 -92,126 -110,243 -110,447l0 -1z"/>
   </g>
   <path class="fil1" d="M17349 10339l1 62c114,13 1378,3 1612,4 75,0 157,-8 172,-95 9,-57 -40,-124 -134,-124l-1596 0c-72,0 -57,-4 -57,155l1 -1zm-12888 -3205c0,308 117,442 311,634 156,155 311,314 470,471 40,40 68,82 111,122 116,107 526,537 587,587 99,82 317,334 411,410 114,91 393,395 531,532 39,37 77,68 121,112 1,1 4,4 5,5l23 23c84,103 227,247 322,330 61,53 53,84 151,82 186,-3 1154,-23 1187,8 18,44 19,256 0,299 -248,22 -215,-4 -482,79 -35,10 -103,58 -135,79 -88,58 -160,130 -222,218 -14,19 -34,41 -48,63l-70 144c-32,67 -45,229 -45,313 0,185 49,322 134,456 58,93 72,115 166,198 83,73 121,88 215,139l57 27c165,79 341,46 440,72l0 393c0,94 28,142 -66,142l-5860 0c-80,0 -120,0 -183,23 -14,5 -17,6 -31,14 -210,124 -206,270 -206,501l3 4459c88,6 212,-70 559,-28l135 26c53,13 48,-23 49,-67 0,-24 0,-50 0,-75 -1,-626 -9,-3480 3,-4106l5477 -3c107,0 126,-27 128,75 0,487 -10,975 3,1462 179,15 851,3 1083,3l7503 1c71,-1 54,-19 54,-86l0 -1397c0,-50 4,-50 55,-52 209,-5 418,6 627,1 101,-3 77,10 77,107l0 4062c0,120 17,100 106,70 94,-32 330,-31 424,-18 41,5 173,24 212,21 10,-762 1,-3753 3,-4515 0,-174 1,-222 -101,-345 -22,-27 -28,-35 -57,-55 -84,-59 -159,-67 -271,-67l-1000 0c-61,0 -39,0 -79,-21 0,-91 -18,-507 8,-533 30,-14 84,-9 128,-9l1587 0c169,1 337,-28 463,-109 28,-18 48,-22 76,-37 110,-59 258,-249 306,-363 10,-26 19,-58 32,-81 22,-44 18,-37 30,-89 71,-318 -28,-599 -242,-826 -231,-245 -490,-258 -804,-258l-1474 0c-120,0 -107,9 -102,-169l1633 -5c311,0 414,-337 214,-498 -116,-94 -321,-64 -512,-64l-1287 0c-86,0 -41,-55 -70,-135 -21,-58 -15,-128 -34,-180 -18,-53 -30,-106 -48,-158 -18,-54 -45,-100 -66,-148 -17,-39 -17,-40 -34,-70 -15,-27 -25,-41 -37,-66 -58,-112 -141,-202 -226,-295 -19,-22 -35,-37 -54,-57 -152,-149 -137,-113 -293,-229 -30,-22 -27,-18 -66,-36l-210 -106c-66,-26 -226,-55 -255,-64 -92,-30 -255,-48 -370,-48l-6915 0c-28,109 -12,326 -12,447 0,113 -19,82 -137,82l-420 0c-74,0 -89,5 -130,-36 -30,-31 -54,-54 -84,-84 -306,-309 -636,-623 -939,-935l-259 -263c-233,-222 -451,-468 -691,-680l-80 -88c-244,-241 -406,-457 -783,-457 -119,0 -188,32 -293,71 -119,44 -214,143 -289,234 -93,115 -141,260 -141,421l-8 -5zm-1360 -1994c0,40 -1,91 3,129 14,116 62,232 89,312 23,71 61,112 94,166 81,134 290,303 436,366 188,80 217,95 433,95 63,0 125,-1 182,-14 178,-37 81,-18 190,-53 63,-21 77,-36 129,-64 110,-61 228,-140 302,-240l80 -116c54,-80 94,-185 125,-277l40 -153c28,-205 -1,-349 -64,-520l-139 -251c-66,-79 -119,-139 -197,-204 -28,-23 -84,-61 -117,-77l-58 -35c-102,-49 -282,-104 -387,-106 -66,-1 -130,-1 -196,0 -112,3 -334,88 -442,152 -70,41 -160,119 -214,176 -15,17 -30,36 -46,57 -159,201 -106,192 -191,350 -28,53 -49,242 -49,305l0 1z"/>
   <path class="fil0" d="M15886 1238c-8,62 -9,538 3,582l1522 1c13,-44 12,-554 -1,-577 -74,-137 -1203,-215 -1523,-5l0 -1zm1530 2280l0 -1478 -1531 -3 -3 1442c3,62 30,64 86,84 246,85 632,109 905,82 143,-14 293,-28 430,-72 71,-23 68,-32 112,-54l0 -1zm-876 -2627l218 1 1 -663 1310 -4c14,374 0,769 1,1141l0 7853c0,189 0,379 0,568 0,86 10,167 101,174 102,8 121,-75 121,-165 -1,-381 -3,-765 4,-1146 6,-374 -4,-760 -4,-1136l0 -6726c0,-189 0,-379 0,-568 0,-251 -15,-218 -355,-218 -379,0 -758,0 -1139,0 -86,0 -192,-18 -240,43 -37,48 -21,192 -21,268 0,178 -12,403 1,576l0 3z"/>
   <path class="fil0" d="M8766 5064l5004 0 0 126 -5004 0 0 -126zm0 -784l5004 0 0 126 -5004 0 0 -126zm3476 -1041l1577 0 0 126 -1577 0 0 -126zm47 -876l1577 0 0 126 -1577 0 0 -126zm-3718 807l1577 0 0 126 -1577 0 0 -126zm0 -978l1577 0 0 126 -1577 0 0 -126zm1670 539c-182,3 -366,0 -548,0 -282,0 -487,-47 -445,105 87,45 1064,21 1077,13 29,-18 332,-694 384,-789 29,-50 -3,-21 42,-50 34,47 37,121 58,200 84,284 279,1338 358,1446 92,13 103,-53 155,-210l290 -823c18,-29 5,-13 34,-32 155,431 -45,331 832,331 119,0 237,0 358,0 126,0 271,39 224,-113 -132,-42 -969,0 -1198,-13 -42,-53 -113,-313 -147,-410 -21,-66 -21,-92 -103,-92 -55,60 -161,400 -200,508 -40,108 -145,468 -195,534 -18,-21 0,21 -21,-34 -5,-13 -8,-32 -11,-45l-63 -263c-29,-126 -58,-258 -84,-373 -55,-247 -108,-492 -174,-728 -11,-34 -50,-342 -179,-74 -50,105 -97,200 -147,305 -53,108 -97,202 -147,308 -42,87 -100,224 -150,297l0 3zm-2228 -1517c-21,13 -76,68 -92,89 -55,89 -29,1076 -29,1204l0 2835c0,810 -79,692 737,692 582,0 5586,26 5683,-18 163,-71 103,-413 103,-597l0 -3537c0,-786 53,-676 -737,-676 -519,0 -5630,-13 -5667,11l3 -3z"/>
  </g>
 </g>
</svg>
