<?xml version="1.0" encoding="UTF-8"?>
<!DOCTYPE svg PUBLIC "-//W3C//DTD SVG 1.1//EN" "http://www.w3.org/Graphics/SVG/1.1/DTD/svg11.dtd">
<!-- Creator: CorelDRAW X6 -->
<svg xmlns="http://www.w3.org/2000/svg" xml:space="preserve" width="200mm" height="200mm" version="1.1" style="shape-rendering:geometricPrecision; text-rendering:geometricPrecision; image-rendering:optimizeQuality; fill-rule:evenodd; clip-rule:evenodd"
viewBox="0 0 20000 20000"
 xmlns:xlink="http://www.w3.org/1999/xlink">
 <defs>
  <style type="text/css">
   <![CDATA[
    .fil0 {fill:#8950FC}
    .fil1 {fill:#8950FC;fill-opacity:0.301961}
   ]]>
  </style>
 </defs>
 <g id="Layer_x0020_1">
  <metadata id="CorelCorpID_0Corel-Layer"/>
  <g id="_1100509008">
   <path class="fil0" d="M17607 13707c-25,63 -14,1344 -6,1513 226,26 1459,-27 1560,8 1,3 1,7 3,8l4 18c1,12 1,7 1,20l-1 4363c-1,147 18,212 108,275 79,53 226,36 337,35 132,-1 225,16 307,-65 85,-83 70,-168 72,-310 0,-49 12,-5841 -4,-5936l-2379 72 -1 0zm-14022 -4147c214,64 606,225 816,330 59,30 219,115 275,126l0 -9175c0,-169 4,-323 -71,-455 -221,-392 -790,-367 -976,44 -66,146 -46,300 -46,475l0 8124c0,160 -12,378 3,531l0 -1zm1090 5758c0,-116 -28,-96 179,-96 93,0 187,0 280,0 1510,0 3056,10 4564,0 2323,-16 4670,14 6995,-4l0 -671c0,-162 10,-633 -4,-821l-3902 47c-266,1 -532,-3 -797,-1 -302,0 -1235,-30 -1502,-74 -524,-87 -434,-143 -1049,-137 -177,1 -168,-39 -288,-112 -81,-49 -161,-108 -241,-159 -378,-240 -808,-543 -1188,-788 -163,-104 -320,-206 -483,-316 -156,-106 -325,-211 -474,-315 -147,-104 -129,-64 -281,-117 -52,-18 -111,-27 -159,-46l-606 -376c-328,-197 -668,-389 -1025,-563l-542 -257c-115,-52 -458,-195 -570,-224l0 9053c0,520 -70,572 303,572l312 -1c166,0 401,38 465,-168 27,-87 13,-4408 13,-4425l0 -1zm3016 -5313c-43,-52 -192,-115 -275,-346 -75,-210 -57,-331 15,-527 72,-197 114,-263 232,-386 99,-102 222,-201 378,-246 -59,-147 -343,-366 -517,-440 -374,-159 -797,-142 -1150,81 -98,63 -199,141 -261,215 -160,194 -268,370 -312,641 -45,279 8,606 130,800 170,270 206,305 466,486 200,141 484,188 781,164 108,-8 285,-60 366,-104 48,-26 130,-277 145,-337l1 1zm3278 -240c36,26 112,55 151,74 146,73 230,133 325,92 57,-23 114,-39 173,-64 632,-262 1232,-604 1801,-961 -13,-13 0,-4 -19,-13l-796 -203c-141,-34 -274,-72 -414,-104 -283,-65 -545,-195 -812,20 -99,81 -156,171 -196,323 -35,135 -74,274 -110,412 -25,92 -103,353 -106,426l3 -1zm-2080 -783c22,218 77,277 3,586 -40,163 -145,339 -237,413 -116,92 -95,25 -124,202l-124 865c-31,198 15,388 90,538 74,147 179,247 310,339 151,105 296,117 497,151 86,14 519,83 573,74l139 -663c25,-109 44,-214 75,-327 21,-78 45,-260 80,-318l1714 810c68,33 182,94 257,109 173,35 1506,-236 1862,-281 246,-31 385,-69 474,-249 88,-176 30,-399 -135,-505 -178,-116 -383,-42 -587,-10l-1388 229c-84,14 -68,23 -145,-14 -83,-40 -161,-74 -249,-117 -354,-176 -259,-141 -530,-61 -147,43 -453,135 -597,48 -138,-82 -166,-383 -132,-586l-265 -122c-40,-18 -54,-20 -86,-47l298 -1154c-139,-9 -320,-47 -470,-69 -541,-82 -930,-193 -1301,159l0 1zm3450 1433c31,18 204,-25 262,-34l1391 -229c364,-36 681,89 877,382 204,303 222,702 35,999 -218,345 -456,406 -831,465l-1108 184c-188,33 -373,64 -555,91 -425,63 -605,-82 -1000,-268l-885 -417c-36,135 -66,294 -94,439 -28,146 -59,290 -81,443 -15,104 -126,612 10,669 276,117 1837,104 2223,113 346,9 698,0 1044,0 325,0 693,1 1022,-10 341,-13 689,-8 1032,-17 161,-4 335,-13 497,-13 152,0 363,4 510,-9 13,-42 6,-2356 5,-2611 -1,-281 14,-591 -1,-869 -46,-25 -519,-137 -614,-160l-1551 -391c-70,-18 -83,3 -132,35l-583 378c-155,96 -312,193 -477,289l-370 214c-45,23 -81,40 -128,68 -48,27 -480,233 -498,262l1 -1zm7649 2695c36,-335 -14,-1012 -75,-1327 -99,-520 -203,-991 -588,-1318 -170,-145 -408,-175 -628,-236 -71,-20 -1039,-276 -1099,-280l1 3230 2388 -70 1 1z"/>
   <path class="fil1" d="M17350 438c166,-4 172,-7 170,-186 -1,-132 32,-247 -103,-251l-529 0c-59,0 -99,12 -110,66 -12,59 -9,311 18,344 40,47 102,5 141,31 28,18 13,119 13,158 0,233 5,472 -3,701 -204,10 -443,0 -650,0 -215,0 -431,1 -646,0 -284,-1 -277,99 -279,365 -1,369 332,184 395,253 26,48 10,177 6,242 -93,39 -190,-34 -292,64 -77,74 -55,161 -55,289 0,177 -9,1713 3,1766 25,120 156,129 185,158 -736,887 884,2865 -1479,4315l-577 374c-605,376 -1512,912 -2219,1115 -66,18 -128,33 -187,51 -76,22 -152,14 -196,43 0,77 3,189 34,251 341,13 1200,-379 1511,-541 405,-208 617,-343 979,-554 110,-64 208,-130 312,-195 3139,-1956 1111,-3251 2148,-4871 115,-9 261,25 347,-40 92,-68 79,-159 79,-297l0 -1521c0,-122 19,-255 -46,-330 -81,-90 -163,-68 -307,-69 -3,-61 -13,-210 10,-258 106,-16 636,-1 822,-3 65,0 74,-8 93,12 26,33 10,1262 10,1418l0 10080c0,478 1,956 0,1434 0,238 13,4124 -3,4264 -97,31 -319,-10 -467,29 -267,69 -400,303 -399,574 0,335 -59,279 205,279 199,0 1881,8 1914,-8 35,-26 5,-395 1,-423 -10,-60 -27,-109 -55,-159 -170,-294 -431,-302 -797,-284 -12,-2860 0,-11501 0,-14363 0,-155 -14,-2773 6,-2852 286,12 603,3 892,0 466,-4 596,79 596,-309 0,-77 10,-148 -28,-203 -30,-43 -66,-81 -133,-92 -68,-12 -1222,-5 -1334,-3l4 -862 1 0zm-9375 9058c35,185 321,133 279,-63 -35,-164 -315,-132 -279,63zm89 -274c-334,78 -209,568 114,488 297,-73 210,-565 -114,-488zm-89 274c-36,-194 244,-227 279,-63 43,197 -244,247 -279,63zm210 -761c630,-126 674,1233 -57,1157 -293,-31 -555,-258 -486,-593 53,-260 290,-513 543,-564zm-385 1154c-21,117 -93,318 -132,440 -61,193 -212,698 -308,840 -183,266 -539,353 -813,203 -106,-57 -57,-20 -188,-104 -910,-594 -2226,-1360 -3283,-1606 -385,-90 -874,-9 -1105,-49l-4 -201c218,-44 606,92 617,-188 12,-290 -372,-168 -610,-202 -18,-60 36,-281 -157,-280 -191,1 -139,219 -156,280 -219,33 -609,-91 -610,191 0,293 395,156 613,197 5,51 12,117 -4,165 -65,8 -452,13 -485,-5l-26 -43c-8,-20 -9,-29 -17,-47 -14,-34 -32,-61 -52,-90 -36,-55 -79,-99 -130,-139 -366,-287 -947,-34 -951,471 -4,495 554,776 946,488 186,-137 196,-305 227,-324 61,-10 437,-12 493,1l1 125c-110,36 -129,16 -321,92 -258,104 -508,335 -652,581 -105,181 -182,362 -223,602 -32,185 -45,591 -26,788 45,13 2672,18 2747,1 39,-729 -84,-1403 -645,-1820 -77,-57 -163,-111 -258,-151 -177,-76 -212,-57 -317,-94 -8,-48 -10,-125 5,-163 66,-23 467,-8 573,-7 983,1 2147,649 2992,1107 249,134 508,296 726,440 86,57 93,66 186,106 68,29 120,60 210,82 173,40 361,14 507,-56 427,-207 449,-641 650,-1115 58,-138 103,-300 163,-432 147,18 307,70 496,-55 417,-279 377,-1077 -39,-1265 -575,-259 -1330,814 -641,1233l1 -1zm-7223 -507c-70,23 -59,52 -58,135 3,124 -12,76 -50,148 -58,108 35,220 141,207 114,-13 157,-150 88,-236 -65,-79 18,-302 -120,-255zm2614 5021c12,-129 3,-298 3,-431l0 -1489c1,-120 6,-96 -116,-95l-2110 0c-569,0 -526,-42 -525,107 4,267 -13,1761 3,1908 43,14 2680,20 2746,1l0 -1zm-2254 -996c-76,-798 1010,-897 1046,-130 34,697 -599,800 -881,526 -101,-96 -148,-219 -165,-396zm1097 146c307,-201 546,86 323,310 -28,27 -45,50 -74,77 -15,14 -27,25 -40,36 -32,27 -27,13 -40,52 204,17 285,-42 244,89l-370 4c-235,-18 387,-318 215,-508 -71,-79 -154,4 -226,1l-32 -61zm-621 -603c-397,90 -301,884 101,793 382,-87 308,-884 -101,-793zm1774 6918c22,-69 6,-4720 6,-5005 0,-181 28,-147 -148,-148l-2412 0c-217,0 -192,-21 -191,106 5,408 0,3999 0,4408 0,804 -92,757 449,757l2110 0c101,0 160,-35 185,-116l1 -1zm-2644 -10501c205,-33 387,128 410,305 31,225 -120,395 -306,425 -465,77 -603,-650 -105,-731l0 1z"/>
  </g>
 </g>
</svg>
