<?xml version="1.0" encoding="UTF-8"?>
<!DOCTYPE svg PUBLIC "-//W3C//DTD SVG 1.1//EN" "http://www.w3.org/Graphics/SVG/1.1/DTD/svg11.dtd">
<!-- Creator: CorelDRAW X6 -->
<svg xmlns="http://www.w3.org/2000/svg" xml:space="preserve" width="200mm" height="200mm" version="1.1" style="shape-rendering:geometricPrecision; text-rendering:geometricPrecision; image-rendering:optimizeQuality; fill-rule:evenodd; clip-rule:evenodd"
viewBox="0 0 20000 20000"
 xmlns:xlink="http://www.w3.org/1999/xlink">
 <defs>
  <style type="text/css">
   <![CDATA[
    .fil0 {fill:#8950FC}
    .fil1 {fill:#8950FC;fill-opacity:0.301961}
   ]]>
  </style>
 </defs>
 <g id="Layer_x0020_1">
  <metadata id="CorelCorpID_0Corel-Layer"/>
  <g id="_935777104">
   <path class="fil0" d="M13897 1918c-51,-30 -1849,-11 -2154,-11 -369,0 -273,53 -231,-209 9,-56 28,-79 34,-143 9,-90 11,-263 -9,-344 -26,-109 -47,-252 -102,-350 -15,-26 -45,-109 -90,-179 -102,-160 -192,-271 -339,-384 -66,-51 -143,-90 -218,-139 -70,-47 -128,-53 -190,-79 -26,-11 -26,-19 -58,-28 -60,-17 -83,-11 -149,-34 -49,-17 -105,-17 -158,-17 -226,-4 -303,2 -502,49 -34,9 -36,17 -58,28 -26,13 -43,9 -68,19 -32,11 -28,19 -62,34 -96,38 -199,102 -280,171 -124,102 -164,149 -265,273 -28,34 -53,68 -75,109 -17,34 -21,30 -34,51 -32,56 -49,130 -81,188 -26,43 -17,83 -41,135 -64,141 -49,495 -19,653 15,79 90,184 15,199 -64,13 -2150,-19 -2233,6 -13,43 -21,318 4,346 19,21 2,13 45,17 105,13 239,-26 335,6 21,90 6,457 6,576 0,243 13,1593 -4,1712 -85,19 -3218,6 -3636,6 -96,0 -143,-15 -207,26l2 320c77,53 139,2 207,32 32,56 13,2353 13,2628 0,66 -13,2562 2,2633 66,36 570,17 688,17l4734 0c38,0 135,15 162,-17 30,-36 11,-1539 11,-1787 0,-34 -17,-562 11,-587 41,-23 478,-9 568,-9 77,0 542,-26 559,17l11 60c0,26 0,51 0,77 0,357 -15,2206 9,2231 30,26 239,21 278,2 30,-45 9,-497 9,-587 0,-169 -11,-1697 2,-1787 79,-26 1076,-23 1151,0 19,128 2,444 2,594 0,117 -13,1708 2,1759 6,26 -4,4 11,21 41,34 583,13 681,13l4456 0c81,0 260,21 322,-17 13,-79 2,-2560 2,-2633 0,-145 -13,-2556 6,-2630 81,-17 132,9 211,-23l-4 -339c-79,-34 -359,-17 -470,-17 -527,0 -3299,17 -3363,-9 -17,-105 -4,-1956 -4,-2161 0,-107 -26,-130 58,-130l357 2c43,0 128,15 154,-17 21,-28 19,-312 0,-346l-13 2zm-3871 -1603c160,-17 401,0 544,81 21,13 26,11 49,19 36,13 43,26 88,47 105,49 293,241 352,339 15,23 32,58 49,85 19,30 13,4 28,49 6,21 4,28 17,51l70 201c15,75 11,327 6,401 -2,26 -49,203 -58,222 -13,26 -15,15 -26,49 -32,94 -115,211 -181,290 -58,70 -147,139 -226,196 -21,15 -23,11 -45,23 -196,109 -224,109 -465,152 -92,17 -280,-13 -378,-32 -49,-9 -51,-26 -98,-38 -100,-23 -43,-21 -100,-43 -158,-62 -367,-258 -444,-384l-135 -278c-13,-34 -11,-81 -19,-117 -9,-34 -23,-64 -28,-105 -6,-70 -9,-203 9,-267 11,-43 23,-68 28,-117 6,-51 56,-175 75,-205 15,-23 11,-23 19,-47l139 -201c23,-28 47,-47 73,-73 102,-98 124,-109 239,-175 30,-17 68,-30 96,-47l199 -68c43,-4 88,-4 130,-11l-6 0zm-506 4174c-13,-13 -4,0 -11,-21 -11,-36 -4,-897 -4,-999 0,-190 -23,-209 51,-211 290,-6 683,0 982,2 241,0 201,-17 201,113l0 1001c0,132 26,122 -105,122 -162,0 -1078,11 -1115,-6l0 0zm1834 -1215c56,-34 517,-15 619,-15 111,0 538,-17 613,15l0 1206c-64,34 -517,15 -623,15 -120,0 -542,19 -613,-17l4 -1204zm-3698 1206c-13,-184 0,-690 0,-933 0,-60 -26,-260 23,-282 15,-6 1142,-21 1213,6l-4 1211c-75,28 -506,11 -619,11 -109,0 -549,17 -613,-15l0 2zm7851 1040c0,-83 -15,-81 75,-81l587 0c126,0 105,-30 105,235 0,66 17,493 -21,549l-739 -2c-17,-192 -6,-519 -6,-700zm-11538 11c0,-81 -21,-90 75,-90l510 0c194,0 184,-17 184,70 0,105 17,653 -11,702 -19,23 -551,13 -615,11 -154,-4 -143,9 -143,-154l0 -538 0 -2zm10041 688c-19,-30 -19,-749 -6,-767 23,-28 690,-21 769,-4 11,177 11,568 -4,760 -68,30 -732,17 -758,9l0 2zm-8534 -11c-13,-58 -15,-713 -2,-758 47,-13 747,-21 769,0 17,45 17,726 -4,762 -17,19 -154,11 -192,11 -124,0 -508,15 -570,-15l0 0zm2180 -1061c0,-107 -21,-109 102,-107 214,2 1055,-15 1136,13 -9,352 -2,758 -2,1115 0,107 23,109 -94,109 -228,0 -1108,15 -1136,-13 -17,-17 -6,-1016 -6,-1117zm3694 -94c56,-28 1155,-26 1238,-2 6,113 4,1187 -9,1211 -58,26 -512,11 -615,11 -694,0 -613,47 -613,-156 0,-310 -13,-799 -2,-1065l0 2zm-5878 1599c58,-17 749,-19 767,-2 21,19 21,732 -2,764 -15,15 -62,11 -94,11 -113,-2 -636,15 -664,-17 -17,-38 -19,-688 -6,-756zm-1503 160c0,-149 -23,-171 66,-171l414 0c357,0 290,-56 290,267 0,602 47,519 -175,517 -199,-2 -382,4 -581,-4 -30,-73 -15,-497 -15,-609zm10027 -11c0,-186 -70,-160 325,-160 542,0 455,-41 457,160 0,90 13,581 -13,606 -30,32 -658,17 -756,13 -21,-49 -11,-491 -11,-621l-2 2zm2210 -160c73,0 68,13 66,83l0 617c0,98 -28,83 -113,83l-641 -2c-19,-41 -21,-722 -6,-779l696 -2 -2 0zm-8158 709c75,-41 869,-17 1027,-17 346,0 692,0 1040,0l2077 0c23,47 15,77 15,135 0,130 11,143 -62,143l-2022 -2c-248,0 -1986,15 -2080,-11l4 -248 0 0zm8207 1270l-743 4c-11,-73 -17,-734 2,-773 11,-13 694,-23 756,4 13,92 2,286 2,391 0,100 17,299 -17,376l0 -2zm-12286 -764c41,-17 754,-36 758,2 2,13 11,-9 9,79 0,32 0,64 0,96 0,92 9,557 -9,579l-32 11c-75,11 -700,-2 -711,-4 -36,-81 -19,-267 -19,-374 0,-92 -11,-316 2,-391l2 2zm1499 -2c58,-13 767,-34 771,6 2,13 11,-6 9,79 0,32 0,64 0,96 0,64 0,128 0,192 0,113 11,282 -6,389 -41,17 -732,17 -756,-2 -32,-23 -23,-675 -15,-762l-2 2zm4336 -6749c-58,41 -418,-19 -517,30 -9,70 -11,527 6,562 30,43 149,26 235,26 85,0 186,-4 271,0 51,113 -11,425 28,500 30,51 171,32 280,32 85,0 239,9 318,-2 58,-135 -41,-510 49,-527 11,-2 15,-2 28,-2l329 0c23,0 45,2 68,2 9,0 21,0 28,0 2,0 6,0 9,-2 68,-13 41,-196 41,-299 0,-79 11,-241 -6,-303 -111,-32 -427,26 -517,-13 -28,-58 -11,-322 -11,-408 2,-147 43,-120 -303,-120 -329,0 -318,-26 -314,109 0,36 15,382 -15,414l-6 2zm4324 7520l-126 -2c-6,-115 -23,-743 0,-771 19,-23 702,-11 771,-2l2 530c0,260 49,243 -205,243 -147,0 -295,0 -442,0l0 2z"/>
   <path class="fil1" d="M7814 13017c-17,-36 -12,-284 -9,-341 2,-76 50,-55 128,-55 149,0 327,26 389,-133 19,-47 28,-964 -9,-1033 -50,-88 -107,-111 -239,-111l-6642 0c-299,0 -273,180 -273,415 0,145 -17,585 9,692 21,88 88,161 180,171 100,12 251,-21 334,9 12,31 14,329 0,372l-9 14c-28,24 -1036,9 -1213,9 -135,0 -275,-21 -365,43 -109,76 -88,185 -88,334 0,135 0,270 0,405 0,182 -50,410 133,481 73,28 95,5 159,21 2,0 7,7 9,5 26,-40 12,443 12,474 0,479 14,3254 -9,3277 -12,14 -62,12 -73,12 -223,2 -263,209 -211,318 78,161 296,118 509,118l6301 0c180,0 2393,17 2509,-7 7,-47 14,-355 -5,-400 0,-2 -5,-2 -5,-7 -5,-33 -114,-5 -140,-31 -21,-21 -12,-88 -12,-116l0 -1763c0,-190 -28,-1860 17,-1874l26 -7c28,-5 76,5 114,-12 21,-66 9,-531 9,-637 0,-31 14,-597 -14,-621 -50,-45 -1419,19 -1517,-21l-5 0zm-6213 -1173c0,-64 9,-64 73,-64l6161 0c62,0 59,2 59,64l0 277c0,59 7,62 -47,62l-6197 0c-57,0 -52,-7 -52,-62l0 -277 2 0zm-1154 1623c258,-14 711,-5 1002,-5 55,0 107,0 161,0 78,0 76,0 76,81 0,73 19,306 -21,320l-974 9c-310,0 -251,71 -254,-320l9 -85 0 0zm7358 64c0,-78 21,-69 95,-69 211,0 1005,-12 1152,5 7,78 17,341 -5,400 -156,9 -1123,14 -1232,-5 -14,-107 -7,-223 -7,-332l-2 0zm-7047 4547c-21,-85 -7,-1656 -7,-1886 0,-178 -9,-1746 2,-1879 104,-12 872,-17 924,7 19,57 7,424 7,538 0,28 0,57 0,85 0,12 0,31 -2,40 -19,95 -220,12 -365,52 -85,24 -164,104 -161,216 7,318 448,178 509,227 26,21 14,-2 19,50l-2 417c-17,85 -223,-2 -367,38 -213,59 -206,384 12,427 95,19 258,-14 353,9 12,59 5,289 7,382 0,45 5,78 -12,109 -59,57 -517,-97 -519,232 0,332 455,175 517,235 14,14 12,57 12,88l-9 602c0,-2 -2,5 -5,7 -43,24 -815,19 -915,7l2 -2zm7050 -3069c-14,-97 -2,-464 -5,-614 -2,-107 9,-90 116,-88 133,2 727,-17 808,9l5 3701c0,64 -2,64 -62,64l-784 0c-69,0 -83,9 -83,-64l0 -600c7,-123 197,2 393,-73 180,-66 192,-386 -66,-424 -213,-31 -327,62 -327,-69 0,-517 -31,-441 137,-441 128,0 389,38 389,-211 0,-339 -389,-185 -521,-235l-5 -438c0,-81 52,-59 137,-59 140,0 389,28 389,-218 0,-334 -393,-185 -521,-242zm-5680 -2384c175,-14 5168,-9 5235,0l5 5391c0,69 -2,64 -69,64 -192,0 -927,9 -1059,-5 -2,-2 -2,-7 -2,-9l-7 -2379c0,-256 59,-555 -232,-555l-2500 0c-301,0 -230,301 -230,564 0,261 12,2310 -7,2379 -126,17 -720,5 -924,5 -249,0 -213,28 -213,-128l9 -5327 -5 0zm3296 408c-123,38 -164,116 -164,251 0,156 -9,1218 5,1277 26,118 116,164 249,164 168,0 1204,9 1277,-2 121,-19 171,-116 171,-251 0,-164 9,-1216 -5,-1280 -26,-116 -123,-166 -256,-166 -211,0 -1216,-12 -1275,7l-2 0zm-2898 220l0 1239c0,159 85,232 244,232l1227 0c194,0 227,-126 227,-308l0 -1078c0,-142 -5,-313 -237,-313l-1249 0c-128,0 -211,100 -211,227l-2 0z"/>
   <path class="fil1" d="M19897 19998c107,0 100,-28 100,-124 0,-147 26,-198 -75,-198l-424 0c-100,0 -107,-6 -107,-109 8,-1654 0,-3321 0,-4976 0,-132 11,-1641 -6,-1729 -58,-40 -224,-21 -311,-21l-1612 0c-132,0 -539,19 -629,-15l0 -1409c0,-198 34,-279 -100,-277 -863,9 -1763,0 -2631,0 -55,0 -117,-11 -141,24 -26,38 -11,254 -11,320 0,224 0,446 0,671 0,215 9,458 -2,669 -92,40 -501,17 -635,17l-1622 0c-83,0 -245,-19 -299,24 -15,107 -4,311 -4,428l0 6063c0,72 0,141 0,213 0,179 -77,81 -356,111l0 299 -234 4c43,6 -21,17 139,17l8259 0 704 0 -4 -2zm-5626 -8529c90,-24 439,-9 558,-9 232,0 1561,-13 1673,8 26,98 13,375 13,499l0 6690c0,156 13,917 -13,1010 -73,13 -232,8 -324,8 -34,0 -73,6 -92,-19 -40,-51 15,-1814 -19,-2078 -15,-113 -72,-185 -90,-224 -83,-181 -322,-337 -597,-335 -57,0 -141,2 -188,21 -36,13 -40,19 -79,30 -34,9 -40,21 -66,36 -130,72 -186,145 -258,267 -19,30 -24,19 -38,64 -17,58 -40,92 -47,156 -11,132 -6,281 -6,414l0 1249c0,40 13,379 -15,403 -40,21 -356,15 -413,0 -24,-113 -11,-375 -11,-507l0 -6673c0,-164 -11,-914 11,-1015l2 6zm-2565 8199c-24,-124 -9,-399 -9,-544l0 -5773c0,-175 -21,-183 85,-183l1648 0c111,0 443,-24 514,23 13,134 2,893 2,1096l0 3277c0,365 0,731 0,1096l0 951c-4,45 -17,66 -66,68 -175,8 -375,0 -552,0l-1087 0c-153,0 -397,13 -535,-8l0 -4zm5125 -6481c23,-9 43,-19 77,-19l2164 11c15,58 6,5826 6,6412 0,102 -21,83 -115,83l-2029 0c-139,0 -104,-6 -104,-397l0 -6091 0 2zm431 2168l0 1215c0,115 32,87 309,87l959 0c85,0 111,8 111,-87l0 -1215c0,-43 -4,-58 -21,-81 -36,-11 -1270,-13 -1337,-2 -15,21 -21,43 -21,83zm-5129 475c0,139 0,277 0,416 0,418 -36,409 115,409l1205 0c57,0 58,-38 58,-87l0 -1215c0,-38 -2,-60 -23,-79 -32,-21 -1000,-8 -1190,-8 -209,0 -166,-77 -166,563l0 0zm2586 821c55,13 902,4 1034,4 358,0 322,53 322,-198l0 -1036c0,-186 49,-158 -356,-158 -134,0 -953,-15 -1013,11 -17,94 -9,247 -9,350 0,183 -17,957 21,1025l2 2zm292 -1040c62,-38 286,-21 379,-21 113,0 277,-19 375,15l-4 706c-70,36 -275,17 -371,17 -75,0 -333,21 -371,-21 -17,-26 -13,-618 -8,-697zm2262 2774c53,23 859,11 1027,11 72,0 288,21 332,-19 24,-30 9,-1072 9,-1273 0,-117 -66,-85 -171,-85l-1027 0c-209,0 -181,-58 -181,341 0,141 -15,968 11,1027l0 -2zm-5140 -1138l0 1079c0,57 13,70 73,70l1247 0c47,0 58,-15 58,-62l0 -1249c0,-58 -9,-68 -68,-68l-1247 0c-55,0 -64,26 -64,77 0,51 0,102 0,153l0 0zm5129 -3660l0 1249c0,90 60,66 139,66l1087 0c75,0 154,23 154,-58 0,-198 9,-1187 -6,-1302 -73,-30 -590,-13 -708,-13l-535 0c-66,0 -130,-19 -130,58l-2 0zm-4980 1315c138,0 1160,9 1215,-8 9,-17 15,-30 15,-60l0 -1249c0,-24 -8,-36 -15,-51 -68,-21 -1032,-6 -1258,-8 -79,0 -107,-8 -107,75l2 1262c13,53 90,36 147,36l2 2zm2424 -13c21,9 30,13 62,13l1239 0c96,0 68,-87 68,-288 0,-185 15,-1017 -13,-1079 -55,-19 -844,-9 -1013,-9 -60,0 -305,-17 -335,13 -26,26 -21,1311 -6,1349l-2 2zm428 -298c-153,0 -124,-17 -124,-326 0,-525 -87,-428 456,-428 311,0 299,-32 299,147l0 509c0,105 -34,96 -130,96l-501 0 0 2zm79 -2275l-403 2c-136,0 -113,2 -113,183 0,83 -8,81 30,134 72,6 162,0 235,0l235 4c68,17 -15,458 38,514 36,36 262,23 305,6 36,-162 -23,-369 23,-524l480 0c40,-43 30,-66 30,-134 0,-175 21,-185 -109,-183l-397 -6c-57,-15 24,-480 -41,-520 -62,-9 -141,-6 -207,-6 -100,0 -100,17 -98,111 2,126 9,303 -8,418l0 0z"/>
  </g>
 </g>
</svg>
