<?xml version="1.0" encoding="UTF-8"?>
<!DOCTYPE svg PUBLIC "-//W3C//DTD SVG 1.1//EN" "http://www.w3.org/Graphics/SVG/1.1/DTD/svg11.dtd">
<!-- Creator: CorelDRAW X6 -->
<svg xmlns="http://www.w3.org/2000/svg" xml:space="preserve" width="200mm" height="200mm" version="1.1" style="shape-rendering:geometricPrecision; text-rendering:geometricPrecision; image-rendering:optimizeQuality; fill-rule:evenodd; clip-rule:evenodd"
viewBox="0 0 20000 20000"
 xmlns:xlink="http://www.w3.org/1999/xlink">
 <defs>
  <style type="text/css">
   <![CDATA[
    .fil0 {fill:#8950FC}
    .fil1 {fill:#8950FC;fill-opacity:0.301961}
   ]]>
  </style>
 </defs>
 <g id="Layer_x0020_1">
  <metadata id="CorelCorpID_0Corel-Layer"/>
  <g id="_935778448">
   <path class="fil0" d="M19403 9265c17,-81 14,-192 10,-285 -3,-86 -59,-288 -85,-351 -14,-35 -32,-66 -48,-95 -23,-41 -21,-56 -49,-93 -24,-31 -39,-48 -61,-81 -34,-53 -101,-108 -148,-147 -17,-14 -23,-24 -38,-38l-313 -191 -221 -62c-173,-45 -366,-15 -513,29 -31,10 -94,20 -121,31 -23,10 -56,39 -87,53 -48,21 -59,14 -96,46 -31,28 -45,38 -80,62 -132,87 -269,263 -358,403 -27,42 -28,90 -72,184 -41,88 -37,310 -35,404 7,306 27,188 79,359 16,52 7,60 39,104 25,35 27,59 49,95 20,32 39,41 65,77 59,87 55,79 137,159 63,62 175,128 264,176l200 84c138,34 540,39 671,-13 35,-14 65,-31 107,-45 158,-55 321,-174 424,-302l120 -145c21,-32 28,-72 51,-103 47,-65 94,-233 111,-313l-1 -4zm-8761 455c0,-103 -7,-90 27,-167 32,-76 1,-132 68,-229 34,-51 24,-63 92,-146 61,-73 65,-62 120,-118 58,-58 154,-115 235,-140 171,-53 27,-58 273,-79 75,-6 147,-8 230,-8l2792 0c574,0 519,-38 519,166 0,191 16,184 -233,184l-3221 1c-62,4 -69,21 -114,35 -45,13 -76,15 -118,34 -76,35 -196,133 -238,225 -37,79 -66,119 -68,233 -1,187 52,302 189,423 152,133 288,143 472,143l4241 -8 330 -87c27,-15 32,-25 65,-41 55,-28 114,-90 169,-142 87,-81 204,-277 223,-396 20,-131 11,-278 -11,-393l-89 -229c-14,-27 -27,-34 -42,-62 -59,-108 -13,-42 -87,-121 -104,-110 -107,-146 -292,-326 -89,-87 -193,-160 -285,-239l-186 -129c-79,-59 -337,-204 -410,-222 -68,-17 -72,-39 -140,-60 -79,-25 -259,-83 -326,-94 -144,-21 -330,-87 -520,-94 -217,-8 -313,-34 -591,-34 -189,0 -788,32 -947,76 -233,63 -306,38 -483,77 -106,24 -197,51 -324,56 -113,6 -213,35 -314,58 -107,24 -234,20 -345,39 -117,20 -180,52 -312,59 -135,7 -147,8 -241,44 -17,7 -56,13 -76,17l-343 41c-151,25 -99,44 -321,59l-327 48c-189,45 -218,24 -334,48 -54,11 -103,20 -155,35 -154,44 -248,18 -474,86 -87,25 -226,27 -328,42 -55,8 -104,25 -155,35 -183,31 -350,44 -507,70 -123,21 -206,32 -340,45l-1283 220c-118,17 -217,21 -320,49 -202,55 -344,10 -524,142 -82,60 -193,152 -245,232 -138,216 -68,154 -117,253 -47,94 -6,243 14,330 39,177 47,114 85,199 16,35 3,32 25,60 31,38 155,154 200,177 78,37 211,66 304,66l3479 8c592,0 1208,8 1796,-1 20,-53 -32,-136 -65,-181 -61,-83 -97,-256 -97,-364l1 -4z"/>
   <path class="fil1" d="M9562 925c0,-256 24,-240 281,-240l4340 0c328,0 323,-22 323,229l-2 3438c-18,105 -117,80 -210,80l-3243 0c-202,0 -1368,24 -1443,-20 -77,-44 -47,-225 -47,-329l0 -3156 0 -2zm-3217 -233c80,-22 2146,-5 2425,-9 171,-2 219,9 215,193 -4,134 -2,271 -2,405l0 2431c0,134 0,271 0,405 0,180 33,282 -93,307 -113,22 -2119,2 -2438,7 -199,2 -212,-20 -210,-203 11,-1063 0,-2169 0,-3243 0,-164 -40,-254 102,-294l0 2zm-677 -394l0 4446c0,338 -26,274 538,274l950 0c319,0 259,4 259,585 0,645 -49,605 246,605 385,-2 334,96 334,-641l0 -271c0,-347 -26,-274 751,-274l2787 0c303,0 263,-4 263,411l0 233c0,131 -26,98 35,196 93,15 201,7 295,7 317,0 250,27 252,-610 0,-294 27,-242 564,-242l1813 0c399,0 348,94 348,-607l0 -3721c0,-136 -4,-282 2,-418 9,-238 -95,-176 -496,-176 -2900,0 -5808,-13 -8704,0 -230,0 -230,-22 -230,200l-5 4zm6035 2540l-62 -4c-16,-33 -33,-100 -44,-142 -29,-114 -60,-89 -82,-283 -15,-125 -73,-149 -93,-274 -20,-113 -78,-352 -126,-434 -86,2 -73,4 -111,131 -18,60 -44,89 -64,158 -77,263 -53,38 -124,331 -16,64 -44,78 -69,151 -157,422 -69,349 -711,347 -120,0 -162,5 -135,238 18,158 113,116 270,116l456 0c197,0 162,13 279,-82 -7,-35 -16,4 5,-58 7,-20 58,-291 175,-196 42,35 46,134 58,207 15,85 51,136 73,209 22,71 29,151 49,223 22,82 53,98 73,209 22,116 86,343 129,440 139,-2 71,-67 117,-213 13,-38 33,-71 47,-109 13,-35 24,-96 29,-133 20,-136 36,-144 75,-247 24,-67 18,-120 66,-254 66,-185 33,-124 67,-254 22,-82 67,-158 84,-236 13,-65 95,-460 181,-447 64,11 35,162 98,274 49,85 46,202 89,289 55,105 51,176 91,289 46,129 126,116 288,116 126,0 1140,15 1191,-11 84,-42 84,-302 7,-345 -49,-29 -822,-13 -1040,-13 -129,0 -150,-9 -182,-116 -29,-93 -64,-142 -84,-234 -26,-114 -38,-134 -77,-233 -29,-75 -16,-105 -71,-249 -33,-87 -47,-122 -75,-231 -24,-94 -62,-133 -86,-234 -46,-202 -60,-160 -82,-238 -29,-102 -26,-171 -67,-258 -139,-2 -151,218 -197,405 -16,67 -60,124 -80,207 -58,253 -69,169 -124,483 -18,100 -36,69 -71,238l-139 458 -4 9zm-4683 -1652c162,0 292,131 292,291 0,162 -131,291 -292,291 -162,0 -292,-131 -292,-291 0,-162 131,-291 292,-291zm0 1068c162,0 292,131 292,291 0,162 -131,291 -292,291 -162,0 -292,-131 -292,-291 0,-162 131,-291 292,-291zm0 890c162,0 292,131 292,291 0,162 -131,291 -292,291 -162,0 -292,-131 -292,-291 0,-162 131,-291 292,-291zm1138 -1960c162,0 292,131 292,291 0,162 -131,291 -292,291 -162,0 -292,-131 -292,-291 0,-162 131,-291 292,-291zm0 1068c162,0 292,131 292,291 0,162 -131,291 -292,291 -162,0 -292,-131 -292,-291 0,-162 131,-291 292,-291zm0 890c162,0 292,131 292,291 0,162 -131,291 -292,291 -162,0 -292,-131 -292,-291 0,-162 131,-291 292,-291z"/>
   <path class="fil1" d="M2783 3134c46,85 173,58 283,58l1036 0c93,0 248,33 277,-62 16,-55 11,-1007 0,-1034 -33,-87 -201,-56 -290,-56l-1036 2c-334,0 -285,-18 -285,407 0,109 -16,632 13,689l2 -4zm2001 1913c-71,107 -325,144 -447,144 -69,0 -140,0 -210,0l-1196 0c-212,0 -481,-20 -615,-209 -57,-82 -113,-165 -133,-271 -29,-158 -7,-605 -7,-794 0,-271 -11,-1844 9,-1993 16,-125 53,-133 124,-271 88,-22 57,-64 166,-118 69,-35 98,-71 184,-84 359,-55 646,113 636,-174 -26,-810 270,-661 -1229,-663 -635,0 -549,-89 -549,540 0,1444 0,2891 0,4335 0,360 -4,6242 2,6602 2,91 5,171 -86,193 -58,15 -197,4 -266,4 -254,4 -228,18 -228,-320l0 -11477c0,-69 -11,-345 11,-398 31,-73 51,-11 53,-93l2790 0c5,134 73,-82 71,318l-4 996c0,73 18,105 88,122 78,18 292,5 385,7 204,0 188,7 332,80 182,93 308,280 312,501 13,527 0,1068 0,1597 0,265 0,532 0,798 0,318 26,273 -102,501 -33,58 -33,47 -66,84l-29 40 4 4z"/>
   <polygon class="fil1" points="17248,2023 15965,2040 15961,3311 17246,3311 17248,4587 18526,4591 18526,3311 19818,3309 19820,2038 18526,2035 18526,747 17252,747 17248,2019 "/>
   <g>
    <path class="fil0" d="M4491 19588c76,-186 -163,-324 -299,-238 -25,15 -80,76 -89,112 -31,118 34,235 137,258 127,28 203,-13 252,-131l0 -1z"/>
    <path class="fil0" d="M193 19562c17,154 222,203 318,136 6,-5 43,-35 49,-46 115,-168 -13,-348 -201,-323 -52,8 -99,32 -126,75 -28,42 -48,87 -40,158l1 0z"/>
    <path class="fil0" d="M1540 13434c-8,37 -3,45 -23,71 -116,149 -350,50 -316,-140 13,-73 108,-157 207,-136 43,9 84,44 106,69 30,35 37,86 27,136zm549 9c-8,36 -5,41 -26,66 -138,159 -352,23 -312,-149 23,-100 188,-206 312,-60 28,32 36,95 26,144zm-1434 0c-15,-111 50,-192 133,-212 57,-14 99,8 136,30 107,64 121,262 -59,315 -92,27 -199,-59 -209,-132zm3566 202l-1292 -1c-59,-9 -46,-35 -46,-140 0,-278 -56,-237 256,-237 218,0 1101,-10 1125,10 27,23 17,267 17,314 0,44 -17,54 -61,54l1 0zm54 136c19,37 5,271 6,357 1,59 5,63 -26,102 -86,9 -554,3 -679,3 -138,0 -583,17 -681,-6 -13,-39 -22,-429 -4,-458 22,-32 835,-15 929,-15 85,-1 414,-23 454,19l0 -1zm-3553 -827c-265,23 -288,-53 -285,96l0 1130c0,427 -79,334 416,334l3413 0c93,0 289,21 351,-19 12,-111 3,-1147 3,-1350 0,-64 19,-172 -34,-188 -46,-14 -159,6 -222,-6 -50,-96 8,-445 -25,-575 -53,-8 -587,-12 -634,-4 -32,5 -27,8 -28,50 -3,120 17,462 -15,530 -197,13 -821,3 -1065,3l-925 0c-23,0 -48,1 -70,0 -12,0 -22,0 -34,-3 -92,-14 6,-276 -53,-324 -41,-21 -720,-19 -765,4 -35,68 14,233 -28,320l1 1z"/>
    <path class="fil0" d="M713 18754c0,-107 112,-75 210,-75l3158 0c236,0 265,-28 265,93 0,84 6,278 -5,345 -63,28 -126,-17 -292,100 -66,46 -121,138 -146,235 -17,66 -6,126 13,180 36,100 -4,28 61,131 23,37 57,63 99,93 34,23 21,15 63,33 53,22 17,36 74,36 312,0 141,9 275,-46 27,-12 53,-35 75,-55 115,-109 154,-219 126,-387 -10,-60 -68,-130 -68,-186l0 -4312c-1,-195 34,-224 -102,-225l-680 1c-1,0 -3277,-8 -3380,3 -15,22 -19,24 -19,55l0 3781c0,724 31,532 -139,585 -93,28 -183,91 -234,168 -119,186 -76,417 110,549l120 69 219 0c39,-58 41,-21 94,-59 26,-18 57,-45 80,-68 114,-121 139,-323 62,-453 -49,-84 -36,-150 -36,-260l0 -330 -3 -1z"/>
    <path class="fil0" d="M193 19562c-8,-71 12,-114 40,-158 27,-42 75,-67 126,-75 187,-27 315,153 201,323 -8,10 -43,41 -49,46 -96,68 -299,18 -318,-136l-1 0z"/>
    <path class="fil0" d="M4491 19588c-49,118 -125,159 -252,131 -103,-23 -168,-140 -137,-258 9,-36 65,-96 89,-112 136,-86 376,51 299,238l0 1z"/>
   </g>
   <path class="fil1" d="M6422 11580l2410 1c23,54 28,32 27,116l-1 3130c0,345 -15,4836 8,5166 126,15 325,3 459,3l6833 0c262,0 225,45 225,-233l-1 -8066c-3,-140 48,-117 230,-117l1597 0c299,0 609,8 910,-1l1 8347 882 0 -3 -9106 -27 -13c-1,0 -19,-6 -21,-6 -19,-5 -23,-8 -43,-9 -34,-3 -79,-1 -114,-1l-1580 0c-603,0 -1204,0 -1807,0l-9032 0c-201,0 -1639,-10 -1799,3 -18,27 -25,19 -30,60l1 235c0,195 -4,66 -18,148 0,0 -9,8612 4,8689l882 0 1 -8346 6 0z"/>
  </g>
 </g>
</svg>
