<?xml version="1.0" encoding="UTF-8"?>
<!DOCTYPE svg PUBLIC "-//W3C//DTD SVG 1.1//EN" "http://www.w3.org/Graphics/SVG/1.1/DTD/svg11.dtd">
<!-- Creator: CorelDRAW X6 -->
<svg xmlns="http://www.w3.org/2000/svg" xml:space="preserve" width="200mm" height="200mm" version="1.1" style="shape-rendering:geometricPrecision; text-rendering:geometricPrecision; image-rendering:optimizeQuality; fill-rule:evenodd; clip-rule:evenodd"
viewBox="0 0 20000 20000"
 xmlns:xlink="http://www.w3.org/1999/xlink">
 <defs>
  <style type="text/css">
   <![CDATA[
    .fil1 {fill:#8950FC}
    .fil0 {fill:#8950FC;fill-opacity:0.301961}
   ]]>
  </style>
 </defs>
 <g id="Layer_x0020_1">
  <metadata id="CorelCorpID_0Corel-Layer"/>
  <g id="_935785488">
   <path class="fil0" d="M5754 17125c-19,129 -19,218 -100,350 -185,302 -463,514 -875,473 -271,-27 -446,-154 -588,-309 -105,-115 -112,-170 -169,-274 -37,-66 -67,-305 -51,-396 47,-253 98,-408 305,-595 62,-56 201,-144 275,-169l173 -51c314,-50 639,93 810,304 32,40 117,151 136,196 12,30 20,52 32,79 54,118 69,261 52,390l-1 1zm-4911 -3667c0,166 36,597 72,751 15,65 33,135 48,216 35,187 125,421 190,600 27,74 53,112 77,190l271 521c19,32 35,53 52,81 68,114 189,287 274,385 90,104 158,197 248,288 130,132 259,268 406,385l703 483c101,41 138,72 73,278 -30,93 -38,98 -53,210 -11,82 -32,138 -51,214l-119 674c-7,66 -22,166 -38,226 -11,43 -25,57 -77,62l-753 1c-193,-6 -152,19 -148,297l0 655c64,42 173,21 261,21l7475 1c72,0 114,15 162,-22l1 -768c0,-98 30,-117 -22,-176 -952,-7 -1906,0 -2858,0 -59,0 -119,0 -179,1 -167,4 -122,-102 -170,-384 -19,-113 -27,-206 -52,-315 -22,-99 -26,-221 -49,-322l-140 -596c-19,-55 -27,-66 -40,-139 -40,-218 -136,-192 61,-380 311,-298 604,-621 907,-922l1911 -1935c32,-35 56,-65 93,-97 65,-58 117,-128 183,-178 14,-88 -28,-88 -67,-145l-187 -246c-84,-118 -111,-46 -253,66 -296,233 -576,431 -873,672 -85,70 -167,129 -251,192l-495 382c-80,65 -164,127 -248,195 -22,19 -40,25 -62,42l-189 149c-111,99 -254,190 -373,287l-620 482c-183,159 -173,-58 -483,-292 -36,-27 -107,-70 -136,-82 -57,-25 -94,-52 -151,-73 -106,-38 -257,-58 -393,-45 -67,6 -111,26 -175,40 -169,36 -413,223 -516,355 -35,43 -64,83 -101,127 -79,91 -100,231 -250,113 -86,-68 -177,-114 -259,-184 -44,-37 -78,-58 -121,-97 -191,-169 -376,-364 -516,-586 -17,-27 -28,-32 -46,-58l-83 -145c-31,-53 -59,-81 -78,-139 -27,-81 -74,-155 -107,-232 -22,-52 -36,-107 -58,-159 -30,-70 -31,-98 -53,-175 -122,-432 -146,-878 -72,-1331 22,-139 61,-349 116,-469 35,-74 44,-143 80,-214 68,-138 166,-366 258,-479 107,-130 -23,-92 -174,-134 -47,-14 -148,-45 -184,-71 -33,-24 -36,-26 -77,-45 -67,-31 -170,-113 -221,-166 -140,-144 -215,-272 -299,-457 -36,-78 -20,-144 -44,-205 -64,-4 -89,76 -116,114 -33,47 -64,88 -96,139 -31,47 -62,93 -89,146 -27,53 -58,92 -88,148 -83,156 -167,314 -230,478 -90,233 -175,472 -224,719 -42,211 -79,392 -91,615 -5,82 -19,139 -19,217 0,82 -1,164 -1,246l-2 0zm3257 -3006c0,300 -63,430 -201,655 -31,50 -89,128 -128,158 -7,70 38,93 69,133 31,40 54,72 90,117 16,19 26,41 42,62 101,140 314,390 406,528l91 119c78,5 159,-97 250,-160 31,-21 51,-37 82,-61 56,-42 105,-86 159,-124 35,-25 48,-36 78,-62 26,-24 49,-35 82,-61 30,-25 51,-37 78,-63l881 -675c80,-57 -11,-122 -43,-163 -153,-196 -340,-461 -489,-642 -43,-52 -80,-108 -122,-161l-1222 -1597c-43,-53 -84,-104 -124,-161 -36,-50 -89,-114 -122,-160 -126,-181 -347,-447 -489,-643 -103,-142 -256,-322 -363,-475 -64,-92 -100,-51 -159,2l-1435 1110c-126,98 -127,56 77,319 38,50 84,112 121,161l485 636c42,51 80,102 124,160 59,78 104,-5 182,-30 209,-65 251,-89 487,-84 340,7 605,161 787,351 44,46 154,176 185,241 16,34 28,67 44,97 74,134 100,317 100,472l0 2zm-2715 -2744c56,1 116,-66 156,-97l441 -341c51,-41 94,-70 147,-107 47,-34 98,-87 145,-119l147 -108c43,-35 95,-78 143,-118 1,-62 -41,-93 -107,-173 -42,-51 -74,-107 -122,-160l-539 -706c-175,-190 203,-201 120,-318l-242 -315c-62,-87 -94,-40 -242,79l-1408 1089c-53,56 -4,79 69,175l177 240c95,119 199,-253 332,-42l784 1024 0 -2zm719 2725c0,250 43,327 143,495 47,78 152,185 238,232 112,61 12,37 208,99 40,12 88,22 132,31 400,72 820,-209 929,-627 53,-204 27,-358 -37,-546 -37,-107 -180,-266 -282,-346 -100,-79 -294,-160 -472,-159 -152,0 -310,31 -416,101 -75,48 -56,9 -188,133 -63,60 -149,166 -178,245 -47,130 -79,175 -78,344l0 -1zm3405 2828c112,6 222,-153 363,-237l1008 -776c6,-73 -69,-119 -138,-225 -16,-25 -25,-30 -42,-52l-287 -372c-57,-72 -104,-138 -157,-215 -79,-15 -103,41 -154,76 -100,68 -184,149 -278,212l-415 319c-98,76 -174,139 -275,215l-203 155c-109,76 -19,115 157,343 17,22 33,52 49,73l373 483 -1 1zm-742 3224c-88,17 -121,31 -209,77 -58,31 -107,91 -153,140 -166,183 -159,624 111,807 141,94 269,132 448,108 48,-6 169,-55 206,-79 253,-169 361,-508 177,-798 -125,-197 -361,-298 -583,-253l2 -1zm1870 -3695c-41,22 -122,93 -166,129 -48,40 -116,91 -167,125 -48,32 -111,84 -166,125 -63,47 -11,78 59,166 48,60 77,101 130,161l310 417c17,25 41,68 83,57 6,-1 303,-235 330,-254l163 -129c63,-60 -2,-94 -62,-173 -44,-60 -90,-114 -127,-164l-253 -333c-28,-38 -93,-151 -135,-129z"/>
   <path class="fil1" d="M13093 15583c0,-318 -115,-257 683,-257 59,0 1364,-20 1397,13 31,31 2,83 -24,111 -75,80 -112,154 -170,252 -233,383 -355,903 -357,1359 0,139 40,536 90,631 64,4 1115,-446 1216,-485l1804 -738c352,-126 831,-355 1199,-494l597 -239c9,-74 -55,-139 -95,-196 -247,-348 -375,-473 -738,-732 -544,-387 -1474,-547 -2122,-344 -35,11 -185,78 -225,37 -37,-37 -15,-1454 -15,-1568 0,-401 5,-612 -121,-956 -181,-490 -595,-903 -1097,-1073 -282,-94 -654,-146 -961,-65 -304,80 -531,165 -740,337 -192,159 -370,326 -500,592 -119,242 -220,529 -220,869l0 5378c0,1642 1860,2463 3049,1398 40,-35 70,-87 136,-107 31,2 562,398 1393,388 872,-9 1692,-448 2161,-1158 287,-435 449,-927 450,-1535 0,-155 -29,-496 -75,-618 -71,-7 -247,80 -322,109l-297 122c-104,48 -201,80 -308,128 -92,41 -198,85 -295,124 -108,43 -203,85 -311,122l-148 61c-33,13 -46,24 -79,37l-663 272c-212,92 -403,159 -608,244l-595 242c-278,128 -1035,405 -1198,492 -11,118 287,461 377,551 152,154 273,142 -55,368 -271,187 -643,285 -981,227 -427,-70 -765,-272 -1002,-636 -295,-453 -236,-817 -236,-1424l2 -1844 4 4z"/>
   <path class="fil0" d="M17377 5463c271,-53 562,211 662,334 329,403 546,848 590,1397 23,286 47,295 -119,356 -411,156 -820,24 -1161,-219 -116,-82 -174,-147 -262,-242 -516,-554 -279,-1518 288,-1628l2 2zm1058 -3681c290,-77 522,118 583,320 125,408 -372,761 -726,512 -372,-262 -223,-735 142,-833zm-3224 2915c-114,391 -191,716 -497,1016 -95,93 -290,242 -492,276 -213,36 -487,51 -678,-34 -183,-81 -321,-170 -448,-319 -97,-115 -214,-317 -274,-487 -35,-103 -56,-190 -84,-298 -5,-19 -39,-135 -44,-141 -53,-65 -83,38 -130,-72 -44,-103 -51,-197 -83,-300 -91,-296 -213,-941 -249,-1251 -88,-742 -179,-1945 552,-2387 172,-105 127,-10 304,-7 553,12 933,-480 350,-602 -158,-33 -495,-89 -604,81 -47,74 -165,98 -244,141 -170,91 -297,202 -418,348 -132,158 -265,432 -314,631 -114,458 -169,1099 -86,1561 28,161 37,422 86,677 28,146 90,512 130,631 49,146 70,303 112,449 18,63 58,91 19,158 -60,106 -37,57 23,295 70,288 191,557 346,800 111,173 225,290 362,403 123,101 313,216 499,269 411,118 334,-31 357,410 58,1131 230,2619 1311,3249 557,326 1293,348 1941,224 388,-74 754,-260 1054,-475 165,-118 274,-231 402,-365 170,-177 334,-454 457,-689 46,-89 74,-178 114,-267 26,-58 76,-226 90,-293 25,-118 47,-180 61,-317 7,-57 23,-94 30,-151 25,-187 105,-147 249,-334 112,-144 220,-288 295,-470 130,-317 98,-231 195,-567 177,-615 77,-1421 -37,-2051 -58,-319 -228,-852 -372,-1148l-123 -259c-28,-75 79,-163 126,-235 232,-351 207,-850 -25,-1183 -487,-694 -1611,-603 -1938,178 -221,528 -16,1069 402,1333 109,70 272,141 404,165 111,21 258,17 371,5 72,-9 105,-31 169,-27 98,82 293,650 334,790 88,303 163,602 207,936 44,350 47,725 18,1085 -21,236 -91,463 -174,674 -16,41 -30,67 -46,103 -4,9 -14,36 -23,45 -88,86 -111,-228 -197,-492 -49,-151 -121,-303 -199,-446 -225,-406 -418,-643 -762,-860 -40,-26 -63,-31 -104,-57 -54,-34 -60,-26 -123,-48 -527,-197 -1049,75 -1323,511 -144,228 -285,711 -213,1039 76,348 170,627 409,893 385,423 984,735 1593,686 72,-5 227,-58 276,-19 65,63 -172,548 -213,632 -299,615 -852,1011 -1532,1177 -260,63 -861,79 -1105,-5 -329,-113 -511,-192 -748,-447 -86,-93 -179,-221 -248,-348l-144 -303c-16,-34 -21,-72 -40,-117 -176,-410 -244,-1045 -269,-1510 -9,-163 -44,-423 -21,-574 105,-57 360,-34 757,-322 473,-343 636,-853 813,-1369 58,-171 -49,-89 -46,-197l170 -662c174,-893 355,-1950 65,-2869 -107,-338 -297,-602 -559,-797 -79,-58 -304,-153 -337,-206 -60,-96 -5,-86 -148,-132 -191,-63 -810,-65 -803,254 5,264 439,396 708,389 177,-5 153,-110 376,91 571,511 513,1440 441,2190 -16,168 -51,291 -69,461 -12,125 -156,781 -195,891 -25,70 -28,159 -54,226 -63,166 -4,84 -144,130l-2 7z"/>
   <path class="fil1" d="M9087 4193c30,52 97,265 127,346 49,129 81,225 127,346 87,232 166,482 259,707 91,215 164,465 253,693 95,240 176,474 259,703 42,115 91,240 127,350 40,125 93,232 129,348 89,282 182,236 -216,597 -148,134 -406,269 -645,338 -230,67 -645,79 -863,-19 -79,-36 -115,-181 -162,-315l-313 -872c-18,-52 -55,-133 -73,-177 -166,-419 -346,-964 -511,-1406 -85,-229 -174,-467 -255,-691 -154,-428 -210,-336 247,-486 332,-108 968,-307 1288,-426 75,-29 131,-56 218,-37l4 2zm-2011 -1028c44,60 271,726 336,897 135,359 109,313 -38,353 -32,8 -79,27 -121,44 -146,58 -162,40 -198,-86 -63,-219 -263,-691 -350,-955 -44,-133 -71,-136 89,-181 87,-23 190,-75 285,-71l-2 -2zm1465 -472l105 294c30,96 71,192 107,292 257,713 291,582 -55,699 -164,56 -148,46 -198,-92l-358 -978c-49,-140 8,-125 123,-157 99,-29 180,-85 275,-58zm-2955 -2013c-8,52 99,355 123,403 67,2 91,-12 139,-33 59,-25 358,-123 418,-115l580 1584c16,46 22,67 40,108 87,192 -38,157 -499,313 -178,60 -354,125 -534,165 -4,52 89,328 115,378 115,27 216,-81 332,-63 36,19 578,1535 592,1573 125,351 455,1294 578,1581 180,423 390,1120 580,1584l214 588c51,113 32,90 152,134 261,98 386,144 703,142 87,0 216,-21 293,-4 79,75 222,659 293,718 87,36 218,13 267,65l271 726c210,601 499,1316 709,1928 55,159 113,317 174,474 40,104 71,127 141,186 129,106 113,138 198,159l-1215 -3344c-18,-50 -83,-198 -71,-234 12,-36 129,-121 160,-171 10,-186 -241,-588 -241,-761 12,-42 206,-148 315,-248 89,-81 190,-179 273,-282 216,-269 206,-202 -18,-782 -202,-520 -396,-1097 -594,-1625 -352,-939 -689,-1917 -1043,-2842 -166,-434 -194,-432 -10,-488 178,-54 192,-25 107,-248 -93,-242 -24,-202 -342,-106 -178,54 -728,259 -819,257l-174 -447c-53,-152 -107,-303 -164,-457l-251 -682c-30,-69 -79,-171 -65,-246 71,-42 449,-138 497,-167 12,-56 -87,-355 -137,-405 -127,-2 -1486,492 -1831,593 -53,15 -216,63 -255,88l-6 -2zm2452 5199c-14,65 4,98 32,136 83,6 1100,-350 1124,-365l-28 -131c-83,4 -220,56 -285,79 -89,31 -198,69 -287,94 -91,25 -186,63 -275,92 -55,17 -245,71 -283,94l2 0zm477 1329c-4,52 16,79 36,123 73,10 481,-134 576,-169l556 -181c-2,-60 -18,-106 -40,-142 -67,2 -1112,359 -1128,371l0 -2zm-560 -2053c-4,58 10,109 42,148 42,-2 738,-225 788,-254 6,-50 -2,-96 -18,-131 -73,-12 -497,134 -602,175 -75,29 -146,38 -212,60l2 2zm970 2645c-6,52 8,94 28,144 75,6 338,-94 408,-123 107,-42 309,-88 402,-131 0,-46 -14,-102 -32,-133 -63,-10 -497,144 -598,179 -65,23 -150,38 -208,61l0 2zm-447 -1173c63,-6 740,-229 800,-255 2,-69 -4,-88 -49,-133 -85,-2 -544,173 -693,215 -137,38 -111,61 -59,173z"/>
  </g>
 </g>
</svg>
