<?xml version="1.0" encoding="UTF-8"?>
<!DOCTYPE svg PUBLIC "-//W3C//DTD SVG 1.1//EN" "http://www.w3.org/Graphics/SVG/1.1/DTD/svg11.dtd">
<!-- Creator: CorelDRAW X6 -->
<svg xmlns="http://www.w3.org/2000/svg" xml:space="preserve" width="200mm" height="200mm" version="1.1" style="shape-rendering:geometricPrecision; text-rendering:geometricPrecision; image-rendering:optimizeQuality; fill-rule:evenodd; clip-rule:evenodd"
viewBox="0 0 20000 20000"
 xmlns:xlink="http://www.w3.org/1999/xlink">
 <defs>
  <style type="text/css">
   <![CDATA[
    .fil0 {fill:#8950FC}
    .fil1 {fill:#8950FC;fill-opacity:0.301961}
   ]]>
  </style>
 </defs>
 <g id="Layer_x0020_1">
  <metadata id="CorelCorpID_0Corel-Layer"/>
  <g id="_935779632">
   <path class="fil0" d="M14069 882l1384 0 0 973 975 0 0 1383 -975 0 0 974 -1384 0 0 -974 -974 0 0 -1383 974 0 0 -973zm305 7761l-2487 -2935 848 -903 56 198 1695 1807 4775 -5532 198 621 -5086 6745 0 -1zm-3246 -8643l8872 0 0 9842 -8872 0 0 -9842z"/>
   <polygon class="fil0" points="0,17814 11047,17814 11047,19971 0,19971 "/>
   <path class="fil1" d="M6973 9239c381,402 677,747 1226,922 170,55 493,114 754,32 273,-87 606,-237 778,-456 165,-210 273,-402 327,-660 42,-197 54,-514 16,-756 -23,-146 -52,-265 -87,-411 -5,-24 -40,-187 -38,-197 20,-111 122,-7 107,-166 -13,-150 -63,-270 -91,-412 -79,-415 -342,-1265 -494,-1664 -363,-952 -1013,-2459 -2154,-2546 -268,-20 -155,66 -363,178 -644,353 -1403,-7 -790,-511 165,-137 528,-411 764,-273 103,60 256,17 376,20 257,5 477,64 713,165 255,110 584,359 769,569 422,482 891,1223 1085,1834 67,213 221,531 326,870 59,191 217,673 245,841 35,206 109,410 151,612 19,87 -11,145 76,203 137,92 78,46 159,369 98,391 126,791 95,1179 -21,277 -83,487 -173,709 -80,198 -234,452 -419,632 -410,396 -414,167 -163,713 643,1401 1379,3304 501,4729 -452,733 -1305,1214 -2146,1463 -504,149 -1053,149 -1543,74 -271,-41 -469,-111 -703,-193 -312,-108 -679,-344 -973,-553 -111,-79 -200,-170 -301,-253 -68,-55 -233,-226 -289,-297 -103,-128 -169,-189 -272,-344 -43,-64 -86,-100 -130,-165 -146,-210 -216,-112 -505,-250 -222,-106 -441,-213 -642,-385 -354,-302 -261,-218 -588,-566 -596,-633 -986,-1668 -1249,-2500 -133,-422 -267,-1168 -284,-1615l-19 -388c-13,-108 -196,-147 -297,-205 -496,-282 -780,-899 -715,-1444 135,-1138 1519,-1716 2398,-973 592,502 691,1281 366,1858 -86,151 -233,336 -372,447 -117,94 -295,179 -434,233 -90,35 -143,28 -216,71 -66,161 63,964 103,1160 88,420 185,827 346,1258 169,450 399,905 663,1321 173,273 399,503 630,705 46,40 78,63 118,96 9,8 39,35 55,40 158,51 -12,-344 -78,-713 -38,-211 -48,-439 -46,-660 9,-629 88,-1033 358,-1508 31,-55 55,-76 87,-131 44,-75 55,-67 114,-134 498,-561 1284,-553 1881,-194 312,187 784,684 906,1123 130,467 196,863 79,1329 -186,747 -697,1491 -1447,1807 -88,37 -304,68 -338,147 -36,116 548,557 650,633 740,559 1640,697 2550,482 347,-82 1065,-432 1301,-685 316,-340 481,-545 600,-998 43,-166 74,-376 72,-571l-21 -455c-3,-51 -19,-99 -24,-165 -52,-604 -370,-1412 -634,-1988 -92,-202 -216,-538 -338,-705 -161,-4 -446,179 -1096,76 -774,-123 -1288,-640 -1821,-1155 -177,-170 3,-138 -71,-266l-618 -696c-768,-972 -1647,-2139 -1882,-3425 -87,-474 -28,-909 158,-1305 56,-119 264,-371 268,-456 8,-153 -47,-107 90,-250 185,-194 915,-576 1107,-187 159,321 -269,748 -591,903 -213,103 -248,-39 -386,341 -352,966 301,2054 860,2916 125,191 244,320 371,515 92,143 677,847 792,956 75,70 134,175 206,240 180,161 56,100 252,68l-7 -7zm-5638 -1542c-391,84 -540,462 -486,744 110,570 918,692 1178,175 275,-545 -200,-1025 -691,-919zm3567 3797c-352,103 -531,601 -571,811 -134,687 -110,1361 184,2049 153,360 129,384 366,359 581,-64 982,-475 1231,-978 86,-171 111,-284 157,-452 261,-985 -627,-2004 -1365,-1789l-1 1z"/>
   <path class="fil1" d="M12658 15498c0,-332 -122,-269 720,-269 63,0 1439,-21 1476,14 33,31 2,87 -24,115 -79,82 -117,159 -180,262 -245,401 -376,942 -377,1420 0,145 44,560 94,658 68,5 1177,-466 1284,-506l1904 -771c370,-131 877,-372 1266,-515l631 -248c10,-79 -58,-147 -101,-204 -262,-363 -397,-496 -779,-764 -575,-403 -1555,-572 -2239,-358 -37,12 -196,82 -238,38 -38,-40 -16,-1518 -16,-1637 0,-419 7,-640 -128,-998 -192,-511 -627,-942 -1158,-1120 -297,-99 -690,-154 -1015,-68 -320,84 -561,173 -781,351 -204,166 -390,340 -528,619 -126,253 -232,553 -231,907l0 5615c0,1715 1965,2572 3218,1459 42,-37 73,-91 143,-113 31,2 594,415 1471,405 919,-10 1787,-468 2280,-1207 302,-454 473,-968 475,-1602 0,-162 -30,-516 -79,-646 -75,-7 -260,82 -341,113l-313 127c-110,51 -213,84 -325,133 -96,44 -210,89 -313,129 -114,45 -215,89 -328,127l-157 63c-35,14 -49,24 -82,38l-700 284c-224,96 -424,166 -643,255l-627 253c-293,133 -1092,424 -1265,515 -12,124 304,480 398,574 161,161 288,148 -58,386 -286,195 -680,297 -1036,239 -451,-73 -809,-284 -1059,-665 -311,-473 -250,-855 -250,-1487l2 -1926 7 3z"/>
  </g>
 </g>
</svg>
