<?xml version="1.0" encoding="UTF-8"?>
<!DOCTYPE svg PUBLIC "-//W3C//DTD SVG 1.1//EN" "http://www.w3.org/Graphics/SVG/1.1/DTD/svg11.dtd">
<!-- Creator: CorelDRAW X6 -->
<svg xmlns="http://www.w3.org/2000/svg" xml:space="preserve" width="200mm" height="200mm" version="1.1" style="shape-rendering:geometricPrecision; text-rendering:geometricPrecision; image-rendering:optimizeQuality; fill-rule:evenodd; clip-rule:evenodd"
viewBox="0 0 20000 20000"
 xmlns:xlink="http://www.w3.org/1999/xlink">
 <defs>
  <style type="text/css">
   <![CDATA[
    .fil1 {fill:#8950FC}
    .fil0 {fill:#8950FC;fill-opacity:0.301961}
   ]]>
  </style>
 </defs>
 <g id="Layer_x0020_1">
  <metadata id="CorelCorpID_0Corel-Layer"/>
  <g id="_935772944">
   <path class="fil0" d="M12958 7253c-147,-308 -451,-1268 -393,-1649 157,-1035 1528,-1702 2422,-1446 572,165 688,515 886,1130 332,1026 658,2040 1004,3088l996 3104 -3160 1187 -350 -1093c301,-136 665,-260 985,-379 410,-154 861,-223 747,-588 -160,-511 -1446,396 -1917,412l-223 -700c204,-116 716,-277 978,-378 413,-157 839,-221 758,-581 -87,-388 -686,-48 -942,48 -267,99 -730,312 -985,357l-217 -713 1475 -563c479,-175 294,-720 -206,-521l-1459 542 -226 -722c275,-70 695,-256 991,-371 392,-151 843,-218 748,-575 -126,-473 -1205,213 -1913,412l1 1zm6121 6759c-332,-57 -438,41 -702,97l-612 -1898c100,-101 1092,-427 1313,-521 275,-116 285,-451 83,-566 -198,-112 -516,104 -723,151 -106,-161 -1361,-4132 -1548,-4697 -690,-2084 -671,-3360 -2985,-3004l-942 -2920c-95,-286 -165,-769 -550,-629 -368,133 -157,599 -56,913l929 2884c-601,386 -1238,890 -1302,1825 -35,512 135,895 271,1322l1540 4732c109,342 314,861 374,1183 -187,136 -507,125 -592,342 -100,253 96,494 377,409 415,-127 891,-389 1302,-487l617 1928c-361,148 -717,279 -878,826 -208,710 256,1919 1633,1394l2424 -918c383,-140 729,-309 881,-802 158,-517 12,-931 -311,-1278 -128,-139 -322,-246 -544,-284l-1 0zm-7251 -13505c-192,244 -202,524 -804,1078 -376,347 -734,496 -870,1049 -249,1014 728,1396 1166,1154 211,-116 488,-389 541,-729 61,-386 74,-2244 -34,-2551l1 0z"/>
   <path class="fil1" d="M5856 15095l456 25 -9 409 -443 -3 -5 -432zm1780 -706c0,-542 464,-1110 694,-1468l750 -1162c101,-160 -3,-72 119,-136 86,72 1330,2016 1422,2222 213,475 107,1116 -156,1471 -342,463 -718,651 -1375,651 -753,0 -1452,-678 -1452,-1580l-2 1zm-1780 -3232c150,-18 316,-30 456,15l3 3455c-139,46 -311,39 -459,16l0 -2624 0 -862zm-435 5244l7307 0c0,-188 42,-5487 -23,-5693l-7245 12 -39 5681zm1998 -8545c-2,200 45,405 -77,499 -724,556 -1838,865 -1919,1906l7523 0c-38,-1041 -1112,-1258 -1978,-1974l-14 -406c-234,-75 -3047,-25 -3535,-24zm-1998 9008c0,877 -59,1517 1126,1511l5303 0c1221,0 1094,-727 1105,-1519l-7534 9 0 -1zm1563 -10982l3308 0 8 432 -3310 1 2 1102 4402 -1c41,-360 21,-724 17,-1087l-668 -19 0 -409 660 -24 14 -639 -4431 -6 0 650 -2 1zm2190 9417l26 -405c-414,-114 -325,-130 -479,-462 -180,4 -402,-52 -411,91 -9,136 89,309 157,412 107,160 417,433 707,364l0 -1z"/>
   <path class="fil0" d="M1702 12408c33,-27 1259,-39 1343,-10 39,13 568,659 636,739 697,831 616,1102 618,2104 2,910 28,1805 30,2715 2,1573 148,1548 -1181,1548 -461,0 -929,-2 -1389,6 -409,7 -984,72 -1162,-231 -148,-250 -92,-2157 -98,-2607 -7,-564 -84,-2265 52,-2685 98,-309 358,-654 531,-848l623 -731 -1 0zm1972 -38c175,0 338,-1 470,-86 430,-277 277,-1028 146,-1210 -187,-260 -484,-220 -878,-220l-2187 0c-390,0 -653,-30 -831,266 -122,203 -136,728 -27,937 143,271 357,313 744,313 -68,139 -208,287 -312,403 -928,1027 -784,1312 -784,2700 0,762 -61,3734 77,4069 139,335 462,474 927,456 814,-33 1949,0 2808,-6 461,-4 747,-141 872,-503 119,-349 60,-2163 60,-2672 0,-485 31,-2407 -26,-2737 -140,-815 -916,-1380 -1057,-1711l-1 1zm-1646 2751c-219,0 -538,-24 -725,22 -59,153 -41,260 -39,448 0,301 118,230 773,230 0,241 -26,550 41,736 236,41 198,24 450,22 298,-2 219,-272 218,-748 275,-41 600,36 822,-55l23 -419c-4,-391 -213,-175 -846,-244 0,-203 22,-570 -34,-725 -296,-57 -140,-29 -449,-29 -358,0 -173,177 -231,762l-2 1zm-696 2065c-130,425 223,323 897,323 266,0 1103,55 1255,-67 186,-148 -43,-287 -193,-300 -248,-22 -1806,-21 -1960,43l0 1zm1902 770l-1684 0c-364,0 -323,351 -28,367l1815 -7c350,-58 250,-360 -102,-360z"/>
  </g>
 </g>
</svg>
