<?xml version="1.0" encoding="UTF-8"?>
<!DOCTYPE svg PUBLIC "-//W3C//DTD SVG 1.1//EN" "http://www.w3.org/Graphics/SVG/1.1/DTD/svg11.dtd">
<!-- Creator: CorelDRAW X6 -->
<svg xmlns="http://www.w3.org/2000/svg" xml:space="preserve" width="200mm" height="200mm" version="1.1" style="shape-rendering:geometricPrecision; text-rendering:geometricPrecision; image-rendering:optimizeQuality; fill-rule:evenodd; clip-rule:evenodd"
viewBox="0 0 20000 20000"
 xmlns:xlink="http://www.w3.org/1999/xlink">
 <defs>
  <style type="text/css">
   <![CDATA[
    .fil0 {fill:#8950FC}
    .fil1 {fill:#8950FC;fill-opacity:0.301961}
   ]]>
  </style>
 </defs>
 <g id="Layer_x0020_1">
  <metadata id="CorelCorpID_0Corel-Layer"/>
  <g id="_935778448">
   <path class="fil0" d="M13612 17720c-162,212 -362,253 -377,360 -13,94 58,105 123,77 36,-15 226,-188 270,-224 44,-36 113,-61 118,-130 7,-84 -54,-87 -136,-87l2 2zm-377 -750c-99,-12 -75,-14 -141,36l-274 219c-66,54 -388,258 -160,370 88,43 261,-137 389,-242 241,-198 307,-208 186,-384zm-1905 -1422c65,-1 78,-35 120,-71 154,-134 188,-66 -91,-398 -79,-95 -118,-249 -271,-125 -182,149 -102,172 9,309 45,55 60,79 121,136 53,50 62,124 112,149zm2613 3364c9,70 329,414 403,509 7,9 21,33 35,50 160,209 44,104 8,280 -43,202 149,295 285,226 93,-47 403,-303 491,-375 239,-198 45,-407 -91,-416 -108,-7 -181,95 -268,-17 -27,-35 -34,-62 -66,-102 -102,-126 -259,-286 -329,-386 -37,-54 -85,-179 -215,-40 -112,116 -268,161 -255,274l2 -2zm-850 -2070c-8,-84 -40,-97 -89,-155l-295 -368c-136,-170 -277,-330 -407,-495 -343,-434 -278,-415 -465,-315 -115,61 -179,99 -264,178 -332,302 -193,314 -30,540l601 744c351,447 312,421 470,285 108,-94 436,-330 481,-415l-2 2zm-1463 -1673c-92,-109 -311,-433 -407,-437 -62,-2 -235,91 -275,128 -31,31 -82,91 -103,123 -106,157 -4,200 157,401 72,88 114,145 194,235 74,83 18,101 -34,179 -132,195 -83,241 24,375l1320 1624c217,265 437,559 657,809 213,243 -253,189 -64,475 103,156 247,106 359,8l581 -475c47,-48 89,-80 147,-123 54,-41 89,-68 142,-113 154,-132 581,-370 320,-597 -163,-142 -273,75 -382,72 -48,-27 -327,-392 -384,-463l-372 -459c-119,-160 -260,-318 -381,-470l-753 -932c-254,-320 -253,-380 -480,-312 -183,54 -137,103 -265,-47l-2 0zm-300 378c-48,-25 -58,-99 -112,-149 -59,-57 -76,-81 -121,-136 -109,-137 -191,-159 -9,-309 151,-124 192,30 271,125 279,330 245,264 91,398 -42,36 -55,69 -120,71zm610 -203c93,-47 183,106 215,146 63,75 115,139 175,216l1727 2137c113,137 178,95 -206,384l-314 264c-183,137 -128,175 -300,-37l-519 -638c-229,-285 -460,-564 -697,-853 -227,-280 -459,-582 -697,-853 -81,-93 -122,-130 -31,-254 110,-151 335,-369 517,-452l131 -62 0 2z"/>
   <path class="fil0" d="M2848 16960c60,77 157,227 214,262 43,-13 235,-158 262,-208l-275 -353c-50,13 -230,163 -260,198l62 99 -2 2zm-886 1744c82,299 609,225 529,-156 -70,-329 -632,-227 -529,156zm162 -472c-546,200 -257,897 205,776 184,-49 345,-260 284,-499 -40,-154 -260,-361 -489,-277zm-162 472c-103,-381 459,-485 529,-156 80,381 -447,455 -529,156zm559 -1800c38,-7 596,-420 632,-487 -15,-40 -242,-358 -305,-395 -58,18 -597,440 -626,480 15,47 270,376 299,401zm-793 -1200c68,-238 -108,-428 -282,-477 -230,-64 -442,114 -481,280 -115,500 609,725 762,196zm-913 -2273c35,-45 55,-39 83,-86 -22,-42 -50,-71 -72,-99 -27,-35 -40,-67 -83,-91 -48,17 -691,510 -744,574 12,55 117,181 150,203l97 -62c75,49 315,442 397,494 62,-22 516,-381 542,-420 -27,-81 -345,-431 -370,-515l0 2zm582 579c-77,17 -597,445 -672,502 -105,79 -128,39 100,322 87,107 169,220 245,321 57,-5 202,-107 404,-54 235,62 424,301 390,572 -22,180 -112,242 -152,316 28,74 264,346 324,440 70,-8 322,-227 387,-277 53,-42 339,-240 374,-304 -22,-69 -289,-393 -349,-472 -120,-161 -994,-1326 -1053,-1363l2 -3zm355 4128c-272,-111 -556,-514 -637,-838 -179,-707 189,-1064 194,-1168 -67,-24 -117,-18 -185,-52 -58,-30 -95,-55 -135,-94 -48,-47 -68,-79 -98,-131 -37,-65 -35,-114 -62,-171 -82,23 -202,270 -240,349 -147,301 -214,630 -205,970 7,280 28,277 75,500 58,274 247,583 402,769 229,274 347,336 634,517 -3,69 -55,270 -77,349 -32,114 -27,264 -63,364 -177,10 -419,-49 -437,47l-2 126c2,294 -38,302 98,301 998,-13 2051,-2 3055,-2 479,0 470,54 469,-126 0,-39 0,-77 0,-114 0,-148 22,-212 -45,-225 -33,-7 12,0 -25,-3 -12,-2 -43,0 -57,0l-1320 -2c-22,-163 -45,-312 -75,-467l-102 -440c58,-42 130,-124 187,-183 58,-60 125,-124 184,-186 125,-129 242,-250 367,-374 27,-27 721,-715 722,-750 -18,-60 -102,-163 -148,-201 -68,12 -711,532 -781,586 -105,81 -722,574 -781,589 -67,-44 -102,-124 -194,-178 -239,-143 -469,-62 -631,146 -43,55 -37,64 -83,91l-3 2zm369 96c229,-84 449,123 489,277 62,238 -100,450 -284,499 -460,121 -751,-576 -205,-776z"/>
   <path class="fil0" d="M11074 10974c-353,70 -136,378 -114,716 10,148 95,452 129,601 22,92 8,133 39,216 29,75 61,322 79,414 12,63 33,127 46,197 8,38 5,74 18,112 46,159 50,303 90,410 39,107 -27,115 106,264 125,141 442,70 381,-238 -38,-193 -76,-440 -125,-622 -46,-175 -99,-451 -125,-622 -22,-149 -53,-263 -79,-414 -12,-66 -29,-116 -44,-199 -12,-63 -34,-137 -49,-204 -14,-67 -18,-149 -35,-214 -14,-47 -18,-41 -27,-97 -26,-147 -52,-368 -289,-320l-1 -1z"/>
   <path class="fil1" d="M18290 17975c52,-237 -11,-649 -144,-842 -79,-114 -190,-13 -321,98l-311 245c-3,2 -6,3 -8,5l-73 62c-24,24 -2,3 -29,28l-269 230c-128,104 -521,408 -615,506 -29,31 -41,34 -68,57 -55,47 -97,75 -144,119 -45,42 -109,62 -105,144 6,165 504,357 636,370 139,15 462,21 577,-26 177,-72 97,0 248,-98 3,-2 15,-8 18,-10 49,-28 32,-23 73,-51 36,-26 45,-21 81,-46 109,-75 266,-290 332,-413 28,-49 68,-114 76,-173 15,-95 28,-122 47,-207l0 2zm-472 -1126c60,-67 15,-129 -37,-171 -178,-144 -297,-193 -512,-248 -135,-36 -323,-29 -486,-23 -268,10 -665,264 -795,475 -21,34 -36,46 -54,70 -78,106 -157,321 -180,459 -19,114 -29,349 -8,472 21,119 131,610 336,428l232 -210c37,-29 101,-69 131,-101l827 -687c49,-42 97,-80 144,-119l404 -344 -2 2zm-2647 -1751c5,26 24,60 34,86 78,186 -47,-10 149,224 91,109 174,142 307,196l350 148c89,33 94,54 162,82l1228 503c37,16 55,15 91,34 28,16 39,31 76,46 177,65 149,41 350,135 62,29 125,41 182,69l444 181c36,13 42,24 83,41l172 75c31,13 60,15 94,31 91,42 164,70 279,80 319,26 525,-165 637,-357 44,-77 5,-49 75,-175 24,-44 32,-134 60,-191 68,-144 88,-450 -16,-607 -188,-284 -253,-282 -582,-418l-336 -135c-263,-131 -681,-273 -941,-388 -13,-5 -28,-11 -37,-16 -24,-13 -49,-33 -73,-47 -83,-51 -206,-80 -266,-106 -66,-29 -18,-21 -83,-41 -83,-24 -107,-49 -167,-69 -73,-23 -115,-42 -190,-64 -73,-21 -8,-10 -81,-41l-266 -108c-180,-96 -79,-31 -174,-73l-542 -210c-224,-69 -418,-54 -603,52 -172,100 -118,80 -196,179 -83,106 -131,385 -170,455 -21,39 -26,0 -41,82 -16,90 -23,271 -8,348l-2 0zm2085 963c-81,-2 -412,-152 -499,-199 -97,-54 -222,-67 -394,-147l-535 -225c-47,-20 -10,-5 -45,-24 -112,-59 -170,0 -396,-284 -31,-39 -58,-157 -62,-209 -11,-144 63,-286 115,-418l84 -191c88,-134 128,-193 292,-246 182,-60 281,24 339,44 165,55 78,51 212,70l671 279c219,109 208,78 300,117l284 117c73,24 135,49 91,142 -16,34 -21,13 -42,101 -39,166 -47,90 -78,193l-133 338c-18,39 -10,20 -26,44 -45,69 -13,70 -70,206 -32,78 -18,119 -107,297l-2 -5z"/>
   <path class="fil0" d="M16517 13555c0,-215 -182,-356 -343,-525l-630 -671c-102,-127 -512,-553 -638,-686 -144,-151 -280,-303 -422,-449l-264 -282c-207,-190 -599,-708 -842,-809 -167,-70 -340,62 -216,333 41,89 426,481 519,578l65 73c3,3 8,11 11,12l283 310c18,25 31,40 52,66 42,53 248,247 324,340 18,22 26,36 48,58l162 175c38,38 76,67 114,105 67,67 184,215 257,278l384 393c68,82 143,140 206,238 33,51 4,19 45,59l208 223c99,108 295,316 429,349 87,22 117,14 176,-25 64,-41 76,-38 78,-140l-3 -3z"/>
   <path class="fil0" d="M8779 10558c117,-312 -269,-529 -438,-111l-68 126c-42,94 -68,204 -105,307 -18,51 -50,86 -69,136 -19,45 -34,96 -54,144l-223 592c-18,62 -39,99 -59,151 -50,136 12,34 -80,223l-57 153c-56,126 -71,220 -114,292 -39,66 -158,437 -201,509 -27,45 -39,82 -53,142 -26,122 -80,185 -114,293l-279 735c-12,30 1,-3 -12,23 -42,81 -39,274 -24,336 48,192 250,174 358,49 151,-175 275,-703 358,-866 42,-84 80,-197 118,-286 41,-92 73,-197 106,-305 16,-55 44,-100 60,-149 57,-170 121,-279 171,-430 60,-177 95,-288 166,-452 19,-42 41,-101 56,-142l225 -590c14,-48 33,-111 53,-159l279 -719 3 -1z"/>
   <path class="fil0" d="M6215 10116c26,-60 26,-144 -23,-182 -129,-99 -203,-81 -344,-7 -125,64 -250,216 -359,330l-229 225c-52,59 3,16 -93,104l-150 153c-109,111 -219,210 -320,333l-455 462c-42,29 -34,16 -63,55 -53,74 -117,112 -174,174 -22,23 -39,38 -56,60 -59,79 -90,101 -166,173 -42,40 -75,75 -116,116l-167 181c-101,126 -165,189 -272,297 -60,60 -157,173 -223,229l-335 353c-71,78 -152,241 -71,340 110,133 372,7 486,-108l570 -581c41,-40 69,-74 114,-118l1576 -1633c157,-152 302,-308 452,-466 82,-86 142,-145 220,-234 44,-48 20,0 116,-116 86,-104 49,-71 78,-140l3 0z"/>
   <path class="fil1" d="M5422 17839c24,201 741,840 948,991 144,106 1067,729 1267,657 604,-215 1302,-720 1740,-1174 93,-96 154,-171 229,-264 197,-247 170,-222 47,-222 -907,-2 -727,85 -924,-266 -110,-196 -354,-625 -422,-778 -61,31 -14,-22 -54,55l-670 1764c-20,31 -7,20 -37,31 -75,-135 -142,-283 -215,-418l-665 -1239c-49,26 -8,-15 -46,48 -110,189 -302,594 -421,814l-775 2 -2 0zm2093 102c36,-36 37,-61 56,-109l309 -807c39,-109 320,-879 358,-918 36,14 34,26 63,84 14,27 34,63 51,94 244,421 444,828 680,1256l895 3c81,-114 153,-389 181,-556 20,-113 25,-218 24,-341 -7,-505 -205,-995 -548,-1281 -697,-584 -1565,2 -1996,418 -75,-29 -339,-365 -887,-572 -856,-322 -1450,246 -1642,1101 -100,445 12,911 175,1235 105,15 290,5 404,5l368 -10c2,-5 7,-2 10,-3 31,-19 283,-514 317,-582 49,-99 100,-193 154,-295 36,-67 114,-249 161,-292 53,19 7,-20 47,43l705 1338c22,44 34,63 54,106 25,51 24,61 59,90l0 -5z"/>
   <path class="fil1" d="M9763 18c-1240,99 -2239,598 -3103,1383 -124,112 -207,216 -320,333 -390,405 -755,1058 -965,1603 -639,1664 -332,3647 763,5015 105,130 188,226 294,344 186,208 450,445 677,613 378,282 784,510 1244,685 1710,650 3567,344 4990,-765l258 -218c207,-168 538,-555 690,-763 86,-118 178,-250 256,-382 550,-928 835,-1967 741,-3124 -138,-1699 -1067,-3124 -2432,-3981 -884,-555 -1999,-832 -3095,-744l0 2zm-2384 3176c0,-64 62,-126 94,-174 35,-53 75,-107 110,-162 65,-101 159,-219 215,-312l4370 2c-56,112 -245,382 -334,514 -37,53 -62,126 -135,133 -242,24 -937,-29 -1120,5 25,43 70,98 103,147 103,157 170,349 211,534l1256 5c5,45 -250,408 -307,491 -30,46 -84,109 -105,154l-811 3c-64,322 -130,470 -275,717 -99,168 -324,387 -477,501 -380,285 -999,445 -1487,466 33,106 483,632 603,773 111,130 207,253 313,381l1393 1690c124,146 149,146 119,299l-910 3c-73,0 -127,-82 -196,-168 -321,-400 -803,-941 -1135,-1336 -337,-402 -794,-954 -1142,-1346 -72,-82 -135,-141 -135,-213 0,-149 -13,-446 8,-578 623,35 1256,74 1797,-269 301,-190 568,-555 569,-922l-2607 -3c6,-62 337,-512 393,-594 41,-61 41,-56 130,-56l1967 0c-89,-328 -611,-568 -951,-643 -386,-85 -1094,-45 -1528,-45l2 3z"/>
  </g>
 </g>
</svg>
