<?xml version="1.0" encoding="UTF-8"?>
<!DOCTYPE svg PUBLIC "-//W3C//DTD SVG 1.1//EN" "http://www.w3.org/Graphics/SVG/1.1/DTD/svg11.dtd">
<!-- Creator: CorelDRAW X6 -->
<svg xmlns="http://www.w3.org/2000/svg" xml:space="preserve" width="200mm" height="200mm" version="1.1" style="shape-rendering:geometricPrecision; text-rendering:geometricPrecision; image-rendering:optimizeQuality; fill-rule:evenodd; clip-rule:evenodd"
viewBox="0 0 19991 19991"
 xmlns:xlink="http://www.w3.org/1999/xlink">
 <defs>
  <style type="text/css">
   <![CDATA[
    .fil0 {fill:#8950FC}
    .fil1 {fill:#8950FC;fill-opacity:0.301961}
   ]]>
  </style>
 </defs>
 <g id="Layer_x0020_1">
  <metadata id="CorelCorpID_0Corel-Layer"/>
  <g id="_935778096">
   <path class="fil0" d="M16107 3750c-97,47 -140,82 -104,212 17,60 6,62 75,93 154,70 273,-52 240,-194 -19,-82 -124,-153 -212,-109l0 -2zm303 354c0,370 356,291 440,198 30,-33 69,-138 71,-183 0,-76 -77,-256 -236,-259 -123,-3 -273,93 -273,245l-2 0zm1643 -2419c0,155 97,98 19,250 -119,8 -105,-32 -218,-32 -133,0 -204,207 -39,297 46,25 80,19 132,49 17,212 -199,101 -199,293 0,76 42,117 72,157 162,14 203,-73 309,-51 79,130 -71,138 -6,312 53,73 176,104 242,32 82,-89 20,-182 144,-201 88,33 72,119 154,193 79,71 203,-16 237,-62 36,-92 -82,-194 -39,-305 105,-40 126,36 239,25 94,-8 133,-79 133,-179 0,-114 -151,-111 -215,-172 -58,-98 80,-136 188,-223 9,-122 -44,-225 -135,-225 -124,0 -160,112 -253,5 -14,-104 91,-262 -52,-321 -185,-76 -210,100 -247,152 -105,157 -176,-70 -217,-112 -58,-60 -250,-47 -250,115l0 3zm-1484 -183c14,-52 41,-49 79,-114 19,-33 57,-98 55,-147 -2,-43 -55,-111 -75,-127 -41,-30 -88,-22 -135,-8 -209,70 -47,297 -344,228 -228,-52 -207,22 -218,-139 -11,-161 -140,-329 -289,-179 -102,103 17,255 -16,319 -22,43 -83,46 -132,70 -232,114 -137,-33 -305,-145 -146,-98 -339,96 -187,266 113,126 25,77 116,122 -5,111 -53,147 -107,206 -133,0 -195,-96 -313,-71 -116,25 -149,136 -90,229 58,90 173,77 254,142 66,54 19,218 -36,277 -96,14 -170,-49 -245,-28 -223,59 -187,255 -30,308 157,54 195,5 231,24 44,24 72,202 3,242 -28,17 -363,-28 -404,131 2,130 57,231 190,202 90,-19 94,-2 159,-11 74,-11 63,-41 143,8 25,49 13,65 27,112 53,180 6,98 -239,225 -91,47 -144,81 -99,207 82,225 375,-13 474,-19 6,2 171,231 138,289 -49,43 -154,89 -207,138 -53,49 -112,166 -31,239 163,150 324,-103 438,-131 25,11 135,122 149,150 -16,114 -262,283 -94,405 94,68 157,44 210,-14 14,-16 9,-11 22,-24 115,-104 41,-54 104,-136 75,5 96,51 144,87 66,49 69,36 113,96 -8,21 -206,272 -8,365 193,90 210,-119 284,-229 91,-6 297,47 350,81 20,119 -35,96 9,236 22,73 60,117 160,115 80,-2 119,-66 135,-139 20,-92 -6,-158 2,-244 41,-21 242,-95 297,-96 19,22 22,17 42,44 22,27 19,32 36,55 27,38 46,38 82,87 66,89 126,106 228,35 146,-103 9,-231 -53,-319 -47,-66 -41,-22 -82,-81 -8,-87 35,-92 74,-153 44,-70 25,-100 88,-128 47,-16 374,136 422,-60 49,-198 -217,-226 -333,-253 -3,-63 8,-92 -3,-166 -5,-28 -13,-51 -8,-96 17,-147 187,-73 264,-194 57,-89 -6,-206 -74,-231 -113,-41 -209,74 -303,33 -44,-19 -57,-57 -83,-103 -25,-44 -42,-52 -75,-89 53,-163 232,-131 165,-307 -112,-291 -378,66 -432,81 -58,16 -397,-120 -352,-362 112,-43 275,-2 346,-81 90,-100 19,-231 -80,-269 -41,5 -68,14 -108,11 -148,-11 -63,-100 -86,-226 -9,-49 -30,-160 -25,-185 86,-96 437,-60 328,-302 -107,-234 -275,3 -492,-9 -75,-166 -137,-131 -171,-248l2 0zm-1280 1531c0,-103 2,-223 -5,-337 -6,-111 36,-234 53,-346 30,-206 119,-391 295,-498 47,-28 82,-38 143,-57 130,-41 328,-35 435,60 126,111 90,32 192,206 176,302 -14,557 -13,697 3,338 173,680 498,805 170,65 151,62 267,174 382,373 -36,1246 -796,818 -50,-28 -90,-57 -146,-84 -182,-87 -99,-65 -251,-176 -55,-40 -63,-73 -107,-106 -129,-101 -39,-38 -110,-119l-182 -245c-30,-49 -50,-89 -75,-141 -68,-141 -201,-500 -201,-651l3 0z"/>
   <path class="fil0" d="M11416 4832c-324,110 -186,602 152,508 113,-31 233,-163 179,-334 -33,-105 -167,-229 -330,-174zm-4344 1019c54,337 562,290 527,-63 -14,-140 -147,-256 -302,-236 -125,17 -251,142 -225,298l0 1zm936 -702c0,161 154,309 320,308 159,-1 311,-145 311,-308 0,-442 -631,-432 -631,0zm3545 -3056c-174,0 -320,141 -324,309 -10,426 631,432 631,12 0,-186 -145,-322 -307,-322l0 1zm-3192 -97c-131,30 -193,65 -262,162 -258,361 81,725 392,673 372,-61 478,-530 195,-751 -77,-60 -206,-111 -325,-84zm900 396c0,-168 0,-335 0,-504 0,-186 23,-312 -73,-439 -167,-223 -472,-250 -728,-93 -264,162 -370,221 -607,404 -48,36 -87,78 -134,115 -220,174 -459,430 -616,658 -37,54 -64,87 -103,148 -186,287 -285,584 -342,932 -17,101 -5,2275 -5,2536 0,171 -5,272 105,401 31,36 99,78 148,104 109,57 311,63 424,21 141,-53 725,-353 840,-434 354,-249 532,-370 796,-729 81,-109 132,-194 189,-324 135,-308 105,-544 105,-921 0,-126 -17,-954 13,-1003 19,-32 44,-40 68,-57 217,-151 253,-322 705,-322 231,0 401,170 529,276 134,110 134,48 134,268l0 1229c-1,370 132,624 324,888 154,214 300,335 499,500 116,96 238,167 363,250 96,65 764,401 818,401l224 0c148,0 372,-194 372,-335l0 -2820c0,-87 -82,-338 -113,-423 -127,-350 -388,-713 -649,-976 -189,-190 -235,-228 -427,-386 -174,-142 -682,-497 -863,-497 -145,0 -264,1 -390,110 -73,62 -122,120 -148,241 -28,136 -9,602 -9,781 -75,-41 -159,-127 -212,-179 -244,-249 -197,-612 -197,-963 0,-259 0,-518 0,-777 0,-144 17,-233 -55,-338 -126,-184 -395,-175 -513,-4 -67,97 -63,192 -63,329 0,259 0,518 0,777 0,387 59,691 -188,972 -39,44 -167,171 -220,183l0 1zm-213 1079c0,302 27,1249 -35,1476 -80,295 -352,660 -585,842l-270 203c-37,28 -76,48 -114,74 -129,87 -763,420 -886,427 -108,6 -217,-50 -260,-119 -46,-75 -23,-588 -23,-724 0,-505 0,-1011 0,-1516 0,-638 10,-940 412,-1486 239,-326 284,-329 544,-581 82,-79 318,-255 426,-324 222,-141 350,-264 558,-264 105,0 233,91 233,199l0 890c0,60 -49,67 -91,105l-266 233c-24,21 -35,30 -75,30l-535 0c-78,0 -192,-273 -327,-196 -167,96 76,265 114,317 -48,135 -204,237 -163,339 15,38 54,73 102,73 78,0 222,-245 261,-317l332 -1c-33,54 -351,317 -448,403l-75 62c-27,22 -39,49 -95,49l-386 0c-69,0 -64,-307 -136,-383 -53,-56 -135,-36 -168,19 -48,78 46,274 68,410 17,104 -138,232 -179,331 -27,67 18,154 80,154 91,0 117,-57 165,-135 22,-35 41,-58 60,-89 71,-110 19,-84 303,-83 -1,114 -75,117 0,287 48,107 105,113 189,174l-149 545c-19,73 -14,65 -72,102l-210 140c-140,92 -27,273 111,186 53,-32 116,-80 176,-109 23,110 55,346 172,346 50,0 109,-58 109,-110 0,-91 -104,-328 -98,-425 4,-70 87,-316 112,-403 100,-351 42,-246 168,-356 55,-49 242,-214 278,-228 0,53 -27,198 -39,254 -18,84 -96,105 -156,146 -69,49 -240,128 -149,246 89,115 249,-69 346,-110l28 35c8,13 9,19 17,34 62,117 162,87 197,38 71,-101 -73,-207 -73,-306 0,-84 31,-216 50,-320 57,-308 -5,-196 170,-355l190 -159c30,-26 51,-57 91,-66l0 -5zm1881 -1l309 255c131,118 86,-4 153,408 10,62 40,177 37,238 -1,63 -63,135 -87,202 -24,69 27,151 109,146 85,-6 94,-85 139,-148 75,27 179,132 242,145 122,27 181,-118 76,-201 -213,-168 -253,-87 -283,-304 -6,-44 -26,-126 -21,-175 37,21 64,52 99,83l203 172c57,43 53,31 75,111 23,79 165,555 162,584 -8,95 -377,272 -266,423 112,154 246,-104 410,-233 33,12 228,141 244,167 -180,-1 -324,60 -361,250 -32,166 69,326 225,370 188,54 336,-63 386,-207 67,-188 -57,-355 -190,-395 3,-3 8,-9 9,-6 3,5 194,-106 23,-223 -39,-26 -75,-52 -120,-80 -32,-21 -96,-58 -123,-89 -51,-57 -149,-506 -188,-616 55,-41 222,-88 224,-306 0,-79 -30,-104 -24,-158l240 0 130 193c35,56 100,164 193,98 86,-61 40,-135 -6,-211l-134 -205c-30,-113 176,-436 26,-502 -122,-53 -152,58 -170,141 -13,57 -51,251 -84,262 -122,0 -255,5 -374,1 -72,-3 -90,-28 -129,-65 -40,-36 -62,-47 -103,-84 -58,-53 -139,-133 -197,-177 -50,-38 -165,-123 -202,-185l309 -4c90,53 176,364 314,311 91,-35 91,-118 32,-201 -30,-41 -113,-163 -123,-203 40,-61 244,-190 135,-296 -99,-97 -172,26 -282,135 -59,60 -95,41 -201,41 -94,0 -418,21 -477,-26l-258 -228c-51,-48 -98,-57 -99,-151l1 -754c0,-111 -18,-139 45,-205 186,-194 373,-57 517,27 150,87 314,193 446,303 180,149 374,293 529,471 32,38 76,96 107,131 280,317 514,785 529,1229 26,792 -5,1660 0,2469 3,313 -269,331 -428,250 -294,-149 -525,-238 -808,-429 -109,-74 -328,-236 -421,-329 -132,-135 -238,-250 -338,-412 -185,-298 -177,-476 -177,-812 0,-329 12,-677 -3,-1002l0 4z"/>
   <g>
    <path class="fil0" d="M7517 14244c201,0 332,-212 332,-361 0,-125 -92,-217 -155,-284 -41,-44 -18,-44 -61,-85l-208 -233c-35,-37 -29,-47 -61,-85l-279 -310c-200,-185 -704,66 -480,468 30,55 33,41 68,79l208 249c35,53 33,38 70,78l129 166c36,47 29,15 73,75l135 160c42,37 158,85 230,85l-2 -2z"/>
    <path class="fil0" d="M8764 12791c-41,0 -53,17 -91,20 -114,9 -133,0 -315,27 -86,12 -74,-11 -179,27 -212,75 -277,285 -198,464 15,32 29,40 48,70 32,49 3,32 53,66 150,102 291,52 451,37l554 -47c67,-3 79,-15 118,-17 76,-3 39,18 126,-17 150,-59 267,-177 247,-363 -3,-23 -30,-104 -38,-116 -147,-256 -332,-178 -409,-178 -85,0 -191,29 -367,31l-2 -3z"/>
    <path class="fil0" d="M7805 14221c0,182 138,336 271,351 91,11 198,38 264,44l565 70c179,40 330,53 474,-67 179,-151 88,-531 -162,-572 -80,-14 -201,-38 -264,-46 -167,-18 -733,-104 -835,-101 -95,3 -253,99 -282,183 -6,17 -30,108 -30,137l-2 0z"/>
    <path class="fil0" d="M9500 12641c0,171 8,136 70,250 15,29 15,32 36,53 52,52 167,99 258,99 32,0 138,-52 170,-70 56,-30 71,-66 103,-133 74,-156 147,-569 191,-752 67,-270 217,-468 -61,-697 -35,-29 -65,-41 -111,-44 -165,-14 -259,17 -339,137 -33,50 -38,50 -53,110 -39,166 -112,384 -133,516 -24,154 -130,505 -130,531z"/>
    <path class="fil0" d="M7431 11490c-127,59 -454,352 -601,459 -48,37 -53,50 -97,81 -109,75 -130,110 -194,159 -65,50 -52,8 -91,85 -52,108 -62,168 -32,293 42,172 217,273 436,204 86,-27 223,-157 309,-220 45,-32 53,-50 98,-79 30,-20 26,-12 53,-37l142 -122c80,-61 144,-105 197,-156 39,-37 133,-87 188,-165 174,-246 -123,-641 -412,-505l3 2z"/>
    <path class="fil0" d="M6855 10427c0,172 6,206 156,333 50,43 82,47 155,50 102,3 350,44 492,37 53,-3 80,0 133,12l447 30c164,-12 130,-46 235,-79 -18,110 -192,61 -145,401 26,189 91,865 197,979 38,41 94,107 174,122 145,27 468,-59 414,-400 -26,-157 -92,-871 -191,-991 -64,-78 -68,-85 -171,-122 -161,-55 -182,58 -233,-6 -9,-11 164,-300 -15,-468 -151,-142 -209,-119 -527,-131l-647 -59c-33,-5 -206,3 -236,11 -111,31 -233,145 -233,282l-3 0z"/>
   </g>
   <path class="fil1" d="M10166 16624c-34,-57 32,-95 49,-163 68,-271 224,-345 205,-476 -88,6 -117,61 -156,104 -184,205 -168,373 -247,523 -147,17 -104,-99 -375,-197 -209,-76 -98,-186 -218,-368 -96,-144 -382,-258 -491,-85 -92,144 -28,142 -26,290 -98,13 -88,-4 -137,-59 -100,-116 -277,-191 -440,-159 -104,21 -198,78 -198,199 2,148 90,95 104,279 -301,203 -565,150 -919,64 -147,-36 -209,-19 -354,-32 -444,-40 -809,42 -1126,339 -286,269 -433,599 -604,934 -137,269 -235,591 -420,826l-147 127c-241,159 -702,152 -994,95 -440,-85 -501,-135 -894,-254 -612,-186 -840,-394 -1478,-93l-250 135c-47,32 -81,47 -124,76 -209,135 -401,239 -651,298 -115,27 -213,30 -239,127 49,108 111,76 222,64 92,-9 184,-15 260,-36 226,-64 448,-163 638,-277l194 -97c232,-118 518,-110 776,-53 209,45 431,195 625,269 305,118 531,277 862,341 425,83 661,93 1092,15 205,-38 469,-171 663,-252 392,-163 216,243 627,208 284,-23 215,121 486,68 271,-53 307,42 512,-15 198,-55 288,45 501,-100 -2,-110 -56,-138 -124,-180 -55,-34 -136,-57 -209,-59 -77,-2 -361,55 -358,-148 47,-15 226,30 358,38 442,25 343,-136 478,118 68,125 122,244 305,265 115,13 267,-11 378,4 117,15 177,45 333,32l53 -74 149 6c30,-59 0,-95 -38,-138 -136,-157 -192,-144 -405,-157 -311,-19 -422,-51 -329,-409 151,-30 322,286 550,326 245,44 141,89 273,184l104 78c32,19 8,4 40,17 96,38 77,53 158,78 47,-53 87,-59 98,-154 11,-89 -4,-133 -43,-195 -60,-99 -107,-214 -198,-279 -117,-85 -222,-76 -329,-146 -94,-63 -183,-157 -200,-277 24,-131 386,-339 520,-413 45,-25 113,-61 173,-59 149,2 9,157 -6,233 -21,102 -30,159 26,233 2,-2 152,-347 152,-351 53,-203 143,-174 311,-165 58,-64 139,-207 247,-165l6 28c13,191 -55,63 56,317 30,70 4,49 53,57 0,-148 19,-275 -34,-415 254,-241 92,129 296,199 -8,-81 -60,-184 -66,-262 -6,-91 79,-133 117,-182 26,-34 68,-182 88,-241 32,-91 8,-178 6,-275 24,-19 40,-30 66,-55l207 -178c40,-32 98,-89 137,-118 70,-51 100,-21 119,-123 -164,0 -102,15 -220,76l-407 326c-56,51 -115,32 -79,-57 9,-25 28,-32 45,-51l158 -244c36,-57 70,-47 51,-123 -98,-19 -164,106 -222,171 -72,80 -53,148 -132,218 -58,51 -6,34 -53,23l17 0z"/>
   <path class="fil1" d="M11131 7728c-42,13 -198,32 -251,31 -54,-202 9,-172 9,-337 0,-135 -80,-242 -185,-277 -91,-31 -194,1 -275,53 -104,66 -143,295 -22,421 55,57 229,107 220,258 -230,193 -162,131 -350,13l-265 -236c-67,-75 -81,-251 -145,-306 -72,-60 -102,-105 -219,-96 -35,3 -67,5 -102,22 -256,122 -215,515 60,537 123,10 244,45 345,115l247 202c44,31 104,41 80,118 -68,218 -93,155 -202,82 -40,-27 -75,-76 -112,-88 -140,-45 -337,70 -361,202 -37,211 120,360 228,360 206,0 221,-87 301,-83 60,4 23,40 28,91 17,144 114,115 -260,250 -121,44 -184,69 -316,83 -148,14 -179,-70 -324,0 -116,54 -161,162 -161,286 0,106 144,281 296,252 108,-21 127,-26 188,-101 109,-135 138,-186 312,-262 76,-32 130,-52 207,-82 230,-88 152,-50 265,65 28,28 44,45 48,101 -51,49 -111,76 -181,93 -285,69 -257,404 -111,491 162,97 378,79 444,-132 62,-199 -54,-422 285,-215 6,162 -84,612 -181,708 -86,84 -140,153 -100,291 77,267 417,263 520,67 107,-202 -84,-309 -67,-514 4,-41 14,-53 17,-101 1,-36 -3,-76 1,-113 5,-57 32,-115 36,-176 10,-184 24,-118 158,-142 113,-21 121,-50 121,92l12 88c4,36 -108,218 66,356 188,149 455,-13 462,-181 12,-330 -276,-269 -297,-482 149,-106 157,-157 260,-89l222 177c32,35 18,31 66,61 68,43 136,159 159,255 36,141 175,249 298,221 363,-79 319,-572 -18,-572 -108,0 -114,10 -206,-40 -66,-36 -76,-67 -153,-110 -22,-12 -273,-203 -275,-247 -1,-26 78,-192 95,-216 84,-3 283,62 346,97 95,53 108,162 292,162 107,0 162,-52 215,-127 90,-129 48,-322 -77,-405 -123,-82 -216,-22 -334,28 -84,36 -325,52 -408,4 -8,-27 -10,-101 -14,-135 -6,-48 -13,-97 -13,-146 23,-10 55,-22 81,-30 93,-31 177,-61 276,-70 211,-21 180,82 365,-8 108,-52 172,-183 138,-311 -28,-106 -116,-228 -242,-228 -8,0 -90,16 -112,19 -54,10 -60,25 -94,57 -66,66 -108,145 -126,162 -50,50 -114,75 -177,110 -55,30 -158,79 -213,80 -26,-27 -99,-151 -111,-185 54,-52 186,-57 247,-110 18,-16 42,-43 59,-66 122,-163 -12,-425 -207,-432 -100,-4 -127,-6 -202,45 -147,104 -84,306 -135,353 -28,26 -201,-45 -217,-76 -17,-57 6,-179 23,-245 9,-36 19,-71 27,-111 27,-150 21,-202 117,-320 103,-127 121,-107 121,-263 0,-145 -131,-250 -271,-262 -54,-5 -158,41 -198,73 -49,40 -78,115 -89,188 -24,157 139,220 73,549 -21,105 1,184 -53,360l-3 -4z"/>
   <path class="fil1" d="M17800 7398c-180,0 -817,-10 -967,6 -235,26 -1154,29 -1277,-47 -249,-153 -635,-617 -796,-723 -140,-93 -150,-141 -383,-172 -46,-6 -97,14 -125,51 -22,87 10,67 32,140 -85,90 -276,103 -409,265 -80,98 30,16 -150,191 -219,212 -139,199 -93,284 46,87 -27,211 257,212 287,0 185,-22 447,153 172,116 367,252 476,424 61,98 115,112 93,186 -5,16 -145,50 -228,85 -88,37 -142,66 -200,127 -59,63 -107,111 -148,177 -30,48 -110,166 -110,212 0,80 121,133 201,138 104,6 150,-79 206,-130 93,-84 327,-198 492,-172 227,37 271,-45 415,238 53,104 67,132 80,265 10,101 45,211 45,329 0,222 -265,223 -265,389 0,108 220,166 342,143 131,-24 223,-101 281,-231 62,-141 120,-464 126,-628 5,-109 -2,-201 83,-201 201,0 244,64 562,-13 131,-32 275,35 385,34 56,0 61,-19 142,-21 -16,67 -118,169 -163,215 -64,64 -182,31 -294,93 -70,39 -158,146 -104,246 30,55 217,106 305,106 96,0 670,-323 710,-490 26,-104 24,-260 93,-326 59,-26 81,69 294,167 480,223 337,77 707,236 91,39 254,125 270,215 -27,42 -61,47 -109,80 -32,22 -73,58 -86,101 -26,87 102,186 148,219 101,67 140,64 267,26 209,-63 174,-227 174,-411 0,-212 -199,-553 -356,-696 -65,-59 -139,-92 -201,-156 -340,-354 -206,-768 -241,-998 -32,-204 -168,-35 198,-362 81,-72 160,-145 241,-225 155,-151 313,-305 460,-471 160,-182 252,-370 321,-609 29,-103 65,-283 34,-408 -40,-153 -145,-188 -233,-43 -153,254 -373,627 -565,831 -43,47 -61,84 -104,129 -53,55 -78,59 -128,104 -73,67 -160,159 -231,233 -72,74 -172,159 -228,238 -83,119 -124,145 -289,177 -105,19 -290,58 -402,58l2 8z"/>
   <path class="fil0" d="M5108 5322c-79,-44 -50,-221 -188,-201 -26,120 42,102 -6,185 -77,-26 -115,-153 -216,-118 -83,30 -313,393 55,530 75,28 65,16 81,72 -180,94 -315,30 -717,435 -198,199 -354,421 -457,698 -119,323 -186,542 -422,732 -283,229 -503,195 -897,106 -162,-38 -327,-34 -384,-191 -53,-144 -107,-279 -141,-437 -69,-317 -426,-1124 -733,-1290 -123,-66 -107,14 -186,36 -123,34 -178,-157 -366,136 -57,90 -246,357 -162,486 67,-34 8,8 46,-46 101,-142 156,-462 394,-299 -2,165 -59,171 -150,255 -115,106 -53,175 -200,221 -251,78 -323,110 -368,365 -42,235 148,-76 259,-76 53,0 26,0 69,14 10,100 -10,70 -18,138 -16,110 55,124 -44,191l-204 181c-103,114 -164,281 -152,451 111,-24 123,-155 204,-225 40,-34 295,-195 204,-28 -18,34 -176,161 -214,213 -53,74 -107,245 -57,347 111,-22 67,-154 178,-211 2,187 -115,281 -141,445 -30,183 143,-102 162,-128 42,-60 -4,-56 101,-38 8,134 -91,215 -97,307 -6,98 141,213 141,305l-28 173c0,92 101,307 160,355 109,88 150,-24 273,267 26,64 26,130 81,185 139,142 317,183 451,359 65,86 30,112 63,207 20,60 59,86 97,171 26,58 69,106 115,153 125,124 162,146 327,211 97,40 265,221 519,283 0,148 -18,100 -69,213 -24,54 -34,281 -75,445 -46,179 -73,510 -236,610 -87,54 -301,177 -218,277 69,-26 192,-140 287,-150 44,54 46,96 99,152 79,84 370,255 467,265 10,-80 -48,-76 -53,-181 194,38 404,22 598,-4 77,-8 65,76 154,48 16,-32 12,-74 -18,-106 -135,-142 -533,-2 -826,-136 -71,-34 -154,-52 -154,-136 0,-144 137,-734 194,-849 46,-92 59,-72 133,-116 51,-32 81,-78 158,-112 79,-34 117,12 192,24 329,50 232,18 350,636 83,429 30,628 87,807 182,66 693,128 925,128 -20,-154 -275,-130 -406,-169 73,-92 533,-90 659,-112 75,-14 93,30 156,-24 -75,-231 -798,-2 -952,-32 -2,-4 -4,-16 -4,-14l-2 -102c-97,-14 -73,10 -154,36 -61,-257 -107,-554 -107,-833 0,-92 79,-130 123,-203 182,-307 182,-369 295,-708 53,-159 107,-321 212,-443 109,-126 214,-233 321,-353 107,-120 174,-253 261,-393 46,-74 83,-120 125,-203 36,-70 63,-159 101,-245 97,-225 160,-510 210,-769 59,-313 69,-455 12,-781 -14,-86 -24,-112 -4,-199 20,-90 42,-90 73,-157 77,-161 -6,-299 22,-383 34,-100 164,-36 164,-411 0,-76 -91,-275 40,-275 55,0 309,44 180,-98 -44,-48 -24,12 -75,-72 18,-46 38,-54 83,-78 -4,-50 -14,-58 -14,-96 0,-126 99,-38 10,-283 -28,-78 -53,-68 -109,-124 8,-74 22,-52 22,-138 -129,-8 -95,36 -164,32 8,-76 85,-138 55,-221 -67,-78 -158,157 -200,183l-22 -84c2,-86 28,-48 10,-201 -158,22 -48,134 -160,171 -38,-72 6,-199 -16,-265 -101,-4 -87,18 -111,128 -18,88 -20,136 -61,181l-2 -6z"/>
   <path class="fil0" d="M12910 13744c-56,-12 -146,-145 -286,-173 -86,-18 -60,111 -60,177 0,131 88,180 114,292 -44,87 -109,106 -137,228 -28,126 -61,141 -148,228 -228,228 -199,175 -209,311 -9,115 -91,164 7,281 26,30 53,71 97,88 83,34 90,-5 112,76 18,64 -9,111 14,149 37,-44 7,-55 51,-111 53,41 69,205 33,267l42 34c33,39 9,111 -2,168 -18,92 -14,154 28,233 32,-46 11,-150 19,-203 9,-55 4,-180 32,-218 32,41 32,216 32,285 33,-37 12,11 30,-62 5,-21 12,-129 28,-122 9,4 -4,0 16,19 42,42 -35,11 26,23 18,-108 26,-166 16,-274 5,4 11,4 11,11 7,25 37,37 56,41 16,-117 -33,-175 -25,-265 112,-2 213,28 258,127 132,288 58,764 141,1040 25,-27 5,2 33,-48 12,-21 9,-18 16,-37 5,113 2,198 19,311 12,78 28,210 91,249 2,-4 4,-14 5,-12l9 -110c60,113 35,469 170,511 0,-88 -21,-78 -25,-145 149,41 176,504 176,662 0,53 -28,239 -44,292 -28,96 -56,180 -28,299 46,189 135,371 135,591 0,62 -118,545 -139,587 -56,113 -160,219 -197,352 -37,134 220,87 362,87 97,0 141,-78 112,-177 -32,-115 -25,-133 56,-210 51,7 47,19 97,25 107,-157 -2,-334 -2,-525l0 -274c0,-200 104,-264 102,-444 0,-94 44,-409 76,-479 46,14 47,64 60,111 54,233 37,368 69,444l184 515c83,308 30,285 18,573 -9,212 -283,442 -25,442l255 0c191,0 7,-195 51,-302 47,-119 218,120 88,-297 -42,-134 -72,-239 -88,-394 -25,-233 19,-437 -18,-662 54,48 69,122 137,149 -14,-103 -65,-136 -67,-235 86,37 54,117 144,127 -40,-85 -79,-145 -86,-249 81,44 100,216 177,253 30,-140 -60,-258 -102,-407 84,44 84,124 151,152 -2,-88 -114,-283 -81,-310 2,0 272,115 344,134 439,117 822,18 1191,-226 241,-159 214,-58 571,299 467,469 538,380 409,978 -30,140 -33,221 -100,345 -61,113 -49,233 -123,320 -42,50 -184,180 -141,281 473,21 455,34 466,-141 9,-126 51,-117 126,-180 91,-78 88,-279 132,-499 42,-212 83,-278 170,-446 83,-157 -33,-297 -100,-430 63,5 123,80 172,124 61,55 114,88 119,198 21,485 -102,600 -112,822 -5,120 32,126 -39,249 -206,357 -360,347 228,347 30,0 32,-4 54,-11 65,-140 -33,-196 30,-294 79,-122 169,-16 169,-258 0,-101 -19,-147 -5,-279 26,-235 153,-656 156,-817 7,-329 -395,-327 -262,-969 33,4 33,16 61,35l25 19c0,-136 21,-173 28,-297 51,21 -5,-5 30,19l44 32c0,-35 -16,-297 14,-310 26,-11 19,23 61,37l25 -278c5,-39 -11,-101 -12,-154 65,-32 63,73 63,-187 0,-120 -53,-154 -63,-256 121,25 230,88 364,88 116,0 46,-2 74,-27 -60,-34 -95,-11 -104,-74 293,0 288,18 448,-134l-197 53c30,-73 105,-88 169,-131 56,-37 144,-60 172,-124 -97,4 -139,42 -216,35 42,-94 141,-110 153,-274l-69 78c-30,39 -33,51 -83,57 32,-94 146,-219 61,-348 -65,85 12,166 -119,212 14,-140 39,-322 7,-465 -39,35 -39,101 -61,156l-12 25c-37,-44 -42,-138 -91,-175 -23,85 21,124 -11,207 -49,-28 -40,-104 -90,-143 -30,103 18,210 -56,290 -37,-53 -7,-58 -40,-131 -98,64 14,364 -527,364 -53,0 -235,-163 -293,-203 -83,-58 -211,-129 -321,-173 -116,-48 -235,-90 -369,-124 -638,-159 -977,-14 -1604,103 -367,67 -645,50 -1035,67 -485,21 -508,172 -769,-232 -137,-212 -174,-458 -316,-658 -39,-53 -44,-30 -49,-101 63,-46 126,-12 200,-18 184,0 343,-269 339,-460 -61,9 -81,30 -134,25 -199,-16 -307,-78 -466,87 -37,39 -112,117 -139,154l-176 -129c30,-241 402,-478 615,-559 93,-35 264,-37 267,-126 -162,-94 -611,44 -740,110 -149,76 -330,258 -362,265 42,-447 242,-478 332,-607 91,-131 -397,4 -597,531 -32,85 -44,170 -76,246l-4 -7z"/>
   <path class="fil1" d="M3161 1808c-40,12 -188,31 -238,29 -51,-191 9,-163 9,-319 0,-128 -76,-229 -175,-262 -86,-29 -184,1 -261,50 -99,63 -135,280 -21,399 52,54 217,102 208,244 -218,183 -153,124 -331,12l-251 -223c-63,-71 -77,-238 -138,-289 -68,-56 -96,-99 -207,-91 -33,2 -63,5 -96,21 -242,115 -203,488 57,509 117,10 231,43 326,109l234 191c41,29 99,39 76,112 -65,206 -88,147 -191,77 -38,-26 -71,-72 -106,-83 -133,-43 -319,66 -342,191 -35,200 113,341 216,341 195,0 210,-82 285,-78 57,4 22,38 27,86 16,136 108,109 -246,237 -114,42 -174,65 -300,78 -140,13 -169,-66 -307,0 -110,52 -152,153 -152,271 0,101 136,266 280,239 102,-20 121,-25 178,-96 104,-128 130,-177 296,-248 72,-31 123,-49 196,-77 218,-83 144,-48 251,61 27,27 41,43 45,96 -49,47 -105,72 -172,88 -270,65 -244,383 -105,465 153,92 358,75 420,-125 58,-189 -51,-400 270,-204 6,153 -79,580 -172,671 -82,80 -133,145 -95,276 73,253 395,249 492,64 101,-191 -79,-293 -63,-487 4,-39 13,-50 16,-96 1,-34 -2,-72 1,-107 5,-54 30,-109 34,-167 10,-174 23,-112 150,-135 107,-20 114,-48 114,87l11 83c4,34 -102,206 62,337 178,141 431,-12 437,-172 11,-313 -262,-255 -281,-456 141,-101 149,-148 246,-85l211 168c30,33 17,29 62,58 65,40 129,151 151,242 34,134 166,235 283,210 344,-75 302,-542 -17,-542 -102,0 -108,10 -195,-38 -62,-34 -72,-64 -145,-104 -21,-11 -258,-193 -261,-234 -1,-25 74,-182 90,-205 79,-2 268,59 328,92 90,50 102,153 276,153 101,0 153,-49 203,-120 85,-123 45,-305 -73,-384 -117,-77 -205,-21 -317,27 -79,34 -308,49 -386,4 -7,-26 -10,-96 -13,-128 -6,-45 -12,-92 -12,-139 22,-10 52,-21 77,-28 88,-29 168,-58 262,-66 200,-20 171,77 346,-7 102,-49 163,-173 130,-294 -27,-101 -110,-216 -229,-216 -7,0 -85,15 -106,18 -51,10 -57,23 -89,54 -62,63 -102,137 -119,153 -47,48 -108,71 -168,104 -52,28 -150,75 -202,76 -24,-26 -94,-143 -105,-175 51,-49 177,-54 234,-104 17,-15 40,-40 56,-63 116,-155 -11,-402 -196,-410 -95,-4 -121,-6 -191,43 -139,98 -79,289 -128,335 -27,25 -190,-43 -206,-72 -16,-54 6,-169 22,-232 9,-34 18,-67 26,-105 26,-142 19,-191 111,-303 97,-120 114,-102 114,-249 0,-137 -124,-237 -257,-248 -51,-5 -150,39 -188,69 -46,38 -74,109 -84,178 -23,148 132,208 69,520 -20,99 1,174 -50,341l-2 -4z"/>
  </g>
 </g>
</svg>
