<?xml version="1.0" encoding="UTF-8"?>
<!DOCTYPE svg PUBLIC "-//W3C//DTD SVG 1.1//EN" "http://www.w3.org/Graphics/SVG/1.1/DTD/svg11.dtd">
<!-- Creator: CorelDRAW X6 -->
<svg xmlns="http://www.w3.org/2000/svg" xml:space="preserve" width="196.88mm" height="200mm" version="1.1" style="shape-rendering:geometricPrecision; text-rendering:geometricPrecision; image-rendering:optimizeQuality; fill-rule:evenodd; clip-rule:evenodd"
viewBox="0 0 19479 19788"
 xmlns:xlink="http://www.w3.org/1999/xlink">
 <defs>
  <style type="text/css">
   <![CDATA[
    .fil0 {fill:#8950FC}
    .fil1 {fill:#8950FC;fill-opacity:0.301961}
   ]]>
  </style>
 </defs>
 <g id="Layer_x0020_1">
  <metadata id="CorelCorpID_0Corel-Layer"/>
  <path class="fil0" d="M17384 15402c206,-1049 1269,-1052 164,-3099 -575,-1065 -5,-2066 -9,-2058 -499,833 623,1457 785,2368 98,550 344,869 69,1508 -382,885 -1005,1270 -1008,1283l0 -2zm-3136 831c41,25 31,33 92,33 190,0 761,8 910,-6 -3,-64 -47,-94 -125,-170 -56,-54 -78,-105 -126,-161 -45,-49 -117,-110 -142,-143 -122,-167 -3,-141 -489,-141 -134,0 -122,118 -136,168 -22,78 -16,14 0,73 30,114 -45,35 -12,156 16,56 16,5 23,81 3,38 -2,67 5,108l0 2zm-1142 -310c0,243 -2,121 48,253 25,67 34,91 108,91l667 0c73,0 90,-27 59,-102 -36,-83 -28,-46 -28,-156 2,-265 45,-223 67,-318 -65,-70 -137,-46 -254,-46 -104,0 -209,0 -312,0 -391,0 -235,-17 -323,149 -22,43 -31,67 -31,127l-2 2zm4399 -278c-210,3 -1102,-22 -1167,17 36,81 26,51 115,146 87,94 47,25 111,134 28,49 76,83 115,127 39,43 17,35 50,79 108,149 150,119 251,119l483 0c129,0 117,17 195,-43l2 -434c2,-132 -6,-148 -153,-146l-2 0zm-3477 -2357c62,-103 209,-145 212,-146 41,-25 41,-45 106,-67 104,-33 31,0 115,-54 42,-27 78,-22 131,-41l114 -57c56,-30 78,0 143,-29l83 -29c103,-35 212,-54 348,-54 112,0 70,-17 142,-30 81,-14 450,-11 508,2 64,13 41,29 143,29 173,-2 129,19 217,35 41,8 33,0 75,13l84 30c3,2 6,3 9,5 51,19 114,6 176,40 28,14 87,49 115,57 89,29 53,-19 128,45 64,54 47,19 118,52 64,29 56,48 104,67 76,27 94,49 173,89l338 261c50,49 44,37 98,75 30,21 61,57 87,83 59,56 59,105 123,137 47,24 11,16 73,17 5,-140 -120,-230 -187,-296 -61,-59 -65,-76 -106,-138 -20,-30 -36,-32 -56,-57 -42,-56 -2,-27 -34,-81 -23,-40 -20,0 -50,-79 -11,-29 -16,-48 -36,-81 -61,-105 -45,-22 -55,-168 -5,-64 -5,-46 -34,-100 -48,-86 3,-226 -41,-307 -42,-79 -84,-38 -151,-92l-338 -135c-86,-33 -53,-49 -167,-59 -151,-11 -229,-92 -383,-91 -75,2 -83,-13 -145,-27l-128 -38 -821 -3c-90,5 -41,10 -81,27 -37,16 -48,8 -94,21 -89,27 -134,10 -220,22 -89,14 -184,75 -271,87 -51,8 -50,-6 -100,13 -12,5 -62,37 -72,41 -104,52 -243,72 -344,127 -23,13 -53,30 -73,40 -30,14 -61,25 -87,43 -134,86 -89,37 -150,79 -37,27 -12,17 -70,46 -33,16 -51,24 -81,48l-327 245c-67,45 -92,43 -125,108 -42,86 -61,45 -129,111 -56,56 -192,180 -229,245 -42,76 -42,70 -101,126 -69,65 -284,405 -327,509 -26,64 2,11 -48,62l-171 377c-8,22 -6,25 -12,46 -30,95 -73,141 -90,251 -9,60 -51,118 -58,191l-67 281c-33,106 -22,207 -23,327l-30 215c-8,78 -12,17 -28,79l-3 181c12,68 -3,-10 16,43l14 103c-2,143 19,103 30,202 16,157 -17,156 44,316 33,87 -3,103 37,205l8 21c2,3 2,8 3,13l11 64c2,6 34,67 37,78 26,62 6,43 19,99 6,32 59,121 75,170 30,94 6,67 59,168 30,56 50,110 78,167l86 143c23,57 -16,32 37,92 83,91 36,76 83,146 12,17 45,40 58,59 26,37 6,29 44,72 22,27 33,29 51,60 12,19 8,19 20,38 14,22 17,22 26,33 22,27 5,3 23,33 56,95 439,491 524,540 3,2 6,3 9,5l90 78c36,27 31,13 69,45l198 159c58,32 84,37 150,81l146 97c58,40 114,40 156,72 64,48 94,21 168,75 89,64 89,29 173,59 86,30 59,49 266,86 176,32 3,51 285,60 106,3 171,60 298,64 79,2 59,13 114,25 53,13 -25,-2 26,5 14,2 42,2 58,2l355 0c132,0 209,-21 327,-30 76,-6 47,-14 92,-25 41,-10 61,-2 103,-13 50,-14 5,-21 89,-25 226,-13 114,-30 296,-65l187 -54c42,-22 36,-25 75,-33 117,-25 159,-65 265,-99l226 -114c70,-57 220,-99 296,-175 61,-62 192,-145 268,-188 90,-51 218,-223 302,-302 67,-64 69,-13 120,-110 19,-35 25,-38 51,-64 81,-79 212,-242 271,-348 2,-3 3,-6 5,-10 2,-3 3,-6 5,-10 2,-3 3,-6 5,-10 19,-33 56,-68 131,-196l78 -124c25,-45 17,-41 34,-81 20,-45 30,-33 47,-70 22,-48 0,-38 33,-99 51,-95 62,-148 104,-238 37,-79 48,-196 92,-267 42,-68 20,-121 70,-277 69,-213 22,-262 45,-440 6,-51 14,-30 28,-65 2,-3 3,-6 5,-11 9,-35 6,-76 5,-113 -3,-192 5,-105 28,-221 16,-76 -30,-81 -28,-199l-23 -165c-36,-76 20,-196 -61,-461l-34 -199c-3,-48 -53,-132 -72,-183l-9 -21c-2,-3 -3,-6 -5,-10 -12,-30 -6,-2 -14,-38 -31,-156 -37,-64 -58,-196 -9,-56 -34,-65 -67,-119l-30 -83c-2,-3 -2,-8 -3,-11 -2,-3 -3,-8 -5,-11 -31,-67 -25,-5 -51,-94l-215 -361c-28,-56 -42,-116 -109,-116 -39,78 8,138 17,186 5,25 5,189 2,216 -11,72 -17,25 -26,89 -5,30 0,68 -2,100 0,116 -33,67 -31,188l-64 284c-64,202 51,256 64,424 14,202 70,92 65,377 -2,114 20,99 31,188l0 448c-9,79 -31,84 -30,189 3,283 -69,188 -65,362 3,162 -76,157 -87,261 -14,129 -22,108 -81,234 -22,45 -8,45 -30,86 -17,32 -23,19 -39,62 -22,60 16,19 -34,83 -28,37 -22,16 -47,67 -8,16 -14,30 -19,40l-235 354c-94,146 -181,25 -218,-17l-42 -46c-25,-38 -8,-29 -47,-68 -22,-22 -33,-32 -51,-49 -19,-21 -37,-38 -58,-59 -34,-37 -12,-10 -37,-60 -50,-97 -161,-154 -209,-237 -17,-30 3,-3 -22,-37 -11,-14 -11,-13 -26,-30 -34,-38 -19,-21 -41,-60l-203 -242c-44,-27 -31,-13 -58,-56 -39,-64 -94,-111 -150,-165 -65,-64 -41,-68 -90,-124 -22,-24 -37,-33 -56,-59 -26,-35 -20,-43 -44,-70l-358 -401c-44,-49 -11,-22 -44,-72 -22,-35 -67,-70 -104,-111 -65,-78 -51,-100 -198,-234 -69,-62 -44,-72 -97,-132 -42,-46 -76,-70 -109,-106 -44,-46 -45,-81 -89,-126 -42,-43 -69,-70 -106,-108 -55,-54 -39,-73 -97,-134l-221 -267c-26,-41 -50,-38 -78,-79l-106 -124c-59,-62 -59,-106 -196,-234 -47,-43 -145,-197 -226,-273l-25 -33c-22,-32 -22,-35 -44,-57l-92 -122c-56,-81 -159,-146 -218,-227l-117 -157c-51,-78 -25,-11 -97,-118 -26,-38 -55,-51 -67,-91l-12 -11zm-960 887c92,-43 37,3 94,-94 53,-92 109,-118 162,-210 146,-254 223,2 352,135 134,138 84,97 162,197 62,79 117,113 171,202l245 286c65,68 73,103 118,154l516 588c41,43 14,13 34,52 31,56 84,106 120,156l41 43c34,38 47,59 86,100l330 401c67,78 120,103 167,192 26,51 94,92 129,143l282 350c31,32 61,62 92,94l81 106c50,87 129,113 168,189 37,72 25,52 81,105 58,54 34,52 78,110 61,79 143,132 175,183 72,118 161,167 212,248 58,91 51,67 114,143 36,45 56,92 168,205 26,27 58,65 92,97 157,153 -48,218 -134,280 -42,32 -76,29 -131,56 -61,32 -47,46 -103,67 -76,27 -9,-13 -70,32l-263 108c-51,21 -20,6 -72,16l-123 43c-234,76 -151,25 -302,54l-299 59c-189,0 -405,17 -583,-45 -87,-30 -171,-13 -274,-40l-103 -24c-59,-29 -59,-45 -134,-49 -87,-6 -425,-157 -506,-210l-120 -51c-2,-2 -23,-19 -33,-25 -62,-48 -123,-72 -179,-121 -45,-41 -58,-30 -108,-79 -97,-97 -164,-130 -277,-253l-125 -105c-8,-11 -8,-16 -14,-27 -36,-60 -86,-94 -132,-141 -67,-68 -79,-149 -146,-213 -51,-49 -67,-116 -104,-168 -56,-78 -112,-202 -153,-291l-78 -199c-30,-65 -111,-280 -111,-332 -2,-173 -42,-146 -59,-304 -9,-86 -30,-30 -30,-146l0 -607c0,-86 20,-134 33,-215l53 -192c22,-116 -16,-103 44,-202 42,-72 12,-16 28,-99 26,-130 45,-110 75,-172 20,-41 5,3 11,-48 3,-25 -2,-21 6,-51 5,-17 28,-65 44,-84 50,-59 92,-157 126,-234 47,-105 64,-38 67,-162l11 -2z"/>
  <path class="fil1" d="M4811 4167c52,207 75,208 177,210 86,0 115,3 149,-75 1,-3 3,-6 4,-9 23,-61 4,-58 19,-117l22 -52c1,-3 3,-6 4,-9 1,-3 3,-6 4,-9 33,-79 14,-66 19,-141 10,-124 25,46 26,-245 0,-63 14,-160 -47,-217 -118,36 -200,286 -210,302l-71 126c-100,166 16,18 -96,239l-1 -3zm-3966 3926c-22,-30 -33,-63 -48,-97l-110 -180c-21,-48 -21,-54 -45,-100l-81 -213c-63,-139 4,-48 -73,-208 -38,-78 8,-138 -43,-292 -1,-3 -3,-7 -3,-10 -45,-132 3,-40 -41,-189 -11,-36 -22,-638 4,-717 32,-96 8,-54 16,-135 5,-63 12,-22 25,-96 18,-100 23,-60 27,-135 4,-96 -19,-111 25,-202 15,-31 15,-24 21,-48 16,-69 -15,-70 32,-156l10 -16c18,-34 5,-1 21,-45 52,-154 5,-120 64,-229 67,-123 30,-96 62,-148 84,-142 -1,-61 59,-156 21,-31 10,-6 30,-49 81,-169 26,-51 77,-133 18,-28 33,-63 30,-96 -178,-24 -467,-3 -658,-4 -69,0 -110,-13 -154,24 -26,22 -64,63 -70,99 -8,54 5,2088 -7,2480 -4,120 7,235 7,355 0,58 3,121 1,178 -3,87 -33,82 -22,142 10,46 16,13 19,75 3,51 -16,204 15,257 89,151 362,54 384,55 19,1 288,85 426,-13l-1 2zm4447 -1663c-23,-205 -3,-555 -4,-777 0,-76 -16,-127 36,-163 58,-40 75,-15 137,-42 69,-31 48,-46 103,-78 160,-93 192,-87 318,-241 21,-25 27,-45 36,-55 36,-40 19,-3 52,-39 26,-28 56,-114 82,-157 63,-105 71,-94 101,-231 18,-84 41,-6 49,-138 4,-76 3,-36 16,-78 1,-3 3,-6 4,-10l7 -36c10,-88 0,-184 0,-274 0,-105 -15,-55 -25,-124 -5,-39 4,-96 -3,-133 -11,-57 -32,-36 -45,-87 -14,-51 0,-60 -23,-112 -22,-51 -16,-13 -69,-126 -21,-45 -30,-21 -56,-78l-78 -118c-81,-108 -112,-133 -204,-199 -73,-52 -55,-72 -158,-103 -40,-12 -45,-21 -84,-42 -47,-25 -47,-4 -89,-37 -53,-42 5,-37 -92,-37 -85,0 -63,-28 -162,-28l-225 0c-104,0 -75,28 -162,28 -104,0 -70,37 -160,67 -3,1 -7,1 -10,3l-95 48c-133,69 -19,-24 -160,99 -99,84 -45,16 -195,183 -56,63 -66,105 -110,153 -33,36 -62,54 -71,102l-78 225c-1,3 -1,7 -3,10l-38 124c-19,58 -18,24 -18,105 0,123 -15,275 1,395l56 180c16,103 64,130 75,192 14,79 -14,60 40,111 60,57 22,7 53,75 30,63 200,236 251,287l248 151c138,96 99,-25 239,151 -10,82 -11,7 -23,72 -16,88 -3,193 -3,283 0,127 -1,254 0,382 1,127 -26,181 -130,242 -80,48 -33,30 -81,102 -10,15 -14,18 -22,31l-100 150c-23,42 11,-15 -10,16 -33,51 -30,100 -67,159 -58,93 -37,85 -60,126 -11,19 -29,24 -37,51 -10,28 -3,46 -12,82 -15,63 -66,160 -71,211 -4,42 4,45 -8,88 -18,60 -40,61 -51,130 -7,39 1,9 -10,46 -38,130 -16,483 -16,662 0,78 15,91 33,153l10 30c29,99 32,97 36,213 49,36 67,54 81,124 22,106 34,48 60,147 25,90 95,190 156,254 19,19 33,31 48,57 69,115 67,81 137,151l134 84c170,78 485,66 624,-91l317 -388c1,-3 7,-15 8,-18 36,-76 59,-121 74,-208 12,-69 14,-28 36,-70 30,-55 6,-36 18,-91 11,-49 58,-81 74,-135 19,-61 -4,-142 7,-210 12,-76 15,0 25,-84 12,-99 4,-216 1,-314 -3,-106 -29,-51 -29,-175 0,-75 8,-144 -11,-205 -8,-27 -19,-55 -30,-76 -56,-114 -25,-139 -69,-238 -23,-51 -14,-114 -45,-156 -16,-21 -38,-28 -51,-55 -21,-46 0,-48 -16,-93l-70 -126c-30,-67 -47,-58 -84,-127l-269 -329 7 0zm-1187 -2263c0,-66 12,-115 32,-183l29 -78c21,-51 10,-28 25,-79 15,-52 25,-43 38,-69 15,-30 3,-4 14,-40 30,-111 67,-78 107,-154 40,-79 25,-64 99,-109 41,-25 69,-67 111,-97 51,-36 88,-34 140,-66 73,-43 34,-60 130,-60 92,0 184,0 274,0 111,0 121,-15 173,25 144,112 62,-28 303,186 95,84 27,-22 133,141 55,87 11,-30 110,183 11,22 26,55 41,87 49,109 58,58 58,232 0,114 15,296 -16,358 -1,3 -4,6 -5,7 -36,66 -30,70 -51,138l-180 292c-10,9 -12,4 -29,25 -25,33 -11,24 -18,34l-119 99c-32,18 -41,10 -73,31 -16,12 -32,37 -49,54l-155 48c-41,6 -49,-4 -92,9 -75,24 -5,22 -156,22l-181 -36c-77,-24 -14,-43 -169,-54 -63,-111 -60,-7 -185,-145 -122,-135 -107,-141 -148,-192 -73,-91 -21,-6 -59,-114 -15,-42 -53,-55 -71,-144 -11,-55 4,-45 -27,-105 -44,-82 -30,-126 -30,-247l-1 0zm1512 1750c-5,70 -8,157 33,186 41,28 112,40 162,40 210,0 104,-19 271,46l75 27c47,16 59,3 101,13 47,12 25,19 58,45 40,30 32,4 74,28 25,13 33,37 52,52 45,37 32,4 81,34 26,15 22,19 60,43 51,31 52,61 110,97 74,48 82,100 134,141l81 73c37,48 49,93 92,132 47,43 52,73 84,126 7,12 5,9 14,25 64,132 96,145 138,298l53 136c26,55 4,39 18,91l81 362c1,109 27,84 29,190 1,157 48,96 5,277 -16,69 7,150 -14,217l-18 93c-1,139 -22,84 -29,192 -8,156 -45,40 -53,163 -11,159 -21,39 -56,172 -18,70 -56,94 -73,136 -22,52 12,27 -26,82 -21,28 -32,21 -53,66 -38,75 -70,127 -126,189 -62,64 -123,142 -196,195 -37,27 -36,39 -81,58 -47,21 -55,49 -90,69l-93 58c-19,13 -52,27 -75,42 -117,75 -58,30 -136,70 -27,15 -45,31 -62,37 -53,21 -114,30 -156,63 -49,37 0,9 -69,33 -26,9 -44,22 -69,34l-162 51c-125,22 -55,31 -138,70l-249 69c-73,16 -92,6 -167,51 -143,84 -130,12 -232,72 -55,31 -114,28 -185,28 -80,0 -93,21 -158,48 -69,28 -74,45 -166,45 -126,-1 -144,57 -350,55 -97,0 -106,-3 -182,21l-175 43c-85,31 -14,30 -167,28 -236,-1 -195,19 -300,24 -69,3 -81,18 -137,28 -111,18 -1160,0 -1172,-3 -53,-15 -5,-16 -89,-24 -64,-6 -45,-7 -90,-18 -59,-13 -132,7 -184,-15 -11,-4 -52,-33 -73,-42l-19 -7c-160,-61 -108,-3 -212,-67 -89,-55 -42,9 -123,-85 -48,-55 -59,-46 -118,-90 -15,-81 -7,-132 -56,-184 33,-97 43,-78 53,-190 63,-39 14,9 52,-49 36,-52 104,-135 149,-163 34,-22 26,-7 60,-42l325 -284c78,-61 -47,6 136,-127l55 -49c44,-72 118,-123 148,-207 37,-102 53,-51 66,-142 12,-93 -11,-25 30,-79 32,-43 23,-4 25,-82 3,-84 12,-350 -8,-416 -1,-4 -7,-15 -8,-19 -27,-58 -41,-63 -41,-139 -1,-76 -32,-105 -47,-171 -19,-79 -1,-108 29,-153 217,-31 477,0 701,-4 69,-1 108,-24 158,-69l-3 -3503c-138,-97 -106,-123 -330,-123 -160,0 -1021,-21 -1115,12 -93,33 -36,-37 -165,-4l-81 130c-16,42 -19,76 -59,100 -14,9 -12,3 -25,10 -1,108 -3,46 -45,117 -26,42 -23,75 -41,118 -14,33 -15,13 -30,54l-27 88c-1,3 -3,6 -4,9 -1,3 -3,6 -4,9 -1,3 -3,6 -4,9l-18 36c-26,52 -27,87 -40,138 -4,19 -36,73 -43,97 -25,88 -26,160 -71,238 -38,69 -15,52 -21,135 -7,88 -18,24 -25,123 -4,55 4,25 -11,73 -19,64 -10,135 -30,199 -21,64 -22,525 -11,612 8,64 21,36 26,138 4,85 45,184 51,259 5,69 -18,73 21,124 19,25 48,60 59,100 22,85 -16,37 33,114 49,76 4,66 36,127 23,45 25,9 56,85 27,64 16,51 60,100 58,66 18,43 44,103 11,25 58,63 73,82 37,45 19,48 53,93 103,132 336,36 506,75l88 147c1,6 5,22 8,33l7 21c15,52 14,69 34,117 49,118 8,130 49,256 18,54 16,231 1,286 -14,49 -7,-6 -19,63 -10,57 -34,111 -66,159 -12,19 -43,48 -69,75 -49,52 -69,114 -133,156 -74,49 -40,64 -107,114 -47,33 -78,45 -118,90 -36,39 -25,42 -73,70l-166 133c-34,37 -47,46 -74,69 -27,22 -40,55 -63,82 -33,39 -85,72 -100,120 -27,82 -47,81 -52,171 -5,103 -21,42 -30,111 -12,90 22,37 27,135 3,54 -11,96 10,139 11,22 19,24 32,46 23,40 53,90 90,118 184,142 69,67 173,112 44,19 37,34 70,48 4,1 16,4 19,6l203 87c78,7 138,12 218,36l144 19c90,0 80,30 249,30 223,0 149,16 250,28 82,10 459,15 548,-16 114,-40 404,13 537,-13 63,-12 26,-28 126,-28 95,1 155,-28 251,-27 96,1 56,-7 108,-28 60,-24 170,7 254,-22l107 -33c159,-48 206,-13 358,-73 71,-28 185,-2 250,-28l96 -46c55,-18 47,-28 100,-33 81,-7 104,-25 171,-48 63,-22 129,1 188,-27 49,-24 62,-51 84,-61 41,-19 82,0 126,-12 15,-4 63,-39 89,-48 107,-37 104,-13 204,-79 14,-9 81,-33 101,-40l155 -58c101,-37 132,-87 240,-124l118 -60c44,-43 178,-88 237,-151 51,-54 29,-25 81,-63l265 -254c12,-18 21,-22 32,-34l88 -138c12,-30 -7,-3 16,-36 23,-31 41,-30 56,-72 26,-70 -14,-31 48,-99 66,-72 18,-43 49,-111 34,-69 23,12 41,-108 10,-70 74,-133 82,-207 5,-55 5,-88 23,-124 25,-51 30,-49 32,-120 1,-133 25,-147 25,-274 -1,-105 0,-210 0,-314 0,-112 1,-183 -21,-278 -11,-48 1,-94 -8,-141 -6,-25 -38,-84 -44,-103 -12,-51 3,-76 -15,-135l-78 -226c-26,-91 -117,-248 -132,-304 -19,-75 -59,-127 -107,-187 -33,-42 -14,-39 -56,-88 -22,-24 -47,-45 -66,-79 -25,-45 -25,-61 -60,-96 -86,-82 -52,-69 -140,-148 -42,-37 -85,-67 -111,-112 -30,-52 -81,-46 -125,-81 -88,-70 -78,-79 -171,-114 -29,-10 -64,-39 -99,-52 -21,-7 -40,-12 -58,-19l-137 -69 -243 -37c-55,-16 -36,-22 -118,-22 -167,1 -118,-45 -221,7l-4 -3z"/>
  <path class="fil1" d="M12387 8525c25,48 26,18 56,76 79,148 102,162 179,280 118,183 273,356 403,530 162,220 164,306 227,521 71,247 -22,475 146,288 87,-97 182,-180 265,-288 19,-24 27,-29 43,-50 20,-26 16,-29 33,-62 13,-26 76,-101 131,-209 72,-141 97,-395 -6,-542l-53 -70c-81,-127 -143,-142 -189,-188 -94,-91 -218,-130 -332,-217 -59,-45 -16,11 -110,-79 -32,-30 -81,-53 -111,-76 -63,-50 -98,-109 -130,-139l-346 -492c-32,-50 -40,-103 -92,-192l-130 -333c-19,-45 -39,-98 -52,-138l-156 -597c-14,-47 -40,-80 -43,-142 -3,-83 -1,-83 -42,-136 -22,88 -55,230 -66,315 -35,279 -101,312 -12,668 16,65 13,95 20,173 4,47 26,85 38,138l39 157c20,73 -9,86 27,162l260 641 3 2zm5389 1755c1,-71 -3,-127 9,-198l75 -324c66,-179 78,-238 203,-379 144,-161 515,-668 603,-842 23,-45 10,-24 33,-62l68 -121c126,-218 227,-691 263,-915 29,-179 52,-162 56,-330 1,-58 25,-115 30,-154 9,-59 12,-133 19,-191 9,-65 25,-104 33,-154 19,-98 6,-248 26,-362 32,-170 30,-562 -27,-718 -108,-6 -108,111 -144,316 -16,88 7,124 -20,215 -14,48 -26,138 -33,195 -14,109 -14,35 -37,217 -7,56 -38,117 -49,183 -12,64 -13,42 -29,92 -10,35 -6,56 -14,95 -7,33 -40,141 -53,177l-192 516c-12,18 -97,233 -175,356l-63 98c-63,106 -224,315 -309,392 -62,55 -199,171 -257,198 -75,36 -56,55 -139,88 -79,33 -198,132 -270,186 -101,76 -232,295 -239,338 -4,24 -1,94 -1,121 0,80 -10,142 17,210 52,132 82,183 166,295l153 198c65,94 10,-17 107,124 27,39 27,26 58,50 52,41 36,94 136,86l-1 0zm-928 -1678l121 -121c29,-27 23,-18 49,-45l180 -183c14,-17 17,-26 35,-45l273 -321c1,-2 4,-6 6,-8l189 -257c56,-59 95,-141 137,-214 39,-67 91,-145 130,-224l160 -342c22,-55 46,-91 40,-151 -232,-15 -2875,-8 -2909,8 -19,35 -23,198 -30,250 -19,150 -17,327 -40,477 -6,41 -9,79 -16,124 -23,141 -3,259 -20,373 -32,207 -19,332 -46,485 -12,71 -30,147 -113,145 -157,-3 -126,-294 -131,-406 -3,-82 -29,-142 -33,-235l-23 -230c-20,-104 -32,-104 -32,-239 1,-197 -50,-345 -50,-483 0,-73 17,-192 -7,-247 -14,32 -40,285 -42,342 -1,162 7,204 -102,263 -10,-6 -63,-44 -78,-56 -56,-50 -68,-262 -76,-333 -6,-45 1,-88 -6,-133 -6,-33 -25,-67 -30,-103 -12,-65 -14,-189 -29,-235 -29,23 -36,35 -40,74 -12,109 -49,167 -52,276l-65 362c-29,91 -7,121 -26,195l-36 168c-30,145 -198,157 -216,32 -22,-138 -39,-260 -38,-398 1,-132 -26,-247 -46,-379 -10,-68 3,-141 -9,-210 -9,-53 -29,-114 -30,-182 -1,-65 7,-157 -1,-218 -4,-30 -9,-45 -16,-86 -12,-74 19,-36 -33,-67l-68 398c-4,35 -19,59 -27,91 -32,121 4,147 -144,185 -27,8 -330,-9 -403,-8 -242,3 -188,-15 -113,183l94 204c32,89 81,179 136,257l173 274c29,41 59,88 88,127l252 313c22,29 26,30 50,58l105 121c1,2 4,6 6,8l48 62c20,21 33,32 53,55 35,36 68,77 107,109l169 168c20,20 39,29 62,47l296 268c66,45 114,108 175,162l716 560c6,6 20,17 27,21 40,-14 58,-50 107,-77 56,-32 56,-39 102,-71 61,-44 150,-103 193,-156 55,-65 118,-101 196,-153 48,-32 61,-53 92,-82 62,-55 130,-92 192,-154l414 -380c1,-2 4,-6 6,-8l-1 -5zm-2334 -2670c29,-210 37,-376 37,-601 0,-115 14,-186 19,-289 3,-82 16,-194 61,-257 92,-2 84,-12 164,38 16,198 -1,295 40,533 19,109 0,257 16,374 6,47 10,29 14,85l19 262c0,77 17,114 17,165l29 374c20,141 -4,257 29,447 14,77 -9,161 35,195 20,-44 7,-142 7,-203 0,-127 48,-271 46,-398 -3,-218 45,-156 202,-186 108,-21 2282,-3 2597,-3l385 14c45,-121 63,-271 62,-403 0,-79 0,-156 0,-235 0,-97 -14,-144 -16,-220 -3,-103 -9,-103 -35,-194 -35,-126 -53,-229 -114,-350l-160 -286c-48,-73 -146,-189 -214,-245 -25,-20 -38,-17 -65,-42 -40,-41 4,-21 -53,-55l-137 -89c-120,-61 -201,-100 -336,-114 -61,-6 -117,-35 -185,-35l-316 0c-126,0 -404,89 -517,153l-258 183c-19,20 -19,35 -48,61l-117 112c-55,45 -97,121 -144,177 -55,2 -78,-17 -107,-56l-164 -198c-1,-2 -4,-5 -7,-8l-22 -18c-25,-21 -30,-30 -53,-53 -115,-112 -427,-313 -587,-318 -62,-2 -56,5 -108,-15 -120,-42 -277,-21 -404,-21 -26,0 -297,45 -317,56 -75,45 -312,127 -465,271 -23,21 -17,27 -40,55 -32,36 -25,17 -53,41 -35,29 -45,64 -78,98 -62,67 -100,154 -146,233 -45,74 -87,165 -111,256l-62 223c-35,86 -58,315 -58,412 0,300 20,229 33,427 7,112 0,117 56,198 104,15 118,-15 189,-15l250 0c91,0 107,58 134,-71 14,-68 14,-126 38,-197 30,-95 12,-117 30,-198 12,-48 33,-120 42,-176 10,-70 1,-42 23,-103 23,-65 26,-204 43,-283 13,-62 62,-330 100,-354 66,-29 123,-11 152,48 30,62 9,124 17,200 14,129 50,254 49,401 0,82 13,135 27,212 13,73 0,138 10,210 6,45 13,8 16,73 1,36 -1,74 1,111 4,56 32,136 32,194l-1 221 29 -62c38,-156 26,-159 42,-251 6,-35 13,-29 25,-67 10,-39 4,-48 9,-88 14,-138 46,-277 82,-401 48,-164 -26,-256 140,-336 75,39 97,73 117,174 16,82 0,182 35,210l-1 -2z"/>
  <path class="fil1" d="M9725 13185c-23,31 -51,246 -62,311 -44,281 -145,623 -228,882 -250,775 -875,1618 -635,2189 313,746 1338,777 1697,87 301,-579 -279,-1398 -519,-2234 -55,-191 -105,-387 -146,-594 -23,-113 -33,-223 -54,-320 -11,-52 -32,-281 -55,-320l1 0zm-5400 2639c-184,105 -368,197 -559,306 -181,102 -368,214 -555,309 -182,94 -352,202 -550,309 -193,105 -374,205 -562,314 -182,105 -374,207 -555,309l-415 236c-72,74 -43,144 -43,181 1,94 -6,-11 -18,86l-7 209c3,61 -6,37 -17,91 -18,91 1,31 3,99 1,65 -15,34 -6,97 4,29 28,167 51,194 105,131 40,74 84,136 59,83 195,160 269,167 47,5 22,-10 80,-5 207,21 95,-8 179,-13l261 10c65,-6 128,-6 193,-10 55,-3 54,5 91,6 69,5 32,-18 86,-21 43,-3 39,16 77,23 58,10 43,-8 79,-18l269 15c66,-8 3,-23 75,-21 48,2 14,19 81,3 109,-26 90,21 168,6 51,-10 14,-24 86,-11 130,21 258,-26 364,-8l273 -5c102,-11 235,40 428,-70 105,-60 66,-19 131,-97 34,-40 22,-11 51,-57 99,-157 54,-44 97,-121l91 -248c8,-70 8,-159 18,-230l33 -319c8,-78 -7,-53 -3,-105l73 -854c-7,-73 46,-440 -70,-584l-99 -134c-124,-152 -17,-58 -161,-163 -40,-29 -32,-34 -76,-8l4 -3zm1406 2959c0,76 18,34 -6,131 -22,92 4,44 -1,129 -7,86 -55,199 -23,259 50,95 105,37 183,52 160,31 131,-49 241,-32 77,11 134,-40 199,-76 61,-34 59,-19 117,-37 141,-44 113,-95 268,-178 161,-86 90,-63 161,-149 36,-42 52,-24 87,-61 12,-13 47,-71 59,-92 29,-50 113,-128 177,-281 17,-39 36,-60 58,-95l3368 66c39,-61 422,-1132 421,-1174l-3612 -53c-33,-52 -6,-11 -18,-70 -23,-116 -29,-5 -39,-210 -4,-89 -50,-155 -77,-228 -195,-500 -132,-181 -221,-406l-105 -144c-131,-118 -46,-66 -97,-121 -23,-26 -43,-16 -86,-60 -34,-36 -83,-108 -167,-146 -32,-15 -26,-6 -54,-24l-92 -53c-12,-8 -25,-16 -43,-24 -61,-28 -390,-184 -437,-89 -18,37 -57,514 -52,579 10,142 -39,417 -50,569l-15 286c-22,131 -83,1043 -83,1043 -15,66 -29,40 -15,113 12,71 -48,461 -48,574l1 3zm613 -2700c66,-29 117,31 139,78 34,68 26,265 -113,269 -99,3 -152,-74 -160,-167 -11,-139 47,-142 134,-180l0 0zm597 448c12,-3 33,-23 81,45 19,28 47,95 50,120 8,63 -19,71 -65,123 -1,2 -4,6 -6,8 -6,6 -14,16 -22,19 -101,57 -204,-34 -204,-173 0,-53 -1,-31 18,-61 80,-128 75,-61 148,-81l0 0zm-804 662c-23,-346 155,-262 248,-251 26,44 55,92 44,155 -47,283 -171,176 -294,95l1 0zm691 183c99,-45 161,53 171,144 10,102 -63,147 -138,178 -52,23 -59,8 -102,-32 -29,-28 -55,-50 -57,-104 -1,-112 50,-152 126,-186zm-653 396c77,-47 171,40 183,100 25,108 -18,204 -97,226 -43,13 -152,-8 -182,-121 -40,-147 51,-180 95,-205l0 0zm-172 1089c11,-459 262,-209 292,-165 21,31 26,188 -65,236 -106,55 -152,-37 -226,-71l-1 0zm-4794 921c50,21 374,-15 433,-3 87,16 21,11 116,-3l523 -10c124,16 257,-24 367,-5 105,19 55,-15 126,-13l218 10c75,5 17,-5 76,-13 50,-8 79,19 146,10l377 -10c109,10 239,-26 355,-13l139 -5c48,-6 116,3 171,-5 172,-26 208,-47 373,-138 484,-269 210,-133 411,-298 33,-27 52,-65 73,-105 29,-55 52,-55 80,-99 43,-65 94,-162 119,-241 7,-23 15,-52 25,-74 43,-95 30,-91 52,-146 34,-86 59,-294 55,-385 -4,-86 29,-58 21,-150 -10,-120 59,-749 72,-888 4,-52 -3,-55 -3,-84 0,-87 3,-3 12,-61l10 -155c22,-256 41,-477 19,-722 -6,-63 -32,-92 -51,-146 -25,-70 -7,-99 -30,-157 -19,-49 -86,-223 -112,-252 -26,-29 -15,6 -46,-47 -10,-18 -18,-47 -28,-71 -68,-178 -77,-86 -146,-210 -23,-42 -52,-60 -94,-84 -83,-50 -12,-66 -84,-105l-108 -65c-29,-21 -84,-34 -119,-53 -286,-165 -328,-83 -512,-165 -73,-34 -475,-115 -556,-131 -59,-11 -86,-23 -137,-31 -88,-15 -172,-26 -252,-57 -91,-36 -207,-40 -305,-71l-277 -70c-43,-13 -108,-19 -145,-26 -70,-11 -66,-26 -126,-36 -52,-8 -103,-10 -148,-37 -88,-57 -46,3 -121,-18 -175,-47 -433,-134 -621,-125 -29,2 -22,8 -66,10 -160,5 -28,-71 -246,52 -63,36 -79,16 -131,39 -4,2 -54,31 -58,32 -66,44 -48,60 -142,113 -199,112 -90,31 -185,183 -32,50 -52,52 -76,104 -43,92 -39,11 -73,104l-55 125c-12,27 -37,118 -41,142 -12,91 -63,254 -55,319 6,34 19,10 1,76l-33 257c-12,108 14,121 -10,212l-22 413c-3,49 -14,45 -17,91 -3,57 7,31 7,74 0,47 -40,168 -37,231 6,110 -14,121 -14,165 1,73 17,-18 -3,133 -17,134 -4,293 -34,421 -22,97 10,63 -6,150l-58 704c7,102 -15,61 -14,152 1,86 23,57 23,162 1,128 48,191 88,291l52 131c43,94 59,186 128,248 97,86 3,58 175,178 63,44 -12,34 95,84 62,29 36,37 102,70 34,16 80,31 121,50 157,73 134,10 232,52l0 -3zm-287 -3973c-7,-53 59,-505 108,-636 25,-66 33,-29 65,-84 54,-94 15,-94 131,-157 177,-95 225,-116 404,-102l433 108c50,19 161,40 221,53 109,23 335,71 430,108 76,31 331,55 388,78l19 8c105,34 199,39 266,55l210 58c95,19 152,24 233,57 47,19 574,120 659,155 159,66 124,74 178,100 55,26 48,0 80,53 36,61 4,29 63,87 143,141 95,112 208,375 59,141 34,84 40,256 4,131 -23,566 -40,717l-50 555c-33,218 12,155 -19,257 -33,107 -3,194 -30,335 0,3 -1,6 -3,10 -12,91 21,21 -18,144l-75 222c-8,21 -47,71 -58,92 -36,74 1,36 -61,79 -73,52 -17,34 -58,94 -22,32 -19,3 -70,66 -36,44 -39,37 -84,61 -50,28 -135,87 -185,95 -34,5 -90,-3 -126,-2 -77,2 -57,24 -110,24 -52,-2 -43,-8 -105,-2 -43,5 -92,-10 -124,-10l-250 11c-75,-2 -150,-6 -229,-11 -70,-3 -34,23 -108,15l-226 -11c-69,8 -12,32 -108,16 -52,-10 -61,-10 -112,3 -61,16 -44,-11 -86,-15 -41,-3 -37,23 -98,24l-224 -13c-26,2 -73,19 -116,19 -62,-2 -43,-16 -108,-6 -59,8 -75,3 -132,3 -46,0 -69,18 -105,11l-232 -15c-54,8 -26,37 -102,15 -51,-16 -54,-15 -108,-6 -63,10 -73,-11 -113,-2 -26,5 -23,15 -46,18 -73,10 -1,3 -54,-15l-43 -10c-230,-24 -257,-107 -327,-163 -106,-86 -94,-57 -174,-267 -25,-63 -19,-210 -23,-283l48 -524c14,-97 -11,-28 -8,-102 3,-57 28,-58 26,-116 -3,-61 -8,-44 1,-123l37 -435c8,-79 -19,-79 21,-252 19,-87 4,-60 8,-136 4,-78 26,-45 21,-128 -6,-92 28,-456 40,-557 6,-44 3,-104 11,-149 19,-112 7,-34 -4,-110l-3 0z"/>
  <path class="fil0" d="M8772 15c-65,-21 -287,-18 -357,0 27,55 20,78 61,138 59,84 137,310 177,421 151,406 283,790 371,1229l116 696c27,254 70,492 14,754 -43,199 -37,515 -110,705 -23,58 -34,81 -54,153 -17,58 -31,94 -47,147 -131,404 -165,473 -254,944 -32,168 -120,534 -137,683 -27,242 -93,454 -121,696l-119 690c-146,678 -338,2383 -272,2980 11,97 36,269 63,346 14,39 103,244 123,256 105,15 183,-18 254,-61 197,-118 379,-268 565,-413 124,-97 230,-190 369,-290 69,-49 121,-100 185,-151 71,-59 118,-167 36,-235 -63,-46 -96,21 -143,54 -73,49 -189,33 -277,48 -105,16 -79,124 -211,120 -56,-91 -51,-109 -49,-260 6,-290 344,-1243 522,-1518 51,-79 32,-130 105,-190 45,-37 137,-87 162,12 64,242 1035,4979 1111,5107 20,36 32,58 36,108 3,27 0,54 1,81 1,19 3,18 5,34l6 18c49,31 188,21 248,7 1,-3 3,-9 4,-12 1,-3 3,-7 4,-12l9 -34c26,-135 23,-281 46,-418 63,-370 70,-1069 117,-1456 113,-925 -192,-2597 -426,-3420 -18,-70 -34,-127 -52,-196 -168,-654 -363,-997 -303,-1753 34,-433 218,-792 494,-1033 96,-84 161,-154 251,-238l1316 -1115c82,-70 188,-157 267,-219 200,-153 352,-280 546,-425 229,-181 453,-358 687,-530 50,-37 79,-67 131,-105 57,-42 227,-163 271,-213l-3 -220c-283,-49 -226,103 -411,118 -1043,89 -2743,2330 -3980,79 -31,-57 -77,-66 -116,-109 -113,-122 -525,-845 -590,-904 -25,-23 -553,-883 -567,-931 -20,-73 -42,-61 -61,-120 -6,-21 4,-7 -9,-37l-6 -5zm2982 2769c502,-231 974,-742 817,-1446 -108,-483 -432,-956 -851,-1068 -1921,-513 -1340,3165 34,2514z"/>
 </g>
</svg>
