<?xml version="1.0" encoding="UTF-8"?>
<!DOCTYPE svg PUBLIC "-//W3C//DTD SVG 1.1//EN" "http://www.w3.org/Graphics/SVG/1.1/DTD/svg11.dtd">
<!-- Creator: CorelDRAW X6 -->
<svg xmlns="http://www.w3.org/2000/svg" xml:space="preserve" width="200mm" height="200mm" version="1.1" style="shape-rendering:geometricPrecision; text-rendering:geometricPrecision; image-rendering:optimizeQuality; fill-rule:evenodd; clip-rule:evenodd"
viewBox="0 0 20000 20000"
 xmlns:xlink="http://www.w3.org/1999/xlink">
 <defs>
  <style type="text/css">
   <![CDATA[
    .fil0 {fill:#8950FC}
    .fil1 {fill:#8950FC;fill-opacity:0.301961}
    .fil2 {fill:#8950FC;fill-opacity:0.501961}
   ]]>
  </style>
 </defs>
 <g id="Layer_x0020_1">
  <metadata id="CorelCorpID_0Corel-Layer"/>
  <g id="_935729328">
   <path class="fil0" d="M19672 4334c0,0 0,0 0,0zm-2196 813l-2 317c41,33 48,34 116,36 187,2 142,-16 142,-465 0,-268 33,-143 57,-304 24,-161 43,-85 79,-282 11,-60 28,-89 46,-136 20,-51 22,-94 33,-148 22,-105 105,-167 46,-270 -194,-29 -242,34 -270,199 -20,119 -44,134 -70,279 -9,54 -9,63 -54,81 -63,-36 -48,-163 -74,-239 -13,-38 -31,-72 -39,-120 -11,-74 -2,-176 -111,-197 -216,-43 -233,51 -142,228l144 480c35,72 44,161 74,244 33,94 20,194 20,297l2 0zm-1351 -746c0,92 -15,317 26,382 318,71 140,-206 355,-192 124,9 113,163 113,273 0,129 54,413 -111,422 -257,16 -105,-315 -194,-348l-161 -4c-59,60 -35,320 -24,366 17,60 50,91 85,132 89,107 434,96 523,20 163,-139 128,-346 128,-588 0,-78 11,-170 -13,-237 -17,-47 -65,-143 -98,-163 -244,-152 -250,24 -384,4 -31,-67 -22,-315 7,-373 155,-45 420,27 468,-42 26,-45 11,-110 -2,-165 -107,-29 -333,-14 -464,-14 -298,0 -253,-114 -255,525l2 2zm2057 -293c0,197 -13,1311 9,1369 55,18 205,20 262,-5 43,-107 -31,-435 26,-556 113,-9 52,94 131,284 55,130 -24,65 122,310 59,9 185,22 229,-16 18,-49 4,-47 -15,-91 -18,-40 -13,-49 -24,-91 -18,-67 -44,-80 -67,-170 -24,-101 -128,-253 -105,-364 79,-56 100,-33 163,-123 39,-56 33,-179 33,-255 0,-150 24,-429 -168,-473 -224,-51 -242,-38 -507,-36 -122,2 -91,107 -91,214l0 4zm281 293c0,-163 -31,-310 63,-322 67,-9 109,34 139,63 48,45 37,67 37,147 0,103 30,286 -107,315 -159,34 -131,-72 -131,-203z"/>
   <path class="fil0" d="M261 7886c55,-16 52,-58 98,-177 22,-60 4,-69 63,-219 31,-78 24,-136 59,-214 20,-43 59,-185 48,-219 -30,-53 -264,-31 -373,-31 -250,-2 -116,109 -81,259 11,43 11,87 28,130 15,43 30,58 41,107 11,51 11,81 30,129 70,174 20,199 87,235l2 0z"/>
   <path class="fil0" d="M6675 3700c100,14 141,-40 220,-67l1002 -431c68,-36 235,-27 -79,-293 -170,-145 -512,-203 -686,-116 -39,18 -70,22 -102,38 -50,24 -202,138 -238,196 -26,42 -35,43 -57,80 -96,145 -139,442 -61,597l2 -4z"/>
   <path class="fil0" d="M6965 5907c96,78 301,141 460,123 196,-24 307,-80 427,-172 55,-43 85,-89 133,-152 18,-25 91,-163 98,-196 18,-80 20,-197 13,-282 -17,-203 -190,-507 -287,-395 -11,13 -17,27 -26,43 -15,22 -24,29 -35,43l-736 885c-28,31 -44,54 -46,103l-2 -2z"/>
   <path class="fil0" d="M7250 4598c-70,9 -57,0 -113,29 -72,38 -139,27 -279,168 -135,134 -111,136 -179,255 -46,80 -43,291 -31,386 11,100 116,366 214,375 55,5 96,-58 155,-136 122,-161 298,-346 390,-476l264 -319c35,-43 139,-120 70,-192 -11,-13 -192,-81 -214,-85 -78,-14 -202,-13 -279,-4l2 -2z"/>
   <path class="fil0" d="M8008 3250c-111,38 -325,141 -409,168l-823 348c-133,78 139,279 185,311 109,74 318,132 449,120 185,-18 305,-76 421,-165 72,-54 161,-158 192,-241 41,-107 83,-103 72,-360 -4,-78 4,-212 -89,-181l0 0z"/>
   <path class="fil0" d="M5782 3961c-55,13 -200,45 -235,69 -44,29 -55,29 -94,53 -6,4 -74,53 -87,63 -81,71 159,215 261,291 54,40 113,92 163,134l588 463c28,27 74,107 157,-51 30,-58 81,-255 70,-368 -18,-197 -170,-456 -351,-545 -172,-85 -4,-24 -213,-85 -87,-25 -157,-49 -259,-25z"/>
   <path class="fil0" d="M5268 4287c-144,83 -248,550 35,860 181,199 514,331 751,228 83,-36 170,-38 299,-159 57,-54 24,-89 -74,-156l-837 -661c-105,-80 -129,-139 -174,-112l0 0z"/>
   <path class="fil1" d="M2902 14257c-92,-123 -165,-357 -477,-232 -78,31 -153,127 -189,199 -26,58 -37,273 -11,335 7,18 59,101 74,120l370 395c41,38 54,43 94,89 55,63 146,170 222,138 35,-16 70,-69 94,-101 67,-91 87,-53 203,-186 28,-33 63,-53 96,-87 39,-40 52,-65 92,-103 78,-72 214,-241 222,-351 9,-145 -33,-355 -161,-422 -231,-119 -383,-29 -499,150 -33,49 -52,67 -128,58l-4 0zm-79 -5995c-307,80 -259,38 -527,223 -50,34 -87,78 -126,127l-109 141c-18,34 -17,60 -31,94 -13,29 -30,49 -44,81 -74,159 -61,485 -11,623l83 167c55,129 270,335 372,382 41,18 52,13 91,36 28,18 43,36 79,45 190,47 494,56 677,7 44,-11 290,-147 323,-179 26,-24 31,-38 55,-71 30,-38 39,-31 68,-58 15,-13 92,-125 107,-143 35,-49 46,-114 76,-176 68,-147 78,-500 2,-639 -74,-134 -24,-130 -67,-183 -18,-24 -46,-36 -67,-60 -61,-67 -22,-51 -176,-201 -59,-58 -244,-156 -333,-172 -96,-18 -6,-27 -207,-49 -91,-9 -142,-22 -235,2l-2 2zm-2775 6051c0,185 -17,186 61,319 35,60 122,138 203,161 104,29 242,11 327,-40 183,-110 240,-237 294,-445l85 -279c78,-221 174,-670 248,-855 54,-136 83,-288 120,-425 15,-56 37,-85 54,-127 20,-53 18,-94 43,-139 67,-132 83,-360 153,-404 115,-71 189,43 190,158 2,81 -50,206 -68,302 -13,67 -31,80 -54,127l-159 578c-26,190 -54,163 -78,288 -9,51 -6,103 -26,156 -17,43 -43,72 -55,125 -17,65 -9,85 -37,147l-131 425c-7,58 -4,105 -28,154 -48,101 -46,168 -92,273 -79,177 -94,393 -157,579 -30,92 -57,192 -79,282 -11,47 -17,107 -33,148 -22,58 -28,76 -41,141 -13,54 -30,87 -48,134 -20,54 -18,96 -30,150 -13,62 -144,250 9,250 113,0 246,-18 351,-9 98,9 244,-7 355,-5 375,11 312,-22 311,270l9 2249c0,58 -9,105 -9,158 4,152 2,317 22,467 17,129 52,110 126,214 37,51 54,42 100,72 87,58 161,80 274,87 107,7 216,-13 277,-72 100,-96 272,-244 262,-429 -20,-368 -9,-1959 -9,-2317 0,-127 -28,-614 15,-664 37,-43 174,-38 238,-25 96,20 65,105 65,192l0 2792c0,123 18,167 67,255 102,183 20,65 135,150 72,54 76,87 190,107 259,45 466,-38 601,-257 85,-139 52,-339 52,-492l7 -2339c0,-400 -91,-402 246,-411 89,-2 189,-5 277,-4 525,11 599,56 538,-110 -43,-118 -113,-465 -152,-530 -33,-58 -37,-147 -57,-215 -50,-158 -72,-288 -113,-431 -39,-136 -85,-282 -128,-418 -26,-85 -9,-143 -50,-223 -41,-80 -26,-138 -54,-219 -30,-89 -48,-98 -67,-205 -17,-94 -63,-118 -72,-205 -15,-130 -6,-103 -59,-210 -37,-72 -20,-147 -54,-221l-124 -411c-20,-76 -24,-150 -48,-223 -43,-130 -30,-118 -57,-217 -31,-114 -129,-310 -120,-427 6,-76 35,-165 118,-163 157,4 161,257 198,353 35,92 48,65 67,194 13,98 48,120 74,199 26,83 33,129 65,208 31,78 24,167 48,225 15,36 33,49 43,92 9,43 9,67 26,110 26,69 43,127 68,205 24,72 55,121 70,201 15,76 15,159 41,234 26,78 57,91 79,183 17,69 43,143 59,212 37,145 137,225 257,293 81,47 129,42 244,33 126,-11 261,-139 314,-235 57,-103 2,-375 -37,-467 -33,-80 -28,-134 -52,-219l-261 -829c-41,-92 -104,-304 -133,-413 -41,-150 -24,-76 -76,-186 -33,-74 -22,-125 -63,-210 -39,-78 -30,-139 -54,-217 -11,-36 -33,-54 -46,-91 -13,-34 -11,-72 -26,-112 -26,-80 -44,-109 -65,-206 -17,-80 -55,-127 -74,-199 -22,-91 -153,-246 -218,-330 -153,-199 -442,-393 -721,-366 -128,13 -1181,0 -1433,4 -307,4 -937,-58 -1146,118 -61,53 -146,96 -198,156l-148 194c-46,67 -115,114 -142,210 -30,105 -63,120 -85,255l-79 273c-22,49 -41,38 -55,114 -11,60 -15,81 -41,132 -50,100 -33,185 -78,273l-338 1050c-54,136 -120,386 -159,534 -33,125 -63,109 -63,281l2 5zm2540 -2357c68,-18 190,-13 238,25 55,43 43,141 129,125 61,-11 76,-91 148,-127 124,-60 288,-40 360,121 24,53 22,183 11,241 -37,183 -96,109 -177,225 -28,38 -159,127 -205,194 -35,51 -61,121 -144,121 -79,0 -107,-78 -155,-121 -35,-33 -39,-27 -68,-69 -102,-143 -74,-71 -133,-130 -122,-123 -240,-290 -133,-467 35,-58 55,-118 129,-136l0 -2zm168 1314c222,-24 407,-18 597,49 43,14 98,20 137,36 33,14 65,42 100,60 176,83 244,148 372,291 55,62 89,121 146,185 52,54 159,391 170,485 13,103 15,219 7,322 -9,110 -98,424 -153,503 -81,118 -113,174 -222,281 -118,118 -94,118 -275,215 -48,25 -57,49 -104,69 -43,20 -79,24 -120,40 -139,62 -427,91 -586,69 -283,-36 -270,-20 -514,-150 -89,-47 -126,-74 -202,-130 -277,-208 -425,-496 -490,-831 -26,-132 7,-190 2,-306 -6,-168 144,-614 272,-713l174 -158c170,-156 220,-143 309,-194 152,-87 202,-105 377,-123l4 0z"/>
   <path class="fil0" d="M10219 4448c-35,54 -81,92 -131,141 -54,53 -94,92 -144,141l-213 210c-43,49 -185,163 -214,221 -78,150 -83,284 13,436 41,63 89,103 133,152 28,31 43,36 70,67l858 844c18,18 20,16 37,33 20,18 20,25 39,42 54,49 205,127 312,60 78,-49 148,-80 185,-237 41,-176 -46,-210 -198,-364l-410 -445c-41,-42 -111,-62 -2,-172 46,-47 96,-87 139,-134 50,-56 74,-85 141,-145 172,-159 163,-147 -6,-311l-490 -503c-31,-38 -52,-38 -118,-31l0 -4z"/>
   <path class="fil0" d="M11581 5162c131,109 229,223 357,348 46,45 166,121 52,221l-176 190c-41,45 -78,85 -115,125l-235 246c-274,263 129,697 409,435 314,-295 645,-637 969,-949 194,-186 244,-234 235,-482 -7,-179 -194,-299 -305,-411 -76,-78 -153,-150 -242,-237 -55,-54 -192,-206 -248,-230 -55,24 -311,299 -362,355 -59,63 -118,123 -179,185 -48,47 -159,120 -159,206l0 -2z"/>
   <path class="fil0" d="M2 5227l0 1559c0,138 0,145 142,145 484,-4 405,100 403,-518l0 -3210c2,-132 7,-277 -72,-358 -24,-24 -92,-78 -135,-85 -202,-36 -340,80 -340,319l0 2147 2 2z"/>
   <path class="fil0" d="M11141 226l-257 80c-35,22 -24,29 -67,47 -120,53 -216,148 -296,253 -24,31 -17,43 -39,76 -63,96 -30,4 -70,158 -43,159 -68,181 -46,380 11,100 79,259 116,326 65,121 111,154 203,241 50,49 81,53 128,91 57,47 89,29 161,69 144,81 438,65 590,-11 83,-40 81,-4 161,-69 89,-72 50,0 242,-205 35,-36 57,-81 92,-125 30,-38 41,-109 67,-161 74,-147 61,-411 -13,-558 -35,-71 -31,-139 -165,-279l-318 -243c-28,-11 -61,-13 -91,-24 -74,-29 -79,-45 -179,-51 -65,-4 -161,-4 -222,5l2 -2z"/>
   <path class="fil2" d="M16595 9862c39,267 46,110 82,308 16,82 34,65 75,119 39,52 25,60 80,114 41,39 68,60 100,95 326,345 795,738 1096,1048 75,78 144,175 255,39 123,-149 255,-252 394,-382 71,-65 121,-138 196,-192 41,-28 68,-58 100,-95 52,-60 34,-47 100,-93 87,-58 105,-125 196,-192 36,-26 75,-65 100,-93 48,-56 48,-50 96,-97 116,-106 239,-367 269,-515 27,-129 -11,-237 -39,-345 -68,-287 -48,-129 -109,-270 -71,-157 -271,-293 -431,-362 -121,-52 -390,-60 -510,19 -66,43 -75,28 -134,60l-214 175c-191,138 -32,175 -451,-157 -50,-39 -194,-119 -262,-125 -401,-37 -369,37 -506,84 -68,24 -173,112 -221,166 -50,56 -134,160 -164,222 -21,45 -25,93 -43,147 -41,112 -75,185 -57,319l2 2z"/>
   <path class="fil0" d="M1196 510l-451 2c-148,-5 -61,-156 -80,-358 -6,-65 -20,-91 -83,-98 -65,-5 -105,5 -150,27 -24,244 -13,811 -11,1088 0,141 -33,234 128,234 155,0 118,-148 116,-358l-2 -89c70,-34 516,-24 636,-22 224,4 -81,320 213,502 67,42 329,22 421,22l3727 0c222,0 274,-101 274,-290 0,-177 -44,-170 177,-170 70,0 128,11 159,-36 87,-136 -131,-168 303,-165 89,0 505,14 564,-14 20,-105 -50,-94 -137,-92 -111,2 -643,14 -678,-9 -67,-45 7,-170 -91,-208 -85,-33 -209,16 -285,-14 -48,-121 63,-311 -118,-416 -91,-53 -152,-36 -272,-36l-3865 -5c-129,0 -118,-14 -211,43 -144,92 -83,259 -96,400 -9,94 -94,63 -189,63l0 2zm325 -188c0,-197 -22,-176 183,-176l403 0c126,0 220,-18 290,25 -9,290 -15,838 -4,1121 -68,38 -92,24 -183,24 -85,0 -610,11 -682,-13 -24,-69 -9,-891 -9,-983l2 2z"/>
   <path class="fil2" d="M2545 3146c43,72 20,1014 20,1177 -2,199 0,400 0,599 0,130 -79,176 -139,302 -20,45 -41,51 -61,98 -28,62 -28,45 -55,92l-850 1418c-31,42 -30,54 -54,94l-287 465c-33,43 -91,148 -92,221 -2,130 85,214 181,270 74,45 636,24 749,24l2747 0c150,0 153,14 255,-54 202,-138 128,-353 9,-509l-625 -1037c-24,-49 -35,-56 -57,-91l-281 -471c-26,-54 -33,-51 -55,-92 -63,-116 -370,-612 -390,-668 -17,-45 -6,-235 -6,-297l0 -1199c0,-54 -7,-255 2,-291 20,-85 148,-25 227,-81 52,-36 55,-177 24,-250 -33,-76 -174,-54 -255,-54 -155,0 -1131,-18 -1202,20 -79,42 -48,226 -41,246 37,89 166,54 238,71l-4 -2zm179 1809c-2,-324 -18,-1713 15,-1810l625 0c48,89 26,384 28,512l2 1186c2,297 28,179 113,371l266 440c24,51 67,80 74,132 9,63 -37,89 -68,127 -85,103 -301,330 -399,400 -397,291 -471,225 -978,188 -148,-11 -218,-49 -340,-63 -246,-29 -133,-56 7,-322 18,-34 22,-29 43,-62 13,-22 20,-47 35,-67l455 -753c15,-27 30,-40 43,-60 18,-29 17,-43 33,-69 44,-71 52,-38 50,-148l-2 -2zm1102 1763c-43,-165 261,-215 275,-33 6,65 -65,136 -116,141 -46,5 -85,-4 -105,-25 -2,-2 -54,-81 -54,-83l0 0zm-505 530c-52,-357 423,-355 457,-110 44,328 -287,319 -366,246 -50,-47 -78,-56 -91,-136l0 0z"/>
   <path class="fil0" d="M11812 2219l-1165 0c-74,0 -100,-4 -152,33 -246,170 -603,578 -845,800 -65,58 -129,114 -189,177l-185 181c-55,45 -242,212 -283,277 -89,139 -109,263 7,384 70,72 129,105 281,78 70,-13 562,-516 664,-625 33,-34 57,-56 91,-92 57,-62 133,-165 222,-159 83,123 2,516 44,692 72,36 349,18 460,20 488,2 976,-5 1464,4 100,-109 -41,-603 70,-692 57,-47 85,-5 124,27l292 290c72,71 126,125 189,188l290 293c98,105 335,76 407,-54 18,-33 31,-91 52,-130 28,-58 28,-85 41,-156 13,-71 30,-81 54,-138 20,-53 17,-105 35,-158 17,-49 41,-74 55,-139 13,-63 9,-98 39,-154 30,-60 35,-71 46,-147 13,-78 22,-80 48,-143 24,-60 22,-98 37,-158 15,-58 39,-83 54,-139 13,-51 15,-107 37,-154 37,-83 59,-201 96,-291 26,-65 20,-89 35,-158 13,-56 39,-85 54,-138 20,-67 6,-110 63,-136 57,34 44,87 54,159 9,83 30,96 48,167 15,58 15,123 30,185 13,54 41,107 54,163 13,60 11,127 28,188 18,67 44,81 54,165 20,170 67,232 79,349 20,159 67,217 79,351 9,89 15,98 46,174 20,51 37,217 81,348 22,65 20,116 31,186 11,60 39,103 52,161 43,185 20,429 264,384 118,-22 144,-167 177,-257 22,-62 18,-109 48,-168 35,-69 33,-81 54,-163 15,-60 46,-91 63,-152 22,-80 13,-91 50,-167 33,-67 26,-109 48,-168 22,-62 44,-72 61,-156 15,-85 33,-89 59,-156 26,-67 13,-101 48,-168 57,-110 44,-205 120,-311 41,-60 100,-38 187,-38 183,0 1231,-14 1314,7 46,92 2,206 44,250 43,38 91,4 100,-31 15,-51 -13,-103 0,-159 24,-109 277,-65 388,-65 37,0 1189,-16 1220,9 57,89 -13,320 41,378 39,36 78,-29 181,-110l551 -418c15,-63 -375,-301 -446,-362 -59,-51 -128,-85 -187,-134 -37,-31 -35,-67 -100,-45 -26,65 6,232 -7,315 -17,105 -244,63 -351,65l-1061 0c-102,0 -203,29 -209,-87 -6,-109 46,-206 -105,-194 -50,110 17,208 -59,279l-1508 2c-131,0 -142,-18 -229,49 -74,56 -128,324 -163,384 -48,85 -100,324 -140,406 -20,40 -33,49 -44,94 -50,197 -44,110 -72,199 -35,114 -9,80 -72,201 -22,43 -22,69 -65,83 -63,-54 -30,-165 -57,-261 -11,-38 -33,-80 -43,-114 -13,-51 -13,-100 -22,-152 -17,-91 -59,-154 -68,-252 -11,-132 -43,-156 -67,-259 -22,-96 -18,-165 -54,-264 -35,-98 -30,-181 -57,-272 -15,-47 -33,-74 -43,-116 -11,-47 -9,-92 -18,-141 -15,-92 -59,-158 -70,-263l-126 -520c-55,-158 -28,-407 -205,-444 -72,-14 -168,63 -183,123 -13,45 -13,87 -28,132 -15,49 -35,74 -46,123 -11,47 -9,87 -28,132 -59,156 -33,107 -70,248 -15,54 -35,74 -50,121 -13,42 -17,92 -26,134 -17,76 -26,22 -72,244 -11,51 -33,83 -48,125 -31,91 -24,150 -67,250 -54,119 -91,382 -146,502l-139 509c-24,53 -76,47 -115,16l-614 -608c-20,-20 -17,-24 -37,-42 -111,-105 -214,-221 -329,-320l-207 -205c-128,-112 -148,-87 -327,-87l-7 -16z"/>
   <path class="fil0" d="M13872 10229c48,26 210,444 230,543 25,129 55,84 89,175 36,106 2,93 68,192 46,69 34,134 64,198l89 168c68,114 289,136 397,73 57,-32 91,-75 119,-147 36,-99 66,-80 91,-170 27,-99 43,-108 77,-181 32,-67 21,-134 66,-194 64,-84 39,-97 75,-185 32,-78 57,-75 80,-181 25,-119 48,-99 82,-175 36,-75 25,-110 75,-188 55,-86 32,-110 68,-192 34,-78 46,-71 80,-179 25,-80 68,-108 87,-175 30,-116 27,-88 75,-183 27,-56 30,-138 62,-198l82 -179c36,-86 59,-63 82,-177 23,-112 34,-101 80,-179 36,-67 14,-119 68,-192 66,-91 34,-101 73,-188 16,-37 41,-60 55,-84 18,-35 16,-56 25,-99 25,-101 68,-99 91,-166 36,-108 -7,-91 66,-194 57,-82 77,-293 169,-354 59,26 46,63 59,132 11,54 34,71 57,119 23,43 27,86 48,132 25,50 46,54 64,112 25,71 7,82 50,140 36,50 41,56 57,121 16,73 21,69 57,121 36,52 27,75 55,123 57,108 276,196 390,114 107,-75 114,-82 160,-198 43,-110 -9,-164 -46,-280 -16,-50 -46,-80 -64,-116 -23,-43 -27,-99 -55,-140 -34,-54 -48,-41 -66,-112 -16,-63 0,-84 -39,-138 -39,-54 -46,-43 -62,-116 -25,-108 -62,-132 -109,-259 -23,-60 -46,-65 -64,-119 -46,-134 -77,-173 -109,-257 -18,-50 -14,-80 -50,-129 -46,-63 -34,-28 -59,-119 -32,-114 -173,-248 -305,-242 -75,2 -201,91 -235,134 -141,185 -52,116 -116,257 -18,39 -41,63 -62,114 -48,119 -89,280 -157,390 -55,91 -46,162 -105,250 -39,58 -34,67 -55,136 -30,101 -52,88 -98,257 -18,67 -41,60 -68,112 -23,41 -25,91 -43,136 -23,56 -39,50 -62,114 -18,47 -21,95 -36,142 -21,60 -43,60 -64,112 -23,56 -16,97 -46,147 -36,58 -48,41 -62,116 -30,153 -80,119 -105,250 -16,82 -9,75 -52,140 -55,78 -46,155 -109,248 -30,45 -25,71 -43,134 -16,54 -43,75 -68,123 -23,43 -21,93 -41,138 -23,56 -41,58 -62,116 -18,50 -18,93 -41,136 -21,43 -50,60 -68,110 -14,43 -14,97 -36,142 -21,43 -41,58 -55,123 -14,69 2,93 -59,114 -50,-37 -41,-67 -55,-134 -16,-82 -32,-78 -57,-134 -25,-58 -16,-99 -43,-151 -30,-56 -48,-52 -66,-123 -16,-60 -14,-95 -43,-147 -25,-45 -46,-75 -62,-132 -16,-60 -9,-101 -43,-149 -34,-47 -46,-41 -59,-119 -16,-88 -84,-179 -166,-218 -148,-69 -132,-71 -280,-2 -84,37 -146,119 -178,209 -25,67 -48,65 -75,119 -27,52 -21,82 -52,125 -41,58 -46,45 -71,121 -27,86 -34,54 -73,119 -27,47 -25,84 -57,134 -36,56 -43,65 -68,123 -30,67 -50,56 -77,116 -30,65 -16,80 -59,132 -48,58 -34,56 -66,125 -27,56 -52,54 -75,104 -27,56 -14,93 -50,140l-148 237c-21,50 -16,82 -50,127 -43,63 -34,43 -68,123 -30,71 -52,63 -77,119 -30,67 -62,190 -153,214 -23,-52 -27,-162 -34,-224 -14,-119 -50,-112 -75,-203 -21,-69 -21,-160 -36,-233 -18,-93 -57,-99 -73,-188 -14,-82 -11,-155 -46,-229 -27,-58 -50,-119 -62,-194 -18,-110 -14,-127 -55,-220 -59,-132 -23,-175 -116,-412 -30,-73 -23,-140 -46,-211 -21,-67 -62,-132 -75,-201 -16,-99 -7,-125 -41,-220 -27,-78 -55,-116 -66,-205 -34,-259 -75,-155 -105,-425 -14,-127 -41,-101 -66,-192 -39,-145 -21,-280 -155,-395 -139,-121 -449,-75 -501,188 -18,91 -59,91 -77,185 -14,65 -21,157 -52,218 -89,168 -32,168 -139,392 -23,50 -41,149 -59,201 -30,86 -43,110 -59,214 -16,110 -52,104 -80,179 -25,73 -18,157 -50,222 -57,121 -87,267 -139,392 -105,244 64,205 -394,205l-3954 0c-114,0 -217,-24 -262,52 -16,37 -21,416 -7,472 27,112 294,67 424,67l4312 2c109,0 103,6 169,-43 52,-39 82,-37 116,-93 100,-160 59,-142 105,-291 18,-60 52,-71 68,-140 14,-56 18,-116 32,-170 18,-65 41,-86 62,-142 21,-54 16,-101 32,-157 36,-132 57,-86 98,-295 14,-71 73,-246 130,-267 43,60 30,157 46,235 21,108 46,142 68,222 23,82 18,155 52,231 77,166 48,304 119,440 46,86 34,142 52,235 18,86 62,110 80,209 11,69 14,173 34,235 9,30 34,58 48,99 36,110 27,226 82,341 41,84 36,136 55,229 7,35 14,75 27,110 91,224 50,239 89,332 71,164 93,524 214,634 50,45 105,101 185,108 285,19 328,-285 442,-418 64,-75 39,-129 91,-196 75,-95 169,-323 207,-371l146 -278c18,-43 25,-52 52,-84 62,-69 36,-119 93,-194 52,-67 50,-132 100,-188 64,-73 48,-110 93,-181 30,-45 32,-30 55,-97 27,-82 73,-106 100,-188 27,-84 68,-101 100,-188 18,-50 25,-58 50,-88 52,-67 32,-151 91,-179l-4 4z"/>
   <g>
    <path class="fil0" d="M10924 16567c52,-149 -124,-436 -259,-489 -85,-34 -91,-70 -174,-79 -65,-6 -193,-6 -246,21 -204,111 -104,60 -226,164 -54,47 -122,192 -128,251 -9,83 -9,181 30,238 37,53 102,209 239,272 226,106 261,94 406,28 209,-94 263,-136 359,-406l-2 0z"/>
    <path class="fil0" d="M15369 16620c26,85 122,226 215,300 148,117 432,126 591,6 167,-123 135,-132 176,-213 13,-28 33,-45 46,-74 57,-134 -9,-300 -85,-419 -102,-162 -348,-262 -535,-215 -80,21 -267,143 -313,215 -52,83 -139,262 -96,402l0 -2z"/>
    <path class="fil0" d="M13709 13922c26,-98 9,-177 -9,-272 -30,-162 -22,-102 -91,-204 -41,-57 -80,-109 -148,-149 -100,-60 -76,-70 -215,-83 -113,-11 -304,-30 -395,45 -43,36 -48,30 -91,55 -96,60 -156,170 -206,236 -30,40 -26,60 -33,115 -28,247 2,311 109,475 39,60 87,102 154,140 146,85 -2,40 213,85 202,43 339,2 474,-89 54,-36 104,-98 146,-151 72,-92 59,-64 96,-204l-2 2z"/>
    <path class="fil0" d="M7249 13537c15,117 50,121 89,232 48,132 187,204 241,243 117,79 146,92 389,81 130,-6 150,-9 243,-74 37,-26 63,-32 100,-62 135,-115 259,-330 224,-549 -11,-64 -48,-204 -78,-243 -61,-74 -159,-198 -248,-236 -141,-64 -70,-89 -393,-79 -128,4 -243,81 -326,157 -196,179 -89,92 -198,272 -48,79 -59,149 -46,260l2 -2z"/>
    <path class="fil0" d="M17855 13511c33,228 52,223 139,343 30,43 46,47 78,83 30,32 165,121 191,132 169,64 552,40 711,-177 96,-130 185,-223 174,-460 -4,-85 -43,-153 -83,-243 -24,-55 -104,-140 -143,-177 -146,-130 -256,-166 -469,-164 -185,0 -306,96 -426,206 -30,30 -43,62 -70,92 -63,72 -115,270 -100,366l-2 -2z"/>
    <path class="fil0" d="M15919 18889c128,294 -206,1107 293,1111 174,2 215,-85 269,-206 33,-74 24,-1158 20,-1379 -2,-102 -35,-336 9,-406 76,11 70,87 87,162 17,77 54,111 76,181 128,453 506,296 402,-23 -24,-74 -56,-89 -80,-172 -30,-113 -22,-89 -72,-170 -39,-64 -26,-123 -65,-189 -52,-89 -41,-96 -74,-179 -30,-72 -26,-9 -85,-172 -17,-47 -59,-100 -91,-149 -167,-249 -485,-145 -821,-164 -161,-9 -343,-26 -467,32 -115,55 -200,160 -239,272 -59,164 -52,89 -85,168l-137 370c-39,77 -48,53 -74,166 -22,89 -59,102 -83,170 -11,30 -57,183 -59,196 -13,123 135,264 274,175 70,-45 169,-279 183,-326 22,-85 48,-113 72,-185 22,-68 17,-140 80,-157 87,109 -56,1617 59,1813 76,128 106,181 309,168 98,-6 111,-30 152,-94 30,-47 63,-79 67,-162l2 -704c0,-85 -30,-153 80,-149l-2 4z"/>
    <path class="fil0" d="M19315 15901c0,-121 4,-251 0,-372 -2,-57 -20,-111 -11,-172 17,-117 141,-170 143,26 0,60 11,109 11,172l-2 1049c-9,126 -37,134 20,245 161,321 419,194 511,-30 24,-57 9,-1579 9,-1662 0,-136 9,-157 -39,-268 -33,-77 -35,-145 -89,-204 -48,-53 -54,-83 -130,-166 -61,-66 -87,-74 -172,-123 -48,-28 -54,-47 -102,-62l-376 -70 -1208 0 -367 79 -261 185c-65,66 -72,94 -124,170 -54,79 -65,53 -83,179 -13,100 -30,149 -30,266l0 1394c0,145 -24,334 78,413 102,81 219,140 354,11 133,-126 100,-181 100,-398l0 -970c0,-132 -20,-249 33,-334 163,-13 111,153 111,294l0 3799c0,232 -33,383 115,524 80,77 174,134 345,104 74,-13 211,-155 241,-206 52,-89 30,-287 30,-409l0 -1886c0,-85 2,-168 -4,-253 -7,-92 13,-138 100,-140 74,64 50,92 50,206l2 2405c9,70 46,83 83,134 70,94 124,147 274,149 135,2 226,-32 304,-134 65,-85 89,-194 89,-323l-4 -3626 0 8z"/>
    <path class="fil0" d="M9396 16616c-22,-89 -2,-666 -2,-807 0,-157 22,-692 -4,-807 -11,-47 -35,-102 -48,-162 -15,-70 -100,-215 -146,-260 -74,-77 -248,-221 -356,-251 -72,-19 -96,-17 -156,-43 -80,-34 -93,-19 -185,-21 -163,-2 -1117,-15 -1243,4 -248,38 -406,70 -582,243 -65,64 -139,149 -176,226 -22,47 -22,100 -46,157 -26,64 -43,64 -48,155 -7,128 0,270 0,400l-2 1222c-4,221 74,179 98,309 28,153 -93,509 -117,687 -15,121 -65,243 -74,332 -41,441 -65,332 -98,506 -11,62 -7,121 -20,185l-78 319c-9,111 -11,264 -52,349 -54,111 -39,204 -59,341 -13,96 -59,264 83,279 154,17 143,-115 174,-232 35,-136 54,-183 65,-338 9,-119 70,-217 83,-309 22,-153 4,-204 59,-355 28,-79 43,-247 50,-347 9,-100 65,-230 80,-334 17,-111 26,-245 59,-347 48,-151 35,-187 57,-355 9,-68 37,-83 48,-157 54,-336 146,-213 191,-406 17,-70 2,-1081 2,-1205 0,-66 -33,-347 67,-343 100,6 70,249 70,328 0,536 4,1073 -2,1607l0 2032c0,217 -41,513 137,666 102,87 139,109 315,94 122,-9 169,-111 237,-183 52,-55 54,-36 57,-140l4 -1807c0,-164 -30,-670 26,-770 106,-4 133,53 126,160 -13,266 -4,532 -4,798 0,494 -15,1126 0,1609 4,119 13,130 74,192 39,38 91,100 141,126 48,26 193,30 254,11 28,-9 124,-83 154,-115 113,-126 102,-228 102,-426 -2,-713 0,-1426 0,-2139l0 -1607c0,-87 2,-179 0,-266 -4,-94 -15,-170 100,-170 74,28 41,519 43,609 0,213 0,426 0,638 0,234 -30,547 282,536 87,-2 72,-17 117,-51 93,-68 143,53 165,113 28,77 37,49 70,106 22,38 24,70 52,109 89,113 20,70 124,196 35,43 24,64 48,111 20,38 43,53 65,96 26,53 43,217 43,283 0,72 -28,221 -46,294 -20,83 -67,157 -76,238 -17,145 0,140 -59,268 -28,62 -78,200 -22,258 63,55 104,-17 204,51 17,147 -4,417 -4,579 0,385 554,423 548,-28 -2,-98 0,-196 0,-292 0,-64 -35,-232 20,-277 154,-128 4,645 111,777 54,68 70,121 183,123 363,11 296,-379 304,-624 2,-72 -35,-217 -4,-264 46,-49 130,-6 222,-36 52,-96 9,-192 -35,-283 -46,-96 -20,-189 -67,-292 -63,-132 -41,-160 -74,-283 -35,-128 -61,-138 -50,-315 4,-57 74,-219 104,-258 93,-113 152,-302 196,-351l130 -217c26,-70 11,-62 59,-111 159,-21 100,94 256,70 70,-11 152,-94 185,-147 61,-100 137,-347 165,-477l154 -487c35,-81 30,-170 67,-251 30,-66 37,-189 109,-219 30,15 43,13 50,60 9,77 -35,170 -61,240 -43,115 -48,202 -85,317 -15,51 -39,92 -52,145 -15,62 -11,104 -37,166 -26,62 -41,72 -56,147 -35,170 -85,306 -117,489 -15,81 -41,83 -65,140 -35,85 -17,162 -85,313 -28,64 -20,104 -30,172 -20,117 -109,181 -76,306 137,68 485,-23 611,36 59,166 -43,1479 17,1777 24,115 63,121 130,177 74,62 106,68 237,57 85,-6 141,-68 193,-113 48,-40 72,-136 78,-217 17,-194 0,-1179 2,-1488 0,-89 -48,-236 76,-213 85,15 48,192 48,266 0,98 0,196 0,292 2,398 -13,800 0,1196 4,102 52,136 102,187 56,57 93,85 204,89 191,9 269,-104 348,-253 37,-70 15,-1026 15,-1179l-7 -568c124,-66 532,15 585,-53 74,-60 -30,-249 -54,-311 -48,-123 -9,-192 -83,-317 -57,-96 -33,-209 -87,-313 -33,-64 -137,-511 -176,-628 -17,-51 -39,-92 -52,-145 -13,-53 -20,-111 -33,-168 -30,-115 -57,-153 -91,-309 -24,-106 -120,-206 -52,-296 67,-4 76,26 96,79 15,40 33,77 43,121l143 504c85,221 122,543 241,734 24,40 139,126 196,130 83,9 187,-62 224,-102 65,-68 85,-140 72,-260 -11,-96 -61,-128 -80,-236 -9,-49 -15,-94 -28,-134 -22,-62 -35,-57 -54,-106 -37,-87 -9,-153 -63,-258l-156 -494c-20,-113 -59,-147 -83,-243 -11,-47 -15,-92 -30,-128 -33,-74 -154,-236 -211,-287 -63,-57 -122,-87 -187,-136 -87,-64 -472,-40 -611,-40 -161,0 -839,-23 -965,21 -200,72 -395,334 -463,524 -37,102 -2,138 -70,249 -43,72 -39,164 -67,251 -37,104 -61,113 -83,255 -17,104 -63,132 -80,234 -22,121 -43,145 -80,245 -28,79 -26,185 -70,247 -67,15 -156,-2 -202,15 -63,23 -109,115 -141,166 -20,32 -33,40 -48,60 -59,77 -96,183 -156,258 -124,157 -274,132 -476,126 -389,-15 -337,66 -567,-262l-161 -255c-141,-177 -113,-49 -287,-117l4 8z"/>
   </g>
  </g>
 </g>
</svg>
