<?xml version="1.0" encoding="UTF-8"?>
<!DOCTYPE svg PUBLIC "-//W3C//DTD SVG 1.1//EN" "http://www.w3.org/Graphics/SVG/1.1/DTD/svg11.dtd">
<!-- Creator: CorelDRAW X6 -->
<svg xmlns="http://www.w3.org/2000/svg" xml:space="preserve" width="200mm" height="200mm" version="1.1" style="shape-rendering:geometricPrecision; text-rendering:geometricPrecision; image-rendering:optimizeQuality; fill-rule:evenodd; clip-rule:evenodd"
viewBox="0 0 20000 20000"
 xmlns:xlink="http://www.w3.org/1999/xlink">
 <defs>
  <style type="text/css">
   <![CDATA[
    .fil1 {fill:#8950FC}
    .fil0 {fill:#8950FC;fill-opacity:0.501961}
   ]]>
  </style>
 </defs>
 <g id="Layer_x0020_1">
  <metadata id="CorelCorpID_0Corel-Layer"/>
  <g id="_935748240">
   <polygon class="fil0" points="4760,15933 15240,15933 15240,14070 20000,17034 15240,20000 15240,18136 4760,18136 4760,20000 0,17034 4760,14070 "/>
   <path class="fil1" d="M4036 11318c-13,85 -13,142 -70,228 -128,197 -320,335 -603,308 -188,-17 -308,-100 -405,-202 -73,-76 -78,-112 -118,-178 -25,-43 -45,-199 -35,-259 33,-166 68,-266 210,-387 43,-36 140,-93 190,-112l120 -33c218,-33 440,59 560,199 23,26 80,100 93,128 8,19 15,33 23,52 38,76 48,171 35,254zm-3392 -2389c0,109 25,389 50,489 10,43 23,88 33,140 25,121 85,273 133,391 20,50 38,74 53,123l188 339c13,21 25,36 35,52 48,74 130,187 190,251 63,69 110,128 173,187 90,85 180,176 280,251l485 316c70,26 95,47 50,180 -20,59 -25,64 -38,135 -8,52 -23,90 -35,140l-83 439c-5,43 -15,109 -25,147 -8,28 -18,38 -53,40l-520 0c-133,-5 -105,12 -103,192l0 427c45,26 120,14 180,14l5163 0c50,0 80,9 113,-14l0 -501c0,-64 20,-76 -15,-114 -658,-5 -1316,0 -1974,0 -40,0 -83,0 -123,0 -115,2 -85,-66 -118,-251 -13,-74 -20,-135 -35,-206 -15,-64 -18,-145 -35,-209l-95 -389c-13,-36 -18,-43 -28,-90 -28,-142 -93,-126 43,-247 215,-195 418,-403 625,-600l1318 -1262c23,-24 38,-43 63,-64 45,-38 80,-83 125,-116 10,-57 -20,-57 -45,-95l-130 -161c-58,-76 -78,-31 -175,43 -205,152 -398,280 -603,439 -60,45 -115,83 -173,126l-343 249c-55,43 -113,83 -173,126 -15,12 -28,17 -43,28l-130 97c-78,64 -175,123 -258,187l-428 313c-128,104 -120,-38 -333,-190 -25,-17 -75,-45 -95,-55 -40,-17 -65,-33 -105,-47 -73,-26 -178,-38 -270,-28 -45,5 -78,17 -120,26 -118,24 -285,147 -358,233 -25,28 -45,55 -70,83 -55,59 -68,149 -173,74 -60,-45 -123,-74 -178,-119 -30,-24 -53,-38 -83,-62 -133,-109 -258,-237 -358,-382 -13,-19 -20,-21 -30,-38l-58 -95c-20,-36 -40,-52 -55,-90 -18,-52 -50,-100 -75,-152 -15,-33 -25,-69 -40,-104 -20,-45 -20,-64 -38,-114 -85,-282 -100,-572 -50,-866 15,-90 43,-228 80,-306 25,-47 30,-93 55,-140 48,-90 115,-240 178,-313 75,-85 -15,-59 -120,-88 -33,-9 -103,-28 -128,-45 -23,-14 -25,-17 -53,-28 -45,-21 -118,-74 -153,-109 -95,-95 -148,-178 -208,-297 -25,-52 -13,-95 -30,-133 -45,-2 -60,50 -80,76 -23,31 -45,57 -68,90 -23,31 -43,62 -63,95 -20,36 -40,59 -60,95 -58,102 -115,204 -160,311 -63,152 -120,308 -155,467 -28,138 -55,256 -63,401 -3,55 -13,90 -13,142 0,55 0,107 0,161l3 2zm2249 -1960c0,197 -43,280 -140,427 -20,33 -63,83 -90,102 -5,45 28,59 48,85 20,26 38,47 63,76 10,12 18,26 30,40 70,90 218,254 280,344l63 78c55,2 110,-64 173,-104 20,-14 35,-24 55,-40 40,-28 73,-55 110,-81 25,-17 33,-24 55,-40 18,-14 35,-21 55,-40 20,-17 35,-24 55,-40l608 -439c55,-38 -8,-78 -30,-107 -105,-128 -235,-301 -338,-418 -30,-33 -55,-71 -85,-104l-843 -1042c-30,-36 -58,-69 -85,-104 -25,-33 -63,-74 -85,-104 -88,-119 -240,-292 -338,-420 -70,-93 -178,-209 -250,-311 -45,-59 -70,-33 -110,2l-991 724c-88,64 -88,36 53,206 28,33 58,74 83,104l335 415c30,33 55,66 85,104 40,52 73,-2 125,-19 145,-43 173,-57 335,-55 235,5 418,104 543,228 30,31 108,114 128,157 10,21 20,43 30,62 53,88 70,206 70,308l5 5zm-1876 -1789c38,0 80,-43 108,-64l305 -223c35,-26 65,-45 100,-69 33,-21 68,-57 100,-78l103 -71c30,-21 65,-50 100,-76 0,-40 -28,-62 -75,-114 -30,-33 -50,-69 -85,-104l-373 -460c-120,-123 140,-130 83,-206l-168 -206c-43,-57 -65,-26 -168,52l-973 709c-38,36 -3,52 48,114l123 157c65,78 138,-166 230,-28l540 667 3 2zm498 1775c0,161 30,214 100,323 33,50 105,121 165,152 78,40 8,24 143,64 28,9 60,14 90,19 275,47 565,-135 640,-408 38,-133 20,-233 -25,-356 -25,-69 -125,-173 -195,-225 -70,-52 -203,-104 -325,-104 -105,0 -215,21 -288,66 -53,31 -38,5 -130,88 -43,38 -103,109 -123,159 -33,85 -55,114 -55,223l3 0zm2351 1843c78,5 153,-100 250,-154l695 -505c5,-47 -48,-78 -95,-147 -13,-17 -18,-19 -30,-33l-198 -242c-40,-47 -73,-90 -108,-140 -55,-9 -70,26 -108,50 -70,45 -128,97 -193,138l-285 209c-68,50 -120,90 -190,140l-140 102c-75,50 -13,76 108,223 13,14 23,33 35,47l258 316 0 -2zm-513 2102c-60,12 -83,19 -143,50 -40,19 -75,59 -105,90 -115,119 -110,406 78,527 98,62 185,85 310,71 33,-5 118,-36 143,-52 175,-109 248,-332 123,-520 -85,-128 -248,-195 -403,-166l-3 0zm1291 -2408c-28,14 -85,59 -115,83 -33,26 -80,59 -115,81 -33,21 -78,55 -115,83 -43,31 -8,52 40,109 33,38 53,66 90,104l215 270c13,17 28,45 58,38 5,0 210,-152 228,-166l113 -83c43,-38 -3,-62 -43,-112 -30,-38 -63,-74 -88,-107l-175 -216c-20,-24 -65,-100 -93,-83l0 -2z"/>
   <path class="fil1" d="M5073 3884c0,-253 -93,-204 542,-204 46,0 1081,-16 1109,12 25,23 2,66 -19,89 -58,63 -88,122 -134,199 -183,305 -282,717 -282,1083 0,110 32,427 72,502 51,2 884,-354 966,-387l1431 -588c278,-101 660,-284 952,-392l475 -190c7,-59 -44,-110 -76,-157 -197,-277 -299,-377 -586,-581 -431,-307 -1169,-436 -1683,-272 -28,9 -146,63 -178,30 -28,-30 -12,-1158 -12,-1247 0,-319 5,-488 -97,-760 -144,-389 -472,-717 -871,-853 -225,-75 -519,-117 -764,-52 -241,63 -421,131 -586,267 -153,127 -294,258 -398,471 -95,192 -174,422 -174,692l0 4279c0,1308 1477,1960 2420,1111 32,-28 56,-70 107,-87 23,0 447,317 1107,309 692,-7 1343,-356 1713,-921 227,-347 357,-739 357,-1222 0,-124 -23,-394 -58,-492 -58,-5 -197,63 -255,87l-236 96c-83,38 -160,63 -243,101 -72,33 -157,68 -234,98 -86,33 -162,68 -245,98l-118 49c-25,12 -37,19 -63,28l-526 216c-169,73 -320,127 -482,195l-472 195c-220,101 -820,324 -952,392 -9,94 229,366 299,438 120,122 218,113 -44,293 -215,148 -509,225 -778,181 -338,-56 -607,-218 -797,-506 -234,-361 -188,-652 -188,-1132l2 -1468 0 0z"/>
   <path class="fil1" d="M14729 5149c217,16 382,282 432,402 164,384 235,781 154,1223 -43,230 -26,242 -166,256 -345,37 -627,-151 -835,-413 -72,-89 -101,-152 -147,-243 -276,-544 107,-1253 560,-1221l1 -4zm1575 -2677c237,0 370,200 374,372 9,348 -442,522 -657,254 -227,-283 -15,-624 283,-626zm-3057 1626c-169,283 -295,523 -591,696 -92,53 -269,129 -431,115 -169,-16 -380,-60 -507,-166 -121,-102 -208,-200 -272,-344 -48,-110 -97,-294 -106,-439 -6,-89 -2,-162 -1,-252 0,-16 -1,-116 -2,-120 -27,-63 -72,13 -83,-83 -11,-88 3,-165 -1,-254 -8,-253 36,-783 74,-1036 88,-603 272,-1567 920,-1765 151,-46 98,18 232,59 418,124 807,-185 391,-400 -112,-58 -357,-174 -475,-61 -52,48 -146,43 -214,59 -148,35 -267,97 -390,188 -133,97 -292,284 -372,431 -183,335 -358,831 -394,1211 -13,133 -61,338 -76,551 -9,120 -40,422 -35,523 5,126 -11,253 -10,378 0,53 24,83 -18,129 -67,72 -40,38 -45,237 -7,240 27,478 95,701 49,159 109,274 189,393 72,105 192,235 321,316 287,180 259,45 186,397 -193,902 -376,2108 311,2828 354,371 907,541 1423,579 310,23 627,-47 900,-155 150,-60 257,-126 382,-202 167,-104 348,-288 491,-449 55,-61 92,-125 143,-187 31,-40 105,-163 129,-211 44,-89 74,-132 113,-236 16,-42 37,-71 55,-112 58,-141 109,-95 259,-210 115,-91 226,-182 321,-309 166,-222 123,-162 268,-406 265,-446 358,-1101 404,-1623 23,-264 5,-718 -41,-982l-39 -230c-6,-64 93,-111 145,-159 250,-229 335,-625 229,-935 -224,-647 -1093,-809 -1506,-260 -278,369 -238,839 23,1134 68,79 177,166 273,213 78,40 192,66 279,81 57,9 87,-2 133,13 57,85 86,572 86,692 2,256 -1,507 -40,780 -39,284 -116,581 -215,856 -64,181 -168,346 -273,495 -21,29 -38,47 -55,70 -4,6 -18,25 -26,30 -84,51 -37,-204 -45,-427 -5,-128 -28,-263 -57,-391 -84,-367 -181,-591 -399,-835 -25,-27 -40,-36 -66,-67 -36,-37 -39,-32 -83,-64 -358,-264 -812,-158 -1109,128 -156,151 -366,499 -379,772 -16,291 -2,530 122,787 202,413 590,782 1063,870 56,11 184,2 214,42 36,63 -245,396 -294,454 -356,421 -857,618 -1410,608 -211,-5 -670,-117 -837,-234 -226,-159 -346,-256 -472,-507 -46,-91 -89,-211 -114,-324l-45 -268c-5,-31 -2,-61 -8,-99 -48,-359 35,-873 113,-1244 28,-131 55,-342 106,-455 93,-23 279,46 643,-96 430,-170 661,-538 903,-910 81,-123 -19,-81 7,-164l269 -487c319,-667 679,-1462 651,-2245 -10,-288 -99,-534 -257,-743 -47,-64 -199,-184 -213,-234 -24,-87 14,-68 -83,-133 -131,-89 -602,-220 -662,33 -51,207 250,403 455,452 135,32 138,-55 268,149 326,520 86,1238 -125,1815 -48,128 -99,217 -148,349 -35,97 -283,582 -335,660 -34,51 -54,119 -88,167 -84,118 -20,66 -138,73l-5 1z"/>
   <g>
    <path class="fil1" d="M18019 10262c22,-45 65,-225 87,-296 33,-110 54,-191 85,-296 59,-199 111,-414 174,-605 61,-186 111,-398 172,-595 63,-204 118,-406 174,-603 28,-97 61,-204 85,-299 26,-107 63,-199 87,-299 59,-241 124,-202 -146,-511 -100,-115 -274,-231 -435,-288 -157,-58 -435,-68 -583,16 -54,31 -78,155 -109,270l-211 747c-11,45 -37,113 -50,152 -111,359 -233,825 -346,1203 -59,196 -118,401 -172,592 -104,367 -144,288 168,417 224,92 655,262 871,364 50,24 89,47 148,31l2 0zm-1361 880c30,-50 183,-621 226,-768 91,-307 74,-270 -26,-301 -22,-8 -54,-24 -83,-37 -98,-50 -109,-34 -133,73 -41,189 -179,592 -237,817 -30,113 -48,118 61,155 59,21 128,63 192,60zm990 403l72 -252c20,-81 48,-165 72,-252 174,-610 198,-498 -37,-597 -111,-47 -100,-39 -133,79l-242 838c-33,121 7,107 83,136 67,26 122,71 185,50l0 -3zm-1998 1724c-4,-45 67,-304 85,-346 46,-3 61,10 94,26 39,21 242,105 283,100l392 -1357c11,-39 15,-58 28,-92 59,-165 -26,-136 -337,-267 -120,-52 -239,-107 -361,-141 -2,-45 61,-280 78,-322 78,-24 146,71 224,55 26,-16 392,-1313 401,-1347 85,-301 307,-1108 392,-1354 122,-362 263,-959 392,-1357l144 -503c35,-97 22,-79 102,-115 176,-84 261,-123 475,-121 59,0 146,18 198,3 52,-63 150,-563 198,-616 59,-31 148,-13 181,-55l183 -621c141,-513 337,-1127 479,-1651 37,-136 76,-272 118,-406 26,-89 48,-110 96,-160 87,-92 76,-118 133,-136l-823 2864c-13,42 -57,168 -48,199 9,31 87,102 109,147 7,160 -163,503 -163,650 9,37 139,126 213,212 61,68 128,152 185,241 146,231 139,173 -13,668 -137,445 -268,941 -403,1391 -237,804 -466,1640 -705,2434 -111,372 -131,369 -7,417 120,45 131,21 72,212 -63,207 -17,173 -231,89 -120,-47 -492,-223 -553,-220l-118 385c-37,128 -74,259 -111,390l-170 584c-20,58 -52,147 -44,212 48,37 303,118 335,144 9,47 -59,304 -94,346 -87,3 -1004,-419 -1239,-508 -35,-13 -146,-55 -172,-76l2 3z"/>
    <path class="fil1" d="M17309 8816c-9,-58 4,-84 22,-118 57,-5 744,299 760,314l-20 113c-54,-3 -148,-47 -192,-68 -61,-26 -133,-60 -194,-81 -61,-21 -126,-55 -185,-79 -37,-16 -165,-60 -192,-81z"/>
    <path class="fil1" d="M17631 7679c-2,-45 11,-68 24,-105 50,-8 324,115 390,144l374 155c0,50 -13,89 -26,123 -46,-3 -751,-307 -762,-317z"/>
    <path class="fil1" d="M17253 9437c-2,-50 7,-94 28,-126 28,0 498,194 533,217 4,42 -2,81 -11,113 -50,10 -337,-115 -407,-149 -50,-24 -98,-31 -144,-52l0 -3z"/>
    <path class="fil1" d="M17908 7173c-4,-45 4,-81 20,-123 50,-5 229,81 276,105 74,37 209,76 272,113 0,39 -9,86 -22,115 -44,8 -337,-123 -405,-152 -44,-18 -102,-34 -139,-52l-2 -5z"/>
    <path class="fil1" d="M17605 8177c41,5 499,196 540,220 2,58 -2,76 -33,113 -59,0 -368,-147 -470,-183 -94,-34 -76,-52 -39,-149l2 0z"/>
   </g>
  </g>
 </g>
</svg>
