<?xml version="1.0" encoding="UTF-8"?>
<!DOCTYPE svg PUBLIC "-//W3C//DTD SVG 1.1//EN" "http://www.w3.org/Graphics/SVG/1.1/DTD/svg11.dtd">
<!-- Creator: CorelDRAW X6 -->
<svg xmlns="http://www.w3.org/2000/svg" xml:space="preserve" width="200mm" height="200mm" version="1.1" style="shape-rendering:geometricPrecision; text-rendering:geometricPrecision; image-rendering:optimizeQuality; fill-rule:evenodd; clip-rule:evenodd"
viewBox="0 0 20000 20000"
 xmlns:xlink="http://www.w3.org/1999/xlink">
 <defs>
  <style type="text/css">
   <![CDATA[
    .fil0 {fill:#8950FC;fill-rule:nonzero}
    .fil1 {fill:#8950FC;fill-rule:nonzero;fill-opacity:0.301961}
    .fil2 {fill:#8950FC;fill-rule:nonzero;fill-opacity:0.501961}
    .fil3 {fill:#8950FC;fill-rule:nonzero;fill-opacity:0.600000}
   ]]>
  </style>
 </defs>
 <g id="Layer_x0020_1">
  <metadata id="CorelCorpID_0Corel-Layer"/>
  <g id="_879426704">
   <path class="fil0" d="M720 11461c-8,-51 -31,-87 -68,-110 -37,-23 -86,-28 -155,-15 -131,21 -186,85 -168,190l13 77 390 -64 -13 -77zm-710 -13c-13,-77 -13,-146 3,-208 16,-62 42,-113 79,-159 37,-44 84,-80 141,-108 58,-28 121,-46 191,-59 165,-28 296,-5 396,69 97,74 160,195 189,362l24 141 608 -100 71 408 -1598 264 -105 -610 3 0z"/>
   <path class="fil0" d="M290 10353l194 -10 0 -5c-76,-18 -134,-51 -176,-97 -42,-46 -63,-100 -66,-159l-3 -64 380 -21c-3,18 -3,36 -5,51 0,15 0,33 0,49 3,72 24,126 58,162 34,38 92,54 173,49l668 -36 21 400 -1226 64 -21 -385 3 3z"/>
   <path class="fil0" d="M1230 9378c-31,-21 -81,-33 -149,-36l-147 -8 0 5c16,13 26,31 29,56 3,26 10,51 21,82 13,31 31,54 58,67 24,13 58,21 97,23 42,3 73,-5 100,-23 26,-15 39,-38 39,-69 3,-44 -13,-77 -45,-97l-3 0zm228 -26c-24,3 -47,3 -73,5l0 5c52,26 92,62 118,110 24,49 37,105 31,167 -3,62 -13,110 -31,154 -18,41 -45,74 -76,100 -34,26 -71,44 -115,51 -45,10 -94,13 -147,10 -58,-3 -107,-10 -149,-23 -42,-13 -79,-33 -107,-59 -29,-26 -55,-62 -73,-105 -21,-44 -37,-97 -47,-162l-31 -159c-8,-44 -24,-74 -42,-92 -18,-18 -47,-28 -86,-31 -76,-3 -115,28 -118,97 -3,38 8,67 29,85 21,18 63,31 128,36l-18 346c-89,-5 -160,-23 -212,-56 -52,-33 -92,-74 -118,-121 -26,-46 -45,-97 -52,-151 -8,-54 -10,-103 -8,-149 3,-69 13,-133 26,-190 13,-59 37,-108 68,-149 31,-41 73,-72 126,-92 52,-21 118,-28 197,-26l597 28c58,3 107,3 152,0 45,-3 81,-10 115,-26l-21 385c-21,5 -45,10 -66,13l5 -3z"/>
   <path class="fil0" d="M1186 8421c45,5 79,5 107,3 29,-3 47,-10 60,-23 13,-13 21,-31 26,-54 5,-23 3,-41 -5,-56 -8,-15 -24,-31 -47,-44 -24,-13 -58,-26 -100,-36 -42,-10 -97,-23 -160,-33 -66,-13 -121,-21 -162,-26 -45,-5 -79,-5 -107,-3 -26,3 -47,10 -60,23 -13,13 -21,31 -26,51 -5,23 -3,44 5,59 8,15 24,31 47,44 24,13 58,26 100,36 42,10 97,23 162,33 63,13 118,21 162,26l-3 0zm-1035 -818l1593 290 -73 380 -165 -31 0 5c63,36 105,80 126,126 21,49 26,105 13,177 -24,131 -94,213 -210,246 -115,33 -286,28 -511,-10 -115,-21 -210,-46 -283,-80 -73,-31 -131,-67 -173,-108 -42,-41 -68,-85 -81,-133 -13,-49 -13,-100 -3,-154 10,-56 31,-103 66,-144 34,-41 84,-64 149,-74l0 -5 -521 -95 73 -392 0 3z"/>
   <path class="fil0" d="M358 6905l503 162 3 -5c-50,-51 -79,-105 -86,-162 -5,-56 0,-108 13,-154 13,-38 31,-74 52,-108 21,-33 50,-59 84,-80 34,-21 73,-31 121,-33 47,-3 100,5 160,26l880 282 -128 380 -770 -246c-50,-15 -86,-21 -113,-13 -26,8 -45,28 -58,62 -10,33 -8,62 8,82 16,21 50,38 100,54l770 246 -128 380 -1538 -495 128 -380 0 3z"/>
   <path class="fil0" d="M2103 6130c-21,-31 -63,-62 -123,-90l-134 -62 -3 5c10,18 10,38 3,62 -8,23 -10,51 -13,85 0,33 8,62 26,85 18,21 45,41 81,59 37,18 71,23 100,18 29,-5 52,-23 63,-49 21,-41 18,-77 -3,-108l3 -5zm220 62c-21,-8 -45,-15 -68,-23l-3 5c39,44 60,92 63,146 3,54 -8,110 -37,167 -26,54 -58,97 -89,128 -34,31 -71,51 -110,62 -39,10 -84,13 -128,5 -45,-8 -92,-23 -139,-46 -52,-26 -94,-51 -128,-80 -34,-28 -58,-59 -76,-95 -16,-36 -26,-77 -26,-126 0,-49 5,-105 21,-167l34 -159c10,-44 8,-77 -3,-103 -10,-26 -34,-46 -68,-62 -68,-33 -118,-18 -147,44 -18,36 -18,64 -8,90 13,26 47,51 105,82l-155 313c-81,-38 -139,-82 -173,-133 -34,-51 -55,-103 -60,-156 -5,-54 -3,-108 13,-159 16,-51 31,-100 52,-141 31,-62 66,-118 100,-167 37,-49 76,-85 123,-110 45,-26 97,-38 152,-36 55,0 121,18 191,51l540 254c52,26 100,44 139,59 42,15 81,21 115,21l-170 349c-24,-3 -45,-8 -66,-13l5 0z"/>
   <path class="fil0" d="M1796 4797l126 80 3 -3c-73,-108 -68,-221 10,-341 24,-38 52,-69 81,-95 29,-26 63,-44 100,-54 37,-10 79,-10 123,0 45,10 94,31 149,67l776 495 -223 333 -679 -434c-42,-28 -79,-41 -105,-41 -26,0 -50,15 -71,46 -21,31 -24,56 -13,82 10,26 37,51 81,77l679 434 -223 333 -1027 -657 215 -323 -3 0z"/>
   <polygon class="fil0" points="2884,2870 3670,3435 3672,3429 3133,2637 3567,2229 4686,3373 4403,3640 3567,2788 3565,2791 4236,3796 4015,4001 3020,3299 3017,3304 3850,4158 3565,4425 2446,3278 "/>
   <path class="fil0" d="M5066 2788c-3,-38 -24,-85 -63,-139l-84 -118 -3 3c0,21 -10,38 -29,56 -18,18 -37,38 -52,67 -18,31 -24,59 -21,85 5,26 18,56 42,90 24,33 50,54 79,64 29,10 55,5 81,-10 37,-26 55,-56 52,-95l-3 -3zm160 162c-16,-15 -31,-33 -50,-54l-3 3c13,56 5,110 -18,159 -26,49 -63,92 -115,126 -52,33 -100,56 -144,69 -45,10 -86,10 -128,0 -39,-10 -79,-31 -113,-59 -34,-28 -68,-64 -97,-108 -31,-46 -55,-90 -71,-131 -16,-41 -21,-80 -16,-121 3,-38 18,-80 42,-123 24,-41 58,-87 102,-136l110 -121c29,-33 47,-62 50,-90 3,-26 -5,-54 -26,-85 -42,-62 -92,-72 -149,-33 -31,23 -50,46 -52,74 -3,28 13,69 50,121l-291 198c-50,-72 -79,-139 -81,-200 -5,-62 5,-115 26,-167 21,-49 52,-95 92,-131 39,-38 79,-69 118,-97 58,-38 115,-72 170,-95 55,-23 110,-36 162,-36 52,0 102,13 149,41 47,28 94,74 141,139l341 482c31,46 63,87 92,118 29,33 58,56 92,74l-325 218c-18,-13 -34,-28 -50,-44l-8 8z"/>
   <path class="fil0" d="M5472 1483l68 131 5 -3c-8,-128 52,-226 181,-290 39,-21 81,-36 118,-44 39,-8 76,-8 115,3 37,10 73,28 107,59 34,31 66,74 97,131l422 805 -364 182 -369 -705c-24,-44 -47,-74 -71,-87 -24,-13 -52,-10 -84,5 -31,15 -50,38 -52,64 -3,26 8,62 31,108l369 705 -364 182 -558 -1070 351 -177 -3 0z"/>
   <path class="fil0" d="M6316 1095l-128 -331 383 -144 128 331 149 -56 100 251 -149 56 210 536c13,31 29,51 50,59 21,8 45,5 76,-5l60 -23 97 249c-34,13 -71,28 -105,44 -34,15 -68,28 -100,41 -58,21 -107,38 -152,49 -42,10 -81,10 -115,3 -34,-10 -63,-31 -92,-64 -26,-33 -52,-82 -76,-144l-233 -598 -128 49 -100 -251 128 -49 -3 -3z"/>
   <path class="fil0" d="M7369 744l55 185 5 0c3,-77 21,-139 58,-187 37,-49 84,-82 144,-100l63 -18 105 359c-18,3 -37,5 -52,8 -16,3 -31,8 -50,10 -71,21 -121,49 -149,90 -29,41 -34,100 -10,177l186 628 -393 110 -341 -1154 380 -108z"/>
   <path class="fil0" d="M8236 546l246 1177 -401 80 -246 -1177 401 -80zm-79 -377l60 292 -401 80 -60 -292 401 -80z"/>
   <path class="fil0" d="M10094 1088c8,190 -31,326 -118,408 -86,82 -215,126 -390,133 -176,8 -304,-31 -385,-113 -79,-82 -123,-208 -128,-372l0 -33 380 -15 3 77c3,74 16,126 37,149 21,26 47,36 79,36 31,0 58,-15 76,-41 18,-26 26,-77 24,-151l-47 -1147 422 -18 45 1090 5 -3z"/>
   <path class="fil0" d="M10780 1342c24,-31 37,-80 42,-146l13 -144 -5 0c-13,15 -34,23 -58,26 -26,3 -52,8 -84,18 -34,13 -58,31 -71,54 -13,23 -24,54 -26,95 -3,41 3,72 18,97 16,26 39,38 68,41 45,3 79,-10 102,-41zm21 226c0,-23 -3,-46 -3,-72l-5 0c-26,51 -66,87 -118,110 -52,23 -107,31 -173,26 -63,-5 -113,-18 -155,-36 -42,-18 -76,-46 -100,-80 -24,-33 -42,-72 -50,-115 -8,-44 -10,-92 -5,-144 5,-56 16,-105 29,-144 16,-41 37,-74 66,-103 29,-28 66,-51 110,-69 45,-18 102,-31 168,-41l162 -26c45,-8 76,-21 97,-38 21,-18 31,-46 34,-82 5,-74 -26,-113 -94,-118 -39,-3 -68,5 -89,26 -21,21 -34,62 -39,126l-354 -28c8,-87 29,-156 66,-205 37,-49 79,-87 128,-113 50,-26 102,-41 157,-46 55,-5 105,-5 152,-3 71,5 136,15 194,33 58,15 107,41 149,72 39,33 71,74 89,126 18,51 26,115 18,195l-50 585c-5,56 -8,105 -5,149 0,44 8,82 21,113l-393 -31c-5,-21 -10,-44 -10,-67l3 0z"/>
   <path class="fil0" d="M11941 585l-31 144 5 0c76,-105 186,-141 328,-113 45,10 84,23 121,41 37,18 66,41 86,72 24,31 37,67 45,113 8,44 3,97 -10,162l-194 885 -398 -85 170 -775c10,-49 10,-87 0,-110 -10,-26 -34,-41 -68,-49 -37,-8 -63,-3 -84,15 -18,18 -34,51 -45,103l-170 775 -398 -85 259 -1175 385 82z"/>
   <path class="fil0" d="M13872 1116l-380 572 217 92 168 -662 -5 -3zm377 -195l-280 1608 -411 -174 73 -272 -309 -131 -152 239 -406 -172 998 -1306 487 205 0 3z"/>
   <path class="fil0" d="M14909 1698l-97 164 3 3c58,-51 115,-82 178,-90 63,-8 121,3 173,33l58 33 -191 323c-13,-10 -29,-23 -42,-31 -13,-10 -29,-18 -42,-26 -63,-36 -121,-49 -170,-44 -50,8 -97,46 -136,115l-335 567 -354 -200 616 -1039 341 192 0 -3z"/>
   <path class="fil0" d="M15174 2804c-26,41 -45,74 -55,103 -10,28 -13,51 -8,67 5,18 18,31 34,44 18,13 37,21 55,21 18,0 39,-8 63,-26 24,-18 52,-46 84,-82 31,-36 71,-87 115,-146 45,-62 81,-113 110,-154 26,-41 45,-74 55,-103 10,-28 13,-49 8,-67 -5,-18 -18,-33 -37,-46 -18,-13 -37,-21 -55,-21 -18,0 -39,8 -63,26 -24,18 -52,46 -84,82 -31,38 -71,87 -115,149 -45,62 -81,110 -107,151l0 3zm466 392c-55,54 -115,95 -178,121 -66,26 -136,33 -212,21 -76,-13 -160,-51 -254,-118 -97,-69 -162,-136 -199,-203 -37,-67 -52,-131 -45,-198 5,-67 29,-133 68,-200 39,-67 84,-136 136,-205 47,-64 100,-123 155,-177 55,-54 115,-95 181,-121 66,-26 136,-36 215,-23 79,10 162,49 254,115 97,69 162,139 199,205 37,67 50,133 45,200 -8,67 -29,133 -68,200 -39,67 -84,136 -136,205 -47,64 -100,123 -155,177l-5 0z"/>
   <path class="fil0" d="M16112 3473c-24,31 -39,59 -50,82 -8,23 -10,41 -5,56 5,15 16,28 29,44 13,13 26,21 42,26 16,5 34,3 58,-8 24,-10 50,-26 81,-51 31,-26 68,-62 113,-108 45,-46 79,-82 102,-115 24,-31 42,-59 50,-82 8,-23 10,-41 5,-56 -5,-15 -13,-31 -26,-41 -13,-13 -29,-23 -45,-26 -16,-5 -37,0 -58,8 -24,10 -50,26 -81,51 -31,26 -68,59 -113,105 -45,46 -79,85 -102,118l0 -3zm956 -103l-833 854c-55,56 -113,95 -170,118 -58,21 -115,28 -170,21 -55,-8 -113,-28 -168,-59 -55,-31 -107,-72 -160,-121 -47,-44 -89,-90 -123,-136 -34,-46 -58,-92 -73,-141 -13,-46 -13,-95 0,-144 13,-49 42,-97 89,-149l265 249c-21,21 -31,44 -29,69 3,23 13,46 37,69 10,10 24,21 37,28 13,8 26,13 42,13 16,0 34,-5 52,-13 18,-8 42,-26 66,-51l157 -162 -3 -3c-68,33 -128,41 -183,26 -55,-15 -102,-44 -144,-82 -29,-28 -55,-62 -73,-100 -21,-38 -29,-87 -24,-141 5,-54 26,-118 66,-187 39,-72 102,-151 191,-241 81,-85 157,-146 223,-192 68,-44 128,-72 186,-85 58,-13 107,-8 157,8 47,18 94,46 136,85 42,38 71,87 84,141 16,56 5,118 -29,185l3 3 118 -121 275 259z"/>
   <path class="fil0" d="M16267 4450c8,13 18,26 26,36 16,21 34,33 50,41 16,8 31,13 47,15 13,3 26,3 39,-3 10,-3 18,-8 24,-10 8,-5 16,-15 24,-26 10,-13 18,-26 29,-38l694 -959 265 318 -563 605 3 3 718 -421 257 310 -1187 528c-66,31 -126,51 -176,62 -50,10 -97,13 -139,5 -42,-8 -81,-26 -115,-51 -34,-26 -71,-59 -105,-100 -29,-33 -52,-64 -76,-92 -24,-28 -42,-59 -63,-87l223 -177c8,13 16,26 24,38l3 3z"/>
   <path class="fil0" d="M17466 5389c39,0 86,-18 144,-54l126 -77 -3 -3c-21,-3 -39,-10 -55,-31 -16,-18 -39,-36 -66,-54 -29,-18 -58,-26 -86,-23 -29,3 -58,15 -94,36 -34,21 -58,46 -68,74 -10,28 -8,54 8,80 24,38 55,56 94,54l0 -3zm-173 149c18,-15 37,-28 58,-46l-3 -3c-58,10 -113,0 -160,-26 -50,-26 -92,-67 -123,-118 -34,-51 -55,-100 -63,-144 -10,-44 -8,-85 5,-126 13,-38 34,-74 66,-108 31,-33 68,-64 113,-90 50,-31 94,-51 136,-64 42,-13 84,-15 123,-10 39,5 81,21 123,46 42,26 86,62 134,108l118 113c31,31 63,49 89,54 26,5 58,-3 89,-23 63,-38 79,-87 42,-146 -21,-33 -45,-51 -73,-54 -29,-3 -71,10 -126,44l-189 -292c76,-46 144,-69 207,-72 63,-3 118,10 168,33 50,23 94,56 131,95 37,41 68,80 94,118 37,59 68,115 89,172 21,56 31,108 29,159 -3,51 -18,100 -50,146 -31,46 -79,90 -147,131l-508 310c-50,31 -89,59 -126,85 -34,26 -60,54 -79,85l-210 -328c13,-18 29,-33 47,-46l-5 -3z"/>
   <polygon class="fil0" points="19185,5741 19350,6159 18881,6505 18884,6508 19468,6451 19636,6874 18572,6846 17977,7074 17823,6690 18418,6461 "/>
   <path class="fil0" d="M18577 7557c-47,15 -84,31 -107,46 -26,15 -42,31 -47,49 -5,15 -8,36 0,56 5,21 16,38 29,49 13,13 37,18 66,18 29,0 68,-3 118,-13 47,-10 110,-23 183,-44 73,-21 136,-36 183,-51 47,-15 84,-31 110,-46 26,-15 42,-31 47,-49 5,-18 8,-36 0,-56 -5,-21 -16,-38 -29,-49 -13,-10 -37,-18 -66,-18 -31,-3 -71,3 -118,13 -50,10 -110,23 -186,44 -73,21 -136,36 -181,51l-3 0zm113 593c-79,8 -149,3 -217,-15 -68,-21 -126,-56 -178,-113 -52,-56 -92,-139 -123,-246 -31,-113 -39,-208 -26,-280 13,-74 45,-136 92,-182 47,-49 107,-85 181,-115 73,-28 152,-54 238,-77 79,-21 155,-33 233,-44 79,-8 149,-3 217,15 68,18 128,56 181,113 52,56 94,139 126,246 31,113 39,208 24,282 -16,74 -47,136 -94,182 -47,49 -107,87 -181,115 -73,28 -152,54 -238,77 -79,21 -155,33 -233,44l0 -3z"/>
   <path class="fil0" d="M20000 8493l-301 49 -66 -395 301 -49 66 395zm-388 62l-1284 205c-71,10 -128,10 -173,-3 -45,-13 -81,-33 -107,-62 -26,-28 -47,-67 -63,-110 -13,-44 -26,-90 -34,-141 -5,-28 -8,-59 -10,-87 -3,-28 -5,-56 -5,-87l270 -44c8,46 18,80 34,103 16,23 39,31 76,26l1231 -198 66 395 0 3z"/>
   <path class="fil0" d="M18758 9388c34,18 86,23 155,18l147 -10 0 -5c-18,-10 -29,-28 -34,-51 -5,-23 -16,-51 -31,-80 -18,-31 -39,-51 -66,-62 -26,-10 -58,-13 -100,-10 -42,3 -73,13 -94,33 -24,21 -34,44 -31,74 3,44 21,74 55,92zm-223 51c24,-5 47,-8 71,-13l0 -5c-55,-18 -100,-51 -128,-97 -31,-46 -47,-100 -52,-162 -5,-62 0,-113 13,-156 13,-44 34,-80 66,-108 29,-28 66,-51 110,-64 42,-15 92,-23 144,-28 58,-3 107,-3 149,8 42,8 81,23 113,46 31,23 60,56 86,97 24,41 47,92 66,156l50 154c13,41 31,72 52,87 21,15 52,23 89,21 76,-5 110,-41 107,-110 -3,-38 -16,-67 -39,-82 -24,-15 -68,-23 -131,-21l-24 -346c89,-5 162,5 217,33 55,28 100,64 131,108 31,44 55,92 68,144 13,51 21,103 24,149 5,69 3,133 -5,192 -8,59 -24,110 -52,154 -26,44 -66,80 -113,105 -50,26 -113,41 -194,46l-597 38c-58,3 -107,10 -152,15 -45,8 -81,21 -110,38l-26 -385c21,-8 42,-15 66,-21l3 5z"/>
   <path class="fil0" d="M19667 10404l-149 -3 0 5c121,54 178,151 176,295 0,44 -8,85 -18,123 -10,38 -29,69 -55,97 -26,28 -60,49 -102,64 -42,15 -97,23 -162,21l-925 -18 8 -400 810 15c52,0 89,-5 113,-21 24,-15 34,-38 37,-74 0,-36 -10,-62 -31,-77 -24,-15 -60,-23 -110,-23l-810 -15 8 -400 1226 23 -8 387 -5 0z"/>
   <path class="fil0" d="M18590 11758c31,23 79,38 147,49l147 18 0 -5c-16,-13 -24,-33 -24,-59 0,-26 -5,-54 -16,-85 -10,-33 -29,-56 -52,-72 -24,-15 -55,-26 -94,-31 -42,-5 -73,0 -100,15 -26,15 -42,36 -45,67 -5,44 8,77 37,100l0 3zm-231 10c24,0 47,0 73,0l0 -5c-52,-28 -86,-69 -107,-121 -21,-51 -26,-108 -18,-169 8,-59 24,-110 45,-151 21,-41 50,-72 84,-92 34,-23 76,-36 121,-44 45,-5 94,-5 147,0 58,8 105,18 147,36 39,15 73,38 102,67 26,28 50,67 66,110 16,46 26,100 34,167l18 162c5,44 16,77 34,95 18,21 45,33 84,38 76,10 118,-21 126,-87 5,-38 -3,-67 -21,-87 -18,-21 -60,-36 -126,-46l45 -344c89,10 157,36 207,74 50,38 86,82 107,131 24,49 37,100 39,154 3,54 0,103 -5,149 -8,69 -24,131 -42,187 -18,56 -45,105 -81,141 -34,38 -79,67 -131,82 -52,15 -121,21 -199,10l-595 -74c-58,-8 -107,-10 -152,-13 -45,0 -84,5 -115,15l50 -382c21,-5 45,-8 68,-8l-3 5z"/>
   <path class="fil1" d="M2928 9881c0,-3681 3168,-6667 7074,-6667 3906,0 7074,2983 7074,6667 0,1149 -309,2229 -851,3173 634,-1011 998,-2191 998,-3450 0,-3758 -3233,-6803 -7221,-6803 -3988,0 -7221,3045 -7221,6803 0,1259 364,2439 998,3450 -542,-944 -852,-2024 -852,-3173z"/>
   <path class="fil1" d="M10002 4363c0,0 -1234,1075 -1234,2860 0,1785 1234,2842 1234,2842 0,0 1234,-1057 1234,-2842 0,-1785 -1234,-2860 -1234,-2860z"/>
   <path class="fil2" d="M5886 6033c0,0 -97,1616 1192,2878 1289,1262 2927,1154 2927,1154 0,0 110,-1603 -1179,-2865 -1289,-1262 -2940,-1167 -2940,-1167z"/>
   <path class="fil2" d="M4181 10065c0,0 1098,1208 2921,1208 1824,0 2903,-1208 2903,-1208 0,0 -1079,-1208 -2903,-1208 -1824,0 -2921,1208 -2921,1208z"/>
   <path class="fil3" d="M14121 6033c0,0 -1651,-95 -2940,1167 -1289,1262 -1179,2865 -1179,2865 0,0 1638,108 2927,-1154 1289,-1262 1192,-2878 1192,-2878z"/>
   <path class="fil2" d="M15824 10065c0,0 -1098,-1208 -2921,-1208 -1824,0 -2903,1208 -2903,1208 0,0 1079,1208 2903,1208 1824,0 2921,-1208 2921,-1208z"/>
   <path class="fil0" d="M11427 11566l-1218 1398c-110,128 -293,128 -403,0l-1218 -1398c-262,-303 -173,-549 199,-549l2444 0c372,0 461,246 199,549l-3 0z"/>
   <path class="fil0" d="M10749 10073c0,400 -330,723 -739,723 -409,0 -739,-323 -739,-723 0,-400 333,-723 739,-723 409,0 739,323 739,723z"/>
   <path class="fil0" d="M12496 13046c0,351 -474,639 -1056,639 -584,0 -1551,-639 -1551,-639 0,0 967,-639 1551,-639 584,0 1056,285 1056,639z"/>
   <path class="fil0" d="M7518 13046c0,-351 474,-639 1056,-639 584,0 1551,639 1551,639 0,0 -967,639 -1551,639 -584,0 -1056,-285 -1056,-639z"/>
   <path class="fil0" d="M4542 15267l-81 480 168 0 -81 -480 -3 0 -3 0zm191 -231l280 1129 -320 0 -31 -198 -238 0 -31 198 -314 0 275 -1129 377 0 3 0z"/>
   <path class="fil0" d="M5077 16239c10,0 21,3 31,3 18,0 34,-3 47,-8 13,-5 24,-10 29,-18 8,-8 13,-13 16,-21 3,-8 5,-13 5,-18 0,-8 -3,-15 -5,-26 -3,-10 -5,-21 -8,-33l-231 -805 299 0 89 577 3 0 84 -577 291 0 -233 880c-13,49 -29,90 -45,123 -16,33 -37,59 -60,77 -24,18 -50,33 -79,38 -31,8 -66,10 -102,10 -31,0 -60,0 -86,-3 -26,0 -52,-3 -76,-5l0 -200c10,3 21,3 31,5z"/>
   <path class="fil0" d="M6062 15311l0 564c0,36 5,62 16,77 10,15 29,23 55,23 26,0 45,-8 55,-23 10,-15 16,-41 16,-77l0 -564 291 0 0 857 -280 0 0 -105 -3 0c-37,82 -107,121 -212,121 -31,0 -63,-3 -89,-8 -26,-5 -52,-18 -71,-36 -21,-18 -37,-41 -50,-72 -13,-31 -18,-67 -18,-113l0 -646 291 0 0 3z"/>
   <path class="fil0" d="M6840 15947c3,15 8,26 16,36 13,21 34,31 60,31 24,0 42,-5 60,-18 16,-13 26,-31 26,-54 0,-26 -10,-44 -31,-59 -21,-13 -47,-26 -79,-36 -31,-10 -66,-21 -102,-33 -37,-10 -71,-28 -102,-46 -31,-21 -58,-46 -79,-80 -21,-33 -31,-77 -31,-131 0,-38 8,-72 21,-105 13,-31 34,-62 63,-85 29,-23 66,-44 107,-56 45,-13 94,-21 155,-21 217,0 328,90 328,269l-252 0c0,-36 -8,-62 -21,-74 -13,-13 -31,-21 -58,-21 -21,0 -39,5 -52,18 -13,13 -21,28 -21,49 0,26 10,44 31,54 21,13 47,23 79,33 31,10 66,21 102,31 37,10 71,26 102,46 31,21 58,46 79,80 21,33 31,77 31,133 0,41 -8,80 -24,115 -16,36 -39,64 -68,90 -29,26 -66,44 -110,56 -45,13 -92,18 -147,18 -121,0 -210,-23 -262,-72 -52,-46 -81,-118 -81,-213l254 0c0,18 3,33 5,49l0 -5z"/>
   <path class="fil0" d="M7649 15036l0 369 3 0c24,-46 55,-77 92,-92 37,-15 73,-26 110,-26 31,0 60,3 86,10 29,8 52,21 73,38 21,18 37,41 50,72 13,31 18,67 18,110l0 646 -291 0 0 -564c0,-36 -5,-62 -16,-77 -10,-15 -29,-23 -55,-23 -26,0 -45,8 -55,23 -10,15 -16,41 -16,77l0 564 -291 0 0 -1129 291 0z"/>
   <path class="fil0" d="M8608 15524c-10,-15 -29,-23 -55,-23 -26,0 -45,8 -55,23 -10,15 -16,41 -16,77l0 564 -291 0 0 -857 280 0 0 105 3 0c37,-85 107,-126 212,-126 60,0 107,10 139,33 31,21 58,54 76,100 24,-49 52,-82 92,-103 39,-21 81,-28 126,-28 31,0 63,3 89,10 26,8 52,18 71,36 21,18 37,41 50,72 13,28 18,67 18,113l0 646 -291 0 0 -564c0,-36 -5,-62 -16,-77 -10,-15 -29,-23 -55,-23 -26,0 -45,8 -55,23 -10,15 -16,41 -16,77l0 564 -291 0 0 -564c0,-36 -5,-62 -16,-77l0 -3z"/>
   <path class="fil0" d="M9842 15962c13,-23 21,-59 21,-105l0 -103 -3 0c-8,10 -21,18 -39,21 -18,3 -37,8 -60,18 -24,10 -39,26 -47,41 -8,18 -13,41 -13,69 0,28 5,51 18,69 13,18 31,26 52,26 31,0 55,-13 71,-36zm26 159c-3,-15 -5,-33 -5,-51l-3 0c-16,38 -42,67 -76,85 -34,18 -76,28 -121,28 -45,0 -81,-5 -113,-15 -31,-10 -55,-28 -76,-49 -18,-23 -34,-49 -42,-80 -8,-31 -13,-64 -13,-100 0,-41 5,-74 13,-105 8,-28 21,-54 39,-77 18,-21 42,-41 73,-56 31,-15 71,-28 115,-38l115 -26c31,-8 52,-18 66,-33 13,-15 18,-33 18,-62 0,-54 -24,-80 -73,-80 -29,0 -50,8 -60,23 -13,15 -21,46 -21,90l-252 0c0,-62 10,-113 34,-149 24,-38 50,-67 84,-87 34,-21 71,-33 107,-41 39,-8 76,-10 107,-10 50,0 97,5 139,13 42,8 79,23 110,44 31,21 55,49 71,85 16,36 26,82 26,136l0 418c0,41 3,74 5,105 3,31 10,56 24,80l-280 0c-5,-15 -10,-31 -10,-46l-3 0z"/>
   <path class="fil0" d="M10544 15311l0 105 3 0c37,-85 107,-126 212,-126 31,0 63,3 89,10 26,8 52,18 71,36 21,18 37,41 47,72 10,28 18,67 18,113l0 646 -291 0 0 -564c0,-36 -5,-62 -16,-77 -10,-15 -29,-23 -55,-23 -26,0 -45,8 -55,23 -10,15 -16,41 -16,77l0 564 -291 0 0 -857 280 0 3 0z"/>
   <path class="fil0" d="M11930 15955c29,0 52,-10 73,-33 21,-23 31,-59 31,-105 0,-44 -10,-77 -31,-100 -21,-23 -47,-36 -73,-36l-84 0 0 274 84 0zm-10 -475c31,0 55,-10 71,-33 16,-23 24,-49 24,-80 0,-31 -8,-59 -24,-82 -16,-23 -39,-36 -71,-36l-73 0 0 231 73 0zm81 -444c107,0 186,26 238,77 52,51 76,121 76,205 0,31 -3,59 -10,87 -8,28 -18,54 -31,77 -16,23 -34,41 -55,59 -24,15 -50,26 -81,33l0 3c37,3 71,13 97,28 26,15 50,36 66,62 18,23 29,51 37,80 8,28 13,59 13,87 0,49 -5,92 -18,133 -13,41 -34,77 -60,105 -26,28 -63,51 -107,69 -45,15 -97,26 -160,26l-453 0 0 -1129 453 0 -3 -3z"/>
   <path class="fil0" d="M12743 15036l0 369 3 0c24,-46 55,-77 92,-92 37,-15 73,-26 110,-26 31,0 60,3 86,10 26,8 52,21 73,38 21,18 37,41 50,72 13,31 18,67 18,110l0 646 -291 0 0 -564c0,-36 -5,-62 -16,-77 -10,-15 -29,-23 -55,-23 -26,0 -45,8 -55,23 -10,15 -16,41 -16,77l0 564 -291 0 0 -1129 291 0z"/>
   <path class="fil0" d="M13678 15962c13,-23 21,-59 21,-105l0 -103 -3 0c-8,10 -21,18 -39,21 -18,3 -37,8 -60,18 -24,10 -39,26 -47,41 -8,18 -13,41 -13,69 0,28 5,51 18,69 13,18 31,26 52,26 31,0 55,-13 71,-36zm26 159c-3,-15 -5,-33 -5,-51l-3 0c-16,38 -42,67 -76,85 -34,18 -76,28 -121,28 -45,0 -81,-5 -113,-15 -31,-10 -55,-28 -76,-49 -18,-23 -34,-49 -42,-80 -8,-31 -13,-64 -13,-100 0,-41 5,-74 13,-105 8,-28 21,-54 39,-77 18,-21 42,-41 73,-56 31,-15 71,-28 115,-38l115 -26c31,-8 52,-18 66,-33 13,-15 18,-33 18,-62 0,-54 -24,-80 -73,-80 -29,0 -50,8 -60,23 -13,15 -21,46 -21,90l-252 0c0,-62 10,-113 34,-149 24,-38 50,-67 84,-87 34,-21 71,-33 107,-41 39,-8 76,-10 107,-10 50,0 97,5 139,13 42,8 79,23 110,44 31,21 55,49 71,85 16,36 26,82 26,136l0 418c0,41 3,74 5,105 3,31 10,56 24,80l-280 0c-5,-15 -10,-31 -10,-46l-3 0z"/>
   <path class="fil0" d="M14372 15311l0 136 3 0c16,-51 42,-90 79,-118 37,-26 76,-41 118,-41l47 0 0 267c-13,-3 -26,-3 -37,-5 -13,0 -24,-3 -37,-3 -52,0 -92,10 -121,33 -29,23 -42,62 -42,118l0 467 -291 0 0 -857 280 0 0 3z"/>
   <path class="fil0" d="M15053 15962c13,-23 21,-59 21,-105l0 -103 -3 0c-8,10 -21,18 -39,21 -18,3 -37,8 -60,18 -24,10 -39,26 -47,41 -8,18 -13,41 -13,69 0,28 5,51 18,69 13,18 29,26 52,26 31,0 55,-13 71,-36zm26 159c-3,-15 -5,-33 -5,-51l-3 0c-16,38 -42,67 -76,85 -34,18 -76,28 -121,28 -45,0 -81,-5 -113,-15 -31,-10 -55,-28 -76,-49 -18,-23 -34,-49 -42,-80 -8,-31 -13,-64 -13,-100 0,-41 5,-74 13,-105 8,-28 21,-54 39,-77 18,-21 42,-41 73,-56 31,-15 71,-28 115,-38l115 -26c31,-8 52,-18 66,-33 13,-15 18,-33 18,-62 0,-54 -24,-80 -73,-80 -29,0 -50,8 -60,23 -13,15 -21,46 -21,90l-252 0c0,-62 10,-113 34,-149 24,-38 50,-67 84,-87 34,-21 71,-33 107,-41 39,-8 76,-10 107,-10 50,0 97,5 139,13 42,8 79,23 110,44 31,21 55,49 71,85 16,36 26,82 26,136l0 418c0,41 3,74 5,105 3,31 10,56 24,80l-280 0c-5,-15 -10,-31 -10,-46l-3 0z"/>
   <path class="fil0" d="M15517 15311l0 -251 291 0 0 251 115 0 0 192 -115 0 0 408c0,23 5,41 16,51 10,10 29,15 52,15l45 0 0 190c-26,0 -55,0 -81,3 -26,3 -52,3 -79,3 -45,0 -81,-3 -113,-5 -31,-3 -58,-13 -76,-28 -21,-15 -34,-36 -45,-67 -8,-28 -13,-67 -13,-115l0 -457 -97 0 0 -192 97 0 3 3z"/>
   <path class="fil0" d="M10165 19351l369 -41 13 113c10,87 29,146 60,182 29,36 73,49 128,44 60,-8 97,-33 115,-80 18,-46 18,-133 5,-262l-123 -1067 390 -44 123 1054c29,246 5,426 -68,539 -73,115 -207,182 -403,205 -178,21 -320,-18 -417,-110 -100,-95 -160,-249 -186,-462 0,-8 -3,-21 -3,-36 0,-15 -3,-28 -3,-36l-3 0z"/>
   <path class="fil0" d="M7317 19623l291 -1680 542 90 60 852c5,74 10,149 13,218 3,72 5,139 5,205 26,-67 52,-136 81,-208 29,-72 63,-149 100,-231l325 -739 542 90 -291 1680 -359 -59 128 -744c8,-51 24,-126 42,-221 18,-95 42,-203 68,-326l-521 1244 -390 -64 -66 -1342c-21,149 -39,285 -58,405 -18,121 -31,213 -45,280l-107 613 -364 -62 3 -3z"/>
   <path class="fil0" d="M6219 18220l241 108c66,28 121,36 168,18 45,-15 84,-56 113,-121 29,-62 34,-115 16,-159 -18,-46 -60,-82 -126,-113l-238 -105 -173 372zm-770 703l721 -1552 652 290c165,74 272,172 320,292 47,121 34,262 -39,418 -76,164 -178,272 -304,323 -126,51 -270,38 -430,-31l-296 -133 -257 554 -367 -164 0 3z"/>
   <path class="fil0" d="M11970 19122l328 -95 -338 -516 10 610zm-338 -985l419 -123 1027 1480 -411 121 -183 -272 -500 146 5 326 -398 115 42 -1790 0 -3z"/>
   <polygon class="fil0" points="13592,19297 13345,18702 12434,17919 12850,17753 13382,18284 13382,17540 13801,17373 13707,18558 13953,19153 "/>
   <polygon class="fil0" points="10125,19099 9502,19099 9502,18863 10125,18863 "/>
  </g>
 </g>
</svg>
