<?xml version="1.0" encoding="UTF-8"?>
<!DOCTYPE svg PUBLIC "-//W3C//DTD SVG 1.1//EN" "http://www.w3.org/Graphics/SVG/1.1/DTD/svg11.dtd">
<!-- Creator: CorelDRAW X6 -->
<svg xmlns="http://www.w3.org/2000/svg" xml:space="preserve" width="200mm" height="200mm" version="1.1" style="shape-rendering:geometricPrecision; text-rendering:geometricPrecision; image-rendering:optimizeQuality; fill-rule:evenodd; clip-rule:evenodd"
viewBox="0 0 19995 19995"
 xmlns:xlink="http://www.w3.org/1999/xlink">
 <defs>
  <style type="text/css">
   <![CDATA[
    .fil0 {fill:#8950FC}
    .fil2 {fill:white}
    .fil1 {fill:#8950FC;fill-opacity:0.701961}
   ]]>
  </style>
 </defs>
 <g id="Layer_x0020_1">
  <metadata id="CorelCorpID_0Corel-Layer"/>
  <g id="_880028096">
   <path class="fil0" d="M19988 2054c-47,-22 -56,9 -67,-69 -7,-38 2,-82 -4,-124 -9,-68 -33,-143 -47,-201 -24,-111 9,-110 -44,-206 -47,-86 2,-73 -73,-181 -27,-38 -24,-55 -47,-88l-220 -301c-147,-163 -307,-301 -500,-429 -244,-163 -113,-69 -262,-153 -64,-37 -129,-58 -198,-79 -87,-26 -13,-22 -82,-46l-453 -110c-49,-5 -102,0 -147,-11 -73,-20 -36,-24 -49,-48l-12942 -2 -2 19982 12678 2c151,0 220,20 320,-24l446 -93c36,-9 71,-27 109,-38 218,-64 36,-13 193,-80 93,-38 489,-249 544,-301l287 -258c2,-4 16,-20 18,-22l13 -13c69,-57 18,15 69,-66l82 -121c47,-48 33,2 53,-75 13,-48 109,-190 131,-263 24,-80 53,-95 64,-188 9,-80 22,-153 31,-221 22,-144 -7,-99 96,-157 18,-1736 2,-3526 2,-5268l-2 -10744 2 -4z"/>
   <path class="fil1" d="M2157 46c-87,4 -262,13 -324,37 -49,18 -342,84 -400,119l-449 232c-73,46 -140,75 -200,135 -80,80 -195,144 -264,232 -20,24 -13,31 -31,57l-282 402c-31,46 -36,82 -60,135 -67,146 -120,340 -122,497 -4,199 -22,1043 4,1184 111,40 702,18 835,18 258,0 1513,-22 1664,20 458,128 464,709 -18,824 -120,27 -1786,11 -2108,11 -198,0 -287,-22 -378,31l33 1643c47,22 1499,7 1677,7 204,0 646,-26 809,24 182,57 344,221 333,424 -9,201 -169,351 -364,400 -167,42 -1391,20 -1662,20 -837,0 -831,-51 -829,110l0 727c0,932 -100,831 238,831l1919 0c204,0 329,-4 469,73 384,214 247,753 -244,791 -173,15 -1999,4 -2201,2 -98,0 -180,-16 -189,66 -9,64 0,163 -2,230 0,413 -27,954 2,1341 80,55 200,31 369,31 384,0 1899,-22 2110,16 204,37 358,212 375,386 22,217 -147,376 -329,437 -240,80 -2306,-24 -2508,37 -29,51 -31,1500 -11,1648 158,77 2226,-29 2499,40 187,48 351,216 349,409 -2,210 -162,358 -355,415 -113,33 -1786,15 -2104,15 -233,0 -382,-38 -393,79l0 150c0,267 -24,1338 7,1434 111,37 282,16 413,16l1275 0c200,0 680,-26 829,24 440,148 438,716 -51,824 -178,38 -615,20 -833,20 -264,0 -1246,13 -1486,0 -80,-5 -91,-16 -151,24 -16,132 -4,312 -4,448 0,312 -36,999 56,1268 18,49 24,137 44,183l111 243c13,26 29,40 44,68 87,152 293,402 435,517 78,62 218,143 304,199l164 84c36,20 49,24 89,44l353 144c44,24 91,26 142,44 60,24 180,18 249,49l42 20c7,2 16,2 24,4 11,2 42,0 56,0l1333 2c342,0 726,13 1064,-2l-2 -19988 -2350 4c-20,22 0,-2 -16,20 -9,13 -2,5 -13,20l13 2z"/>
   <path class="fil2" d="M14832 8824c-43,15 -100,90 -168,153 -58,55 -107,106 -166,161l-1146 1113c-89,84 -122,55 -243,15 -320,-108 -531,-334 -757,-546 -164,-155 -878,-841 -985,-970 -85,-102 -392,-499 -239,-643l1321 -1279c215,-212 239,-86 -138,-457 -100,-99 -196,-190 -298,-289l-2308 -2246c-23,-26 -47,-60 -92,-37l-1801 1749c-192,188 -384,347 -535,634 -138,263 -222,629 -160,979 64,360 185,568 371,795l1790 1745c433,407 829,820 1200,1164 399,371 797,780 1195,1158 405,384 789,773 1195,1158 447,424 748,839 1409,948 364,60 740,0 1025,-133 318,-150 477,-329 669,-515l1641 -1590c134,-130 230,-170 156,-243l-1724 -1672c-203,-197 -396,-386 -601,-581 -102,-99 -194,-188 -298,-289 -53,-51 -262,-272 -315,-287l2 4z"/>
  </g>
 </g>
</svg>
