<?xml version="1.0" encoding="UTF-8"?>
<!DOCTYPE svg PUBLIC "-//W3C//DTD SVG 1.1//EN" "http://www.w3.org/Graphics/SVG/1.1/DTD/svg11.dtd">
<!-- Creator: CorelDRAW X6 -->
<svg xmlns="http://www.w3.org/2000/svg" xml:space="preserve" width="200mm" height="200mm" version="1.1" style="shape-rendering:geometricPrecision; text-rendering:geometricPrecision; image-rendering:optimizeQuality; fill-rule:evenodd; clip-rule:evenodd"
viewBox="0 0 20000 20000"
 xmlns:xlink="http://www.w3.org/1999/xlink">
 <defs>
  <style type="text/css">
   <![CDATA[
    .fil0 {fill:#8950FC}
    .fil1 {fill:#8950FC;fill-opacity:0.501961}
   ]]>
  </style>
 </defs>
 <g id="Layer_x0020_1">
  <metadata id="CorelCorpID_0Corel-Layer"/>
  <g id="_1466898960">
   <path class="fil0" d="M1235 18369c443,-28 920,-10 1365,-10 3192,0 6383,0 9576,0l0 -16244c0,-276 43,-668 -68,-858 -141,-241 -329,-209 -657,-209 -244,0 -1555,-18 -1679,8 145,246 455,1038 465,1422 197,0 1008,-39 1115,35 145,100 114,300 114,518l0 1298c0,226 -64,343 -268,343 -388,0 -776,0 -1164,0 -52,28 -65,107 -84,152l-244 506c-130,218 -249,392 -398,581 -71,90 -147,171 -228,255 -338,352 -247,-12 -246,1233 0,1157 104,1010 -924,1008 -284,0 -671,90 -696,-243 -24,-305 3,-702 -3,-1022 -18,-3 -729,84 -1004,-8 -40,255 4,702 -9,985 -18,379 -333,286 -649,286 -1094,-2 -971,144 -971,-950 0,-307 22,-730 4,-1020 -4,-67 -50,-84 -95,-124l-244 -240c-138,-136 -410,-529 -517,-712 -71,-122 -298,-549 -317,-690 -382,0 -766,-3 -1146,0 -406,3 -314,-243 -314,-953 0,-216 0,-432 0,-648 0,-734 -21,-591 1225,-591 6,-417 318,-1164 466,-1424 -147,-23 -1404,-7 -1663,-7 -321,0 -506,-39 -659,191 -121,184 -83,558 -83,859l0 16272 0 -2zm10224 -6546c-53,283 -332,209 -699,209 -1053,0 -911,154 -914,-992 -3,-1400 -207,-1201 1149,-1201 170,0 301,-28 395,69 90,94 76,229 76,409 0,288 18,1368 -7,1507l0 -2zm-2633 0c-55,285 -302,209 -696,209 -880,0 -918,99 -918,-477 0,-291 -18,-1387 7,-1523 27,-141 123,-194 268,-194 147,0 293,0 440,0 1016,0 908,-146 908,992 0,216 24,827 -9,992l0 2zm-4051 209c-108,0 -175,-104 -191,-221 -15,-106 -4,-293 -4,-409 -1,-1792 -153,-1564 837,-1564 856,0 785,-92 785,782 0,280 0,559 0,839 0,270 43,573 -228,573l-1196 0 -1 0zm-1213 -1812l3 973c0,166 0,330 -1,496 -1,193 -21,300 -160,337 -61,15 -1245,25 -1324,-13 -123,-62 -133,-181 -132,-360 3,-337 1,-673 1,-1012 1,-971 -77,-801 1074,-801 349,0 575,-59 540,382l-1 -2zm6709 -1816c-314,0 -421,7 -423,-340 -1,-266 0,-534 0,-801 0,-1087 -89,-1055 492,-1054l404 0c345,0 665,-80 715,206 25,144 7,1300 9,1574 1,211 -16,353 -167,402 -123,40 -843,15 -1029,15l0 -3zm-7638 0c-304,0 -649,87 -681,-253 -27,-278 -4,-709 -4,-1003 0,-256 -53,-784 93,-899 105,-82 681,-40 862,-40 492,0 662,-102 659,367 -3,317 3,636 3,953 0,1015 107,874 -931,874l0 2zm-2627 11422c30,141 144,173 299,173 2252,-15 4541,0 6795,0 1943,0 7201,-18 9137,-2 153,2 301,23 379,-85 70,-95 44,-318 44,-467 0,-523 67,-655 -321,-653 -4053,17 -11391,5 -15444,0 -931,-2 -893,-92 -893,539 0,99 -12,422 3,496z"/>
   <path class="fil1" d="M7423 4111c-40,70 -19,1032 -19,1110 1,520 -136,433 -672,433 -314,0 -591,70 -690,-133 -55,-114 4,-1165 -22,-1399 -108,-44 -854,-6 -1051,-14 -458,-22 -419,-3 -419,-685 0,-305 -59,-606 118,-738 104,-77 1159,2 1303,-34 44,-11 9,5 37,-16 28,-45 19,-977 16,-1118 -6,-217 -9,-347 154,-408 73,-27 968,-41 1060,-2 151,61 166,178 166,392 -1,313 -30,869 6,1154 352,13 721,2 1075,2 195,0 332,-17 372,180 21,102 24,1035 -4,1119 -59,186 -277,148 -370,153l-1060 3 1 0zm-961 -4092l-351 45c-696,113 -1318,539 -1787,1068 -450,506 -905,1480 -808,2521 126,1355 948,2449 2057,2881 345,134 922,278 1386,209 567,-83 807,-150 1230,-375 1538,-819 2184,-2934 1350,-4558 -388,-758 -960,-1279 -1701,-1585 -187,-78 -400,-142 -626,-177 -200,-30 -548,-73 -752,-30l3 0z"/>
   <path class="fil0" d="M15897 8127c6,45 12,77 9,124 -3,44 -46,136 -65,173 -18,34 -22,22 -39,69l-73 161c-22,39 -18,15 -37,72l-151 310c-15,32 -10,55 -28,85l-39 82c-19,55 -18,28 -39,69 -13,25 -18,57 -28,84 -19,52 -31,34 -13,75 36,10 59,2 83,-15 40,-28 43,-22 90,-37 37,-12 44,-30 77,-47 37,-18 52,-10 87,-37 41,-32 47,-18 84,-40 33,-20 31,-35 76,-49l252 -126c47,-20 41,-30 77,-49l169 -82c49,-22 99,-80 118,-136 19,-55 24,-52 40,-89 15,-32 16,-67 31,-101 16,-39 25,-39 37,-92 12,-55 13,-50 37,-95 19,-40 15,-57 28,-106l73 -186c21,-40 18,-57 30,-104 13,-52 27,-44 41,-85 15,-40 4,-59 30,-106 25,-47 27,-101 50,-151 34,-74 31,-102 49,-142l74 -188c21,-39 15,-67 28,-106 13,-35 25,-30 41,-87 15,-52 10,-50 33,-89 22,-39 18,-59 36,-97 15,-32 31,-44 41,-87 12,-50 15,-59 33,-101 15,-34 19,-69 34,-99 13,-28 30,-45 46,-82 19,-42 4,-15 28,-44 16,-20 12,-13 25,-34 93,-141 219,-208 335,-301l169 -82c113,-33 175,-60 302,-60 80,0 133,22 207,39 36,8 76,8 105,20 33,12 41,34 77,47 62,23 107,49 160,92 116,95 225,213 295,347 13,27 27,64 41,89 25,45 18,54 33,102 15,50 25,32 37,94 19,102 13,116 44,209 34,104 62,367 90,439l92 439c12,85 41,121 49,219 7,109 39,126 50,213 6,44 6,82 15,121 27,119 25,42 47,219 4,42 16,54 28,89 24,69 19,161 41,224 15,44 22,57 28,106 6,40 7,80 15,119 7,30 27,62 34,92 9,39 10,79 16,117 18,100 28,42 50,211 12,87 36,126 47,221 10,89 43,151 50,211 13,94 27,139 41,228 12,75 15,156 25,233 10,80 30,136 39,228 7,80 10,176 19,253 25,241 39,218 41,499 3,358 0,717 0,1075l0 5420c0,178 12,357 -40,502 -12,32 -16,69 -31,99 -43,95 -76,159 -136,243 -105,146 -138,129 -198,184 -71,65 -170,89 -261,111 -228,55 -213,25 -418,-12 -47,-8 -55,-15 -86,-35 -30,-20 -58,-25 -83,-42 -95,-60 -253,-223 -296,-335 -13,-37 -31,-59 -43,-87 -96,-236 -74,-477 -74,-732l0 -4866c0,-117 12,-435 -9,-523l-44 -223c-13,-87 -36,-119 -47,-219 -10,-84 -40,-132 -49,-216 -15,-131 -18,-111 -46,-214l-80 -456c-10,-40 -25,-54 -33,-94 -7,-42 -6,-89 -12,-131 -9,-70 -39,-114 -49,-203 -4,-40 -7,-79 -16,-117 -10,-42 -22,-54 -31,-101 -18,-102 -9,-136 -41,-224 -25,-69 -19,-152 -39,-229 -7,-30 -10,-22 -19,-47 -19,-52 -12,-112 -30,-164 -53,-161 -81,-459 -138,-660 -19,-70 -10,-132 -37,-211 -34,8 -62,22 -80,59l-46 106c-22,37 -19,72 -41,111l-126 307c-78,126 -166,218 -269,312l-184 97c-65,18 -52,23 -98,47 -31,15 -70,15 -99,33l-98 47c-39,13 -58,35 -86,47 -44,20 -58,10 -104,40 -15,10 1,3 -25,15 -18,8 -12,5 -30,10 -58,18 -78,44 -142,67 -98,35 -272,144 -381,179 -52,17 -43,30 -81,50 -22,12 -36,10 -56,20 -15,7 -27,18 -40,27 -90,60 -259,44 -363,27l-135 -75 -160 -196c-67,7 -81,40 -124,80 -36,34 -1,-2 -30,39 -25,34 -135,94 -169,49 -33,-42 -21,-199 -9,-260 15,-79 47,-136 77,-194l184 -367c22,-50 22,-27 47,-94l404 -837c22,-37 22,-59 41,-97l130 -281c39,-84 117,-325 185,-367 78,-50 126,-23 184,15l6 -2zm1620 -4831l225 62c41,13 50,37 89,52 117,45 41,22 98,59l170 132c52,47 99,111 139,166l59 89c28,40 28,55 53,97 27,45 81,176 90,226 19,127 40,60 53,261 7,94 6,229 -1,323 -7,102 -31,154 -56,250 -12,45 -30,64 -44,107 -22,65 -30,57 -53,106l-55 95c-33,54 -93,122 -139,169 -147,149 -138,111 -250,198 -39,30 -49,28 -98,47 -55,20 -46,34 -105,47 -83,18 -144,45 -235,55 -83,8 -192,5 -271,-8 -225,-40 -213,-77 -315,-111 -55,-18 -41,-35 -96,-59 -129,-55 -373,-328 -429,-479 -18,-47 -37,-64 -49,-101l-41 -122c-15,-39 -13,-85 -21,-136 -13,-107 -64,-193 -15,-437 9,-47 16,-72 24,-124 10,-70 22,-64 38,-114 25,-77 36,-132 90,-223l151 -226c77,-107 349,-320 484,-345 68,-12 52,-15 101,-39 70,-34 338,-27 407,-15l3 -3zm-1558 9344c7,104 -10,85 -111,228 -64,90 -107,169 -163,141l-2120 -2187c-39,-39 -62,-59 -73,-90 -24,-80 47,-124 108,-214 138,-208 144,-171 247,-57l859 888c56,54 99,107 158,166l703 729c96,92 219,231 315,322 24,22 16,22 36,44 12,13 25,22 40,35l0 -2z"/>
   <polygon class="fil0" points="12542,10641 13532,11511 15685,13554 15685,17810 12542,17810 "/>
  </g>
 </g>
</svg>
