<?xml version="1.0" encoding="UTF-8"?>
<!DOCTYPE svg PUBLIC "-//W3C//DTD SVG 1.1//EN" "http://www.w3.org/Graphics/SVG/1.1/DTD/svg11.dtd">
<!-- Creator: CorelDRAW X6 -->
<svg xmlns="http://www.w3.org/2000/svg" xml:space="preserve" width="200mm" height="200mm" version="1.1" style="shape-rendering:geometricPrecision; text-rendering:geometricPrecision; image-rendering:optimizeQuality; fill-rule:evenodd; clip-rule:evenodd"
viewBox="0 0 20000 20000"
 xmlns:xlink="http://www.w3.org/1999/xlink">
 <defs>
  <style type="text/css">
   <![CDATA[
    .fil1 {fill:#8950FC}
    .fil0 {fill:#8950FC;fill-opacity:0.701961}
   ]]>
  </style>
 </defs>
 <g id="Layer_x0020_1">
  <metadata id="CorelCorpID_0Corel-Layer"/>
  <g id="_1466880432">
   <path class="fil0" d="M14738 7017l1045 0 0 1004 1334 0 0 968 -1334 2 -2 1074 -1044 0 0 -1076 -1189 -3 0 -965 1189 -3 0 -1001zm4656 1023c-36,20 -240,284 -266,317 -614,738 -1229,1522 -1843,2268 -179,217 -346,434 -523,646 -480,572 -970,1198 -1450,1781 -44,55 -96,112 -133,165l-1003 -1118c-53,-67 -105,-120 -165,-186l-503 -571c-268,-285 -567,-658 -834,-939 -53,-56 -122,-134 -163,-192 77,-70 146,8 315,103l1907 1073c100,56 230,119 320,182 52,-19 464,-371 542,-435 986,-800 1995,-1664 2976,-2450l807 -672c-30,-75 -152,-242 -204,-310 -83,-109 -147,-187 -232,-287 -458,-541 -1158,-1004 -1899,-1226 -1208,-363 -2464,-115 -3352,466 -461,301 -766,586 -1080,995 -1757,2292 -715,5758 2062,6611 2945,905 5740,-1647 5275,-4685 -44,-284 -116,-571 -212,-823 -71,-187 -235,-586 -343,-710l0 -3z"/>
   <path class="fil1" d="M7260 12048c67,11 63,25 119,42 50,14 80,9 124,31 169,81 124,31 243,70 318,101 666,172 992,245 85,19 168,27 251,50 215,59 171,25 266,48 89,22 125,47 235,61 371,47 658,285 950,-25 89,-95 85,-323 -55,-444 -56,-50 -141,-87 -219,-98 -107,-14 -124,-53 -237,-64 -100,-9 -166,-34 -259,-58 -89,-22 -168,-19 -254,-48 -102,-34 -154,-33 -263,-53 -100,-19 -118,-47 -238,-58 -116,-11 -155,-48 -249,-61l-506 -115c-83,-37 -150,-23 -237,-64 -49,-23 -63,-25 -122,-34 -74,-12 -122,-48 -227,-72 -72,-17 -55,-17 -108,-48 -45,-25 -78,-16 -127,-33 -45,-17 -47,-36 -105,-51 -130,-36 -249,-111 -320,-139 -69,-27 -47,-27 -99,-58l-204 -98c-27,-12 -55,-37 -96,-61 -39,-22 -64,-37 -88,-75l-5 0c-44,-9 -124,-69 -149,-92 -105,-95 -208,-156 -351,-299 -154,-156 -273,-304 -395,-485l-122 -215c-19,-39 -27,-31 -44,-64 -16,-28 -14,-47 -31,-80 -14,-27 -30,-39 -41,-66 -13,-30 -13,-53 -25,-84 -17,-41 -25,-34 -39,-69 -28,-62 -13,-98 -52,-165 -41,-70 -25,-97 -49,-168 -25,-80 -41,-53 -52,-164 -6,-61 -20,-128 -31,-186 -47,-246 -34,-104 -52,-393 -24,-395 -74,-193 6,-583 30,-147 263,-388 425,-452 64,-25 72,-53 149,-67 74,-12 107,-31 168,-48 172,-50 423,11 575,50 71,17 194,86 252,134l27 27c74,42 136,136 188,214l94 215c24,89 24,176 55,262 41,109 0,120 67,232l147 382c34,59 20,75 67,139l75 129c163,239 252,368 483,580 141,129 309,268 486,349l580 267c174,51 155,51 331,84 50,9 100,36 154,50l351 69c99,23 498,41 600,42 157,3 254,16 387,-27 91,-30 67,-27 129,-78 171,-140 127,-444 -80,-549 -36,-19 -50,-11 -94,-20 -49,-9 -30,-19 -77,-28 -88,-19 -596,-19 -788,-48 -77,-12 -97,-19 -166,-39 -64,-19 -121,-14 -185,-33l-464 -162c-94,-51 -172,-80 -266,-143l-129 -87c-150,-101 -418,-368 -506,-538 -17,-33 -11,-36 -30,-67 -17,-28 -27,-28 -44,-64l-96 -218c-13,-23 -25,-50 -34,-73 -20,-51 -17,-104 -41,-165 -24,-61 -31,-100 -42,-173 -14,-100 -25,-83 -52,-153 -19,-51 -8,-133 -36,-184l-129 -278c-22,-56 -138,-201 -179,-246 -16,-17 -28,-31 -47,-50 -52,-53 -118,-90 -174,-140 -31,-28 -20,-19 -58,-41l-340 -190c-52,-25 -97,-19 -158,-48 -74,-36 -72,-36 -168,-42 -157,-11 -113,-59 -581,-58 -78,0 -431,62 -525,106 -55,25 -111,19 -160,47 -28,16 -33,27 -56,39 -33,17 -45,11 -80,30l-547 409c-30,30 -20,34 -44,67 -14,20 -28,30 -42,53l-114 201c-11,20 -22,36 -33,62 -11,27 -16,58 -25,84 -30,72 -47,51 -55,159 -13,172 -41,295 -6,474 20,103 6,217 11,321 6,150 55,220 63,348 11,193 39,92 75,343 13,89 33,81 55,147 27,80 11,75 53,148 38,66 24,92 50,156 14,34 24,36 41,67 13,23 17,51 27,80 38,106 157,303 212,404l83 136c110,165 238,331 375,471 71,72 130,136 202,207l230 193c105,66 193,156 304,214 27,14 39,33 60,47l125 89c36,17 31,3 69,28 61,41 125,89 196,115 28,11 42,12 69,28 121,70 102,41 150,67 34,19 14,23 67,41 99,33 75,37 139,64 97,41 224,62 304,120 45,33 94,36 165,39l0 6zm-6146 -689l44 41c177,217 328,186 592,139l444 -139c52,-12 61,-20 105,-42 41,-22 66,-19 107,-37 34,-16 42,-33 92,-51 67,-25 49,-12 100,-47 129,-86 146,-64 349,-228 133,-108 334,-306 420,-449l144 -289c11,-33 19,-86 31,-117 47,-117 55,-212 86,-346 14,-62 9,-98 41,-126 -22,-137 24,-522 -27,-756 -22,-103 -44,-229 -45,-349 -3,-301 -33,-682 49,-961 39,-133 -19,-50 67,-237 11,-23 16,-48 25,-72 38,-97 122,-229 188,-315 44,-58 3,-31 129,-173 80,-90 218,-223 317,-298l508 -301 290 -108c28,-8 50,-8 80,-16 108,-30 13,-37 257,-58 119,-11 210,-41 353,-44 139,-2 639,31 738,72 89,36 53,27 166,42 60,8 88,47 138,61 190,56 66,28 210,81 49,17 28,22 61,45 30,22 39,16 71,28l183 128c34,22 27,9 60,37 110,90 268,242 359,351l234 370c24,94 45,73 64,143 36,143 19,62 58,133 28,51 8,122 31,176 22,53 45,67 58,143 3,23 6,55 17,80 6,14 34,58 39,67 22,55 8,103 41,154 77,120 24,73 66,140 77,122 114,225 241,362 64,69 130,145 207,204l306 190c80,73 47,39 144,58 36,8 50,20 75,34 50,28 94,27 168,28 143,3 191,45 351,48 204,3 519,34 683,-103 56,-47 132,-158 133,-236 3,-108 -63,-207 -121,-259 -177,-156 -381,-83 -708,-97 -66,-3 -260,-58 -307,-84 -136,-76 -273,-186 -346,-327 -20,-42 -24,-36 -42,-66 -28,-44 -30,-84 -60,-133 -31,-50 -30,-104 -45,-158 -14,-50 -38,-94 -49,-148 -16,-76 -5,-90 -42,-161 -36,-67 -19,-78 -41,-151l-125 -260c-8,-20 -14,-48 -25,-72l-194 -310c-33,-48 -47,-64 -80,-114 -30,-44 -63,-67 -89,-123 -20,-12 -78,-75 -111,-111 -45,-48 -74,-72 -114,-114 -63,-64 -235,-214 -310,-257l-213 -137c-63,-28 -74,-50 -103,-62 -20,-9 -30,-8 -45,-16 -30,-14 -17,-25 -60,-47 -34,-17 -60,-14 -96,-28 -36,-14 -33,-22 -69,-39 -36,-17 -53,-14 -88,-31 -85,-41 -19,-36 -166,-64 -85,-16 -102,-47 -171,-58 -75,-12 -127,-17 -196,-36 -127,-34 -248,-58 -395,-62 -157,-5 -279,-31 -448,-28 -149,2 -260,41 -411,45 -306,8 -205,27 -403,64 -166,33 -41,-2 -174,53 -56,23 -119,31 -177,53l-171 61c-28,12 -49,30 -78,42l-237 114c-24,16 -44,28 -69,39l-277 181c-129,98 -179,122 -320,262 -160,159 -357,374 -470,568 -17,30 -17,53 -38,81 -81,117 -30,75 -81,147 -52,73 -6,55 -74,156 -33,50 -28,81 -50,154 -25,84 -49,59 -56,175 -6,87 -16,126 -42,197 -34,92 -56,961 8,1185 9,31 13,70 17,103 22,154 38,753 -6,886 -8,25 -17,53 -28,81 -44,123 -25,151 -144,312 -168,226 -94,126 -284,295 -28,25 -31,30 -72,47 -61,23 -30,19 -72,50 -44,33 -244,108 -313,143 -41,22 -36,9 -88,19 -36,6 -60,20 -89,33 -127,58 -533,75 -585,338 -19,95 13,145 3,217l-5 -6zm-63 -1124l99 78c97,80 270,78 390,53 67,-14 81,-12 129,-42 41,-27 64,-31 103,-53 100,-56 255,-214 326,-312 47,-66 77,-150 102,-215 53,-139 45,-64 61,-254 9,-111 14,-182 3,-301 -8,-97 -16,-204 -22,-301 -6,-98 -22,-179 -30,-278 -19,-234 -44,-677 -20,-923 8,-87 41,-167 55,-250 8,-47 8,-97 19,-143 13,-53 31,-58 47,-109 13,-41 14,-84 30,-125 8,-17 19,-36 30,-53l41 -48c-11,-53 19,-67 39,-101 19,-34 27,-76 44,-112 22,-48 30,-42 55,-101 22,-56 285,-434 332,-490 80,-98 429,-458 585,-546 50,-28 50,-42 96,-73 41,-27 61,-50 89,-67 22,-12 33,-14 56,-30l147 -94c44,-30 66,-28 110,-59 58,-44 42,-19 110,-47 60,-25 36,-39 108,-58 77,-20 55,-20 110,-50 39,-22 88,-22 127,-42 172,-84 67,-17 234,-92 38,-17 75,-25 121,-34 96,-17 158,-59 260,-62 180,-6 113,-45 426,-70 277,-22 1008,-33 1222,37 191,62 190,25 263,58 110,48 163,34 263,67 61,20 41,28 116,42 103,19 49,3 116,48 42,28 75,22 121,39 111,42 323,173 375,190 33,11 38,8 63,22 22,12 30,25 50,34 152,83 129,81 252,156 139,86 429,346 530,446 47,47 274,296 288,352 75,51 83,108 135,176 81,108 157,299 212,391 30,50 20,67 36,122 13,41 33,61 47,95 14,34 16,86 28,129 47,154 16,3 69,237 9,42 28,64 42,100 39,101 42,122 108,192 169,178 478,159 638,-16 122,-134 81,-306 16,-465 -27,-66 -113,-413 -139,-463 -27,-50 -28,-51 -42,-115l-86 -201c-24,-45 -44,-44 -49,-112 -14,-12 -6,-6 -19,-25 -2,-3 -14,-22 -14,-22 -13,-19 -8,-11 -16,-22 -24,-36 -24,-59 -49,-95 -320,-455 -398,-610 -912,-1042 -152,-126 -324,-237 -489,-345l-450 -240c-60,-22 -41,-30 -91,-51 -41,-17 -61,-9 -102,-31l-313 -123c-47,-11 -58,-19 -94,-37 -42,-22 -66,-23 -110,-34 -88,-23 -92,-50 -212,-66 -187,-25 -235,-59 -476,-84 -86,-9 -114,-28 -232,-44 -223,-30 -1193,-51 -1346,8 -56,22 -22,30 -89,34 -133,11 -244,19 -367,62 -66,23 -166,25 -232,47 -41,14 -50,28 -92,39 -45,11 -78,8 -121,25 -36,14 -53,34 -86,45 -50,16 -67,8 -116,31 -116,56 -154,50 -207,83 -34,20 -47,30 -88,41 -83,23 -45,19 -99,48l-188 89c-55,22 -49,33 -83,50 -52,27 -53,5 -105,42 -71,50 -141,67 -244,164 -30,27 -52,34 -85,61 -102,83 -182,117 -313,243 -136,131 -118,95 -292,274 -50,51 -91,92 -135,143 -42,51 -85,94 -130,147 -71,84 -226,331 -282,405l-150 273c-17,34 -19,70 -41,104 -89,137 -17,75 -86,190 -50,86 -111,366 -132,423 -17,45 -28,58 -36,108 -14,83 -16,170 -28,250 -14,84 -41,142 -44,229 -3,92 -3,186 -2,278 3,229 28,278 34,385 14,218 11,410 41,660 14,115 56,376 -36,487 -139,168 -210,100 -318,237 -47,59 -78,94 -80,193 -3,182 61,133 74,206l-2 0zm3142 2188c-33,64 22,-11 -103,67 -52,33 -77,22 -125,44l-456 207c-47,17 -66,41 -113,55l-240 89c-124,50 -241,80 -255,84 -171,75 -80,8 -254,83l-411 98c-166,20 -114,8 -252,70 -172,78 -221,265 -146,451 27,66 116,123 182,159 74,41 204,34 296,25 122,-12 168,-53 270,-64 52,-6 114,-5 155,-22 52,-20 44,-34 114,-47 56,-11 96,-12 149,-28 49,-14 74,-37 136,-41 121,-8 105,-28 182,-61 34,-14 61,-16 92,-25 39,-12 53,-30 89,-44 31,-12 60,-14 96,-25 44,-14 41,-28 86,-45 36,-14 67,-16 103,-31 44,-20 38,-28 89,-44l570 -250c125,-66 96,-33 147,-58 44,-22 14,-23 77,-42 100,-30 152,-61 185,-69 38,-9 74,-12 113,-23 321,-87 386,-36 677,12 114,19 114,25 201,53 66,22 169,11 224,33 129,53 44,31 205,61 75,14 124,41 196,58l389 114c88,44 138,20 216,50 99,39 74,39 208,51 108,9 119,36 197,55 71,17 149,19 213,42 88,31 113,39 219,50 83,9 100,47 194,58 229,28 265,72 423,84 94,6 132,37 212,53 116,22 108,-2 268,47 235,72 138,-5 378,78 45,16 187,27 241,30 82,3 172,6 232,-28 147,-83 80,-30 146,-109 36,-45 33,-16 52,-72 27,-83 36,-267 -38,-342 -19,-20 -39,-44 -61,-59 -63,-50 -207,-95 -293,-100 -161,-9 -215,-39 -321,-62 -61,-12 -86,-3 -218,-33 -34,-8 -69,-23 -102,-33 -136,-36 -158,3 -315,-58 -121,-47 -119,-22 -213,-48 -41,-11 -49,-25 -100,-33 -212,-34 -132,3 -324,-66 -22,-8 -182,-33 -313,-75 -66,-22 -66,2 -216,-50 -77,-27 -127,-25 -212,-44 -71,-16 -80,-41 -194,-59 -182,-30 -97,-47 -191,-64 -105,-19 -124,-3 -212,-48 -74,-39 -129,-23 -207,-48l-392 -114c-74,-16 -158,-20 -221,-45 -138,-53 -163,-11 -315,-59 -213,-66 -726,-31 -929,48l-237 78c-146,66 -102,22 -161,48 -36,16 -27,42 -78,37l-5 -6zm5972 -872c94,5 174,16 270,3 216,-30 390,-260 277,-471 -77,-140 -166,-176 -346,-214l-351 -58c-240,-69 -251,-30 -359,-62 -86,-27 -124,-39 -230,-48 -100,-9 -136,-31 -223,-53 -75,-19 -169,-16 -230,-48 -105,-55 -127,-20 -226,-53 -34,-11 -60,-31 -89,-42 -38,-12 -92,-14 -125,-23l-295 -114c-38,-16 -77,-16 -111,-33 -30,-16 -39,-31 -85,-47l-470 -231c-190,-119 -464,-331 -603,-504 -42,-51 -92,-95 -130,-148l-295 -535c-27,-94 -53,-100 -67,-212 -11,-87 -50,-133 -63,-217 -13,-81 -19,-162 -36,-235 -28,-120 -6,-214 -42,-366 -17,-70 -30,-48 -50,-108 -19,-36 -121,-108 -161,-117 -255,-56 -553,8 -592,274 -11,70 25,466 39,547 14,81 42,145 53,234l25 123c56,129 38,161 69,231 16,33 33,59 45,98l86 215c16,33 41,56 55,89l166 282c212,276 290,388 575,619l254 182c33,22 135,100 182,120 74,31 169,111 293,154 39,14 58,39 88,55l313 134c33,14 83,16 114,31 50,25 25,33 108,51 100,22 132,58 230,72 61,8 88,37 223,67 132,28 139,51 234,69 227,42 91,22 230,59l375 73c42,9 85,8 129,16 81,16 168,39 243,56 88,20 172,11 263,39 83,25 160,36 243,42l-2 2zm-7467 2706c-63,100 -111,56 -110,246 0,128 39,211 121,260 89,56 77,90 285,94 88,2 244,-31 312,-66 39,-20 100,-22 147,-33 47,-12 80,-36 129,-53 49,-19 91,-22 139,-42l270 -104c92,-22 72,-19 136,-58l273 -100c45,-17 74,-45 122,-56 133,-31 42,-2 133,-50 39,-20 97,-17 144,-39 31,-14 22,-19 61,-34 27,-11 47,-12 75,-19 152,-39 97,-61 293,-76 371,-28 503,62 654,78 99,11 75,11 149,31 53,16 111,30 163,36 50,6 107,11 147,30 154,69 238,44 434,115 92,2 360,76 470,114 99,33 94,-2 301,72 49,17 108,14 157,27 118,28 497,125 603,136 224,23 643,207 900,-17 63,-55 114,-151 97,-278 -47,-362 -527,-304 -738,-366 -58,-17 -69,-31 -147,-41 -212,-27 -182,-45 -298,-66 -53,-9 -119,-11 -165,-22 -60,-14 -78,-31 -147,-45 -49,-9 -103,-14 -155,-27 -56,-14 -88,-33 -136,-44 -49,-11 -103,-12 -154,-27 -55,-16 -85,-39 -144,-48 -226,-36 -199,-58 -304,-72 -71,-9 -94,-11 -150,-31l-437 -111c-60,-5 -110,-14 -155,-31 -110,-44 -207,-27 -317,-59 -255,-75 -569,-72 -834,-37l-304 70c-53,17 -66,34 -135,50l-268 92c-55,19 -69,37 -139,55 -77,19 -66,31 -122,56 -52,23 -85,8 -138,45 -56,37 -64,28 -127,51l-265 112c-41,17 -99,20 -143,41 -55,25 -50,31 -129,50 -63,16 -86,34 -139,53 -39,14 -111,22 -149,33 -56,16 -88,34 -133,47 -97,27 -63,39 -132,64l-2 -6zm2821 373c-279,0 -295,36 -508,59 -105,11 -172,48 -302,73 -66,12 -74,36 -133,50 -67,16 -89,8 -144,39l-265 106c-77,23 -69,14 -132,51 -80,48 -119,-19 -246,131 -75,87 -97,161 -72,299 36,201 290,292 486,262 188,-28 224,-78 284,-92 165,-37 64,-11 141,-55 45,-25 92,-17 143,-39l563 -170c215,-44 470,33 682,55 47,5 527,126 605,133 58,5 122,6 172,20 56,14 66,33 141,42 56,6 122,8 179,16 25,3 38,12 71,22 24,8 50,14 67,19 91,22 219,27 318,44 147,25 351,45 481,-56 31,-25 74,-56 96,-87 9,-14 64,-108 69,-120 36,-80 -5,-139 -38,-211 -19,-42 -9,-23 -31,-53 -75,-101 -47,-42 -91,-90 -31,-34 9,-27 -47,-44 -20,-6 -63,-8 -88,-12l-486 -70c-119,-17 -100,-30 -152,-41 -52,-11 -110,-14 -165,-19 -108,-9 -208,-53 -302,-62 -230,-20 -177,-45 -307,-66 -66,-11 -114,-12 -168,-25 -56,-12 -94,-28 -144,-37 -97,-20 -248,-17 -332,-44 -100,-31 -216,-27 -342,-27l-2 -2zm-2749 -2908c0,36 -69,31 -108,47 -34,14 -72,37 -121,48 -64,14 -69,8 -125,33 -72,33 -596,168 -654,178 -147,25 -71,-28 -246,84 -78,50 -113,123 -132,209 -58,273 249,476 552,398 154,-39 63,-30 266,-64 77,-12 94,-34 259,-67 50,-9 75,-28 124,-47 41,-16 94,-14 139,-31 47,-17 55,-33 110,-47 121,-30 136,-53 255,-80 63,-14 74,-34 118,-51 39,-17 83,-14 125,-33 60,-27 307,-153 353,-156 11,-34 -6,-17 44,-37 71,-30 58,-34 143,-76l357 -248c103,-86 230,-187 310,-278 39,-44 83,-148 78,-217 -19,-250 -320,-388 -542,-315 -218,72 -207,151 -428,306l-263 182c-36,23 -58,23 -96,50l-196 104c-77,23 -244,117 -323,114l0 -6zm-74 2536c71,-25 34,-37 132,-64 45,-12 77,-31 133,-47 39,-11 110,-19 149,-33 53,-19 77,-37 139,-53 77,-19 74,-25 129,-50 44,-20 100,-23 143,-41l265 -112c63,-22 72,-12 127,-51 55,-37 86,-22 138,-45 56,-25 45,-36 122,-56 71,-17 85,-36 139,-55l268 -92c69,-17 82,-33 135,-50l304 -70c265,-34 578,-37 834,37 110,33 207,16 317,59 47,19 97,27 155,31l437 111c56,20 80,22 150,31 105,14 78,36 304,72 60,9 89,31 144,48 50,14 105,16 154,27 49,11 80,30 136,44 52,12 108,16 155,27 69,14 88,31 147,45 45,11 110,12 165,22 116,20 86,39 298,66 78,9 89,23 147,41 212,62 691,5 738,366 17,126 -36,223 -97,278 -257,225 -677,41 -900,17 -107,-11 -487,-108 -603,-136 -49,-11 -108,-9 -157,-27 -207,-73 -202,-39 -301,-72 -110,-37 -378,-112 -470,-114 85,90 248,80 302,90 49,9 96,31 138,45 64,22 99,14 171,27 44,8 81,33 129,48 58,20 116,12 169,25 45,11 71,39 129,50 177,36 64,-9 312,64 71,20 122,6 179,19 107,23 22,51 298,70 107,6 248,51 339,42 52,-5 91,-27 146,-39 52,-12 36,-2 67,-31 91,-81 133,-62 193,-279 24,-84 -47,-212 -97,-267 -20,-22 -77,-70 -97,-83 -20,-14 -107,-41 -139,-56 -85,-42 -224,-25 -334,-44 -52,-9 -94,-28 -136,-41 -60,-17 -107,-12 -169,-22 -113,-19 -77,-34 -301,-72 -89,-14 -77,-27 -135,-47 -49,-16 -122,-16 -168,-23 -124,-22 -50,-44 -136,-55 -58,-8 -121,-6 -180,-17 -63,-11 -85,-44 -127,-53 -52,-12 -121,-8 -182,-20 -60,-14 -82,-34 -133,-47 -50,-12 -108,-11 -166,-28 -55,-16 -75,-36 -133,-45 -71,-12 -110,-5 -166,-28 -182,-76 -212,-33 -302,-72 -122,-53 -190,-31 -309,-66 -47,-14 -103,-33 -152,-36 -66,-6 -110,-9 -172,-19 -147,-20 -592,-20 -713,33 -133,59 -129,8 -292,86 -58,28 -89,19 -141,39 -56,22 -53,37 -138,56 -86,19 -75,34 -124,55 -69,28 -86,5 -149,50 -71,51 -66,19 -138,45 -39,14 -60,45 -122,62 -99,28 -82,44 -124,58 -66,23 -50,-5 -147,50 -50,28 -80,23 -138,41 -72,20 -50,45 -135,59 -163,27 -67,37 -290,81 -61,12 -42,11 -74,23 -69,28 -146,39 -171,76 -17,25 -8,5 -19,41l3 -2zm4562 -2208c33,62 64,66 133,75 77,11 88,14 121,62 121,8 155,5 243,55 67,39 139,5 241,61 80,44 174,16 249,51 47,22 39,30 103,41 49,8 91,9 143,16 122,16 9,44 223,62 241,22 107,6 248,58 75,28 185,3 271,34 36,14 63,30 103,39 42,9 94,8 143,14 105,16 125,50 232,61 129,14 141,41 237,64 80,19 210,22 284,-2 45,-14 60,-27 100,-47 47,-23 139,-97 158,-150l33 -111c27,-72 -11,-215 -45,-254 -116,-126 -121,-95 -165,-137 -80,-78 -77,12 -223,-78 -64,-39 -177,-19 -248,-45 -47,-17 -52,-30 -107,-37 -47,-8 -96,-9 -143,-17 -119,-17 -88,-56 -230,-62 -157,-6 -136,-22 -251,-55 -77,-22 -174,-17 -257,-36 -49,-11 -55,-28 -103,-41 -107,-27 -114,11 -246,-53 -85,-42 -163,-5 -246,-56 -107,-66 -163,-23 -246,-55 -49,-19 -27,-34 -94,-48 -45,-9 -85,-3 -133,-19 -50,-16 -60,-37 -107,-48 -44,-11 -80,-8 -119,-23 -50,-20 -42,-39 -107,-51 -218,-45 -28,-33 -226,-75 -67,-16 -55,-28 -92,-50 -55,-33 -30,9 -157,-64 -42,-25 -5,-5 -55,-22 -64,-20 -45,-37 -92,-61 -47,-23 -52,-8 -99,-44 -27,-20 -5,-12 -45,-30l-100 -55c-30,-19 -27,-11 -52,-23 -63,-30 -27,-50 -103,-56 24,37 49,53 88,75 41,23 69,48 96,61l204 98c50,31 30,31 99,58 72,28 190,104 320,139 56,16 60,36 105,51 50,19 83,8 127,33 53,30 36,31 108,48 105,25 154,61 227,72 60,9 74,11 122,34 86,41 155,28 237,64l506 115c94,12 133,50 249,61 121,12 139,39 238,58 110,20 161,19 263,53 86,28 165,25 254,48 92,23 157,48 259,58 113,11 129,48 237,64 78,11 163,47 219,98 139,122 144,349 55,444 -292,309 -580,70 -950,25 -110,-14 -146,-39 -235,-61 -96,-23 -52,11 -266,-48 -83,-23 -166,-30 -251,-50 -326,-73 -675,-143 -992,-245 -119,-37 -74,11 -243,-70 -44,-22 -75,-16 -124,-31 -56,-17 -50,-31 -119,-42l-6 2zm2906 -497c27,34 -49,23 44,30 230,16 281,27 444,-100 116,-90 179,-289 97,-402 -20,-30 -39,-56 -55,-78 -25,-34 -39,-41 -74,-70l-185 -92c-100,-28 -118,8 -353,-58 -36,-9 -81,-19 -121,-23 -94,-14 -154,-9 -246,-31 -58,-14 -34,-23 -97,-34 -41,-8 -86,-8 -133,-12 -116,-11 -138,-33 -226,-55 -75,-19 -150,-6 -202,-37 -124,-78 -141,-23 -255,-55 -71,-20 -36,-33 -83,-50 -36,-14 -86,-8 -129,-16 -77,-17 -27,-23 -85,-48 -39,-17 -74,-12 -121,-22 -85,-16 -41,-31 -94,-53 -34,-14 -83,-9 -122,-22 -63,-20 -27,-33 -81,-51 -52,-19 -63,0 -110,-36 -50,-39 -11,-25 -88,-42 -110,-25 -2,-27 -138,-69 -77,-23 -38,-39 -83,-61 -14,-8 -38,-8 -56,-16 -77,-28 -9,-30 -77,-56 -60,-25 -119,-66 -171,-109 -30,-25 -8,-11 -42,-31 -77,-47 3,-11 -113,-87 -11,-8 -63,-59 -75,-72 -67,-66 -218,-220 -270,-295l-108 -170c-33,-51 -20,-5 -49,-86 -25,-70 -30,-39 -56,-84 -19,-33 -14,-61 -34,-98 -97,-178 -25,-117 -78,-200 -24,-39 -33,-48 -41,-106 -13,-103 16,-122 -28,-175 -20,-25 -14,-6 -30,-45 -47,-128 8,-407 -42,-512 -20,-41 -25,-48 -41,-100 -19,-56 -27,-62 -74,-83 20,59 34,37 50,108 36,153 14,246 42,366 17,73 24,153 36,235 13,84 50,129 63,217 16,112 42,119 67,212l295 535c38,53 88,95 130,148 139,173 414,385 603,504l470 231c45,14 55,31 85,47 34,19 74,19 111,33l295 114c33,8 88,9 125,23 30,11 55,30 89,42 99,33 121,0 226,53 61,31 155,28 230,48 88,22 124,44 223,53 107,9 144,23 230,48 110,33 119,-5 359,62l351 58c180,37 271,73 346,214 114,211 -61,441 -277,471 -96,12 -176,2 -270,-3l0 -8zm-3739 -716c-2,-3 -6,-11 -6,-9l-42 -51c-31,-27 -44,-19 -71,-39 -39,-30 -5,-27 -53,-53 -61,-33 -127,-103 -180,-148 -125,-108 -232,-235 -345,-354l-22 -28c-27,-34 -28,-23 -50,-56l-83 -134c-34,-70 0,-3 -41,-55 -30,-36 -17,-44 -34,-75 -14,-25 -31,-31 -49,-61 -16,-28 -13,-45 -33,-75 -24,-34 -22,-11 -42,-64l-94 -232c-39,-70 -34,-48 -55,-143 -17,-83 -44,-59 -61,-158 -34,-197 -63,-126 -78,-360 -6,-100 -5,-89 -34,-170 -52,-139 -49,-627 -33,-792 8,-92 135,-284 207,-334 52,-34 14,3 55,-50 34,-44 11,-16 60,-39 53,-25 22,-22 61,-45 36,-22 58,-12 89,-25 36,-14 19,-25 60,-44 25,-11 299,-67 370,-67 74,0 132,-8 193,16 130,47 180,9 254,70 41,33 16,16 77,34 91,28 45,66 150,70l-27 -27c-60,-48 -182,-117 -252,-134 -154,-39 -404,-100 -575,-50 -61,17 -94,36 -168,48 -75,12 -85,41 -149,67 -161,64 -395,306 -425,452 -78,388 -30,189 -6,583 17,289 5,147 52,393 11,58 25,125 31,186 13,111 27,84 52,164 24,72 6,98 49,168 39,67 24,101 52,165 16,33 24,28 39,69 13,31 13,55 25,84 11,25 27,37 41,66 16,33 16,50 31,80 17,31 25,25 44,64l122 215c122,179 241,329 395,485 143,145 246,204 351,299 25,23 107,83 149,92l2 2zm3167 -1729l17 16c89,62 365,61 467,66 89,3 188,-2 277,-3 118,-3 226,-55 298,-120 50,-45 25,-11 64,-69 64,-97 71,-37 69,-203 -2,-94 9,-122 -33,-165l-34 -39c-107,-139 -97,-47 -132,-136 -78,-8 -165,-36 -230,-34 -138,2 -354,37 -503,-6 -72,-22 -155,-19 -207,-56 -41,-30 -17,-28 -74,-47 -60,-20 -102,-66 -147,-115 -27,-30 -34,-33 -64,-70 -130,-162 27,-12 -100,-162 -34,-39 -16,-50 -34,-100 -19,-53 -28,-30 -45,-90 -28,-101 6,-108 -49,-203 -36,-62 -25,-140 -60,-203 -36,-67 -41,-154 -69,-197 -91,-139 -8,-62 -86,-179 -31,-48 -16,-48 -36,-98 -20,-50 -34,-30 -55,-76 -19,-42 -11,-59 -39,-92 -60,-67 -19,-16 -55,-80l-171 -226c-25,-30 -31,-53 -77,-64 27,55 60,78 89,123 33,48 47,66 80,114l194 310c13,23 17,51 25,72l125 260c22,73 6,84 41,151 38,70 28,84 42,161 11,55 34,98 49,148 16,55 14,108 45,158 30,48 31,89 60,133 19,30 22,25 42,66 72,142 208,251 346,327 47,27 243,81 307,84 328,14 531,-59 708,97 60,51 125,153 121,259 -3,78 -77,189 -133,235 -165,137 -480,106 -683,103 -160,-3 -207,-45 -351,-48zm-8541 1129c5,66 9,42 72,94 45,37 30,37 107,55 103,25 161,70 274,20 50,-22 78,-14 127,-30 56,-19 215,-115 260,-154l201 -200c49,-39 27,-41 56,-97 31,-59 20,3 60,-109 42,-123 44,11 77,-248 14,-106 44,-179 30,-293 -6,-45 -20,-76 -27,-133l-16 -469c0,-50 2,-106 -2,-154 -6,-81 -22,-84 -33,-129 -20,-73 -24,-502 -9,-616 30,-221 41,-59 45,-278 2,-53 3,-97 14,-145 13,-56 39,-87 49,-123 13,-44 13,-97 27,-131 27,-66 42,-39 50,-133l-41 48c-11,16 -22,34 -30,53 -17,41 -17,84 -30,125 -16,51 -33,56 -47,109 -11,47 -11,97 -19,143 -14,83 -47,164 -55,250 -22,246 2,689 20,923 8,97 24,178 30,278 6,97 14,203 22,301 11,120 6,192 -3,301 -16,190 -8,115 -61,254 -25,66 -55,151 -102,215 -72,98 -226,256 -326,312 -39,22 -63,27 -103,53 -47,30 -63,28 -129,42 -121,25 -293,27 -390,-53l-99 -78 0 -3zm2636 1903c-45,3 -293,129 -353,156 -41,19 -85,16 -125,33 -44,19 -55,37 -118,51 -119,27 -135,50 -255,80 -55,14 -63,30 -110,47 -45,17 -100,16 -139,31 -49,19 -74,37 -124,47 -165,33 -180,55 -259,67 -202,34 -113,23 -266,64 -301,78 -610,-125 -552,-398 19,-86 53,-159 132,-209 174,-111 99,-59 246,-84 58,-9 580,-147 654,-178 56,-25 61,-19 125,-33 49,-11 85,-34 121,-48 39,-16 108,-11 108,-47 -105,-16 -174,58 -260,73 -215,41 -158,64 -266,75 -89,8 -71,-5 -135,34 -50,31 -66,27 -135,34 -135,14 -172,61 -288,69 -80,5 -74,-6 -124,41 -50,45 -52,22 -97,72 -111,122 -19,-25 -100,150 -6,14 -28,53 -28,56 -24,64 -3,95 17,131 58,100 -6,95 89,161 53,36 11,36 99,73 111,48 86,89 356,62 215,-20 103,-45 276,-66 292,-33 97,-45 268,-69 246,-36 82,-20 193,-61 25,-9 55,-11 81,-16 83,-11 53,-20 118,-50 50,-23 89,-16 143,-30 52,-14 44,-36 110,-53 25,-6 45,-8 69,-14 56,-17 30,-14 66,-36 50,-28 83,-19 129,-36 53,-22 30,-33 113,-56 122,-34 24,-33 172,-80 56,-17 49,-33 52,-50l0 5zm-549 1513c-63,5 -88,27 -136,41 -53,16 -92,17 -149,28 -71,12 -63,27 -114,47 -42,16 -103,16 -155,22 -102,12 -147,51 -270,64 -92,9 -223,16 -296,-25 -64,-36 -154,-94 -182,-159 -75,-186 -27,-373 146,-451 139,-62 86,-50 252,-70l411 -98c176,-75 85,-8 254,-83 13,-6 132,-34 255,-84l240 -89c47,-14 66,-36 113,-55l456 -207c49,-22 74,-11 125,-44 125,-76 71,-2 103,-67 -102,9 -100,36 -129,53 -34,22 -86,14 -133,37 -49,23 -20,34 -105,58 -92,27 -31,33 -122,59 -69,20 -63,22 -119,53 -52,30 -75,22 -125,42 -56,22 -38,34 -114,53 -107,25 -60,37 -124,58 -49,14 -92,17 -135,37 -64,31 -27,30 -121,45 -72,12 -77,14 -129,45 -55,33 -89,20 -158,30 -52,8 -69,34 -116,50 -49,17 -110,11 -161,20 -130,23 -8,44 -279,66 -85,6 -72,12 -124,45 -64,41 -49,6 -103,66 -42,45 -58,31 -83,87 -116,265 -64,175 -13,317 9,25 9,50 27,70l85 83c110,67 92,78 251,95l299 -30c94,-11 72,-22 130,-47 44,-19 94,-11 146,-20 47,-9 99,-41 130,-51 111,-39 138,11 260,-89 2,-2 6,-5 9,-8l3 6zm6996 -7255c3,69 25,67 49,112l86 201c14,64 17,66 42,115 27,50 113,398 139,463 66,158 107,331 -16,465 -160,175 -467,193 -638,16 -67,-70 -71,-90 -108,-192 -14,-34 -33,-58 -42,-100 -53,-234 -20,-83 -69,-237 -13,-42 -14,-94 -28,-129 -14,-34 -34,-55 -47,-95 -16,-55 -6,-72 -36,-122 -55,-92 -129,-282 -212,-391 -52,-69 -61,-125 -135,-176 5,73 52,109 116,193l165 306c41,114 22,53 52,104 39,72 -3,123 49,184 77,90 14,128 50,192 22,37 41,31 55,101 9,47 8,90 24,131 20,48 20,9 50,108 20,66 88,128 135,176 49,50 50,22 103,53 85,50 41,55 254,48 86,-3 67,-8 118,-41 36,-23 89,-27 110,-45l75 -81c39,-45 146,-264 66,-343 -33,-33 -25,17 -44,-119 -19,-143 -53,2 -67,-250 -6,-92 -17,-37 -50,-98 -24,-45 -13,-86 -28,-131 -16,-44 -38,-41 -53,-103 -52,-200 -31,-61 -89,-215 -16,-42 -36,-70 -74,-101l0 0zm-7363 5324c78,3 246,-90 323,-114l196 -104c36,-27 60,-27 96,-50l263 -182c221,-153 210,-234 428,-306 223,-73 523,67 542,315 5,70 -39,173 -78,217 -80,90 -207,192 -310,278l-357 248c-85,42 -72,47 -143,76 -50,20 -31,5 -44,37 78,0 124,-53 149,-67 63,-36 36,9 102,-55 38,-37 14,-14 55,-33 67,-30 13,-33 88,-66 75,-33 36,-27 85,-61l88 -70c28,-20 17,-2 45,-25 34,-28 2,-17 41,-44 30,-20 20,-3 47,-25 20,-16 8,-16 41,-44 42,-36 129,-104 154,-145 42,-66 83,-153 77,-237 -3,-41 -58,-182 -135,-237 -138,-97 14,-33 -155,-84 -61,-19 -39,-34 -99,-45 -146,-28 -190,30 -254,50 -94,30 -41,14 -97,59 -60,48 -6,-22 -78,64 -31,36 -9,9 -44,33 -58,42 22,5 -85,72l-514 338c-96,30 -47,30 -99,58 -38,20 -69,11 -119,42 -75,48 -102,34 -165,61 -24,9 -11,2 -25,12 -28,22 -9,-6 -22,30l5 3zm-1656 -362c-3,67 86,128 132,168 49,44 33,25 97,47 45,16 61,39 107,47 138,27 139,-22 229,-45 41,-11 85,-9 129,-19 75,-14 30,-31 232,-70 63,-12 53,-22 102,-44 38,-17 71,-17 113,-30 60,-17 45,-36 105,-53 67,-20 66,5 111,-37 61,-58 30,-17 108,-48 49,-19 30,-36 91,-58 91,-31 36,-25 94,-61 61,-37 2,22 88,-56 0,0 130,-76 171,-119l360 -398c38,-45 -14,-19 55,-90 39,-41 22,-39 41,-100 19,-58 39,-41 55,-90l97 -366c31,-139 41,-48 41,-267 -30,27 -27,64 -41,126 -31,134 -39,231 -86,346 -13,30 -20,83 -31,117l-144 289c-86,143 -287,343 -420,449 -204,162 -221,142 -349,228 -50,34 -33,23 -100,47 -50,19 -58,36 -92,51 -41,19 -66,16 -107,37 -42,22 -53,30 -105,42l-443 139c-265,45 -415,76 -592,-139l-44 -41 0 -3z"/>
   <path class="fil0" d="M12 1335l-3 2046c17,56 -5,9 49,47 24,16 34,33 50,44 52,36 454,20 539,20 103,0 119,8 190,-42 39,-28 88,-69 99,-129l2 -1407c0,-134 -14,-317 42,-415 50,-87 22,-75 82,-147 146,-175 110,-167 302,-287 36,-23 30,-33 69,-51l168 -61c82,-28 1244,-11 1550,-11 88,0 176,11 232,-36 69,-56 75,-87 75,-207 0,-89 19,-533 -22,-596 -41,-61 -81,-22 -89,-98l-1798 6c-3,2 -5,3 -8,5 -135,69 -201,6 -367,87 -50,25 -108,28 -146,48 -55,31 -42,34 -121,59 -47,16 -277,187 -328,228 -210,168 -346,401 -458,639 -25,53 -41,50 -53,128 -24,159 -9,97 -56,131l0 -2z"/>
   <path class="fil0" d="M13705 469c0,370 -24,248 116,451 514,14 1073,5 1595,5 191,0 158,6 271,59 24,11 60,22 83,36l124 92c160,150 193,212 282,393 42,87 27,317 27,434l0 1346c5,42 61,120 89,139 61,41 655,30 721,14 86,-22 45,-48 116,-53l0 -2074c-55,-6 -42,-33 -52,-98 -9,-55 -17,-83 -41,-126 -31,-56 -27,-70 -47,-122l-124 -203c-31,-47 -31,-59 -67,-101l-241 -253c-92,-87 -191,-156 -302,-206 -55,-25 -41,-39 -110,-61 -155,-50 -6,-50 -255,-84 -41,-6 -66,-11 -92,-34l-13 -12c-16,-16 -1819,-6 -2001,-6 -22,34 -16,45 -49,86 -56,70 -31,237 -31,385l2 -5z"/>
   <path class="fil0" d="M12 16705c-28,480 5,1316 -2,1876 -2,150 6,92 28,115 52,58 3,112 71,217 25,39 27,55 42,100 22,67 24,48 53,95l107 182c24,36 38,39 66,78 60,83 135,154 212,223 30,27 124,103 165,125 55,30 44,37 85,59 72,41 125,72 199,94 116,34 19,41 216,73 81,14 50,5 83,55l2022 0c36,-11 13,-3 34,-28 92,-108 69,-87 69,-318 0,-323 55,-432 -100,-555 -45,-36 -130,-22 -196,-22l-1305 0c-199,0 -259,20 -381,-55 -66,-39 -66,-17 -141,-76 -55,-44 -161,-100 -229,-204 -44,-69 -127,-203 -154,-281 -30,-87 -14,-933 -14,-1068 0,-78 16,-589 -11,-639 -94,-168 -249,-115 -544,-115 -185,0 -254,-30 -370,67l-5 3z"/>
   <path class="fil0" d="M15696 19998c143,0 82,-19 132,-44 28,-14 108,-14 146,-27 50,-17 52,-36 124,-58 55,-16 205,-100 229,-120 39,-34 166,-97 285,-221 30,-33 60,-55 89,-92 55,-67 182,-220 219,-299 14,-31 11,-37 30,-66 80,-115 31,-87 77,-178 31,-62 36,-30 47,-119 16,-123 22,-90 53,-109l8 -156c6,-250 9,-1581 -2,-1786 -69,-3 -41,-48 -103,-73 -53,-22 -285,-12 -356,-12 -213,0 -349,-33 -437,66 -58,67 -44,170 -44,279l0 1263c0,84 6,148 -25,218l-58 150c-14,25 -31,34 -49,59 -16,23 -19,39 -36,61 -19,25 -27,23 -47,50 -31,41 -2,17 -45,50 -77,59 -24,37 -114,89 -30,17 -146,114 -271,140 -113,23 -1332,12 -1534,12 -171,0 -174,-20 -249,51 -91,87 -71,75 -71,237l0 373c0,75 -11,137 28,182 69,83 41,73 75,80l1898 0 2 -2z"/>
  </g>
 </g>
</svg>
